<svg width="197" height="197" viewBox="0 0 197 197" fill="none" xmlns="http://www.w3.org/2000/svg">
<g opacity="0.2">
<path d="M66.8988 159.104C53.1707 145.237 54.9486 108.192 71.2222 75.1111C82.5722 52.0348 98.4912 35.8994 112.766 32.9964C118.878 31.7475 124.429 33.0929 128.816 36.8785C143.786 49.7979 142.371 87.9687 125.654 121.959C114.304 145.035 98.3846 161.171 84.1093 164.074C77.9927 165.318 72.4416 163.972 68.055 160.187C67.66 159.845 67.27 159.479 66.8988 159.104ZM129.697 38.2523C129.326 37.8774 128.945 37.5213 128.555 37.1841C124.201 33.4318 118.914 32.1538 112.845 33.3887C98.6877 36.2687 82.8776 52.3244 71.5849 75.2876C55.3876 108.227 53.5683 145.06 67.1789 158.808C67.55 159.183 67.9307 159.539 68.321 159.876C72.67 163.633 77.957 164.911 84.0311 163.672C98.1881 160.792 113.998 144.736 125.291 121.773C141.488 88.8425 143.308 52.0007 129.697 38.2523Z" fill="url(#paint0_linear_139_1518)"/>
<path d="M68.9819 162.765C55.982 149.634 55.7737 114.104 69.1915 79.8654C79.1938 54.3552 94.9551 34.8522 109.343 30.1837C115.057 28.3237 120.215 28.836 124.678 31.6917C140.775 41.9913 142.121 80.3507 127.675 117.195C117.673 142.705 101.912 162.208 87.5283 166.882C81.8147 168.742 76.656 168.229 72.1892 165.369C71.0501 164.645 69.9779 163.771 68.9819 162.765ZM127.619 34.6059C126.637 33.614 125.588 32.754 124.459 32.0306C120.1 29.2415 115.055 28.7486 109.464 30.5621C95.1895 35.2028 79.5325 54.6119 69.5733 80.0137C56.2129 114.092 56.3655 149.442 69.2479 162.455C70.2298 163.446 71.2785 164.306 72.4081 165.03C76.7667 167.819 81.8121 168.312 87.4027 166.498C101.682 161.862 117.339 142.453 127.298 117.051C140.659 82.9641 140.506 47.6234 127.619 34.6059Z" fill="url(#paint1_linear_139_1518)"/>
<path d="M71.364 166.054C58.9608 153.525 56.9305 119.733 67.4894 84.9708C75.9787 57.0212 90.8573 34.6427 105.392 27.9586C110.698 25.5157 115.653 25.2715 120.115 27.2347C137.161 34.7153 141.314 72.7866 129.382 112.094C120.892 140.044 106.014 162.423 91.4788 169.107C86.173 171.55 81.2231 171.789 76.7565 169.831L76.8377 169.647L76.7565 169.831C74.7823 168.966 72.9848 167.691 71.364 166.054ZM125.255 31.3263C123.658 29.7128 121.893 28.462 119.952 27.6117C115.599 25.6915 110.757 25.9363 105.565 28.3231C91.1295 34.9652 76.3412 57.245 67.8854 85.0862C57.3698 119.703 59.3396 153.329 71.6205 165.744C73.2179 167.357 74.9824 168.608 76.9236 169.458C81.2772 171.369 86.1185 171.124 91.3106 168.737C105.746 162.095 120.535 139.816 128.99 111.974C139.506 77.3579 137.536 43.7316 125.255 31.3263Z" fill="url(#paint2_linear_139_1518)"/>
<path d="M73.9659 168.881C62.0701 156.865 58.4055 125.039 66.1401 90.3661C72.8166 60.4524 86.4669 35.3808 100.928 26.4865C105.902 23.4233 110.695 22.4463 115.17 23.5785C132.973 28.0833 139.954 65.3756 130.731 106.709C124.059 136.618 110.4 161.689 95.9432 170.588C90.9696 173.651 86.1765 174.628 81.701 173.496C78.8337 172.764 76.2492 171.188 73.9659 168.881ZM122.668 28.4942C120.422 26.2257 117.885 24.6783 115.069 23.97C110.707 22.8666 106.018 23.8252 101.139 26.8322C86.7676 35.6751 73.1887 60.6478 66.5363 90.4531C57.3621 131.569 64.2113 168.643 81.8022 173.095L81.754 173.293L81.8022 173.095C86.1645 174.199 90.8536 173.24 95.7325 170.233C110.104 161.39 123.683 136.417 130.335 106.612C138.041 72.0807 134.446 40.3917 122.668 28.4942Z" fill="url(#paint3_linear_139_1518)"/>
<path d="M76.6555 171.152C76.0401 170.53 75.439 169.857 74.8525 169.122C64.346 155.975 60.5477 127.26 65.1628 95.9757C71.4937 53.1171 91.5576 19.3845 109.896 20.7849C114.422 21.1335 118.5 23.5434 122.019 27.9432C132.526 41.0904 136.329 69.8008 131.709 101.09C125.383 143.953 105.314 177.681 86.9758 176.28C83.2043 175.992 79.7422 174.27 76.6555 171.152ZM119.927 26.1996C116.91 23.1529 113.533 21.469 109.865 21.1908C91.7349 19.8104 71.8607 53.3833 65.5686 96.0344C60.9682 127.21 64.7388 155.802 75.1749 168.869C78.6191 173.183 82.6022 175.536 87.0061 175.874L86.991 176.077L87.0061 175.874C105.137 177.255 125.011 143.682 131.303 101.031C135.908 69.8506 132.133 41.2631 121.697 28.1965C121.124 27.4759 120.533 26.8118 119.927 26.1996Z" fill="url(#paint4_linear_139_1518)"/>
<path d="M79.4095 172.795C68.0259 161.296 62.2113 133.497 64.5858 101.753C67.8761 57.8729 85.7143 20.715 104.357 18.9201C108.972 18.4758 113.294 20.1834 117.185 23.9901C128.744 35.3057 134.675 63.3091 132.281 95.3079C128.995 139.192 111.157 176.35 92.5099 178.14L92.4874 177.937L92.5099 178.14C87.8942 178.585 83.5727 176.877 79.682 173.07C79.5927 172.98 79.5035 172.89 79.4095 172.795ZM117.182 24.5567C117.088 24.4618 116.998 24.3716 116.909 24.2814C113.103 20.5602 108.895 18.891 104.397 19.3217C85.939 21.0939 68.2622 58.092 64.9918 101.783C62.6071 133.669 68.4873 161.554 79.9668 172.779C83.7682 176.505 87.9719 178.169 92.4695 177.739C110.927 175.967 128.604 138.968 131.875 95.2775C134.244 63.6516 128.481 35.9702 117.182 24.5567Z" fill="url(#paint5_linear_139_1518)"/>
<path d="M82.0962 173.772C71.187 162.752 64.3306 137.441 64.424 107.626C64.553 63.2487 79.8991 23.0515 98.6238 18.0176C103.381 16.7383 107.975 17.772 112.274 21.0802C124.626 30.577 132.542 57.4146 132.442 89.4439C132.309 133.816 116.972 174.014 98.2427 179.052C93.4858 180.332 88.8917 179.298 84.5924 175.99C83.7411 175.329 82.9043 174.588 82.0962 173.772ZM114.5 23.5941C113.696 22.7825 112.874 22.0559 112.032 21.4048C107.831 18.1773 103.355 17.1679 98.7305 18.4101C80.1665 23.3976 64.9583 63.4208 64.8301 107.628C64.7419 137.334 71.547 162.537 82.3763 173.476C83.1797 174.287 84.0024 175.014 84.8443 175.665C89.0449 178.893 93.521 179.902 98.1455 178.66C116.705 173.668 131.908 133.649 132.041 89.4466C132.129 59.7311 125.324 34.5282 114.5 23.5941Z" fill="url(#paint6_linear_139_1518)"/>
<path d="M84.64 174.045C74.2101 163.509 66.5896 140.824 64.6825 113.506C61.5908 69.1883 74.1828 26.399 92.7539 18.1156C97.6759 15.921 102.59 16.2621 107.368 19.1336C120.254 26.8718 130 52.1603 132.189 83.5589C135.281 127.877 122.689 170.666 104.117 178.95C99.1955 181.144 94.2815 180.803 89.5031 177.932C87.8224 176.927 86.1998 175.62 84.64 174.045ZM111.965 23.3216C110.424 21.765 108.821 20.4772 107.163 19.4773C102.507 16.682 97.7162 16.3509 92.922 18.4847C74.4929 26.7028 62.0104 69.3179 65.0887 113.48C67.2734 144.751 76.9356 169.907 89.7126 177.583C94.3687 180.379 99.1599 180.71 103.954 178.576L104.038 178.765L103.954 178.576C122.383 170.358 134.866 127.743 131.787 83.5805C129.884 56.3718 122.32 33.7812 111.965 23.3216Z" fill="url(#paint7_linear_139_1518)"/>
<path d="M86.7678 173.479C83.1549 169.83 79.7613 164.845 76.7229 158.682C71.5017 148.101 67.58 134.496 65.3756 119.342C59.0225 75.6399 68.6503 30.7296 86.8315 19.2332C91.9239 16.0148 97.2099 15.6212 102.529 18.0704C108.969 21.0352 115.063 28.0545 120.158 38.3837C125.379 48.9638 129.301 62.569 131.505 77.7237C137.858 121.425 128.23 166.336 110.049 177.832C104.957 181.05 99.6709 181.444 94.352 178.995C91.7514 177.801 89.2109 175.947 86.7678 173.479ZM109.729 23.8156C107.366 21.4285 104.896 19.6075 102.352 18.4425C97.1605 16.0553 92.0115 16.4355 87.0422 19.579C68.9842 31.0005 59.4424 75.7223 65.7725 119.287C70.1356 149.313 81.4174 172.602 94.5144 178.627C99.7061 181.015 104.855 180.634 109.824 177.491C127.882 166.069 137.424 121.348 131.094 77.783C127.58 53.5789 119.563 33.7484 109.729 23.8156Z" fill="url(#paint8_linear_139_1518)"/>
<path d="M88.3848 172.104C79.1717 162.797 71.2474 146.06 66.4989 125.042C56.8911 82.5234 63.3631 36.02 80.9132 21.3803C86.0867 17.0668 91.9199 15.8401 97.7842 17.8245C111.375 22.4309 123.864 43.2 130.372 72.0232C139.975 114.547 133.508 161.055 115.953 175.69L115.826 175.533L115.953 175.69C110.78 180.003 104.946 181.23 99.0821 179.245C95.4052 177.999 91.8098 175.563 88.3848 172.104ZM108.216 25.2482C104.838 21.836 101.285 19.4335 97.6548 18.2064C91.8518 16.2364 86.3069 17.4126 81.1761 21.6933C63.7256 36.2438 57.3206 82.5681 66.896 124.959C71.6259 145.911 79.5081 162.577 88.6601 171.822C92.0381 175.234 95.5912 177.636 99.221 178.864C105.024 180.834 110.569 179.657 115.7 175.377C133.15 160.826 139.555 114.502 129.98 72.111C125.245 51.1636 117.368 34.4929 108.216 25.2482Z" fill="url(#paint9_linear_139_1518)"/>
<path d="M89.4111 169.941C81.039 161.485 73.4397 147.705 68.0485 130.546C55.2446 89.7635 58.3976 42.214 75.094 24.5478C80.3731 18.9646 86.6312 16.8098 93.1872 18.3255C106.818 21.4635 120.471 39.9341 128.823 66.5284C141.631 107.307 138.474 154.861 121.777 172.527C116.498 178.11 110.24 180.265 103.684 178.749C98.8496 177.634 94.0106 174.588 89.4111 169.941ZM107.18 27.4104C102.632 22.8165 97.8593 19.8176 93.0956 18.717C86.681 17.2397 80.56 19.3527 75.3901 24.8279C58.7885 42.4001 55.6696 89.7656 68.4364 130.425C76.7462 156.883 90.291 175.244 103.776 178.348C110.19 179.825 116.311 177.712 121.481 172.237C138.083 154.665 141.202 107.3 128.435 66.6397C123.062 49.5377 115.501 35.8151 107.18 27.4104Z" fill="url(#paint10_linear_139_1518)"/>
<path d="M89.3978 166.938C82.2096 159.677 75.5013 149.019 70.0196 135.765C54.0922 97.2846 53.8335 49.2599 69.4347 28.722C74.7397 21.7411 81.4139 18.5543 88.7519 19.5026C102.517 21.286 116.761 36.9075 126.856 61.2959C142.784 99.7853 143.047 147.805 127.446 168.343C122.141 175.324 115.467 178.511 108.129 177.563C101.834 176.747 95.4443 173.046 89.3978 166.938ZM107.184 30.4042C101.203 24.3629 94.8987 20.7093 88.698 19.9037C81.5156 18.9798 74.9645 22.1106 69.7594 28.9644C54.2342 49.3989 54.5221 97.2443 70.3982 135.606C80.4379 159.862 94.559 175.388 108.178 177.157C115.356 178.085 121.907 174.955 127.117 168.096C142.642 147.662 142.354 99.8162 126.478 61.4545C121.015 48.2477 114.335 37.6272 107.184 30.4042Z" fill="url(#paint11_linear_139_1518)"/>
<path d="M88.4018 163.122C82.6841 157.347 77.2259 149.745 72.3985 140.645C53.4773 104.988 49.7189 57.092 64.0162 33.8701C69.239 25.3919 76.3157 21.0455 84.4882 21.3086C98.095 21.7454 113.045 34.8725 124.477 56.4249C143.394 92.0773 147.152 139.973 132.86 163.19C127.637 171.669 120.56 176.015 112.388 175.752C104.531 175.505 96.2195 171.019 88.4018 163.122ZM108.18 34.2199C100.442 26.4037 92.2338 21.9662 84.4767 21.7146C76.46 21.457 69.5017 25.7332 64.3598 34.0843C50.1339 57.198 53.898 104.91 72.7584 140.449C84.1252 161.868 98.9434 174.919 112.404 175.351C120.421 175.608 127.379 171.332 132.521 162.981C146.742 139.872 142.973 92.1554 124.117 56.612C119.299 47.5402 113.869 39.967 108.18 34.2199Z" fill="url(#paint12_linear_139_1518)"/>
<path d="M86.1013 158.606C82.2958 154.762 78.6118 150.234 75.1527 145.098C53.4192 112.789 46.1297 65.6256 58.9047 39.9547C63.904 29.903 71.3365 24.2833 80.3917 23.6915C93.7643 22.8191 109.214 33.3941 121.714 51.9722C143.452 84.2767 150.742 131.44 137.967 157.111C132.967 167.162 125.535 172.782 116.475 173.378C106.806 174.005 96.0473 168.653 86.1013 158.606ZM110.471 38.7363C100.614 28.7798 89.9739 23.4706 80.418 24.0977C71.514 24.6809 64.1952 30.2255 59.2627 40.1359C46.5497 65.6891 53.8259 112.668 75.4892 144.868C87.9097 163.328 103.222 173.831 116.449 172.972C125.353 172.389 132.671 166.844 137.604 156.934C150.317 131.381 143.041 84.4021 121.377 52.2019C117.932 47.0706 114.258 42.5614 110.471 38.7363Z" fill="url(#paint13_linear_139_1518)"/>
<path d="M82.8048 153.995C81.2732 152.448 79.761 150.806 78.2682 149.061C53.9229 120.587 43.1135 74.7665 54.1711 46.9148C58.7195 35.4489 66.6323 28.2356 76.4435 26.604C89.7189 24.3995 105.078 32.1974 118.593 48.0041C142.939 76.478 153.748 122.299 142.691 150.15C138.142 161.616 130.229 168.83 120.418 170.461C108.613 172.423 95.1516 166.467 82.8048 153.995ZM113.772 43.3522C101.524 30.9801 88.1903 25.0671 76.5123 27.0057C66.7058 28.6327 59.1109 35.5689 54.5481 47.0678C43.5383 74.797 54.3204 120.429 78.5764 148.803C91.9978 164.496 107.225 172.246 120.354 170.064C130.161 168.437 137.755 161.501 142.318 150.002C153.328 122.273 142.551 76.6366 118.29 48.267C116.807 46.5313 115.299 44.8946 113.772 43.3522Z" fill="url(#paint14_linear_139_1518)"/>
<path d="M78.2676 149.184C53.7948 124.463 41.1354 83.1146 49.8963 54.6894C53.8998 41.7144 61.962 32.9625 72.6013 30.0412C85.5246 26.4939 101.034 31.7946 115.159 44.5822C141.868 68.7709 156.144 112.645 146.98 142.381C142.981 155.351 134.919 164.103 124.275 167.029C111.351 170.576 95.8424 165.275 81.7169 152.488C80.5418 151.424 79.3905 150.318 78.2676 149.184ZM118.319 48.1727C117.196 47.0385 116.054 45.942 114.884 44.883C100.871 32.1904 85.4988 26.9235 72.708 30.4336C62.2058 33.3132 54.2432 41.9758 50.2876 54.8094C41.5652 83.1026 54.183 124.276 78.5571 148.897C79.6799 150.031 80.8219 151.128 81.9923 152.187C96.0049 164.88 111.377 170.146 124.168 166.636C134.67 163.757 142.637 155.099 146.588 142.261C155.306 113.963 142.688 72.7888 118.319 48.1727Z" fill="url(#paint15_linear_139_1518)"/>
<path d="M73.2215 145.083C51.8965 123.542 40.0962 89.7533 46.1326 63.189C49.3968 48.8598 57.4387 38.5023 68.7753 34.0262C81.3137 29.0745 96.8587 31.8963 111.419 41.7632C140.21 61.2686 157.852 102.591 150.739 133.876C147.484 148.205 139.442 158.563 128.096 163.039C115.558 167.991 100.013 165.169 85.4521 155.302C81.1085 152.357 77.0129 148.913 73.2215 145.083ZM123.374 52.2733C119.597 48.4578 115.52 45.0326 111.191 42.0926C96.7433 32.3113 81.3352 29.5043 68.9245 34.4047C57.7157 38.8295 49.7593 49.0836 46.5335 63.2807C39.4589 94.4155 57.0162 135.548 85.6852 154.968C100.133 164.759 115.536 167.561 127.951 162.665C139.16 158.24 147.117 147.986 150.342 133.789C156.35 107.357 144.601 73.7145 123.374 52.2733Z" fill="url(#paint16_linear_139_1518)"/>
<path d="M68.019 142.059C49.837 123.693 39.293 96.4404 42.9417 72.3338C45.2861 56.895 53.0811 44.9307 64.8848 38.6484C77.1857 32.0995 92.2993 32.4353 107.426 39.5993C137.99 54.0611 158.848 92.2543 153.925 124.736C151.585 140.17 143.795 152.139 131.991 158.422C119.69 164.97 104.577 164.635 89.4504 157.471C81.5691 153.743 74.3333 148.437 68.019 142.059ZM128.572 55.3028C122.291 48.9577 115.093 43.68 107.254 39.9667C92.2405 32.86 77.2639 32.5201 65.0766 39.0036C53.3865 45.2298 45.6676 57.0811 43.3475 72.3925C39.7136 96.3717 50.2111 123.491 68.299 141.762C74.5805 148.108 81.7787 153.385 89.6175 157.098C104.631 164.205 119.608 164.545 131.8 158.057C143.49 151.831 151.209 139.979 153.529 124.668C157.158 100.694 146.66 73.5738 128.572 55.3028Z" fill="url(#paint17_linear_139_1518)"/>
<path d="M63.036 140.385C47.8656 125.062 38.7153 103.289 40.3854 82.0153C41.6616 65.8297 48.9307 52.3471 60.8578 44.0633C72.7186 35.8263 87.7643 33.7205 103.235 38.1285C135.224 47.2521 159.114 81.7584 156.491 115.045C155.219 131.236 147.945 144.713 136.018 152.997C124.157 161.234 109.112 163.34 93.6408 158.932C82.0977 155.644 71.6055 149.042 63.036 140.385ZM133.555 56.9664C125.033 48.3577 114.597 41.7934 103.115 38.5198C87.7716 34.1455 72.8441 36.2283 61.0875 44.3997C49.2646 52.6085 42.0575 65.9829 40.7914 82.0457C38.1881 115.153 61.942 149.465 93.7514 158.541C109.1 162.92 124.032 160.832 135.784 152.666C147.607 144.447 154.814 131.082 156.08 115.02C157.745 93.8636 148.646 72.2097 133.555 56.9664Z" fill="url(#paint18_linear_139_1518)"/>
<path d="M58.5887 140.221C46.162 127.669 38.3773 110.399 38.5023 92.1299C38.6137 75.6316 45.063 60.8462 56.6606 50.4925C68.0305 40.3453 83.0228 35.6988 98.8757 37.3983C131.912 40.9362 158.605 71.2398 158.374 104.94C158.262 121.438 151.808 136.228 140.206 146.577C128.836 156.725 113.844 161.371 97.9908 159.672C82.8742 158.051 69.075 150.814 58.5887 140.221ZM138.002 57.1305C127.577 46.5997 113.868 39.4145 98.8358 37.8042C83.0963 36.1147 68.2127 40.7287 56.9329 50.796C45.416 61.0699 39.0145 75.7516 38.9084 92.132C38.6783 125.634 65.2064 155.743 98.0401 159.266C113.78 160.955 128.659 156.336 139.938 146.269C151.455 135.995 157.857 121.314 157.963 104.933C158.092 86.7729 150.349 69.6022 138.002 57.1305Z" fill="url(#paint19_linear_139_1518)"/>
</g>
<defs>
<linearGradient id="paint0_linear_139_1518" x1="68.6765" y1="68.472" x2="128.196" y2="128.594" gradientUnits="userSpaceOnUse">
<stop stop-color="#35E0CD"/>
<stop offset="0.0169" stop-color="#3FE0C5"/>
<stop offset="0.1013" stop-color="#6BE29F"/>
<stop offset="0.1919" stop-color="#93E47E"/>
<stop offset="0.2873" stop-color="#B4E562"/>
<stop offset="0.3891" stop-color="#CFE64B"/>
<stop offset="0.4994" stop-color="#E4E739"/>
<stop offset="0.6227" stop-color="#F3E82D"/>
<stop offset="0.7693" stop-color="#FBE825"/>
<stop offset="0.9994" stop-color="#FEE823"/>
</linearGradient>
<linearGradient id="paint1_linear_139_1518" x1="67.0701" y1="66.8493" x2="129.802" y2="130.216" gradientUnits="userSpaceOnUse">
<stop stop-color="#35E0CD"/>
<stop offset="0.0169" stop-color="#3FE0C5"/>
<stop offset="0.1013" stop-color="#6BE29F"/>
<stop offset="0.1919" stop-color="#93E47E"/>
<stop offset="0.2873" stop-color="#B4E562"/>
<stop offset="0.3891" stop-color="#CFE64B"/>
<stop offset="0.4994" stop-color="#E4E739"/>
<stop offset="0.6227" stop-color="#F3E82D"/>
<stop offset="0.7693" stop-color="#FBE825"/>
<stop offset="0.9994" stop-color="#FEE823"/>
</linearGradient>
<linearGradient id="paint2_linear_139_1518" x1="65.116" y1="64.8754" x2="131.756" y2="132.19" gradientUnits="userSpaceOnUse">
<stop stop-color="#35E0CD"/>
<stop offset="0.0169" stop-color="#3FE0C5"/>
<stop offset="0.1013" stop-color="#6BE29F"/>
<stop offset="0.1919" stop-color="#93E47E"/>
<stop offset="0.2873" stop-color="#B4E562"/>
<stop offset="0.3891" stop-color="#CFE64B"/>
<stop offset="0.4994" stop-color="#E4E739"/>
<stop offset="0.6227" stop-color="#F3E82D"/>
<stop offset="0.7693" stop-color="#FBE825"/>
<stop offset="0.9994" stop-color="#FEE823"/>
</linearGradient>
<linearGradient id="paint3_linear_139_1518" x1="62.9874" y1="62.7251" x2="133.885" y2="134.341" gradientUnits="userSpaceOnUse">
<stop stop-color="#35E0CD"/>
<stop offset="0.0169" stop-color="#3FE0C5"/>
<stop offset="0.1013" stop-color="#6BE29F"/>
<stop offset="0.1919" stop-color="#93E47E"/>
<stop offset="0.2873" stop-color="#B4E562"/>
<stop offset="0.3891" stop-color="#CFE64B"/>
<stop offset="0.4994" stop-color="#E4E739"/>
<stop offset="0.6227" stop-color="#F3E82D"/>
<stop offset="0.7693" stop-color="#FBE825"/>
<stop offset="0.9994" stop-color="#FEE823"/>
</linearGradient>
<linearGradient id="paint4_linear_139_1518" x1="60.8034" y1="60.5191" x2="136.069" y2="136.547" gradientUnits="userSpaceOnUse">
<stop stop-color="#35E0CD"/>
<stop offset="0.0169" stop-color="#3FE0C5"/>
<stop offset="0.1013" stop-color="#6BE29F"/>
<stop offset="0.1919" stop-color="#93E47E"/>
<stop offset="0.2873" stop-color="#B4E562"/>
<stop offset="0.3891" stop-color="#CFE64B"/>
<stop offset="0.4994" stop-color="#E4E739"/>
<stop offset="0.6227" stop-color="#F3E82D"/>
<stop offset="0.7693" stop-color="#FBE825"/>
<stop offset="0.9994" stop-color="#FEE823"/>
</linearGradient>
<linearGradient id="paint5_linear_139_1518" x1="58.584" y1="58.2772" x2="138.288" y2="138.788" gradientUnits="userSpaceOnUse">
<stop stop-color="#35E0CD"/>
<stop offset="0.0169" stop-color="#3FE0C5"/>
<stop offset="0.1013" stop-color="#6BE29F"/>
<stop offset="0.1919" stop-color="#93E47E"/>
<stop offset="0.2873" stop-color="#B4E562"/>
<stop offset="0.3891" stop-color="#CFE64B"/>
<stop offset="0.4994" stop-color="#E4E739"/>
<stop offset="0.6227" stop-color="#F3E82D"/>
<stop offset="0.7693" stop-color="#FBE825"/>
<stop offset="0.9994" stop-color="#FEE823"/>
</linearGradient>
<linearGradient id="paint6_linear_139_1518" x1="56.4417" y1="56.1133" x2="140.431" y2="140.952" gradientUnits="userSpaceOnUse">
<stop stop-color="#35E0CD"/>
<stop offset="0.0169" stop-color="#3FE0C5"/>
<stop offset="0.1013" stop-color="#6BE29F"/>
<stop offset="0.1919" stop-color="#93E47E"/>
<stop offset="0.2873" stop-color="#B4E562"/>
<stop offset="0.3891" stop-color="#CFE64B"/>
<stop offset="0.4994" stop-color="#E4E739"/>
<stop offset="0.6227" stop-color="#F3E82D"/>
<stop offset="0.7693" stop-color="#FBE825"/>
<stop offset="0.9994" stop-color="#FEE823"/>
</linearGradient>
<linearGradient id="paint7_linear_139_1518" x1="54.4468" y1="54.0981" x2="142.426" y2="142.967" gradientUnits="userSpaceOnUse">
<stop stop-color="#35E0CD"/>
<stop offset="0.0169" stop-color="#3FE0C5"/>
<stop offset="0.1013" stop-color="#6BE29F"/>
<stop offset="0.1919" stop-color="#93E47E"/>
<stop offset="0.2873" stop-color="#B4E562"/>
<stop offset="0.3891" stop-color="#CFE64B"/>
<stop offset="0.4994" stop-color="#E4E739"/>
<stop offset="0.6227" stop-color="#F3E82D"/>
<stop offset="0.7693" stop-color="#FBE825"/>
<stop offset="0.9994" stop-color="#FEE823"/>
</linearGradient>
<linearGradient id="paint8_linear_139_1518" x1="52.6579" y1="52.2912" x2="144.214" y2="144.774" gradientUnits="userSpaceOnUse">
<stop stop-color="#35E0CD"/>
<stop offset="0.0169" stop-color="#3FE0C5"/>
<stop offset="0.1013" stop-color="#6BE29F"/>
<stop offset="0.1919" stop-color="#93E47E"/>
<stop offset="0.2873" stop-color="#B4E562"/>
<stop offset="0.3891" stop-color="#CFE64B"/>
<stop offset="0.4994" stop-color="#E4E739"/>
<stop offset="0.6227" stop-color="#F3E82D"/>
<stop offset="0.7693" stop-color="#FBE825"/>
<stop offset="0.9994" stop-color="#FEE823"/>
</linearGradient>
<linearGradient id="paint9_linear_139_1518" x1="51.1231" y1="50.7409" x2="145.749" y2="146.325" gradientUnits="userSpaceOnUse">
<stop stop-color="#35E0CD"/>
<stop offset="0.0169" stop-color="#3FE0C5"/>
<stop offset="0.1013" stop-color="#6BE29F"/>
<stop offset="0.1919" stop-color="#93E47E"/>
<stop offset="0.2873" stop-color="#B4E562"/>
<stop offset="0.3891" stop-color="#CFE64B"/>
<stop offset="0.4994" stop-color="#E4E739"/>
<stop offset="0.6227" stop-color="#F3E82D"/>
<stop offset="0.7693" stop-color="#FBE825"/>
<stop offset="0.9994" stop-color="#FEE823"/>
</linearGradient>
<linearGradient id="paint10_linear_139_1518" x1="49.88" y1="49.4851" x2="146.992" y2="147.581" gradientUnits="userSpaceOnUse">
<stop stop-color="#35E0CD"/>
<stop offset="0.0169" stop-color="#3FE0C5"/>
<stop offset="0.1013" stop-color="#6BE29F"/>
<stop offset="0.1919" stop-color="#93E47E"/>
<stop offset="0.2873" stop-color="#B4E562"/>
<stop offset="0.3891" stop-color="#CFE64B"/>
<stop offset="0.4994" stop-color="#E4E739"/>
<stop offset="0.6227" stop-color="#F3E82D"/>
<stop offset="0.7693" stop-color="#FBE825"/>
<stop offset="0.9994" stop-color="#FEE823"/>
</linearGradient>
<linearGradient id="paint11_linear_139_1518" x1="48.958" y1="48.5539" x2="147.914" y2="148.512" gradientUnits="userSpaceOnUse">
<stop stop-color="#35E0CD"/>
<stop offset="0.0169" stop-color="#3FE0C5"/>
<stop offset="0.1013" stop-color="#6BE29F"/>
<stop offset="0.1919" stop-color="#93E47E"/>
<stop offset="0.2873" stop-color="#B4E562"/>
<stop offset="0.3891" stop-color="#CFE64B"/>
<stop offset="0.4994" stop-color="#E4E739"/>
<stop offset="0.6227" stop-color="#F3E82D"/>
<stop offset="0.7693" stop-color="#FBE825"/>
<stop offset="0.9994" stop-color="#FEE823"/>
</linearGradient>
<linearGradient id="paint12_linear_139_1518" x1="48.3768" y1="47.9668" x2="148.495" y2="149.099" gradientUnits="userSpaceOnUse">
<stop stop-color="#35E0CD"/>
<stop offset="0.0169" stop-color="#3FE0C5"/>
<stop offset="0.1013" stop-color="#6BE29F"/>
<stop offset="0.1919" stop-color="#93E47E"/>
<stop offset="0.2873" stop-color="#B4E562"/>
<stop offset="0.3891" stop-color="#CFE64B"/>
<stop offset="0.4994" stop-color="#E4E739"/>
<stop offset="0.6227" stop-color="#F3E82D"/>
<stop offset="0.7693" stop-color="#FBE825"/>
<stop offset="0.9994" stop-color="#FEE823"/>
</linearGradient>
<linearGradient id="paint13_linear_139_1518" x1="48.149" y1="47.7366" x2="148.723" y2="149.329" gradientUnits="userSpaceOnUse">
<stop stop-color="#35E0CD"/>
<stop offset="0.0169" stop-color="#3FE0C5"/>
<stop offset="0.1013" stop-color="#6BE29F"/>
<stop offset="0.1919" stop-color="#93E47E"/>
<stop offset="0.2873" stop-color="#B4E562"/>
<stop offset="0.3891" stop-color="#CFE64B"/>
<stop offset="0.4994" stop-color="#E4E739"/>
<stop offset="0.6227" stop-color="#F3E82D"/>
<stop offset="0.7693" stop-color="#FBE825"/>
<stop offset="0.9994" stop-color="#FEE823"/>
</linearGradient>
<linearGradient id="paint14_linear_139_1518" x1="48.3188" y1="47.9083" x2="148.553" y2="149.157" gradientUnits="userSpaceOnUse">
<stop stop-color="#35E0CD"/>
<stop offset="0.0169" stop-color="#3FE0C5"/>
<stop offset="0.1013" stop-color="#6BE29F"/>
<stop offset="0.1919" stop-color="#93E47E"/>
<stop offset="0.2873" stop-color="#B4E562"/>
<stop offset="0.3891" stop-color="#CFE64B"/>
<stop offset="0.4994" stop-color="#E4E739"/>
<stop offset="0.6227" stop-color="#F3E82D"/>
<stop offset="0.7693" stop-color="#FBE825"/>
<stop offset="0.9994" stop-color="#FEE823"/>
</linearGradient>
<linearGradient id="paint15_linear_139_1518" x1="48.8055" y1="48.3998" x2="148.067" y2="148.666" gradientUnits="userSpaceOnUse">
<stop stop-color="#35E0CD"/>
<stop offset="0.0169" stop-color="#3FE0C5"/>
<stop offset="0.1013" stop-color="#6BE29F"/>
<stop offset="0.1919" stop-color="#93E47E"/>
<stop offset="0.2873" stop-color="#B4E562"/>
<stop offset="0.3891" stop-color="#CFE64B"/>
<stop offset="0.4994" stop-color="#E4E739"/>
<stop offset="0.6227" stop-color="#F3E82D"/>
<stop offset="0.7693" stop-color="#FBE825"/>
<stop offset="0.9994" stop-color="#FEE823"/>
</linearGradient>
<linearGradient id="paint16_linear_139_1518" x1="49.6241" y1="49.2267" x2="147.248" y2="147.839" gradientUnits="userSpaceOnUse">
<stop stop-color="#35E0CD"/>
<stop offset="0.0169" stop-color="#3FE0C5"/>
<stop offset="0.1013" stop-color="#6BE29F"/>
<stop offset="0.1919" stop-color="#93E47E"/>
<stop offset="0.2873" stop-color="#B4E562"/>
<stop offset="0.3891" stop-color="#CFE64B"/>
<stop offset="0.4994" stop-color="#E4E739"/>
<stop offset="0.6227" stop-color="#F3E82D"/>
<stop offset="0.7693" stop-color="#FBE825"/>
<stop offset="0.9994" stop-color="#FEE823"/>
</linearGradient>
<linearGradient id="paint17_linear_139_1518" x1="50.7457" y1="50.3595" x2="146.127" y2="146.706" gradientUnits="userSpaceOnUse">
<stop stop-color="#35E0CD"/>
<stop offset="0.0169" stop-color="#3FE0C5"/>
<stop offset="0.1013" stop-color="#6BE29F"/>
<stop offset="0.1919" stop-color="#93E47E"/>
<stop offset="0.2873" stop-color="#B4E562"/>
<stop offset="0.3891" stop-color="#CFE64B"/>
<stop offset="0.4994" stop-color="#E4E739"/>
<stop offset="0.6227" stop-color="#F3E82D"/>
<stop offset="0.7693" stop-color="#FBE825"/>
<stop offset="0.9994" stop-color="#FEE823"/>
</linearGradient>
<linearGradient id="paint18_linear_139_1518" x1="52.124" y1="51.7519" x2="144.748" y2="145.314" gradientUnits="userSpaceOnUse">
<stop stop-color="#35E0CD"/>
<stop offset="0.0169" stop-color="#3FE0C5"/>
<stop offset="0.1013" stop-color="#6BE29F"/>
<stop offset="0.1919" stop-color="#93E47E"/>
<stop offset="0.2873" stop-color="#B4E562"/>
<stop offset="0.3891" stop-color="#CFE64B"/>
<stop offset="0.4994" stop-color="#E4E739"/>
<stop offset="0.6227" stop-color="#F3E82D"/>
<stop offset="0.7693" stop-color="#FBE825"/>
<stop offset="0.9994" stop-color="#FEE823"/>
</linearGradient>
<linearGradient id="paint19_linear_139_1518" x1="53.6897" y1="53.3335" x2="143.183" y2="143.732" gradientUnits="userSpaceOnUse">
<stop stop-color="#35E0CD"/>
<stop offset="0.0169" stop-color="#3FE0C5"/>
<stop offset="0.1013" stop-color="#6BE29F"/>
<stop offset="0.1919" stop-color="#93E47E"/>
<stop offset="0.2873" stop-color="#B4E562"/>
<stop offset="0.3891" stop-color="#CFE64B"/>
<stop offset="0.4994" stop-color="#E4E739"/>
<stop offset="0.6227" stop-color="#F3E82D"/>
<stop offset="0.7693" stop-color="#FBE825"/>
<stop offset="0.9994" stop-color="#FEE823"/>
</linearGradient>
</defs>
</svg>
