<svg width="193" height="189" viewBox="0 0 193 189" fill="none" xmlns="http://www.w3.org/2000/svg">
<path d="M148.025 139.276C131.349 149.408 95.7299 139.074 67.3333 115.562C47.5244 99.1621 35.5278 79.9307 36.0199 65.3715C36.2248 59.1367 38.8227 54.0499 43.5237 50.6625C59.5668 39.1027 96.365 49.3452 125.543 73.5001C145.352 89.8996 157.348 109.131 156.856 123.69C156.646 129.929 154.048 135.015 149.347 138.403C148.922 138.707 148.476 139.002 148.025 139.276ZM45.0645 50.1249C44.6137 50.3988 44.1789 50.6864 43.7603 50.9876C39.0993 54.3507 36.6282 59.1963 36.4197 65.3865C35.9327 79.8253 47.8771 98.9323 67.5893 115.25C95.8661 138.655 131.269 148.98 147.802 138.935C148.253 138.661 148.688 138.373 149.107 138.072C153.771 134.715 156.242 129.869 156.447 123.673C156.934 109.234 144.99 90.1273 125.278 73.8097C97.0099 50.4067 61.5982 40.0798 45.0645 50.1249Z" fill="url(#paint0_linear_139_1582)"/>
<path d="M152.07 138.1C136.278 147.694 101.671 139.645 71.4859 118.641C48.9967 102.987 33.6879 83.127 32.4889 68.0481C32.0069 62.0587 33.7034 57.1601 37.5174 53.4833C51.2743 40.2183 88.8973 47.8186 121.379 70.4275C143.868 86.0815 159.177 105.942 160.381 121.017C160.863 127.007 159.167 131.905 155.347 135.585C154.379 136.525 153.279 137.365 152.07 138.1ZM41.0351 51.2993C39.8423 52.024 38.7622 52.8443 37.7962 53.775C34.071 57.3666 32.4197 62.1595 32.885 68.0184C34.0833 82.9805 49.325 102.717 71.7188 118.304C101.762 139.215 136.18 147.277 151.83 137.769C153.022 137.045 154.102 136.224 155.068 135.294C158.794 131.702 160.445 126.909 159.98 121.05C158.787 106.085 143.545 86.3478 121.151 70.7609C91.0995 49.8484 56.6899 41.7883 41.0351 51.2993Z" fill="url(#paint1_linear_139_1582)"/>
<path d="M155.822 136.547C140.755 145.701 107.416 139.827 76.0565 121.483C50.843 106.733 32.5324 87.0639 29.4072 71.3738C28.2634 65.6458 29.1767 60.7699 32.1227 56.886C43.3581 42.043 81.3527 46.8468 116.814 67.5827C142.027 82.3317 160.338 102.001 163.463 117.691C164.607 123.419 163.69 128.29 160.748 132.179L160.588 132.058L160.748 132.179C159.448 133.899 157.791 135.351 155.822 136.547ZM37.2963 52.8363C35.3559 54.0152 33.7295 55.4409 32.4516 57.1316C29.5727 60.92 28.6863 65.6858 29.8019 71.2903C32.9093 86.874 51.1449 106.433 76.2607 121.124C107.488 139.392 140.652 145.287 155.58 136.225C157.52 135.046 159.147 133.621 160.425 131.93C163.294 128.139 164.181 123.374 163.065 117.769C159.958 102.185 141.722 82.6266 116.606 67.9354C85.3791 49.667 52.2149 43.7726 37.2963 52.8363Z" fill="url(#paint2_linear_139_1582)"/>
<path d="M159.177 134.673C144.726 143.453 112.919 139.625 80.9908 124.048C53.4459 110.606 32.2306 91.5058 26.9384 75.3742C25.1142 69.8251 25.2773 64.9362 27.418 60.8461C35.9347 44.5762 73.8284 46.4486 111.889 65.0194C139.43 78.4556 160.643 97.5651 165.941 113.693C167.766 119.242 167.602 124.131 165.462 128.221C164.083 130.84 161.95 132.988 159.177 134.673ZM33.9407 54.6954C31.2127 56.3528 29.1182 58.4614 27.7753 61.0353C25.6889 65.0221 25.5321 69.8056 27.3236 75.2495C32.5867 91.2817 53.7225 110.29 81.1674 123.683C119.028 142.156 156.679 144.106 165.095 128.03L165.277 128.123L165.095 128.03C167.182 124.043 167.338 119.26 165.547 113.816C160.284 97.7835 139.148 78.7756 111.703 65.3823C79.9058 49.8668 48.2486 46.0026 33.9407 54.6954Z" fill="url(#paint3_linear_139_1582)"/>
<path d="M162.01 132.585C161.262 133.039 160.467 133.467 159.616 133.867C144.388 141.032 115.576 138.057 86.2199 126.302C46.0039 110.189 17.8541 82.8389 23.4756 65.3275C24.8661 61.0056 28.1571 57.5997 33.254 55.1985C48.482 48.033 77.2905 51.0025 106.651 62.7635C146.872 78.8725 175.016 106.226 169.395 123.738C168.239 127.339 165.759 130.306 162.01 132.585ZM31.0721 56.8288C27.4081 59.0549 24.9858 61.9487 23.8634 65.4514C18.3095 82.7654 46.3481 109.894 86.3713 125.921C115.626 137.636 144.312 140.61 159.445 133.494C164.441 131.146 167.655 127.819 169.007 123.614L169.201 123.676L169.007 123.614C174.561 106.3 146.522 79.1711 106.499 63.1446C77.2413 51.4231 48.5587 48.4552 33.4255 55.5709C32.5917 55.9603 31.8083 56.3815 31.0721 56.8288Z" fill="url(#paint4_linear_139_1582)"/>
<path d="M164.248 130.287C150.419 138.689 122.029 137.887 91.7049 128.205C49.7895 114.812 17.7911 88.8313 20.3753 70.282C21.0153 65.6893 23.6799 61.8826 28.2862 58.9825C41.9772 50.3676 70.5924 51.1026 101.16 60.8641C143.081 74.2529 175.079 100.234 172.49 118.787L172.287 118.761L172.49 118.787C171.85 123.379 169.185 127.186 164.579 130.086C164.47 130.152 164.362 130.218 164.248 130.287ZM28.8366 59.1169C28.7225 59.1862 28.6141 59.2521 28.5056 59.318C24.0021 62.1557 21.401 65.8613 20.7753 70.3359C18.2118 88.7008 50.0923 114.488 91.8287 127.817C122.288 137.542 150.777 138.3 164.361 129.742C168.868 126.91 171.464 123.207 172.09 118.733C174.653 100.368 142.773 74.581 101.036 61.2519C70.8254 51.6018 42.5624 50.7778 28.8366 59.1169Z" fill="url(#paint5_linear_139_1582)"/>
<path d="M165.822 127.901C152.57 135.952 126.358 136.742 97.3802 129.726C54.2465 119.293 18.7131 95.0302 18.1661 75.6483C18.0266 70.7244 20.099 66.4961 24.3154 63.0828C36.4216 53.2741 64.3639 51.8082 95.494 59.3448C138.622 69.7812 174.158 94.035 174.708 113.423C174.848 118.346 172.775 122.575 168.559 125.988C167.718 126.663 166.804 127.305 165.822 127.901ZM27.2775 61.5019C26.3015 62.0948 25.4037 62.7263 24.5748 63.394C20.4599 66.73 18.4384 70.8493 18.5726 75.6358C19.1118 94.8505 54.508 118.939 97.4765 129.332C126.35 136.317 152.444 135.552 165.599 127.56C166.575 126.967 167.473 126.335 168.302 125.668C172.416 122.332 174.438 118.212 174.304 113.426C173.759 94.2147 138.366 70.1319 95.4034 59.7358C66.521 52.7479 40.4268 53.5131 27.2775 61.5019Z" fill="url(#paint6_linear_139_1582)"/>
<path d="M166.678 125.49C154.008 133.188 130.173 135.331 103.16 130.841C59.3356 123.554 20.6412 101.368 16.8978 81.3806C15.9065 76.0834 17.3796 71.3831 21.2825 67.4023C31.802 56.6667 58.6627 53.0606 89.7109 58.2246C133.535 65.5112 172.229 87.6975 175.973 107.685C176.964 112.982 175.491 117.682 171.588 121.663C170.22 123.064 168.573 124.339 166.678 125.49ZM26.4237 63.9037C24.5518 65.041 22.9267 66.3018 21.5692 67.6813C17.7689 71.5608 16.334 76.1441 17.296 81.3028C21.0087 101.137 59.5591 123.176 103.228 130.439C134.152 135.578 160.864 132.023 171.298 121.378C175.098 117.499 176.533 112.915 175.571 107.757L175.775 107.719L175.571 107.757C171.858 87.9228 133.308 65.8835 89.6387 58.6201C62.7321 54.1512 39.0023 56.2616 26.4237 63.9037Z" fill="url(#paint7_linear_139_1582)"/>
<path d="M166.622 123.289C162.233 125.956 156.597 128.099 149.896 129.622C138.393 132.243 124.249 132.898 108.996 131.522C65.0142 127.551 23.5684 107.755 16.6094 87.4006C14.6618 81.6999 15.5067 76.467 19.1243 71.8625C23.5039 66.2871 31.7467 61.9903 42.9768 59.4337C54.4803 56.8127 68.6243 56.1584 83.8766 57.5342C127.859 61.5055 169.305 81.3012 176.264 101.655C178.211 107.356 177.366 112.589 173.749 117.194C171.984 119.446 169.59 121.486 166.622 123.289ZM26.3849 66.1933C23.5142 67.9374 21.1693 69.9168 19.4453 72.1207C15.9175 76.6159 15.0913 81.7124 16.9946 87.2759C23.9094 107.493 65.1919 127.161 109.035 131.123C139.254 133.853 164.526 128.29 173.429 116.95C176.957 112.455 177.783 107.359 175.88 101.795C168.965 81.578 127.682 61.9096 83.8388 57.9479C59.4804 55.744 38.33 58.9361 26.3849 66.1933Z" fill="url(#paint8_linear_139_1582)"/>
<path d="M165.66 121.397C154.468 128.196 136.348 132.016 114.802 131.753C71.2144 131.222 27.4861 114.126 17.3231 93.6555C14.3292 87.6216 14.4909 81.663 17.7832 76.4201C25.4203 64.2712 48.5222 56.9476 78.0688 57.3121C121.66 57.8486 165.394 74.9414 175.551 95.4154L175.369 95.5023L175.551 95.4154C178.545 101.449 178.383 107.408 175.091 112.651C173.025 115.938 169.82 118.869 165.66 121.397ZM27.4268 67.9982C23.3233 70.4913 20.1612 73.3891 18.1246 76.6346C14.8606 81.8213 14.7167 87.4878 17.6886 93.4726C27.788 113.825 71.3576 130.815 114.813 131.348C136.291 131.614 154.332 127.818 165.45 121.064C169.553 118.57 172.715 115.673 174.752 112.427C178.016 107.24 178.16 101.574 175.188 95.5892C165.088 75.2363 121.519 58.2468 78.0631 57.7141C56.5889 57.4538 38.5444 61.2437 27.4268 67.9982Z" fill="url(#paint9_linear_139_1582)"/>
<path d="M163.795 119.896C153.625 126.075 138.457 130.266 120.515 131.525C77.8739 134.506 32.3571 120.395 19.0522 100.051C14.8478 93.62 14.2055 87.0325 17.2026 81.0078C23.4208 68.4785 44.5575 59.4891 72.3642 57.5429C115.002 54.5561 160.522 68.6728 173.827 89.016C178.032 95.4475 178.674 102.035 175.677 108.06C173.469 112.503 169.382 116.502 163.795 119.896ZM29.2892 69.5077C23.7646 72.8641 19.739 76.8101 17.5621 81.1879C14.6353 87.0839 15.2688 93.5283 19.3934 99.8285C32.629 120.058 77.9747 134.093 120.488 131.119C148.152 129.182 169.157 120.272 175.308 107.877C178.235 101.981 177.602 95.5369 173.477 89.2367C160.241 69.0077 114.896 54.9724 72.3825 57.946C54.5003 59.1993 39.3966 63.3669 29.2892 69.5077Z" fill="url(#paint10_linear_139_1582)"/>
<path d="M160.871 119.212C152.139 124.517 140.214 128.566 126.049 130.819C84.9219 137.373 38.1505 126.47 21.7979 106.525C16.2401 99.7441 14.6907 92.5122 17.3174 85.5951C22.2494 72.6206 40.7519 62.3951 66.8182 58.2402C107.955 51.6884 154.722 62.5857 171.075 82.5306C176.633 89.312 178.182 96.5438 175.555 103.461C173.3 109.394 168.216 114.749 160.871 119.212ZM32.2021 70.1994C24.9369 74.6133 19.9189 79.8968 17.695 85.7408C15.1282 92.5121 16.6517 99.6112 22.1091 106.266C38.3787 126.113 84.9825 136.946 125.983 130.414C151.907 126.283 170.289 116.154 175.172 103.319C177.742 96.5531 176.219 89.454 170.758 82.7935C154.488 62.9466 107.885 52.1137 66.8846 58.6452C52.7701 60.8913 40.8884 64.922 32.2021 70.1994Z" fill="url(#paint11_linear_139_1582)"/>
<path d="M156.928 119.294C149.982 123.514 141.321 127.057 131.348 129.639C92.2715 139.761 44.8125 132.292 25.5464 112.991C18.5133 105.942 15.9294 98.0496 18.0835 90.1617C21.6689 77.0285 37.9094 65.5363 61.5277 59.4227C100.599 49.3045 148.058 56.7737 167.32 76.068C174.354 83.1172 176.937 91.0099 174.783 98.8978C172.718 106.482 166.425 113.525 156.928 119.294ZM36.1446 70.1168C26.7449 75.8276 20.5222 82.7807 18.4758 90.2672C16.3632 98.0049 18.9063 105.766 25.8346 112.707C45.0119 131.912 92.2932 139.333 131.241 129.243C154.715 123.163 170.851 111.781 174.397 98.7889C176.509 91.0512 173.966 83.29 167.038 76.349C147.864 57.1493 100.577 49.7318 61.6261 59.8162C51.6834 62.3953 43.056 65.9178 36.1446 70.1168Z" fill="url(#paint12_linear_139_1582)"/>
<path d="M152.001 120.483C147.378 123.291 142.118 125.823 136.319 127.994C99.8454 141.629 52.2792 137.765 30.2776 119.377C21.662 112.179 17.9224 103.645 19.4499 94.6997C21.7075 81.4902 35.5816 68.9197 56.5551 61.0765C93.0253 47.4361 140.591 51.3005 162.593 69.6887C171.209 76.886 174.948 85.4205 173.424 94.3712C171.788 103.922 164.083 113.142 152.001 120.483ZM41.0699 68.9375C29.0962 76.212 21.4607 85.3283 19.8512 94.7685C18.3503 103.564 22.0433 111.971 30.537 119.07C52.4385 137.371 99.8224 141.205 136.174 127.614C157.014 119.821 170.786 107.366 173.023 94.3024C174.524 85.5065 170.831 77.1 162.337 70.0005C140.436 51.7 93.0517 47.8655 56.7004 61.4571C50.9092 63.6159 45.6699 66.1427 41.0699 68.9375Z" fill="url(#paint13_linear_139_1582)"/>
<path d="M146.75 122.618C144.89 123.748 142.942 124.838 140.897 125.885C107.548 142.951 60.4694 142.822 35.9477 125.597C25.8519 118.51 20.6738 109.138 21.3656 99.2164C22.3049 85.792 33.4571 72.6639 51.9707 63.1897C85.3205 46.1239 132.399 46.2528 156.92 63.4772C167.016 70.5644 172.194 79.9361 171.503 89.858C170.668 101.796 161.749 113.506 146.75 122.618ZM46.3261 66.7988C31.4475 75.8383 22.5992 87.4339 21.7723 99.2427C21.077 109.159 26.0595 118.157 36.1841 125.266C60.5977 142.415 107.486 142.527 140.718 125.525C159.099 116.116 170.174 103.105 171.102 89.8282C171.797 79.912 166.814 70.9137 156.69 63.8049C132.276 46.6555 85.3846 46.5381 52.1559 63.546C50.1231 64.5857 48.181 65.6719 46.3261 66.7988Z" fill="url(#paint14_linear_139_1582)"/>
<path d="M141.017 125.914C111.288 143.975 68.1298 146.685 42.5169 131.561C30.8267 124.653 24.1867 114.779 23.8165 103.752C23.3679 90.3581 32.1259 76.5045 47.8447 65.7356C77.5755 45.3754 123.565 41.6805 150.359 57.5008C162.046 64.4028 168.686 74.2773 169.06 85.3099C169.508 98.7037 160.75 112.557 145.032 123.326C143.724 124.222 142.381 125.085 141.017 125.914ZM52.071 63.4961C50.7069 64.3248 49.3751 65.1808 48.0733 66.0733C32.4731 76.7545 23.7797 90.4829 24.223 103.739C24.5844 114.623 31.1607 124.38 42.7245 131.208C68.218 146.264 111.196 143.554 140.805 125.566C142.169 124.737 143.501 123.881 144.803 122.988C160.403 112.307 169.097 98.5788 168.653 85.3225C168.292 74.4387 161.721 64.6783 150.152 57.8536C124.653 42.8014 81.6741 45.5107 52.071 63.4961Z" fill="url(#paint15_linear_139_1582)"/>
<path d="M135.856 129.869C109.952 145.608 74.3457 149.237 49.91 137.196C36.7308 130.693 28.5245 120.465 26.804 108.399C24.9 95.0532 31.2553 80.5888 44.2342 68.7184C69.8936 45.2449 114.183 37.6839 142.961 51.8692C156.142 58.3633 164.348 68.591 166.067 80.6664C167.971 94.012 161.616 108.476 148.637 120.347C144.763 123.888 140.462 127.071 135.856 129.869ZM57.2338 59.5312C52.6452 62.319 48.3668 65.4888 44.5016 69.017C31.6321 80.7974 25.323 95.1322 27.2068 108.342C28.9071 120.272 37.0327 130.392 50.0923 136.827C78.7323 150.94 122.818 143.417 148.366 120.043C161.244 108.264 167.548 93.933 165.67 80.7201C163.969 68.79 155.844 58.6696 142.784 52.2344C118.47 40.2519 83.0188 43.8656 57.2338 59.5312Z" fill="url(#paint16_linear_139_1582)"/>
<path d="M131.706 134.227C109.619 147.646 80.6631 151.572 58.0632 142.424C43.5912 136.558 33.7647 126.197 30.3959 113.257C26.8831 99.7711 30.7202 85.1488 41.2017 72.1C62.367 45.7309 104.361 34.3139 134.811 46.6472C149.279 52.5077 159.111 62.865 162.48 75.8051C165.993 89.2907 162.156 103.913 151.674 116.962C146.218 123.762 139.376 129.567 131.706 134.227ZM61.3874 55.1791C53.7569 59.815 46.9516 65.5905 41.5192 72.3525C31.1196 85.3046 27.3104 99.7928 30.7858 113.153C34.1265 125.969 43.8608 136.23 58.2146 142.043C80.694 151.147 109.51 147.236 131.483 133.886C139.113 129.25 145.919 123.475 151.351 116.713C161.751 103.761 165.56 89.2725 162.081 75.9069C158.74 63.0903 149.006 52.8299 134.652 47.0169C112.176 37.9183 83.36 41.8297 61.3874 55.1791Z" fill="url(#paint17_linear_139_1582)"/>
<path d="M128.921 138.685C110.493 149.881 87.1904 153.724 66.8862 147.159C51.4398 142.158 40.0142 131.956 34.7273 118.431C29.4705 104.981 30.9169 89.8582 38.7978 75.8342C55.1018 46.8397 94.2134 31.6179 125.981 41.9008C141.433 46.898 152.853 57.1034 158.14 70.6284C163.396 84.078 161.95 99.2013 154.069 113.225C148.19 123.689 139.331 132.361 128.921 138.685ZM64.1629 50.719C53.8101 57.0088 45.0014 65.6345 39.1506 76.0419C31.332 89.9498 29.8906 104.953 35.1078 118.286C40.346 131.692 51.6806 141.809 67.0101 146.771C98.6074 156.993 137.498 141.858 153.714 113.027C161.538 99.1154 162.976 84.1067 157.762 70.7794C152.515 57.3709 141.19 47.2567 125.86 42.2943C105.67 35.7611 82.4944 39.5817 64.1629 50.719Z" fill="url(#paint18_linear_139_1582)"/>
<path d="M127.729 142.973C112.633 152.144 94.0274 155.705 76.287 151.34C60.2658 147.399 47.3827 137.692 40.0059 124.007C32.7771 110.591 31.7399 94.9295 37.0751 79.9049C48.1896 48.5935 83.8644 29.6698 116.589 37.7221C132.611 41.6626 145.497 51.3753 152.868 65.0641C160.097 78.4799 161.134 94.1414 155.799 109.166C150.712 123.493 140.467 135.234 127.729 142.973ZM65.3556 46.4313C52.6914 54.1255 42.5183 65.7914 37.4606 80.0379C32.1615 94.9546 33.1924 110.503 40.3644 123.812C47.6823 137.401 60.4756 147.037 76.3833 150.945C108.916 158.95 144.363 140.141 155.416 109.024C160.715 94.1071 159.678 78.5623 152.506 65.2527C145.188 51.6645 132.395 42.0279 116.487 38.1201C98.8535 33.7763 80.3541 37.319 65.3556 46.4313Z" fill="url(#paint19_linear_139_1582)"/>
<defs>
<linearGradient id="paint0_linear_139_1582" x1="60.2845" y1="116.496" x2="132.586" y2="72.5687" gradientUnits="userSpaceOnUse">
<stop stop-color="#35E0CD"/>
<stop offset="0.0169" stop-color="#3FE0C5"/>
<stop offset="0.1013" stop-color="#6BE29F"/>
<stop offset="0.1919" stop-color="#93E47E"/>
<stop offset="0.2873" stop-color="#B4E562"/>
<stop offset="0.3891" stop-color="#CFE64B"/>
<stop offset="0.4994" stop-color="#E4E739"/>
<stop offset="0.6227" stop-color="#F3E82D"/>
<stop offset="0.7693" stop-color="#FBE825"/>
<stop offset="0.9994" stop-color="#FEE823"/>
</linearGradient>
<linearGradient id="paint1_linear_139_1582" x1="58.3331" y1="117.681" x2="134.538" y2="71.3831" gradientUnits="userSpaceOnUse">
<stop stop-color="#35E0CD"/>
<stop offset="0.0169" stop-color="#3FE0C5"/>
<stop offset="0.1013" stop-color="#6BE29F"/>
<stop offset="0.1919" stop-color="#93E47E"/>
<stop offset="0.2873" stop-color="#B4E562"/>
<stop offset="0.3891" stop-color="#CFE64B"/>
<stop offset="0.4994" stop-color="#E4E739"/>
<stop offset="0.6227" stop-color="#F3E82D"/>
<stop offset="0.7693" stop-color="#FBE825"/>
<stop offset="0.9994" stop-color="#FEE823"/>
</linearGradient>
<linearGradient id="paint2_linear_139_1582" x1="55.9594" y1="119.123" x2="136.912" y2="69.9409" gradientUnits="userSpaceOnUse">
<stop stop-color="#35E0CD"/>
<stop offset="0.0169" stop-color="#3FE0C5"/>
<stop offset="0.1013" stop-color="#6BE29F"/>
<stop offset="0.1919" stop-color="#93E47E"/>
<stop offset="0.2873" stop-color="#B4E562"/>
<stop offset="0.3891" stop-color="#CFE64B"/>
<stop offset="0.4994" stop-color="#E4E739"/>
<stop offset="0.6227" stop-color="#F3E82D"/>
<stop offset="0.7693" stop-color="#FBE825"/>
<stop offset="0.9994" stop-color="#FEE823"/>
</linearGradient>
<linearGradient id="paint3_linear_139_1582" x1="53.3735" y1="120.694" x2="139.498" y2="68.3697" gradientUnits="userSpaceOnUse">
<stop stop-color="#35E0CD"/>
<stop offset="0.0169" stop-color="#3FE0C5"/>
<stop offset="0.1013" stop-color="#6BE29F"/>
<stop offset="0.1919" stop-color="#93E47E"/>
<stop offset="0.2873" stop-color="#B4E562"/>
<stop offset="0.3891" stop-color="#CFE64B"/>
<stop offset="0.4994" stop-color="#E4E739"/>
<stop offset="0.6227" stop-color="#F3E82D"/>
<stop offset="0.7693" stop-color="#FBE825"/>
<stop offset="0.9994" stop-color="#FEE823"/>
</linearGradient>
<linearGradient id="paint4_linear_139_1582" x1="50.7205" y1="122.306" x2="142.151" y2="66.7579" gradientUnits="userSpaceOnUse">
<stop stop-color="#35E0CD"/>
<stop offset="0.0169" stop-color="#3FE0C5"/>
<stop offset="0.1013" stop-color="#6BE29F"/>
<stop offset="0.1919" stop-color="#93E47E"/>
<stop offset="0.2873" stop-color="#B4E562"/>
<stop offset="0.3891" stop-color="#CFE64B"/>
<stop offset="0.4994" stop-color="#E4E739"/>
<stop offset="0.6227" stop-color="#F3E82D"/>
<stop offset="0.7693" stop-color="#FBE825"/>
<stop offset="0.9994" stop-color="#FEE823"/>
</linearGradient>
<linearGradient id="paint5_linear_139_1582" x1="48.0245" y1="123.944" x2="144.847" y2="65.12" gradientUnits="userSpaceOnUse">
<stop stop-color="#35E0CD"/>
<stop offset="0.0169" stop-color="#3FE0C5"/>
<stop offset="0.1013" stop-color="#6BE29F"/>
<stop offset="0.1919" stop-color="#93E47E"/>
<stop offset="0.2873" stop-color="#B4E562"/>
<stop offset="0.3891" stop-color="#CFE64B"/>
<stop offset="0.4994" stop-color="#E4E739"/>
<stop offset="0.6227" stop-color="#F3E82D"/>
<stop offset="0.7693" stop-color="#FBE825"/>
<stop offset="0.9994" stop-color="#FEE823"/>
</linearGradient>
<linearGradient id="paint6_linear_139_1582" x1="45.4222" y1="125.525" x2="147.449" y2="63.5389" gradientUnits="userSpaceOnUse">
<stop stop-color="#35E0CD"/>
<stop offset="0.0169" stop-color="#3FE0C5"/>
<stop offset="0.1013" stop-color="#6BE29F"/>
<stop offset="0.1919" stop-color="#93E47E"/>
<stop offset="0.2873" stop-color="#B4E562"/>
<stop offset="0.3891" stop-color="#CFE64B"/>
<stop offset="0.4994" stop-color="#E4E739"/>
<stop offset="0.6227" stop-color="#F3E82D"/>
<stop offset="0.7693" stop-color="#FBE825"/>
<stop offset="0.9994" stop-color="#FEE823"/>
</linearGradient>
<linearGradient id="paint7_linear_139_1582" x1="42.9987" y1="126.998" x2="149.872" y2="62.0666" gradientUnits="userSpaceOnUse">
<stop stop-color="#35E0CD"/>
<stop offset="0.0169" stop-color="#3FE0C5"/>
<stop offset="0.1013" stop-color="#6BE29F"/>
<stop offset="0.1919" stop-color="#93E47E"/>
<stop offset="0.2873" stop-color="#B4E562"/>
<stop offset="0.3891" stop-color="#CFE64B"/>
<stop offset="0.4994" stop-color="#E4E739"/>
<stop offset="0.6227" stop-color="#F3E82D"/>
<stop offset="0.7693" stop-color="#FBE825"/>
<stop offset="0.9994" stop-color="#FEE823"/>
</linearGradient>
<linearGradient id="paint8_linear_139_1582" x1="40.8257" y1="128.318" x2="152.045" y2="60.7464" gradientUnits="userSpaceOnUse">
<stop stop-color="#35E0CD"/>
<stop offset="0.0169" stop-color="#3FE0C5"/>
<stop offset="0.1013" stop-color="#6BE29F"/>
<stop offset="0.1919" stop-color="#93E47E"/>
<stop offset="0.2873" stop-color="#B4E562"/>
<stop offset="0.3891" stop-color="#CFE64B"/>
<stop offset="0.4994" stop-color="#E4E739"/>
<stop offset="0.6227" stop-color="#F3E82D"/>
<stop offset="0.7693" stop-color="#FBE825"/>
<stop offset="0.9994" stop-color="#FEE823"/>
</linearGradient>
<linearGradient id="paint9_linear_139_1582" x1="38.9614" y1="129.451" x2="153.91" y2="59.6137" gradientUnits="userSpaceOnUse">
<stop stop-color="#35E0CD"/>
<stop offset="0.0169" stop-color="#3FE0C5"/>
<stop offset="0.1013" stop-color="#6BE29F"/>
<stop offset="0.1919" stop-color="#93E47E"/>
<stop offset="0.2873" stop-color="#B4E562"/>
<stop offset="0.3891" stop-color="#CFE64B"/>
<stop offset="0.4994" stop-color="#E4E739"/>
<stop offset="0.6227" stop-color="#F3E82D"/>
<stop offset="0.7693" stop-color="#FBE825"/>
<stop offset="0.9994" stop-color="#FEE823"/>
</linearGradient>
<linearGradient id="paint10_linear_139_1582" x1="37.4511" y1="130.368" x2="155.42" y2="58.6962" gradientUnits="userSpaceOnUse">
<stop stop-color="#35E0CD"/>
<stop offset="0.0169" stop-color="#3FE0C5"/>
<stop offset="0.1013" stop-color="#6BE29F"/>
<stop offset="0.1919" stop-color="#93E47E"/>
<stop offset="0.2873" stop-color="#B4E562"/>
<stop offset="0.3891" stop-color="#CFE64B"/>
<stop offset="0.4994" stop-color="#E4E739"/>
<stop offset="0.6227" stop-color="#F3E82D"/>
<stop offset="0.7693" stop-color="#FBE825"/>
<stop offset="0.9994" stop-color="#FEE823"/>
</linearGradient>
<linearGradient id="paint11_linear_139_1582" x1="36.3313" y1="131.049" x2="156.54" y2="58.0158" gradientUnits="userSpaceOnUse">
<stop stop-color="#35E0CD"/>
<stop offset="0.0169" stop-color="#3FE0C5"/>
<stop offset="0.1013" stop-color="#6BE29F"/>
<stop offset="0.1919" stop-color="#93E47E"/>
<stop offset="0.2873" stop-color="#B4E562"/>
<stop offset="0.3891" stop-color="#CFE64B"/>
<stop offset="0.4994" stop-color="#E4E739"/>
<stop offset="0.6227" stop-color="#F3E82D"/>
<stop offset="0.7693" stop-color="#FBE825"/>
<stop offset="0.9994" stop-color="#FEE823"/>
</linearGradient>
<linearGradient id="paint12_linear_139_1582" x1="35.6251" y1="131.477" x2="157.246" y2="57.5869" gradientUnits="userSpaceOnUse">
<stop stop-color="#35E0CD"/>
<stop offset="0.0169" stop-color="#3FE0C5"/>
<stop offset="0.1013" stop-color="#6BE29F"/>
<stop offset="0.1919" stop-color="#93E47E"/>
<stop offset="0.2873" stop-color="#B4E562"/>
<stop offset="0.3891" stop-color="#CFE64B"/>
<stop offset="0.4994" stop-color="#E4E739"/>
<stop offset="0.6227" stop-color="#F3E82D"/>
<stop offset="0.7693" stop-color="#FBE825"/>
<stop offset="0.9994" stop-color="#FEE823"/>
</linearGradient>
<linearGradient id="paint13_linear_139_1582" x1="35.3485" y1="131.646" x2="157.523" y2="57.4186" gradientUnits="userSpaceOnUse">
<stop stop-color="#35E0CD"/>
<stop offset="0.0169" stop-color="#3FE0C5"/>
<stop offset="0.1013" stop-color="#6BE29F"/>
<stop offset="0.1919" stop-color="#93E47E"/>
<stop offset="0.2873" stop-color="#B4E562"/>
<stop offset="0.3891" stop-color="#CFE64B"/>
<stop offset="0.4994" stop-color="#E4E739"/>
<stop offset="0.6227" stop-color="#F3E82D"/>
<stop offset="0.7693" stop-color="#FBE825"/>
<stop offset="0.9994" stop-color="#FEE823"/>
</linearGradient>
<linearGradient id="paint14_linear_139_1582" x1="35.5548" y1="131.52" x2="157.316" y2="57.5441" gradientUnits="userSpaceOnUse">
<stop stop-color="#35E0CD"/>
<stop offset="0.0169" stop-color="#3FE0C5"/>
<stop offset="0.1013" stop-color="#6BE29F"/>
<stop offset="0.1919" stop-color="#93E47E"/>
<stop offset="0.2873" stop-color="#B4E562"/>
<stop offset="0.3891" stop-color="#CFE64B"/>
<stop offset="0.4994" stop-color="#E4E739"/>
<stop offset="0.6227" stop-color="#F3E82D"/>
<stop offset="0.7693" stop-color="#FBE825"/>
<stop offset="0.9994" stop-color="#FEE823"/>
</linearGradient>
<linearGradient id="paint15_linear_139_1582" x1="36.146" y1="131.161" x2="156.725" y2="57.9033" gradientUnits="userSpaceOnUse">
<stop stop-color="#35E0CD"/>
<stop offset="0.0169" stop-color="#3FE0C5"/>
<stop offset="0.1013" stop-color="#6BE29F"/>
<stop offset="0.1919" stop-color="#93E47E"/>
<stop offset="0.2873" stop-color="#B4E562"/>
<stop offset="0.3891" stop-color="#CFE64B"/>
<stop offset="0.4994" stop-color="#E4E739"/>
<stop offset="0.6227" stop-color="#F3E82D"/>
<stop offset="0.7693" stop-color="#FBE825"/>
<stop offset="0.9994" stop-color="#FEE823"/>
</linearGradient>
<linearGradient id="paint16_linear_139_1582" x1="37.1405" y1="130.557" x2="155.731" y2="58.5074" gradientUnits="userSpaceOnUse">
<stop stop-color="#35E0CD"/>
<stop offset="0.0169" stop-color="#3FE0C5"/>
<stop offset="0.1013" stop-color="#6BE29F"/>
<stop offset="0.1919" stop-color="#93E47E"/>
<stop offset="0.2873" stop-color="#B4E562"/>
<stop offset="0.3891" stop-color="#CFE64B"/>
<stop offset="0.4994" stop-color="#E4E739"/>
<stop offset="0.6227" stop-color="#F3E82D"/>
<stop offset="0.7693" stop-color="#FBE825"/>
<stop offset="0.9994" stop-color="#FEE823"/>
</linearGradient>
<linearGradient id="paint17_linear_139_1582" x1="38.5026" y1="129.729" x2="154.368" y2="59.3351" gradientUnits="userSpaceOnUse">
<stop stop-color="#35E0CD"/>
<stop offset="0.0169" stop-color="#3FE0C5"/>
<stop offset="0.1013" stop-color="#6BE29F"/>
<stop offset="0.1919" stop-color="#93E47E"/>
<stop offset="0.2873" stop-color="#B4E562"/>
<stop offset="0.3891" stop-color="#CFE64B"/>
<stop offset="0.4994" stop-color="#E4E739"/>
<stop offset="0.6227" stop-color="#F3E82D"/>
<stop offset="0.7693" stop-color="#FBE825"/>
<stop offset="0.9994" stop-color="#FEE823"/>
</linearGradient>
<linearGradient id="paint18_linear_139_1582" x1="40.177" y1="128.712" x2="152.694" y2="60.3524" gradientUnits="userSpaceOnUse">
<stop stop-color="#35E0CD"/>
<stop offset="0.0169" stop-color="#3FE0C5"/>
<stop offset="0.1013" stop-color="#6BE29F"/>
<stop offset="0.1919" stop-color="#93E47E"/>
<stop offset="0.2873" stop-color="#B4E562"/>
<stop offset="0.3891" stop-color="#CFE64B"/>
<stop offset="0.4994" stop-color="#E4E739"/>
<stop offset="0.6227" stop-color="#F3E82D"/>
<stop offset="0.7693" stop-color="#FBE825"/>
<stop offset="0.9994" stop-color="#FEE823"/>
</linearGradient>
<linearGradient id="paint19_linear_139_1582" x1="42.0792" y1="127.556" x2="150.792" y2="61.508" gradientUnits="userSpaceOnUse">
<stop stop-color="#35E0CD"/>
<stop offset="0.0169" stop-color="#3FE0C5"/>
<stop offset="0.1013" stop-color="#6BE29F"/>
<stop offset="0.1919" stop-color="#93E47E"/>
<stop offset="0.2873" stop-color="#B4E562"/>
<stop offset="0.3891" stop-color="#CFE64B"/>
<stop offset="0.4994" stop-color="#E4E739"/>
<stop offset="0.6227" stop-color="#F3E82D"/>
<stop offset="0.7693" stop-color="#FBE825"/>
<stop offset="0.9994" stop-color="#FEE823"/>
</linearGradient>
</defs>
</svg>
