<svg width="414" height="767" viewBox="0 0 414 767" fill="none" xmlns="http://www.w3.org/2000/svg">
<path d="M157.737 448.627C156.042 448.717 154.491 448.327 153.185 447.482C151.116 446.137 149.943 443.775 149.874 440.842L146.112 290.196C145.964 284.138 150.64 277.41 156.531 275.174L303.338 219.804C306.27 218.694 309.055 218.852 311.169 220.236C313.238 221.582 314.411 223.944 314.48 226.877L318.242 377.522C318.39 383.581 313.714 390.309 307.823 392.544L161.016 447.915C159.904 448.333 158.797 448.572 157.737 448.627ZM306.643 219.602C305.654 219.654 304.603 219.876 303.534 220.292L156.727 275.663C151.016 277.819 146.498 284.331 146.65 290.182L150.411 440.827C150.485 443.58 151.58 445.794 153.487 447.037C155.454 448.318 158.069 448.458 160.834 447.412L307.64 392.041C313.351 389.885 317.869 383.373 317.717 377.522L313.956 226.876L314.224 226.862L313.956 226.876C313.882 224.124 312.788 221.91 310.88 220.667C309.676 219.872 308.226 219.519 306.643 219.602Z" fill="url(#paint0_linear_158_2104)"/>
<path d="M148.805 445.053C146.827 445.157 145.057 444.655 143.639 443.552C141.63 441.996 140.631 439.444 140.809 436.36L150.265 281.321C150.646 275.096 155.887 268.588 161.959 266.841L313.048 223.101C316.007 222.239 318.734 222.622 320.714 224.166C322.724 225.722 323.722 228.274 323.545 231.358L314.089 386.411C313.708 392.636 308.467 399.144 302.395 400.89L151.305 444.617C150.454 444.869 149.611 445.011 148.805 445.053ZM315.59 223.189C314.827 223.229 314.026 223.368 313.202 223.606L162.114 267.346C156.237 269.04 151.168 275.332 150.805 281.362L141.349 436.401C141.176 439.305 142.11 441.693 143.972 443.147C145.818 444.573 148.359 444.924 151.151 444.112L302.24 400.372C308.117 398.678 313.185 392.386 313.548 386.356L323.003 231.303C323.176 228.399 322.243 226.011 320.381 224.557C319.081 223.559 317.427 223.092 315.59 223.189Z" fill="url(#paint1_linear_158_2104)"/>
<path d="M140.252 440.586C137.963 440.707 135.944 440.051 134.455 438.689C132.519 436.907 131.709 434.166 132.164 430.971L155.147 272.574C156.074 266.21 161.869 260.004 168.067 258.75L322.441 227.344C325.414 226.744 328.052 227.34 329.899 229.029C331.835 230.811 332.645 233.552 332.19 236.748L309.206 395.144C308.28 401.509 302.485 407.714 296.273 408.969L141.927 440.374C141.352 440.487 140.803 440.557 140.252 440.586ZM324.129 227.657C323.621 227.684 323.086 227.753 322.553 227.864L168.208 259.269C162.206 260.485 156.613 266.486 155.718 272.641L132.735 431.037C132.299 434.066 133.044 436.644 134.86 438.294C136.571 439.852 139.038 440.415 141.828 439.839L296.174 408.434C302.175 407.218 307.769 401.217 308.664 395.062L331.647 236.666L331.918 236.707L331.647 236.666C332.082 233.637 331.337 231.059 329.522 229.409C328.152 228.151 326.263 227.544 324.129 227.657Z" fill="url(#paint2_linear_158_2104)"/>
<path d="M132.19 435.235C129.562 435.373 127.279 434.552 125.745 432.873C123.927 430.905 123.302 427.905 124.052 424.652L160.82 264.035C162.294 257.586 168.618 251.727 174.914 250.994L331.43 232.549C334.373 232.201 336.939 233.021 338.622 234.844C340.441 236.812 341.066 239.812 340.316 243.065L303.548 403.683C302.073 410.132 295.749 415.991 289.453 416.724L132.938 435.168C132.684 435.195 132.445 435.222 132.19 435.235ZM332.192 233.022C331.966 233.034 331.726 233.06 331.487 233.087L174.985 251.53C168.901 252.252 162.793 257.906 161.365 264.158L124.597 424.776C123.894 427.86 124.454 430.684 126.166 432.519C127.729 434.209 130.121 434.956 132.881 434.631L289.397 416.186C295.481 415.465 301.589 409.811 303.017 403.558L339.785 242.941C340.487 239.857 339.928 237.033 338.216 235.198C336.774 233.653 334.665 232.892 332.192 233.022Z" fill="url(#paint3_linear_158_2104)"/>
<path d="M282.23 424.071C282.145 424.075 282.061 424.08 281.99 424.083L124.452 429.036C121.538 429.134 119.089 428.099 117.569 426.143C115.852 423.948 115.473 420.783 116.53 417.445L167.202 255.777C169.217 249.369 175.877 243.977 182.138 243.647C182.223 243.643 182.307 243.638 182.378 243.634L339.916 238.682C342.83 238.584 345.279 239.619 346.799 241.575C348.516 243.77 348.895 246.935 347.838 250.273L347.564 250.191L347.838 250.273L297.151 411.928C295.151 418.349 288.491 423.741 282.23 424.071ZM182.167 244.2C176.118 244.518 169.69 249.732 167.735 255.942L117.048 417.597C116.053 420.766 116.409 423.753 118.004 425.802C119.418 427.611 121.706 428.557 124.423 428.483L281.961 423.531C288.087 423.347 294.654 418.071 296.62 411.79L347.32 250.134C348.316 246.966 347.96 243.979 346.364 241.93C344.951 240.121 342.662 239.175 339.945 239.248L182.407 244.187C182.322 244.191 182.252 244.195 182.167 244.2Z" fill="url(#paint4_linear_158_2104)"/>
<path d="M275.181 430.965C274.743 430.988 274.318 430.983 273.892 430.964L116.512 421.947C113.655 421.779 111.322 420.544 109.966 418.469C108.394 416.058 108.261 412.727 109.613 409.346L174.282 247.855C176.873 241.362 184.151 236.394 190.476 236.754L347.841 245.758C350.698 245.926 353.031 247.161 354.387 249.236C355.959 251.646 356.092 254.977 354.74 258.359L354.479 258.262L354.74 258.359L290.086 419.848C287.669 425.903 281.173 430.65 275.181 430.965ZM189.202 237.32C183.422 237.624 177.159 242.219 174.803 248.077L110.163 409.552C108.872 412.764 108.981 415.916 110.46 418.165C111.724 420.093 113.881 421.24 116.553 421.391L273.932 430.394C280.03 430.738 287.047 425.922 289.564 419.64L354.219 258.151C355.509 254.939 355.4 251.787 353.921 249.538C352.658 247.61 350.5 246.463 347.828 246.313L190.435 237.31C190.037 237.29 189.626 237.297 189.202 237.32Z" fill="url(#paint5_linear_158_2104)"/>
<path d="M267.613 437.416C266.808 437.458 266.013 437.431 265.227 437.306L109.234 413.978C106.448 413.557 104.247 412.121 103.068 409.926C101.655 407.299 101.799 403.843 103.462 400.432L182.022 240.371C185.184 233.944 192.856 229.468 199.141 230.412L355.134 253.74C357.92 254.161 360.121 255.596 361.3 257.792C362.713 260.418 362.569 263.875 360.906 267.286L282.36 427.346C279.581 432.977 273.337 437.115 267.613 437.416ZM196.77 230.869C191.245 231.16 185.22 235.161 182.545 240.62L103.999 400.68C102.412 403.922 102.258 407.185 103.593 409.663C104.692 411.696 106.732 413.029 109.332 413.419L265.325 436.747C271.367 437.648 278.777 433.324 281.823 427.111L360.37 267.051L360.631 267.176L360.37 267.051C361.956 263.81 362.11 260.533 360.776 258.069C359.677 256.035 357.637 254.702 355.037 254.313L199.043 230.971C198.3 230.858 197.548 230.828 196.77 230.869Z" fill="url(#paint6_linear_158_2104)"/>
<path d="M259.565 443.366C258.35 443.43 257.168 443.326 256.034 443.053L102.689 405.14C99.9892 404.465 97.9474 402.827 96.9327 400.512C95.7061 397.668 96.1418 394.1 98.1184 390.727L190.397 233.365C194.103 227.034 202.145 223.135 208.334 224.665L361.692 262.564C364.392 263.239 366.434 264.876 367.449 267.191C368.675 270.035 368.239 273.604 366.263 276.977L273.998 434.338C270.941 439.526 265.006 443.08 259.565 443.366ZM204.805 224.934C199.562 225.21 193.834 228.655 190.894 233.657L98.6438 391.018C96.7589 394.247 96.3272 397.622 97.4879 400.289C98.4224 402.428 100.317 403.963 102.844 404.578L256.202 442.476C262.147 443.95 269.898 440.163 273.473 434.047L365.737 276.686L366 276.824L365.737 276.686C367.622 273.456 368.054 270.082 366.893 267.415C365.959 265.275 364.064 263.741 361.538 263.126L208.179 225.227C207.102 224.965 205.964 224.873 204.805 224.934Z" fill="url(#paint7_linear_158_2104)"/>
<path d="M251.105 448.755C249.452 448.842 247.854 448.649 246.396 448.131L96.9374 395.484C94.3242 394.569 92.4418 392.729 91.6333 390.292C90.6233 387.257 91.3522 383.603 93.6433 380.283L199.34 226.925C203.593 220.759 211.951 217.466 217.973 219.601L367.431 272.247C370.044 273.162 371.927 275.002 372.735 277.439C373.745 280.475 373.016 284.128 370.725 287.448L265.028 440.807C261.801 445.464 256.235 448.485 251.105 448.755ZM213.279 219.543C208.333 219.803 202.96 222.731 199.839 227.245L94.142 380.604C91.9566 383.779 91.2458 387.238 92.2047 390.11C92.9606 392.355 94.7093 394.078 97.1351 394.933L246.593 447.58C252.383 449.616 260.421 446.437 264.529 440.473L370.226 287.114L370.476 287.281L370.226 287.114C372.411 283.938 373.122 280.48 372.163 277.608C371.407 275.362 369.658 273.64 367.233 272.784L217.774 220.137C216.375 219.657 214.848 219.46 213.279 219.543Z" fill="url(#paint8_linear_158_2104)"/>
<path d="M242.259 453.529C240.139 453.64 238.095 453.305 236.322 452.47L92.0514 385.035C89.5523 383.865 87.8435 381.822 87.2426 379.291C86.4783 376.076 87.5159 372.365 90.1096 369.14L208.827 221.107C213.601 215.15 222.221 212.522 228.047 215.248L372.317 282.683C374.816 283.853 376.525 285.896 377.126 288.427C377.89 291.642 376.853 295.353 374.259 298.578L374.023 298.396L374.259 298.578L255.542 446.611C252.23 450.746 247.064 453.276 242.259 453.529ZM222.112 214.771C217.491 215.014 212.504 217.465 209.3 221.47L90.5829 369.517C88.1098 372.611 87.1044 376.127 87.8311 379.163C88.3942 381.516 89.982 383.413 92.3071 384.509L236.577 451.944C242.157 454.559 250.454 452.003 255.055 446.249L373.786 298.201C376.259 295.107 377.264 291.592 376.537 288.555C375.974 286.202 374.386 284.305 372.061 283.209L227.791 215.774C226.092 214.991 224.133 214.665 222.112 214.771Z" fill="url(#paint9_linear_158_2104)"/>
<path d="M233.108 457.639C230.493 457.777 227.986 457.271 225.909 456.037L88.0918 373.886C85.7217 372.474 84.2012 370.241 83.8066 367.588C83.3168 364.207 84.6802 360.492 87.5497 357.391L218.788 215.971C224.072 210.277 232.899 208.345 238.458 211.667L376.29 293.817C378.66 295.23 380.181 297.463 380.575 300.115C381.065 303.497 379.702 307.211 376.832 310.312L245.593 451.733C242.267 455.315 237.545 457.405 233.108 457.639ZM231.278 210.674C227.01 210.898 222.44 212.926 219.236 216.391L88.0111 357.81C85.2615 360.767 83.9601 364.311 84.4262 367.514C84.7824 369.975 86.2101 372.06 88.4197 373.384L226.251 455.534C231.576 458.703 240.051 456.83 245.148 451.341L376.386 309.92L376.61 310.13L376.386 309.92C379.136 306.964 380.437 303.419 379.971 300.216C379.615 297.756 378.187 295.67 375.978 294.346L238.132 212.197C236.171 211.026 233.779 210.542 231.278 210.674Z" fill="url(#paint10_linear_158_2104)"/>
<path d="M223.678 461.043C220.541 461.208 217.527 460.481 215.225 458.76L85.1175 362.076C82.8757 360.407 81.5577 357.983 81.3989 355.235C81.2002 351.728 82.8908 348.038 86.0241 345.103L229.144 211.603C234.913 206.23 243.877 205.038 249.128 208.945L379.236 305.642C381.478 307.311 382.796 309.735 382.955 312.483C383.153 315.99 381.463 319.68 378.329 322.601L235.209 456.101C231.982 459.138 227.72 460.831 223.678 461.043ZM240.721 207.268C236.834 207.472 232.726 209.115 229.579 212.051L86.4586 345.551C83.4601 348.354 81.8449 351.86 82.0349 355.202C82.1842 357.77 83.4086 360.033 85.5026 361.585L215.611 458.282C220.64 462.02 229.237 460.848 234.789 455.666L377.909 322.166L378.119 322.391L377.909 322.166C380.908 319.363 382.523 315.857 382.333 312.515C382.183 309.947 380.959 307.685 378.865 306.133L248.757 209.435C246.573 207.805 243.703 207.111 240.721 207.268Z" fill="url(#paint11_linear_158_2104)"/>
<path d="M214.04 463.697C210.351 463.891 206.826 462.872 204.355 460.62L83.2035 349.67C81.1047 347.758 80.0027 345.129 80.1081 342.284C80.23 338.676 82.2352 335.039 85.5928 332.328L239.854 208.034C246.067 203.025 255.114 202.604 260.013 207.084L381.164 318.034C383.262 319.945 384.364 322.574 384.259 325.419C384.137 329.027 382.132 332.664 378.774 335.375L378.578 335.136L378.774 335.375L224.513 459.67C221.427 462.159 217.658 463.507 214.04 463.697ZM250.36 204.628C246.869 204.811 243.226 206.125 240.249 208.525L86.0013 332.819C82.7791 335.412 80.8642 338.879 80.747 342.306C80.6604 344.97 81.6823 347.423 83.6473 349.217L204.798 460.167C209.474 464.45 218.137 464.008 224.119 459.192L378.38 334.884C381.602 332.29 383.517 328.824 383.634 325.397C383.721 322.733 382.699 320.28 380.734 318.486L259.584 207.549C257.231 205.402 253.879 204.442 250.36 204.628Z" fill="url(#paint12_linear_158_2104)"/>
<path d="M204.218 465.572C199.979 465.795 195.911 464.444 193.35 461.545L82.3686 336.764C80.4404 334.594 79.5699 331.786 79.9402 328.858C80.3991 325.192 82.7076 321.663 86.2628 319.204L250.837 205.337C257.469 200.75 266.529 201.118 271.018 206.172L382 330.954C383.928 333.124 384.798 335.931 384.428 338.859C383.969 342.526 381.661 346.055 378.105 348.513L213.531 462.381C210.687 464.345 207.398 465.404 204.218 465.572ZM260.182 202.767C257.116 202.929 253.953 203.954 251.204 205.844L86.6437 319.711C83.2255 322.079 81.0213 325.436 80.582 328.935C80.2447 331.682 81.0499 334.326 82.857 336.35L193.838 461.132C198.116 465.948 206.778 466.268 213.15 461.861L377.71 347.994L377.893 348.247L377.71 347.994C381.128 345.626 383.332 342.269 383.771 338.769C384.109 336.023 383.303 333.378 381.496 331.354L270.53 206.586C268.09 203.847 264.224 202.555 260.182 202.767Z" fill="url(#paint13_linear_158_2104)"/>
<path d="M194.296 466.606C189.491 466.859 184.891 465.079 182.323 461.516L82.6732 323.437C80.9157 321.009 80.3192 318.021 80.9684 315.009C81.7665 311.325 84.3664 307.947 88.0915 305.756L262.009 203.544C269.019 199.421 278.01 200.61 282.045 206.201L381.68 344.267C383.437 346.695 384.034 349.683 383.384 352.695C382.586 356.38 379.987 359.758 376.261 361.948L376.091 361.666L376.261 361.948L202.359 464.174C199.816 465.665 197.024 466.463 194.296 466.606ZM270.119 201.746C267.491 201.884 264.796 202.649 262.349 204.094L88.4464 306.305C84.8723 308.405 82.3775 311.625 81.6272 315.141C81.0109 317.971 81.5839 320.78 83.2345 323.062L182.869 461.127C186.706 466.452 195.31 467.564 202.032 463.609L375.935 361.397C379.509 359.298 382.004 356.078 382.754 352.562C383.37 349.732 382.797 346.923 381.147 344.641L281.512 206.576C279.066 203.186 274.712 201.504 270.119 201.746Z" fill="url(#paint14_linear_158_2104)"/>
<path d="M184.301 466.786C178.916 467.069 173.808 464.79 171.315 460.503L84.1516 309.786C82.593 307.098 82.2704 303.93 83.2291 300.874C84.3685 297.213 87.2478 294.028 91.1013 292.122L273.301 202.7C280.665 199.086 289.515 201.113 293.054 207.229L380.217 357.931C381.775 360.619 382.098 363.788 381.139 366.844C380 370.505 377.12 373.689 373.267 375.596L373.124 375.299L373.267 375.596L191.067 465.017C188.884 466.088 186.562 466.667 184.301 466.786ZM280.116 201.58C277.939 201.694 275.701 202.241 273.601 203.28L91.401 292.701C87.6986 294.517 84.9535 297.556 83.8618 301.048C82.9509 303.935 83.2641 306.924 84.7292 309.451L171.892 460.154C175.244 465.961 183.72 467.869 190.751 464.411L372.952 374.989C376.654 373.174 379.399 370.135 380.491 366.642C381.402 363.755 381.088 360.766 379.623 358.239L292.461 207.551C290.106 203.464 285.246 201.31 280.116 201.58Z" fill="url(#paint15_linear_158_2104)"/>
<path d="M174.314 466.065C168.365 466.378 162.744 463.516 160.465 458.456L86.8213 295.893C85.4899 292.943 85.4567 289.621 86.7391 286.52C88.222 282.924 91.3397 279.962 95.2955 278.383L284.631 202.838C292.279 199.79 300.933 202.659 303.916 209.247L377.56 371.81C378.891 374.76 378.924 378.082 377.642 381.183C376.159 384.779 373.041 387.741 369.086 389.32L368.956 389.008L369.086 389.32L179.735 464.866C177.959 465.582 176.123 465.97 174.314 466.065ZM290.102 202.301C288.363 202.392 286.597 202.762 284.89 203.448L95.5402 278.993C91.7511 280.509 88.7823 283.338 87.3613 286.764C86.1409 289.696 86.1794 292.852 87.4308 295.625L161.075 458.188C163.913 464.452 172.176 467.175 179.491 464.255L368.827 388.71C372.602 387.196 375.585 384.366 377.006 380.953C378.227 378.022 378.188 374.866 376.937 372.093L303.293 209.529C301.113 204.727 295.769 202.003 290.102 202.301Z" fill="url(#paint16_linear_158_2104)"/>
<path d="M164.394 464.44C157.879 464.783 151.796 461.225 149.818 455.401L90.689 281.866C89.5996 278.669 89.8983 275.191 91.5198 272.072C93.3351 268.597 96.6652 265.901 100.667 264.652L295.888 204.005C303.78 201.553 312.153 205.282 314.55 212.316L373.68 385.865C374.769 389.062 374.47 392.541 372.849 395.659C371.033 399.134 367.703 401.83 363.702 403.08L363.6 402.752L363.702 403.08L168.465 463.714C167.113 464.131 165.751 464.369 164.394 464.44ZM300.009 203.94C298.709 204.008 297.403 204.243 296.106 204.644L100.87 265.292C97.0356 266.477 93.8559 269.068 92.1308 272.372C90.5854 275.321 90.3196 278.617 91.3437 281.652L150.458 455.188C152.737 461.868 160.732 465.409 168.261 463.059L363.497 402.412C367.331 401.226 370.511 398.635 372.236 395.331C373.782 392.383 374.047 389.086 373.024 386.066L313.894 212.517C312.017 206.992 306.227 203.613 300.009 203.94Z" fill="url(#paint17_linear_158_2104)"/>
<path d="M154.624 461.894C147.529 462.267 141.037 457.927 139.471 451.32L95.7735 267.804C94.9544 264.357 95.5865 260.75 97.5635 257.654C99.7111 254.3 103.144 251.945 107.22 251.024L307.015 206.203C315.097 204.393 323.117 208.957 324.883 216.398L368.595 399.914C369.414 403.361 368.782 406.967 366.805 410.063C364.657 413.417 361.224 415.772 357.149 416.693L157.353 461.515C156.442 461.715 155.528 461.846 154.624 461.894ZM309.781 206.515C308.919 206.56 308.046 206.675 307.178 206.873L107.368 251.695C103.474 252.565 100.192 254.815 98.1499 258.025C96.278 260.963 95.6639 264.375 96.446 267.658L140.157 451.159C141.847 458.231 149.487 462.579 157.19 460.844L356.986 416.023L357.06 416.352L356.986 416.023C360.88 415.153 364.162 412.903 366.204 409.693C368.076 406.755 368.69 403.343 367.908 400.061L324.212 216.558C322.719 210.28 316.536 206.159 309.781 206.515Z" fill="url(#paint18_linear_158_2104)"/>
<path d="M145.086 458.393C141.581 458.577 138.158 457.608 135.33 455.582C132.135 453.299 130.075 449.973 129.536 446.192L102.066 253.817C101.527 250.036 102.576 246.269 105.009 243.219C107.442 240.168 110.979 238.168 114.946 237.627L317.914 209.452C321.895 208.897 325.843 209.852 329.037 212.122C332.233 214.405 334.292 217.732 334.832 221.512L362.301 413.888C363.42 421.682 357.638 428.953 349.422 430.092L146.454 458.266C145.989 458.318 145.539 458.369 145.086 458.393ZM319.318 210.016C318.88 210.039 318.443 210.076 318.007 210.14L115.039 238.3C111.24 238.833 107.882 240.727 105.555 243.633C103.242 246.539 102.241 250.123 102.755 253.711L130.225 446.087C130.74 449.674 132.692 452.84 135.739 455.007C138.787 457.173 142.547 458.083 146.346 457.551L349.314 429.391C357.136 428.301 362.653 421.39 361.583 413.981L334.129 221.618C333.614 218.031 331.662 214.865 328.614 212.698C325.92 210.776 322.668 209.839 319.318 210.016Z" fill="url(#paint19_linear_158_2104)"/>
<path d="M340.544 443.176L135.882 453.947C127.6 454.382 120.512 448.149 120.086 440.055L109.559 240.015C109.133 231.921 115.528 224.978 123.809 224.542L328.472 213.772C336.753 213.336 343.841 219.57 344.267 227.664L354.794 427.69C355.234 435.797 348.84 442.74 340.544 443.176ZM123.846 225.247C115.96 225.662 109.86 232.271 110.267 239.992L120.793 440.018C121.199 447.725 127.945 453.672 135.845 453.256L340.508 442.486C348.394 442.071 354.494 435.462 354.088 427.741L343.561 227.701C343.155 219.994 336.408 214.047 328.508 214.463L123.846 225.233L123.846 225.247Z" fill="url(#paint20_linear_158_2104)"/>
<g opacity="0.3">
<path d="M302.204 451.245C301.53 452.804 300.492 454.02 299.154 454.814C297.03 456.069 294.392 456.07 291.734 454.829L155.118 391.235C149.625 388.675 145.677 381.495 146.293 375.224L161.95 219.106C162.259 215.987 163.639 213.561 165.819 212.283C167.944 211.028 170.581 211.027 173.239 212.269L309.855 275.863C315.348 278.423 319.296 285.603 318.68 291.873L303.023 447.991C302.904 449.173 302.625 450.271 302.204 451.245ZM163.239 216.055C162.846 216.965 162.577 218.005 162.474 219.148L146.817 375.266C146.211 381.34 150.036 388.282 155.344 390.747L291.961 454.341C294.459 455.498 296.928 455.501 298.89 454.345C300.912 453.153 302.199 450.873 302.492 447.931L318.148 291.813C318.755 285.739 314.93 278.797 309.622 276.332L173.005 212.739L173.112 212.492L173.005 212.739C170.507 211.581 168.038 211.578 166.076 212.734C164.828 213.459 163.868 214.601 163.239 216.055Z" fill="url(#paint21_linear_158_2104)"/>
<path d="M295.032 457.657C294.246 459.476 293.009 460.837 291.391 461.618C289.104 462.726 286.375 462.486 283.691 460.956L149.014 383.57C143.607 380.461 140.107 372.873 141.242 366.657L169.221 211.873C169.764 208.839 171.319 206.567 173.582 205.479C175.869 204.371 178.599 204.611 181.282 206.141L315.972 283.533C321.379 286.641 324.879 294.229 323.744 300.445L295.753 455.224C295.6 456.099 295.352 456.917 295.032 457.657ZM170.429 209.636C170.126 210.337 169.895 211.116 169.741 211.959L141.762 366.744C140.668 372.761 144.051 380.098 149.291 383.103L283.968 460.49C286.492 461.936 289.047 462.161 291.176 461.139C293.275 460.119 294.718 457.999 295.232 455.138L323.211 300.353C324.306 294.336 320.923 286.999 315.682 283.994L180.993 206.601C178.469 205.156 175.914 204.93 173.785 205.952C172.313 206.673 171.159 207.947 170.429 209.636Z" fill="url(#paint22_linear_158_2104)"/>
<path d="M287.229 463.334C286.319 465.438 284.834 466.955 282.953 467.683C280.496 468.625 277.68 468.132 275.02 466.304L143.349 375.308C138.059 371.649 135.077 363.699 136.708 357.59L177.196 205.346C177.98 202.416 179.686 200.317 182.02 199.414C184.477 198.472 187.293 198.965 189.953 200.793L321.624 291.789C326.914 295.448 329.896 303.398 328.259 309.52L287.783 461.738C287.629 462.304 287.448 462.827 287.229 463.334ZM178.227 203.972C178.024 204.44 177.849 204.95 177.712 205.476L137.236 357.695C135.657 363.611 138.546 371.289 143.662 374.827L275.333 465.823C277.853 467.559 280.493 468.038 282.778 467.145C284.935 466.304 286.535 464.344 287.259 461.589L327.736 309.371C329.314 303.454 326.425 295.776 321.309 292.239L189.638 201.243L189.795 201.018L189.638 201.243C187.119 199.506 184.478 199.027 182.193 199.921C180.458 200.589 179.075 202.01 178.227 203.972Z" fill="url(#paint23_linear_158_2104)"/>
<path d="M278.851 468.177C277.807 470.593 276.056 472.272 273.871 472.9C271.3 473.654 268.334 472.881 265.754 470.763L138.22 366.431C133.099 362.243 130.662 353.974 132.804 348.009L185.854 199.607C186.85 196.816 188.726 194.882 191.107 194.185C193.678 193.431 196.644 194.204 199.224 196.322L326.758 300.654C331.879 304.841 334.316 313.11 332.174 319.076L279.124 467.477C279.035 467.716 278.953 467.943 278.851 468.177ZM186.616 199.135C186.526 199.343 186.444 199.569 186.361 199.795L133.316 348.184C131.258 353.955 133.608 361.939 138.574 365.998L266.107 470.33C268.558 472.329 271.336 473.083 273.741 472.365C275.95 471.717 277.682 469.906 278.617 467.289L331.668 318.888C333.726 313.117 331.376 305.132 326.41 301.074L198.877 196.742C196.426 194.742 193.648 193.988 191.243 194.706C189.219 195.311 187.599 196.862 186.616 199.135Z" fill="url(#paint24_linear_158_2104)"/>
<path d="M335.545 328.812C335.511 328.89 335.477 328.968 335.449 329.033L269.859 472.352C268.651 475.006 266.636 476.74 264.208 477.233C261.479 477.795 258.474 476.727 255.954 474.297L133.66 357.043C128.816 352.39 126.946 344.027 129.434 338.272C129.468 338.194 129.501 338.117 129.529 338.052L195.12 194.732C196.327 192.078 198.343 190.344 200.771 189.852C203.5 189.289 206.504 190.357 209.025 192.788L208.829 192.996L209.025 192.788L331.3 310.048C336.163 314.695 338.032 323.057 335.545 328.812ZM129.942 338.492C127.538 344.052 129.351 352.128 134.046 356.64L256.321 473.9C258.717 476.2 261.551 477.209 264.096 476.691C266.345 476.229 268.209 474.599 269.351 472.133L334.941 328.813C337.5 323.243 335.693 315.015 330.94 310.463L208.67 193.19C206.274 190.889 203.44 189.88 200.896 190.399C198.647 190.861 196.782 192.49 195.64 194.957L130.037 338.271C130.004 338.349 129.976 338.414 129.942 338.492Z" fill="url(#paint25_linear_158_2104)"/>
<path d="M338.587 338.19C338.413 338.593 338.219 338.972 338.013 339.345L259.979 476.314C258.558 478.799 256.416 480.339 253.954 480.631C251.096 480.968 248.053 479.607 245.625 476.892L129.712 347.18C125.047 341.972 123.832 333.245 126.966 327.739L204.981 190.777C206.402 188.293 208.545 186.752 211.007 186.46C213.865 186.123 216.907 187.484 219.335 190.199L219.132 190.389L219.335 190.199L335.254 319.898C339.604 324.754 340.968 332.683 338.587 338.19ZM126.906 329.131C124.609 334.444 125.942 342.097 130.142 346.811L246.054 476.492C248.358 479.076 251.23 480.379 253.902 480.054C256.191 479.779 258.177 478.356 259.499 476.029L337.52 339.055C340.539 333.746 339.344 325.32 334.836 320.272L218.917 190.573C216.614 187.99 213.742 186.686 211.07 187.011C208.781 187.286 206.794 188.709 205.472 191.036L127.446 328.023C127.25 328.37 127.075 328.742 126.906 329.131Z" fill="url(#paint26_linear_158_2104)"/>
<path d="M341.002 347.837C340.682 348.578 340.304 349.278 339.843 349.926L249.606 479.292C247.99 481.6 245.726 482.933 243.236 483.013C240.254 483.112 237.222 481.446 234.906 478.441L126.448 336.92C122.096 331.23 121.498 322.368 125.136 317.158L215.373 187.793C216.989 185.485 219.253 184.151 221.744 184.071C224.725 183.972 227.757 185.638 230.074 188.644L338.537 330.152C342.346 335.144 343.276 342.577 341.002 347.837ZM124.492 319.485C122.296 324.564 123.202 331.739 126.904 336.562L235.367 478.07C237.565 480.932 240.42 482.52 243.233 482.426C245.543 482.346 247.644 481.111 249.149 478.955L339.385 349.59C342.878 344.578 342.299 336.018 338.088 330.528L229.625 189.02L229.853 188.841L229.625 189.02C227.426 186.158 224.559 184.564 221.759 184.664C219.449 184.744 217.348 185.979 215.843 188.135L125.594 317.494C125.162 318.109 124.801 318.77 124.492 319.485Z" fill="url(#paint27_linear_158_2104)"/>
<path d="M342.754 357.691C342.271 358.809 341.652 359.821 340.904 360.715L238.779 481.225C236.974 483.344 234.6 484.445 232.075 484.325C228.982 484.159 225.979 482.183 223.837 478.913L123.895 326.303C119.871 320.17 119.953 311.232 124.074 306.369L226.192 185.84C227.997 183.722 230.371 182.621 232.896 182.741C235.989 182.907 238.992 184.883 241.134 188.153L341.082 340.749C344.371 345.794 344.916 352.69 342.754 357.691ZM122.746 309.649C120.663 314.469 121.203 321.131 124.377 325.988L224.331 478.571C226.386 481.695 229.217 483.582 232.122 483.728C234.454 483.842 236.67 482.827 238.344 480.837L340.462 360.308C344.425 355.639 344.477 347.012 340.588 341.091L240.64 188.494L240.881 188.321L240.64 188.494C238.585 185.37 235.755 183.484 232.849 183.338C230.518 183.224 228.301 184.239 226.627 186.229L124.509 306.757C123.796 307.605 123.207 308.584 122.746 309.649Z" fill="url(#paint28_linear_158_2104)"/>
<path d="M343.821 367.665C343.164 369.185 342.281 370.53 341.168 371.606L227.573 482.085C225.592 484.019 223.107 484.888 220.565 484.529C217.397 484.084 214.448 481.807 212.493 478.279L122.101 315.429C118.468 308.879 119.234 299.928 123.823 295.483L237.418 185.004C239.399 183.07 241.884 182.202 244.426 182.561C247.594 183.005 250.542 185.282 252.498 188.81L342.89 351.66C345.627 356.621 345.86 362.95 343.821 367.665ZM121.684 299.662C119.719 304.208 119.954 310.323 122.609 315.125L213.001 477.975C214.875 481.344 217.657 483.518 220.655 483.936C223.003 484.257 225.323 483.456 227.168 481.663L340.763 371.184C345.16 366.903 345.885 358.29 342.369 351.959L251.977 189.109L252.237 188.96L251.977 189.109C250.103 185.74 247.321 183.566 244.323 183.148C241.975 182.827 239.655 183.628 237.81 185.42L124.215 295.9C123.163 296.94 122.308 298.22 121.684 299.662Z" fill="url(#paint29_linear_158_2104)"/>
<path d="M344.165 377.712C343.322 379.66 342.113 381.342 340.577 382.559L216.041 481.818C213.882 483.536 211.292 484.159 208.758 483.572C205.539 482.828 202.676 480.249 200.94 476.492L121.107 304.346C117.892 297.421 119.369 288.532 124.402 284.525L248.937 185.266C251.097 183.548 253.686 182.925 256.22 183.512C259.44 184.256 262.303 186.835 264.039 190.592L263.771 190.723L264.039 190.592L343.872 362.738C346.105 367.543 346.074 373.295 344.165 377.712ZM121.336 289.629C119.5 293.876 119.478 299.433 121.642 304.084L201.488 476.235C203.16 479.826 205.862 482.289 208.905 482.988C211.263 483.529 213.668 482.95 215.684 481.355L340.22 382.096C345.042 378.261 346.441 369.692 343.331 363.013L263.491 190.849C261.819 187.258 259.116 184.795 256.073 184.096C253.716 183.555 251.31 184.134 249.295 185.729L124.759 284.988C123.302 286.162 122.139 287.771 121.336 289.629Z" fill="url(#paint30_linear_158_2104)"/>
<path d="M343.779 387.736C342.74 390.139 341.173 392.16 339.144 393.472L204.295 480.409C201.976 481.904 199.3 482.273 196.748 481.448C193.502 480.383 190.78 477.511 189.278 473.562L120.934 293.139C118.182 285.875 120.374 277.11 125.822 273.606L260.677 186.657C262.996 185.162 265.672 184.792 268.224 185.618C271.47 186.682 274.192 189.554 275.694 193.503L344.038 373.926C345.769 378.498 345.542 383.657 343.779 387.736ZM121.74 279.597C120.044 283.52 119.829 288.514 121.508 292.925L189.858 473.335C191.284 477.112 193.881 479.854 196.957 480.86C199.32 481.634 201.822 481.282 203.991 479.892L338.846 392.942C344.051 389.581 346.141 381.156 343.489 374.151L275.145 193.728L275.432 193.621L275.145 193.728C273.719 189.951 271.122 187.21 268.046 186.204C265.683 185.429 263.181 185.781 261.012 187.171L126.151 274.134C124.231 275.37 122.734 277.298 121.74 279.597Z" fill="url(#paint31_linear_158_2104)"/>
<path d="M342.638 397.696C341.391 400.58 339.399 402.956 336.834 404.253L192.393 477.823C189.902 479.09 187.145 479.193 184.613 478.114C181.383 476.733 178.829 473.578 177.593 469.467L121.625 281.921C119.376 274.366 122.293 265.806 128.126 262.839L272.58 189.274C275.071 188.008 277.828 187.904 280.36 188.984C283.59 190.365 286.144 193.519 287.368 197.625L343.336 385.17C344.622 389.411 344.244 393.981 342.638 397.696ZM122.887 269.624C121.343 273.197 120.988 277.607 122.219 281.731L178.187 469.276C179.365 473.208 181.788 476.214 184.866 477.529C187.233 478.537 189.804 478.446 192.125 477.26L336.578 403.695C342.162 400.852 344.933 392.629 342.76 385.353L286.792 197.808L287.086 197.719L286.792 197.808C285.614 193.876 283.191 190.87 280.113 189.555C277.746 188.547 275.175 188.638 272.854 189.824L128.401 263.389C125.97 264.62 124.072 266.883 122.887 269.624Z" fill="url(#paint32_linear_158_2104)"/>
<path d="M340.73 407.51C339.265 410.9 336.784 413.605 333.669 414.817L180.429 474.023C177.784 475.054 174.939 474.872 172.438 473.513C169.26 471.8 166.894 468.387 165.957 464.175L123.188 270.741C121.463 262.95 125.108 254.658 131.298 252.262L284.537 193.056C287.182 192.025 290.027 192.207 292.528 193.566C295.706 195.279 298.073 198.692 299.009 202.905L298.707 202.975L299.009 202.905L341.778 396.338C342.636 400.209 342.168 404.184 340.73 407.51ZM124.807 259.816C123.42 263.025 122.977 266.873 123.804 270.607L166.579 464.027C167.469 468.066 169.723 471.322 172.741 472.951C175.089 474.212 177.741 474.387 180.221 473.425L333.46 414.219C339.375 411.935 342.83 403.977 341.175 396.478L298.393 203.039C297.502 199 295.248 195.744 292.23 194.115C289.883 192.854 287.231 192.679 284.75 193.642L131.524 252.853C128.555 254.005 126.205 256.582 124.807 259.816Z" fill="url(#paint33_linear_158_2104)"/>
<path d="M338.044 417.14C336.359 421.037 333.341 424.08 329.606 425.087L168.497 469.034C165.696 469.797 162.795 469.329 160.336 467.695C157.256 465.654 155.121 462.018 154.499 457.741L125.654 259.704C124.493 251.725 128.85 243.772 135.373 241.998L296.481 198.05C299.282 197.287 302.184 197.755 304.642 199.389C307.723 201.43 309.858 205.066 310.48 209.343L339.325 407.38C339.82 410.801 339.307 414.218 338.044 417.14ZM127.506 250.191C126.288 253.01 125.8 256.298 126.271 259.601L155.122 457.624C155.724 461.739 157.751 465.206 160.691 467.155C163.001 468.678 165.728 469.132 168.344 468.413L329.452 424.465C335.668 422.774 339.805 415.157 338.689 407.491L309.838 209.467L310.147 209.415L309.838 209.467C309.236 205.352 307.209 201.886 304.27 199.937C301.96 198.414 299.233 197.96 296.616 198.679L135.526 242.619C131.989 243.587 129.112 246.476 127.506 250.191Z" fill="url(#paint34_linear_158_2104)"/>
<path d="M334.56 426.488C332.651 430.905 329.011 434.234 324.678 434.951L156.696 462.838C153.739 463.332 150.797 462.539 148.388 460.618C145.442 458.265 143.572 454.435 143.266 450.125L129.014 248.9C128.437 240.788 133.499 233.263 140.301 232.133L308.265 204.254C311.221 203.759 314.163 204.553 316.572 206.473C319.518 208.826 321.388 212.656 321.695 216.967L321.366 216.995L321.695 216.967L335.965 418.184C336.17 421.125 335.644 423.981 334.56 426.488ZM131.008 240.835C129.964 243.251 129.451 246.005 129.658 248.839L143.915 450.051C144.207 454.186 145.983 457.852 148.799 460.087C151.06 461.897 153.831 462.632 156.608 462.168L324.573 434.289C331.048 433.218 335.868 426.006 335.314 418.227L321.056 217.015C320.764 212.88 318.989 209.214 316.173 206.979C313.912 205.169 311.141 204.433 308.363 204.898L140.399 232.777C136.276 233.461 132.833 236.614 131.008 240.835Z" fill="url(#paint35_linear_158_2104)"/>
<path d="M330.278 435.522C328.138 440.471 323.825 444.034 318.877 444.361L145.124 455.445C142.024 455.647 139.042 454.527 136.73 452.31C133.957 449.662 132.385 445.667 132.39 441.368L133.278 238.409C133.313 230.207 139.063 223.18 146.114 222.728L319.854 211.639C322.955 211.437 325.937 212.557 328.248 214.774C331.021 217.422 332.594 221.417 332.589 225.716L332.259 225.712L332.589 225.716L331.701 428.675C331.689 431.106 331.176 433.444 330.278 435.522ZM135.303 231.807C134.438 233.808 133.933 236.056 133.93 238.398L133.042 441.357C133.023 445.481 134.525 449.291 137.168 451.821C139.349 453.92 142.166 454.968 145.081 454.779L318.821 443.689C325.513 443.268 330.99 436.524 331.017 428.688L331.905 225.729C331.925 221.605 330.423 217.795 327.78 215.265C325.598 213.166 322.781 212.118 319.867 212.307L146.139 223.402C141.432 223.695 137.342 227.092 135.303 231.807Z" fill="url(#paint36_linear_158_2104)"/>
<path d="M325.193 444.147C322.829 449.616 317.766 453.378 312.221 453.17L133.865 446.878C130.632 446.759 127.641 445.312 125.433 442.785C122.871 439.859 121.604 435.749 121.948 431.504L138.438 228.321C139.107 220.115 145.523 213.639 152.751 213.895L331.106 220.188C334.34 220.306 337.331 221.753 339.538 224.28C342.1 227.207 343.368 231.316 343.024 235.562L342.687 235.539L343.024 235.562L326.528 438.757C326.381 440.667 325.912 442.484 325.193 444.147ZM140.388 223.182C139.697 224.78 139.244 226.526 139.099 228.36L122.603 431.556C122.276 435.623 123.491 439.541 125.929 442.337C128.012 444.733 130.856 446.101 133.897 446.213L312.252 452.505C319.124 452.747 325.237 446.555 325.873 438.705L342.363 235.523C342.684 231.468 341.475 227.538 339.05 224.747C336.967 222.351 334.123 220.983 331.082 220.871L152.726 214.579C147.456 214.397 142.64 217.973 140.388 223.182Z" fill="url(#paint37_linear_158_2104)"/>
<path d="M319.328 452.311C316.739 458.299 310.848 462.166 304.752 461.35L123.02 437.179C119.672 436.733 116.689 434.919 114.616 432.081C112.31 428.91 111.375 424.728 112.035 420.589L144.486 218.756C145.798 210.597 152.86 204.754 160.227 205.734L341.971 229.911C345.319 230.356 348.302 232.17 350.375 235.009C352.681 238.18 353.616 242.361 352.956 246.501L352.618 246.447L352.956 246.501L320.486 448.341C320.259 449.738 319.867 451.064 319.328 452.311ZM146.26 215.036C145.743 216.231 145.373 217.505 145.156 218.845L112.699 420.691C112.056 424.653 112.964 428.653 115.156 431.667C117.11 434.362 119.945 436.065 123.119 436.497L304.845 460.681C311.842 461.609 318.567 456.022 319.81 448.233L352.267 246.388C352.91 242.426 352.002 238.426 349.809 235.412C347.855 232.717 345.02 231.013 341.859 230.587L160.115 206.41C154.332 205.637 148.731 209.321 146.26 215.036Z" fill="url(#paint38_linear_158_2104)"/>
<path d="M312.703 459.932C309.884 466.453 303.111 470.339 296.496 468.805L112.683 426.374C109.231 425.575 106.282 423.406 104.387 420.259C102.338 416.844 101.754 412.722 102.741 408.662L151.401 209.767C153.372 201.723 161.026 196.567 168.477 198.293L352.295 240.711C355.747 241.51 358.697 243.679 360.591 246.826C362.641 250.241 363.225 254.363 362.238 258.423L313.577 457.318C313.352 458.223 313.063 459.1 312.703 459.932ZM152.91 207.428C152.567 208.22 152.283 209.053 152.074 209.919L103.408 408.827C102.456 412.702 103.012 416.643 104.98 419.898C106.78 422.881 109.563 424.948 112.851 425.706L296.657 468.119C303.743 469.749 311.035 464.838 312.904 457.166L361.565 258.271L361.892 258.351L361.565 258.271C362.517 254.396 361.96 250.455 359.993 247.2C358.193 244.217 355.41 242.15 352.121 241.392L168.321 198.966C162.034 197.512 155.594 201.219 152.91 207.428Z" fill="url(#paint39_linear_158_2104)"/>
<path d="M305.328 466.918C303.936 470.14 301.545 472.776 298.474 474.408C295.008 476.256 291.113 476.622 287.487 475.425L102.951 414.519C99.3252 413.321 96.4169 410.707 94.7658 407.172C93.1148 403.637 92.8949 399.579 94.1738 395.784L159.157 201.448C160.429 197.634 163.039 194.523 166.492 192.67C169.958 190.823 173.854 190.456 177.48 191.654L362.015 252.56C369.494 255.022 373.437 263.434 370.805 271.3L305.822 465.636C305.662 466.076 305.508 466.503 305.328 466.918ZM160.286 200.44C160.111 200.843 159.95 201.251 159.814 201.67L94.8183 396.001C93.6068 399.64 93.8108 403.49 95.3799 406.867C96.9546 410.23 99.7202 412.721 103.163 413.855L287.698 474.761C291.141 475.894 294.845 475.553 298.14 473.786C301.436 472.019 303.922 469.055 305.134 465.416L370.13 271.085C372.63 263.593 368.892 255.579 361.78 253.244L177.262 192.331C173.82 191.197 170.116 191.539 166.821 193.305C163.901 194.865 161.616 197.361 160.286 200.44Z" fill="url(#paint40_linear_158_2104)"/>
<path d="M378.58 285.068L297.254 473.187C293.963 480.799 285.228 484.377 277.789 481.161L93.9187 401.672C86.4791 398.455 83.102 389.641 86.3928 382.029L167.719 193.91C171.01 186.298 179.744 182.72 187.184 185.936L371.041 265.42C378.499 268.628 381.876 277.443 378.58 285.068ZM87.0403 382.309C83.9067 389.557 87.1154 397.96 94.2122 401.028L278.07 480.512C285.154 483.574 293.48 480.174 296.619 472.913L377.945 284.793C381.079 277.545 377.87 269.143 370.773 266.075L186.903 186.585C179.819 183.523 171.493 186.923 168.354 194.184L87.0276 382.304L87.0403 382.309Z" fill="url(#paint41_linear_158_2104)"/>
</g>
<path d="M119.303 263.212C120.035 261.68 121.119 260.504 122.486 259.761C124.657 258.588 127.292 258.687 129.901 260.029L264.001 328.771C269.393 331.538 273.065 338.863 272.21 345.106L250.629 500.516C250.201 503.621 248.73 505.992 246.503 507.186C244.332 508.36 241.697 508.26 239.088 506.919L104.989 438.176C99.5967 435.409 95.9246 428.085 96.779 421.842L118.361 266.432C118.525 265.255 118.845 264.169 119.303 263.212ZM249.225 503.515C249.652 502.621 249.961 501.592 250.106 500.454L271.688 345.044C272.525 338.997 268.967 331.915 263.756 329.25L129.657 260.508C127.204 259.257 124.736 259.159 122.732 260.24C120.666 261.354 119.293 263.584 118.889 266.512L97.3078 421.922C96.4704 427.969 100.029 435.051 105.24 437.716L239.339 506.458L239.223 506.701L239.339 506.458C241.792 507.71 244.259 507.807 246.263 506.726C247.538 506.049 248.541 504.945 249.225 503.515Z" fill="url(#paint42_linear_158_2104)"/>
<path d="M126.713 257.077C127.568 255.289 128.856 253.976 130.502 253.257C132.83 252.237 135.548 252.58 138.172 254.211L269.809 336.663C275.094 339.974 278.303 347.69 276.932 353.858L243.088 507.467C242.43 510.478 240.79 512.689 238.487 513.69C236.159 514.71 233.441 514.367 230.818 512.736L99.168 430.279C93.8833 426.967 90.6739 419.252 92.0446 413.083L125.901 259.481C126.086 258.612 126.365 257.804 126.713 257.077ZM241.796 509.657C242.126 508.967 242.386 508.198 242.572 507.361L276.416 353.752C277.738 347.78 274.637 340.321 269.514 337.118L137.877 254.666C135.41 253.126 132.866 252.803 130.699 253.743C128.563 254.683 127.04 256.747 126.418 259.586L92.5737 413.195C91.2511 419.167 94.3527 426.627 99.4749 429.829L231.124 512.287C233.592 513.828 236.136 514.15 238.303 513.21C239.801 512.546 241.002 511.316 241.796 509.657Z" fill="url(#paint43_linear_158_2104)"/>
<path d="M134.727 251.701C135.716 249.633 137.257 248.174 139.165 247.518C141.656 246.67 144.451 247.269 147.04 249.197L275.156 345.134C280.302 348.991 282.98 357.049 281.117 363.091L234.871 513.686C233.975 516.584 232.191 518.617 229.824 519.43C227.333 520.278 224.538 519.679 221.95 517.751L93.8333 421.814C88.6869 417.957 86.009 409.899 87.8777 403.844L134.112 253.274C134.288 252.715 134.489 252.199 134.727 251.701ZM233.788 515.02C234.008 514.56 234.203 514.057 234.36 513.536L280.594 362.967C282.397 357.115 279.802 349.332 274.824 345.603L146.708 249.666C144.257 247.835 141.636 247.256 139.319 248.062C137.132 248.82 135.458 250.717 134.63 253.443L88.3949 404.013C86.5928 409.865 89.1876 417.647 94.1652 421.377L222.281 517.313L222.116 517.532L222.281 517.313C224.733 519.144 227.353 519.723 229.671 518.918C231.43 518.316 232.866 516.948 233.788 515.02Z" fill="url(#paint44_linear_158_2104)"/>
<path d="M143.282 247.181C144.417 244.806 146.231 243.195 148.438 242.65C151.036 241.995 153.97 242.88 156.468 245.094L279.942 354.2C284.901 358.579 287.022 366.935 284.655 372.815L226 519.092C224.898 521.844 222.951 523.705 220.545 524.311C217.947 524.967 215.013 524.081 212.515 521.867L89.0405 412.761C84.0823 408.382 81.961 400.026 84.3284 394.146L142.983 247.869C143.081 247.634 143.172 247.411 143.282 247.181ZM225.221 519.535C225.318 519.331 225.41 519.108 225.501 518.885L284.15 372.62C286.425 366.932 284.381 358.864 279.573 354.62L156.099 245.514C153.726 243.422 150.979 242.563 148.548 243.189C146.316 243.753 144.516 245.497 143.482 248.077L84.8272 394.354C82.5515 400.042 84.5957 408.11 89.4037 412.354L212.878 521.46C215.251 523.552 217.998 524.411 220.429 523.785C222.475 523.257 224.152 521.769 225.221 519.535Z" fill="url(#paint45_linear_158_2104)"/>
<path d="M81.3309 384.289C81.3675 384.212 81.4042 384.136 81.4347 384.072L152.427 243.35C153.735 240.744 155.815 239.087 158.259 238.688C161.008 238.23 163.97 239.411 166.396 241.936L284.143 363.754C288.807 368.588 290.357 377.016 287.652 382.672C287.616 382.749 287.579 382.825 287.548 382.889L216.556 523.611C215.249 526.217 213.169 527.874 210.724 528.273C207.975 528.731 205.014 527.55 202.588 525.025L202.791 524.824L202.588 525.025L84.8587 403.2C80.1763 398.372 78.6261 389.944 81.3309 384.289ZM287.153 382.433C289.766 376.969 288.262 368.83 283.742 364.143L166.014 242.318C163.707 239.928 160.914 238.812 158.351 239.234C156.086 239.609 154.161 241.167 152.926 243.588L81.9338 384.31C79.1653 389.779 80.6584 398.07 85.2344 402.799L202.957 524.637C205.264 527.027 208.057 528.143 210.62 527.721C212.884 527.345 214.81 525.788 216.045 523.366L287.049 382.65C287.086 382.574 287.117 382.51 287.153 382.433Z" fill="url(#paint46_linear_158_2104)"/>
<path d="M78.647 374.801C78.8362 374.405 79.0444 374.034 79.265 373.669L162.45 239.767C163.964 237.338 166.164 235.88 168.635 235.681C171.504 235.453 174.493 236.929 176.816 239.734L287.713 373.76C292.177 379.142 293.059 387.909 289.718 393.292L206.551 527.188C205.037 529.617 202.837 531.074 200.366 531.273C197.497 531.501 194.509 530.025 192.186 527.22L192.395 527.038L192.186 527.22L81.282 393.207C77.1199 388.189 76.0582 380.214 78.647 374.801ZM289.83 391.902C292.328 386.681 291.287 378.983 287.269 374.112L176.372 240.118C174.168 237.449 171.348 236.037 168.665 236.26C166.368 236.448 164.329 237.794 162.919 240.069L79.746 373.978C76.5278 379.168 77.401 387.633 81.7139 392.849L192.618 526.862C194.821 529.531 197.642 530.943 200.324 530.72C202.622 530.532 204.661 529.186 206.071 526.911L289.249 392.989C289.458 392.65 289.647 392.285 289.83 391.902Z" fill="url(#paint47_linear_158_2104)"/>
<path d="M76.6009 365.069C76.9489 364.342 77.3532 363.657 77.8387 363.026L172.929 237.185C174.631 234.941 176.945 233.694 179.436 233.709C182.419 233.724 185.386 235.503 187.586 238.595L290.585 384.137C294.717 389.988 294.978 398.866 291.144 403.935L196.053 529.775C194.351 532.02 192.038 533.267 189.546 533.252C186.563 533.237 183.597 531.458 181.396 528.366L78.3916 382.836C74.7754 377.703 74.1281 370.24 76.6009 365.069ZM291.876 401.634C294.263 396.642 293.631 389.437 290.115 384.478L187.111 238.948C185.023 236.004 182.231 234.308 179.416 234.296C177.105 234.288 174.959 235.442 173.373 237.539L78.2829 363.38C74.6022 368.255 74.855 376.831 78.8546 382.477L181.859 528.007L181.624 528.177L181.859 528.007C183.947 530.95 186.751 532.652 189.554 532.659C191.865 532.667 194.011 531.513 195.597 529.416L290.7 403.581C291.154 402.983 291.54 402.336 291.876 401.634Z" fill="url(#paint48_linear_158_2104)"/>
<path d="M75.2248 355.156C75.7498 354.058 76.4063 353.07 77.1881 352.205L183.821 235.665C185.705 233.617 188.12 232.607 190.638 232.823C193.723 233.105 196.648 235.195 198.665 238.544L292.732 394.843C296.52 401.125 296.098 410.053 291.795 414.756L185.168 531.315C183.284 533.363 180.869 534.373 178.351 534.157C175.267 533.874 172.341 531.785 170.324 528.436L76.2509 372.149C73.1563 366.983 72.8741 360.071 75.2248 355.156ZM293.246 411.529C295.511 406.792 295.225 400.114 292.238 395.14L198.158 238.866C196.224 235.666 193.467 233.673 190.569 233.417C188.243 233.215 185.989 234.145 184.241 236.069L77.6142 352.628C73.4769 357.144 73.0963 365.762 76.7577 371.827L170.831 528.113L170.584 528.277L170.831 528.113C172.766 531.313 175.523 533.306 178.42 533.562C180.746 533.765 183 532.835 184.748 530.91L291.375 414.351C292.12 413.531 292.746 412.575 293.246 411.529Z" fill="url(#paint49_linear_158_2104)"/>
<path d="M74.5372 345.149C75.2515 343.655 76.1849 342.344 77.3381 341.311L195.052 235.231C197.105 233.374 199.621 232.601 202.148 233.056C205.297 233.621 208.156 236.008 209.976 239.608L294.111 405.777C297.492 412.461 296.387 421.376 291.632 425.643L173.918 531.723C171.865 533.581 169.349 534.354 166.822 533.899C163.673 533.334 160.814 530.947 158.994 527.347L74.8593 361.178C72.3123 356.116 72.3209 349.783 74.5372 345.149ZM293.927 421.549C296.064 417.08 296.062 410.962 293.591 406.062L209.457 239.893C207.713 236.455 205.016 234.177 202.035 233.645C199.701 233.235 197.352 233.947 195.441 235.668L77.727 341.748C73.17 345.859 72.118 354.439 75.3913 360.899L159.526 527.068L159.26 527.207L159.526 527.068C161.27 530.506 163.967 532.784 166.948 533.316C169.281 533.726 171.63 533.014 173.542 531.292L291.256 425.212C292.347 424.213 293.25 422.966 293.927 421.549Z" fill="url(#paint50_linear_158_2104)"/>
<path d="M74.5764 335.097C75.4922 333.182 76.7646 331.547 78.3455 330.389L206.565 235.938C208.788 234.303 211.4 233.779 213.91 234.462C217.098 235.328 219.861 238.014 221.453 241.834L294.683 416.891C297.632 423.933 295.818 432.76 290.637 436.572L162.417 531.024C160.194 532.659 157.583 533.183 155.073 532.5C151.884 531.634 149.121 528.948 147.529 525.128L147.802 525.007L147.529 525.128L74.2993 350.071C72.2509 345.185 72.5005 339.437 74.5764 335.097ZM293.894 431.589C295.891 427.414 296.124 421.862 294.139 417.132L220.896 242.07C219.361 238.418 216.755 235.854 213.741 235.04C211.405 234.409 208.98 234.896 206.905 236.414L78.685 330.865C73.7202 334.515 71.9965 343.024 74.8501 349.816L148.087 524.892C149.621 528.544 152.228 531.108 155.242 531.922C157.578 532.553 160.003 532.065 162.078 530.548L290.298 436.096C291.798 434.978 293.021 433.414 293.894 431.589Z" fill="url(#paint51_linear_158_2104)"/>
<path d="M75.3429 325.094C76.4724 322.732 78.1148 320.773 80.1922 319.539L218.25 237.792C220.624 236.386 223.312 236.119 225.83 237.041C229.034 238.228 231.644 241.202 232.995 245.205L294.43 428.096C296.903 435.459 294.38 444.135 288.803 447.429L150.739 529.188C148.365 530.594 145.676 530.861 143.158 529.939C139.955 528.752 137.345 525.779 135.993 521.775L74.5586 338.884C73.0033 334.25 73.4257 329.103 75.3429 325.094ZM293.109 441.598C294.953 437.742 295.358 432.759 293.848 428.288L232.407 245.41C231.126 241.581 228.635 238.743 225.599 237.62C223.268 236.757 220.754 237.013 218.534 238.32L80.4701 320.079C75.1408 323.241 72.7321 331.579 75.1161 338.68L136.551 521.571L136.26 521.667L136.551 521.571C137.832 525.4 140.323 528.238 143.359 529.361C145.69 530.224 148.204 529.968 150.424 528.661L288.494 446.889C290.46 445.727 292.028 443.858 293.109 441.598Z" fill="url(#paint52_linear_158_2104)"/>
<path d="M76.862 315.185C78.2174 312.35 80.2982 310.051 82.9101 308.853L230.044 240.828C232.582 239.657 235.341 239.659 237.83 240.834C241.005 242.337 243.437 245.586 244.516 249.741L293.313 439.279C295.273 446.915 292.032 455.357 286.091 458.1L138.944 526.12C136.406 527.29 133.648 527.289 131.158 526.114C127.983 524.611 125.551 521.362 124.484 517.212L75.6877 327.675C74.564 323.388 75.1158 318.836 76.862 315.185ZM291.584 451.519C293.263 448.008 293.785 443.615 292.712 439.446L243.915 249.909C242.887 245.935 240.581 242.839 237.555 241.408C235.228 240.311 232.656 240.304 230.291 241.401L83.1449 309.42C77.4568 312.049 74.3752 320.16 76.2704 327.514L125.067 517.052L124.769 517.129L125.067 517.052C126.095 521.026 128.401 524.121 131.427 525.552C133.754 526.649 136.327 526.656 138.691 525.559L285.837 457.54C288.313 456.402 290.295 454.213 291.584 451.519Z" fill="url(#paint53_linear_158_2104)"/>
<path d="M79.1409 305.451C80.7345 302.118 83.3159 299.51 86.4756 298.417L241.855 245.08C244.538 244.151 247.374 244.441 249.822 245.894C252.931 247.726 255.167 251.227 255.942 255.472L291.326 450.392C292.753 458.243 288.795 466.39 282.519 468.55L127.14 521.886C124.457 522.815 121.621 522.526 119.173 521.073C116.064 519.24 113.828 515.74 113.053 511.494L113.357 511.436L113.053 511.494L77.6693 316.575C76.959 312.674 77.5779 308.719 79.1409 305.451ZM289.293 461.247C290.801 458.094 291.39 454.266 290.705 450.503L255.316 255.596C254.579 251.526 252.451 248.187 249.497 246.445C247.199 245.095 244.556 244.819 242.04 245.687L86.6609 299.023C80.6636 301.081 76.9084 308.901 78.2772 316.458L113.673 511.383C114.41 515.453 116.538 518.793 119.492 520.535C121.79 521.885 124.433 522.16 126.949 521.293L282.315 467.95C285.327 466.912 287.772 464.426 289.293 461.247Z" fill="url(#paint54_linear_158_2104)"/>
<path d="M82.1918 295.929C84.0235 292.099 87.1553 289.173 90.9258 288.309L253.589 250.519C256.417 249.864 259.298 250.442 261.693 252.167C264.694 254.324 266.688 258.039 267.147 262.337L288.442 461.327C289.299 469.345 284.642 477.126 278.056 478.651L115.394 516.441C112.566 517.097 109.684 516.519 107.289 514.793C104.289 512.637 102.294 508.922 101.835 504.624L80.5404 305.634C80.1758 302.196 80.8181 298.802 82.1918 295.929ZM286.229 470.763C287.554 467.993 288.166 464.725 287.821 461.407L266.521 262.429C266.075 258.295 264.181 254.754 261.318 252.694C259.068 251.084 256.36 250.527 253.718 251.146L91.0554 288.936C84.7795 290.39 80.3564 297.843 81.1796 305.547L102.48 504.524L102.17 504.564L102.48 504.524C102.925 508.659 104.819 512.2 107.683 514.26C109.933 515.869 112.641 516.427 115.283 515.808L277.927 478.025C281.499 477.191 284.483 474.414 286.229 470.763Z" fill="url(#paint55_linear_158_2104)"/>
<path d="M86.0287 286.721C88.1045 282.38 91.8678 279.191 96.2251 278.64L265.146 257.161C268.12 256.778 271.029 257.683 273.364 259.694C276.218 262.157 277.941 266.056 278.083 270.375L284.674 471.996C284.941 480.124 279.597 487.452 272.757 488.322L103.855 509.794C100.882 510.176 97.9722 509.271 95.6375 507.26C92.7833 504.797 91.0601 500.899 90.918 496.58L91.2472 496.564L90.918 496.58L84.3089 294.965C84.2156 292.019 84.8503 289.185 86.0287 286.721ZM282.374 479.979C283.509 477.604 284.126 474.872 284.028 472.032L277.431 270.424C277.297 266.281 275.662 262.55 272.933 260.21C270.742 258.315 268.001 257.475 265.208 257.833L96.3053 279.305C89.7942 280.129 84.7026 287.153 84.9612 294.948L91.5578 496.556C91.6923 500.699 93.3269 504.43 96.0559 506.77C98.2467 508.665 100.988 509.505 103.781 509.147L272.684 487.675C276.83 487.148 280.39 484.128 282.374 479.979Z" fill="url(#paint56_linear_158_2104)"/>
<path d="M90.6514 277.857C92.9776 272.992 97.4227 269.596 102.38 269.457L276.429 264.987C279.535 264.904 282.472 266.136 284.697 268.44C287.367 271.191 288.787 275.243 288.619 279.539L280.014 482.317C279.667 490.512 273.654 497.316 266.591 497.499L92.5546 501.974C89.4485 502.057 86.5115 500.825 84.2861 498.522C81.6159 495.77 80.1959 491.719 80.3646 487.423L80.6941 487.439L80.3646 487.423L88.9691 284.644C89.0728 282.215 89.6745 279.899 90.6514 277.857ZM277.739 488.837C278.679 486.871 279.27 484.644 279.362 482.303L287.966 279.525C288.142 275.405 286.786 271.541 284.241 268.912C282.141 266.731 279.366 265.577 276.447 265.655L102.41 270.131C95.7074 270.298 89.9779 276.828 89.6527 284.658L81.0482 487.436C80.8718 491.556 82.228 495.42 84.773 498.049C86.873 500.23 89.6478 501.384 92.5676 501.306L266.591 496.824C271.306 496.711 275.523 493.472 277.739 488.837Z" fill="url(#paint57_linear_158_2104)"/>
<path d="M96.0605 269.431C98.6309 264.056 103.833 260.488 109.366 260.907L287.354 273.977C290.58 274.218 293.514 275.778 295.624 278.387C298.073 281.409 299.183 285.563 298.678 289.793L274.474 492.201C273.493 500.376 266.836 506.604 259.623 506.072L81.6359 493.003C78.409 492.762 75.4754 491.202 73.3655 488.593C70.9167 485.571 69.8065 481.416 70.3113 477.187L70.6472 477.222L70.3113 477.187L94.5212 274.765C94.7412 272.863 95.2789 271.065 96.0605 269.431ZM272.33 497.262C273.081 495.692 273.601 493.964 273.815 492.137L298.025 289.716C298.506 285.663 297.441 281.703 295.112 278.816C293.121 276.343 290.331 274.867 287.297 274.64L109.31 261.57C102.452 261.067 96.1084 267.022 95.1742 274.842L70.9705 477.251C70.4952 481.291 71.5541 485.264 73.8713 488.145C75.8619 490.618 78.6519 492.094 81.6861 492.321L259.673 505.39C264.933 505.773 269.882 502.382 272.33 497.262Z" fill="url(#paint58_linear_158_2104)"/>
<path d="M102.232 261.495C105.046 255.61 111.08 251.969 117.141 253.017L297.822 284.081C301.151 284.653 304.063 286.579 306.026 289.495C308.21 292.751 308.985 296.965 308.169 301.076L268.066 501.529C266.445 509.632 259.166 515.203 251.842 513.944L71.1486 482.874C67.8195 482.301 64.9076 480.375 62.9443 477.46C60.7606 474.204 59.9855 469.99 60.802 465.878L61.1381 465.945L60.802 465.878L100.923 265.418C101.203 264.031 101.646 262.721 102.232 261.495ZM266.152 505.179C266.714 504.004 267.132 502.745 267.401 501.415L307.509 300.949C308.302 297.015 307.547 292.983 305.47 289.888C303.62 287.12 300.852 285.31 297.697 284.758L117.022 253.682C110.065 252.488 103.133 257.816 101.595 265.552L61.4867 466.017C60.6936 469.952 61.4485 473.984 63.5252 477.079C65.3754 479.846 68.1433 481.656 71.2858 482.202L251.979 513.272C257.729 514.265 263.466 510.796 266.152 505.179Z" fill="url(#paint59_linear_158_2104)"/>
<path d="M109.141 254.133C112.206 247.724 119.122 244.098 125.674 245.882L307.74 295.272C311.159 296.201 314.025 298.481 315.798 301.698C317.716 305.188 318.143 309.329 317.002 313.349L260.814 510.25C258.539 518.213 250.695 523.074 243.315 521.066L61.2425 471.689C57.8233 470.76 54.9582 468.48 53.1849 465.263C51.2665 461.773 50.84 457.632 51.9803 453.612L108.169 256.711C108.428 255.815 108.75 254.95 109.141 254.133ZM259.218 512.53C259.59 511.751 259.907 510.93 260.148 510.073L316.342 313.158C317.441 309.323 317.034 305.364 315.192 302.035C313.507 298.986 310.804 296.815 307.547 295.932L125.487 246.561C118.468 244.663 110.995 249.294 108.835 256.888L52.6467 453.79L52.3228 453.698L52.6467 453.79C51.5482 457.625 51.9546 461.585 53.7971 464.913C55.482 467.962 58.1846 470.133 61.4418 471.016L243.496 520.4C249.724 522.092 256.299 518.633 259.218 512.53Z" fill="url(#paint60_linear_158_2104)"/>
<path d="M116.777 247.431C118.291 244.265 120.78 241.722 123.911 240.207C127.444 238.493 131.351 238.275 134.929 239.609L317.015 307.488C320.593 308.822 323.4 311.545 324.915 315.141C326.431 318.736 326.496 322.799 325.074 326.542L252.749 518.268C251.333 522.03 248.606 525.04 245.085 526.76C241.551 528.474 237.645 528.692 234.067 527.358L51.9804 459.479C44.6003 456.734 40.9799 448.179 43.9092 440.419L116.234 248.693C116.411 248.26 116.581 247.84 116.777 247.431ZM251.582 519.232C251.772 518.836 251.948 518.434 252.1 518.021L324.438 326.301C325.787 322.711 325.73 318.856 324.29 315.422C322.844 312.001 320.175 309.407 316.778 308.143L134.692 240.265C131.295 239.001 127.581 239.201 124.221 240.842C120.861 242.482 118.263 245.35 116.914 248.94L44.5761 440.659C41.7928 448.05 45.2234 456.201 52.2419 458.804L234.31 526.69C237.707 527.953 241.421 527.753 244.781 526.113C247.757 524.665 250.135 522.257 251.582 519.232Z" fill="url(#paint61_linear_158_2104)"/>
<path d="M36.6631 426.365L125.083 241.474C128.661 233.992 137.526 230.749 144.837 234.245L325.552 320.669C332.864 324.165 335.904 333.102 332.326 340.583L243.905 525.474C240.327 532.955 231.463 536.199 224.151 532.702L43.4492 446.285C36.1186 442.795 33.0791 433.859 36.6631 426.365ZM331.689 340.279C335.096 333.155 332.209 324.637 325.234 321.301L144.532 234.884C137.57 231.554 129.12 234.635 125.707 241.772L37.287 426.663C33.8801 433.787 36.7669 442.305 43.7419 445.641L224.457 532.064C231.419 535.393 239.868 532.312 243.281 525.176L331.702 340.285L331.689 340.279Z" fill="url(#paint62_linear_158_2104)"/>
<g opacity="0.3">
<path d="M47.9131 388.834C46.8665 387.497 46.2948 386.004 46.2373 384.449C46.1511 381.983 47.4117 379.666 49.7731 377.926L170.959 288.359C175.834 284.759 184.028 284.726 189.24 288.266L318.86 376.679C321.452 378.443 322.922 380.814 323.001 383.34C323.087 385.806 321.827 388.123 319.466 389.863L198.279 479.43C193.404 483.03 185.21 483.063 179.998 479.523L50.3789 391.11C49.398 390.44 48.5673 389.67 47.9131 388.834ZM320.922 379.27C320.312 378.49 319.527 377.756 318.572 377.12L188.953 288.707C183.909 285.269 175.983 285.308 171.28 288.791L50.0936 378.358C47.8826 379.999 46.6982 382.166 46.7756 384.441C46.8552 386.787 48.2423 389.008 50.686 390.672L180.305 479.085C185.35 482.523 193.275 482.484 197.978 479L319.165 389.434L319.33 389.645L319.165 389.434C321.376 387.793 322.56 385.626 322.483 383.35C322.443 381.908 321.899 380.518 320.922 379.27Z" fill="url(#paint63_linear_158_2104)"/>
<path d="M45.7116 379.47C44.4905 377.909 43.886 376.172 43.9745 374.378C44.0952 371.839 45.6108 369.557 48.2381 367.932L180.61 286.665C185.925 283.403 194.263 283.958 199.179 287.927L321.734 386.524C324.139 388.452 325.391 390.904 325.264 393.412C325.143 395.951 323.627 398.233 321 399.858L188.618 481.134C183.302 484.395 174.964 483.841 170.048 479.871L47.5039 381.266C46.8084 380.714 46.2088 380.105 45.7116 379.47ZM323.121 388.655C322.65 388.054 322.077 387.478 321.41 386.94L198.855 288.343C194.094 284.504 186.032 283.966 180.887 287.131L48.5151 368.398C46.0381 369.923 44.6183 372.059 44.4975 374.418C44.3897 376.748 45.5611 379.03 47.8284 380.85L170.383 479.447C175.145 483.286 183.206 483.824 188.351 480.659L320.734 399.384C323.211 397.858 324.631 395.723 324.752 393.364C324.823 391.727 324.255 390.104 323.121 388.655Z" fill="url(#paint64_linear_158_2104)"/>
<path d="M44.4584 369.901C43.0454 368.096 42.4233 366.067 42.6838 364.066C43.0312 361.458 44.8105 359.22 47.6885 357.759L190.575 285.64C196.318 282.744 204.726 283.927 209.311 288.282L323.653 396.649C325.851 398.739 326.878 401.241 326.555 403.723C326.207 406.331 324.428 408.568 321.55 410.03L178.664 482.149C172.921 485.044 164.513 483.862 159.919 479.496L45.5944 371.151C45.1715 370.745 44.7986 370.336 44.4584 369.901ZM324.366 398.212C324.052 397.81 323.688 397.412 323.291 397.04L208.967 288.695C204.526 284.479 196.401 283.344 190.848 286.145L47.9611 358.264C45.2313 359.646 43.5478 361.736 43.2396 364.17C42.9465 366.466 43.9022 368.809 45.9756 370.762L160.3 479.108C164.741 483.323 172.866 484.458 178.419 481.657L321.306 409.538L321.428 409.784L321.306 409.538C324.036 408.157 325.719 406.066 326.027 403.633C326.271 401.789 325.683 399.894 324.366 398.212Z" fill="url(#paint65_linear_158_2104)"/>
<path d="M44.2115 360.229C42.5892 358.156 41.9517 355.815 42.4453 353.596C43.0127 350.977 45.1102 348.743 48.204 347.489L200.823 285.382C206.95 282.887 215.378 284.702 219.593 289.436L324.552 406.999C326.527 409.208 327.328 411.78 326.802 414.205C326.234 416.823 324.137 419.058 321.043 420.312L168.424 482.418C162.297 484.913 153.869 483.099 149.654 478.365L44.6956 360.802C44.5277 360.61 44.3685 360.429 44.2115 360.229ZM324.602 407.894C324.463 407.715 324.303 407.534 324.144 407.353L219.194 289.802C215.11 285.235 206.974 283.48 201.035 285.9L48.4156 348.007C45.4874 349.202 43.4967 351.281 42.9771 353.737C42.49 355.987 43.2518 358.374 45.103 360.447L150.062 478.01C154.146 482.577 162.281 484.332 168.221 481.912L320.84 419.805C323.768 418.61 325.759 416.53 326.279 414.075C326.716 412.008 326.129 409.844 324.602 407.894Z" fill="url(#paint66_linear_158_2104)"/>
<path d="M139.492 476.668C139.439 476.601 139.387 476.534 139.343 476.479L44.8449 350.334C43.0916 348.004 42.5325 345.404 43.2613 343.037C44.0728 340.371 46.4471 338.243 49.7873 337.192L211.249 285.866C217.652 283.838 225.891 286.195 229.755 291.132C229.807 291.199 229.86 291.266 229.903 291.321L324.402 417.467C326.155 419.796 326.714 422.396 325.985 424.763C325.174 427.429 322.8 429.557 319.459 430.608L319.37 430.337L319.459 430.608L158 481.914C151.594 483.963 143.356 481.605 139.492 476.668ZM229.319 291.473C225.586 286.703 217.627 284.433 211.419 286.398L49.9597 337.704C46.7938 338.708 44.5524 340.714 43.7909 343.197C43.1208 345.393 43.6603 347.81 45.2805 349.993L139.779 476.138C143.447 481.048 151.537 483.396 157.808 481.4L319.276 430.104C322.442 429.1 324.683 427.094 325.445 424.611C326.115 422.416 325.575 419.998 323.955 417.816L229.468 291.662C229.415 291.596 229.372 291.54 229.319 291.473Z" fill="url(#paint67_linear_158_2104)"/>
<path d="M129.8 474.855C129.53 474.51 129.29 474.159 129.061 473.799L46.0907 339.763C44.588 337.327 44.2598 334.708 45.1805 332.406C46.2513 329.735 48.9024 327.714 52.4475 326.88L221.799 287.116C228.604 285.51 236.849 288.617 240.186 294.003L323.159 428.019C324.661 430.455 324.99 433.073 324.069 435.375C322.998 438.047 320.347 440.068 316.802 440.902L316.732 440.633L316.802 440.902L147.459 480.677C141.114 482.174 133.498 479.581 129.8 474.855ZM238.992 293.284C235.424 288.726 228.066 286.237 221.917 287.671L52.5938 327.449C49.223 328.236 46.7048 330.135 45.7123 332.637C44.8592 334.778 45.1589 337.203 46.57 339.477L129.551 473.505C132.77 478.695 140.741 481.676 147.33 480.131L316.673 440.355C320.044 439.568 322.562 437.669 323.554 435.167C324.408 433.026 324.108 430.601 322.697 428.326L239.707 294.288C239.495 293.95 239.253 293.619 238.992 293.284Z" fill="url(#paint68_linear_158_2104)"/>
<path d="M120.173 472.362C119.676 471.727 119.242 471.06 118.893 470.345L48.4367 329.228C47.1824 326.706 47.0939 324.079 48.2151 321.854C49.554 319.189 52.4666 317.322 56.2146 316.725L232.371 289.156C239.449 288.056 247.518 291.768 250.354 297.456L320.81 438.572C322.065 441.095 322.153 443.721 321.032 445.947C319.693 448.612 316.78 450.479 313.033 451.076L136.884 478.655C130.678 479.613 123.706 476.875 120.173 472.362ZM248.618 295.777C245.208 291.42 238.473 288.784 232.468 289.728L56.3194 317.308C52.7546 317.87 49.9944 319.617 48.7317 322.132C47.6976 324.2 47.7773 326.635 48.9509 328.988L119.407 470.104C122.138 475.568 129.933 479.154 136.769 478.081L312.917 450.501L312.965 450.787L312.917 450.501C316.482 449.94 319.253 448.184 320.504 445.677C321.539 443.609 321.459 441.174 320.285 438.822L249.84 297.696C249.506 297.023 249.098 296.39 248.618 295.777Z" fill="url(#paint69_linear_158_2104)"/>
<path d="M110.681 469.188C109.931 468.23 109.338 467.202 108.91 466.117L51.916 318.795C50.9189 316.197 51.0875 313.585 52.4005 311.425C54.0249 308.788 57.1969 307.096 61.0932 306.778L242.916 291.991C250.227 291.391 258.037 295.737 260.337 301.683L317.351 449.008C318.348 451.606 318.179 454.218 316.866 456.377C315.242 459.015 312.07 460.707 308.173 461.025L126.36 475.822C120.356 476.298 114.039 473.479 110.681 469.188ZM258.091 298.948C254.855 294.813 248.745 292.101 242.962 292.566L61.1567 307.375C57.4304 307.686 54.4195 309.27 52.9019 311.752C51.6869 313.745 51.5181 316.177 52.4651 318.599L109.479 465.924C111.685 471.637 119.236 475.809 126.296 475.225L308.11 460.427L308.147 460.722L308.11 460.427C311.836 460.117 314.847 458.533 316.365 456.051C317.58 454.058 317.749 451.625 316.802 449.204L259.788 301.879C259.384 300.847 258.806 299.862 258.091 298.948Z" fill="url(#paint70_linear_158_2104)"/>
<path d="M101.412 465.356C100.391 464.052 99.6319 462.633 99.2193 461.141L56.5201 308.543C55.7692 305.878 56.195 303.28 57.7259 301.219C59.6314 298.65 63.0411 297.149 67.0748 297.119L253.323 295.617C260.813 295.559 268.308 300.512 270.017 306.668L312.716 459.266C313.467 461.931 313.042 464.529 311.511 466.59C309.605 469.159 306.195 470.66 302.162 470.69L115.913 472.192C110.247 472.224 104.578 469.401 101.412 465.356ZM267.37 302.792C264.317 298.891 258.835 296.173 253.348 296.209L67.0991 297.711C63.2441 297.745 60.0043 299.148 58.2034 301.582C56.7987 303.49 56.3924 305.911 57.0845 308.389L99.7836 460.987C101.441 466.896 108.658 471.652 115.9 471.592L302.148 470.09L302.155 470.39L302.148 470.09C306.003 470.056 309.243 468.652 311.044 466.218C312.449 464.31 312.855 461.889 312.163 459.412L269.464 306.814C269.053 305.392 268.338 304.029 267.37 302.792Z" fill="url(#paint71_linear_158_2104)"/>
<path d="M92.4245 460.852C91.1162 459.18 90.2174 457.314 89.883 455.383L62.2705 298.543C61.794 295.824 62.4858 293.252 64.2129 291.308C66.4061 288.836 70.0403 287.555 74.1701 287.827L263.533 300.044C271.152 300.532 278.252 306.081 279.365 312.417L306.977 469.257C307.454 471.975 306.762 474.547 305.035 476.492C302.842 478.964 299.207 480.245 295.078 479.973L295.09 479.675L295.078 479.973L105.715 467.756C100.428 467.419 95.3901 464.641 92.4245 460.852ZM276.348 307.284C273.496 303.64 268.626 300.963 263.507 300.639L74.1333 288.431C70.1801 288.183 66.7245 289.378 64.6555 291.716C63.0525 293.528 62.4108 295.917 62.8479 298.45L90.4605 455.291C91.5226 461.36 98.3788 466.687 105.732 467.15L295.114 479.369C299.067 479.617 302.523 478.422 304.592 476.084C306.195 474.272 306.837 471.883 306.4 469.35L278.787 312.509C278.453 310.668 277.596 308.877 276.348 307.284Z" fill="url(#paint72_linear_158_2104)"/>
<path d="M83.8053 455.719C82.1917 453.657 81.1663 451.315 80.9842 448.906L69.1256 288.9C68.9216 286.148 69.877 283.621 71.8221 281.776C74.3096 279.433 78.1336 278.417 82.3201 278.986L273.457 305.251C281.153 306.309 287.802 312.426 288.274 318.886L300.141 478.902C300.345 481.654 299.39 484.181 297.445 486.027C294.957 488.369 291.133 489.385 286.947 488.816L95.8095 462.551C90.967 461.885 86.5441 459.218 83.8053 455.719ZM284.965 312.436C282.331 309.071 278.047 306.493 273.371 305.858L82.2419 279.604C78.2428 279.05 74.5932 280.02 72.2386 282.24C70.4285 283.945 69.5406 286.311 69.7249 288.88L81.5922 448.897C82.0551 455.076 88.454 460.94 95.8746 461.961L287.012 488.226L286.969 488.53L287.012 488.226C291.011 488.78 294.661 487.811 297.015 485.59C298.825 483.886 299.713 481.52 299.529 478.95L287.653 318.922C287.486 316.645 286.509 314.409 284.965 312.436Z" fill="url(#paint73_linear_158_2104)"/>
<path d="M75.6041 449.954C73.6678 447.48 72.5332 444.594 72.6211 441.721L77.0881 279.685C77.1673 276.891 78.3951 274.421 80.5539 272.713C83.3116 270.537 87.3035 269.802 91.5055 270.683L282.979 311.223C290.69 312.862 296.812 319.517 296.628 326.059L292.15 488.104C292.071 490.898 290.843 493.368 288.685 495.076C285.927 497.252 281.935 497.987 277.744 497.098L86.2703 456.557C81.931 455.658 78.0987 453.141 75.6041 449.954ZM293.175 318.213C290.776 315.148 287.072 312.728 282.862 311.836L91.3881 271.296C87.3714 270.45 83.5734 271.14 80.9464 273.215C78.9292 274.811 77.7798 277.113 77.7113 279.718L73.2335 441.763C73.0601 448.027 78.9558 454.393 86.3855 455.964L277.859 496.504L277.796 496.805L277.859 496.504C281.876 497.35 285.674 496.66 288.301 494.585C290.318 492.989 291.467 490.687 291.536 488.082L296.014 326.037C296.095 323.313 295.015 320.564 293.175 318.213Z" fill="url(#paint74_linear_158_2104)"/>
<path d="M67.8977 443.585C65.6211 440.677 64.4318 437.205 64.8572 433.889L86.1472 270.995C86.5075 268.179 88.0274 265.768 90.4172 264.221C93.4409 262.249 97.5703 261.803 101.718 262.996L292.05 317.943C299.718 320.155 305.256 327.321 304.401 333.903L283.111 496.796C282.751 499.612 281.231 502.024 278.841 503.571C275.817 505.542 271.688 505.989 267.54 504.796L267.623 504.498L267.54 504.796L77.2082 449.848C73.3984 448.751 70.1306 446.438 67.8977 443.585ZM300.871 324.59C298.716 321.837 295.549 319.608 291.874 318.548L101.55 263.612C97.5771 262.462 93.6395 262.885 90.7661 264.756C88.5354 266.215 87.1135 268.46 86.7726 271.099L65.4827 433.992C64.6599 440.279 69.9958 447.119 77.3735 449.252L267.717 504.191C271.69 505.34 275.628 504.918 278.501 503.047C280.732 501.588 282.154 499.343 282.494 496.704L303.774 333.819C304.182 330.66 303.042 327.365 300.871 324.59Z" fill="url(#paint75_linear_158_2104)"/>
<path d="M60.7246 436.62C58.1079 433.277 56.8789 429.171 57.7814 425.409L96.2349 262.902C96.9047 260.077 98.7036 257.753 101.314 256.375C104.579 254.646 108.794 254.51 112.848 256.009L300.564 325.387C308.127 328.183 313.027 335.813 311.466 342.391L273.012 504.898C272.343 507.723 270.544 510.047 267.934 511.425C264.668 513.154 260.454 513.29 256.4 511.791L68.6837 442.413C65.4426 441.212 62.6871 439.127 60.7246 436.62ZM308.033 331.564C306.14 329.145 303.485 327.144 300.359 325.978L112.652 256.612C108.751 255.173 104.737 255.295 101.619 256.945C99.1767 258.245 97.4736 260.423 96.8539 263.064L58.4004 425.572C56.913 431.84 61.6237 439.115 68.8904 441.802L256.598 511.168L256.495 511.464L256.598 511.168C260.499 512.607 264.513 512.485 267.631 510.836C270.073 509.535 271.776 507.357 272.396 504.716L310.847 342.228C311.689 338.658 310.527 334.751 308.033 331.564Z" fill="url(#paint76_linear_158_2104)"/>
<path d="M54.1809 429.09C51.2153 425.301 50.0318 420.512 51.4746 416.364L107.321 255.501C108.3 252.668 110.404 250.464 113.243 249.266C116.718 247.805 120.976 247.994 124.909 249.787L308.445 333.505C315.845 336.879 320.034 344.922 317.773 351.436L261.928 512.28C260.949 515.113 258.845 517.317 256.006 518.514C252.531 519.976 248.273 519.787 244.341 517.994L244.473 517.693L244.341 517.994L60.8018 434.295C58.1207 433.069 55.8644 431.241 54.1809 429.09ZM314.574 339.114C312.952 337.041 310.778 335.274 308.191 334.1L124.663 250.392C120.892 248.671 116.823 248.477 113.514 249.881C110.843 251.002 108.871 253.084 107.951 255.745L52.1066 416.588C49.9502 422.787 53.979 430.47 61.076 433.703L244.604 517.411C248.375 519.132 252.444 519.326 255.753 517.922C258.424 516.801 260.395 514.72 261.316 512.058L317.16 351.215C318.531 347.266 317.409 342.736 314.574 339.114Z" fill="url(#paint77_linear_158_2104)"/>
<path d="M48.2953 421.009C44.972 416.763 43.9058 411.272 45.9847 406.769L119.347 248.874C120.653 246.055 123.062 243.972 126.115 243.002C129.766 241.833 134.027 242.362 137.8 244.423L315.619 342.267C322.806 346.221 326.227 354.631 323.252 361.04L249.9 518.926C248.594 521.746 246.185 523.829 243.132 524.799C239.481 525.967 235.22 525.438 231.447 523.378L231.608 523.09L231.447 523.378L53.6278 425.533C51.4982 424.361 49.6908 422.792 48.2953 421.009ZM320.449 347.203C319.105 345.487 317.372 343.968 315.317 342.846L137.498 245.001C133.886 243.012 129.821 242.509 126.335 243.62C123.448 244.532 121.181 246.505 119.953 249.155L46.6016 407.041C43.7716 413.12 47.075 421.156 53.9435 424.927L231.763 522.771C235.374 524.76 239.439 525.263 242.925 524.152C245.812 523.24 248.08 521.268 249.307 518.618L322.648 360.74C324.642 356.465 323.615 351.249 320.449 347.203Z" fill="url(#paint78_linear_158_2104)"/>
<path d="M43.1524 412.418C39.4803 407.727 38.5968 401.481 41.4318 396.711L132.256 243.083C133.906 240.3 136.607 238.366 139.882 237.635C143.678 236.785 147.893 237.637 151.457 239.97L322.011 351.623C328.898 356.135 331.517 364.868 327.835 371.092L237.011 524.719C235.361 527.503 232.659 529.437 229.384 530.167C225.589 531.018 221.374 530.165 217.81 527.833L217.99 527.548L217.81 527.833L47.2469 416.169C45.6403 415.126 44.2689 413.845 43.1524 412.418ZM325.592 355.793C324.519 354.423 323.202 353.189 321.661 352.185L151.098 240.52C147.682 238.288 143.661 237.481 140.04 238.285C136.939 238.969 134.377 240.812 132.825 243.429L42.0007 397.056C38.5017 402.976 41.0163 411.305 47.6062 415.618L218.16 527.271C221.567 529.492 225.597 530.31 229.208 529.515C232.308 528.831 234.87 526.988 236.423 524.371L327.246 370.744C329.927 366.202 329.089 360.262 325.592 355.793Z" fill="url(#paint79_linear_158_2104)"/>
<path d="M38.7876 403.363C34.7665 398.226 34.1877 391.203 37.8202 386.239L145.961 238.198C147.953 235.47 150.973 233.718 154.457 233.255C158.345 232.746 162.464 233.925 165.784 236.484L327.519 361.51C334.057 366.564 335.811 375.56 331.428 381.561L223.276 529.611C221.283 532.339 218.264 534.091 214.78 534.554C210.892 535.062 206.773 533.884 203.453 531.325L203.662 531.053L203.453 531.325L41.72 406.279C40.6017 405.412 39.6249 404.433 38.7876 403.363ZM329.937 364.846C329.135 363.821 328.193 362.887 327.12 362.055L165.377 237.019C162.205 234.559 158.258 233.443 154.562 233.928C151.261 234.355 148.409 236.03 146.512 238.611L38.363 386.641C34.2014 392.342 35.8924 400.921 42.1382 405.737L203.882 530.773C207.054 533.233 211.001 534.348 214.697 533.864C217.998 533.437 220.85 531.762 222.735 529.19L330.887 381.14C334.332 376.43 333.775 369.75 329.937 364.846Z" fill="url(#paint80_linear_158_2104)"/>
<path d="M35.2632 393.901C30.8845 388.307 30.7106 380.5 35.2212 375.424L160.393 234.288C162.746 231.638 166.062 230.085 169.731 229.926C173.71 229.759 177.61 231.218 180.703 234.026L332.107 371.882C338.229 377.46 339.096 386.647 334.017 392.366L208.854 533.513C206.501 536.163 203.186 537.716 199.516 537.874C195.537 538.042 191.637 536.583 188.544 533.775L37.1405 395.918C36.4537 395.288 35.8214 394.615 35.2632 393.901ZM333.439 374.326C332.907 373.646 332.312 372.998 331.651 372.4L180.24 234.533C177.292 231.844 173.565 230.448 169.764 230.619C166.284 230.773 163.138 232.229 160.899 234.754L35.7466 375.893C30.9268 381.337 31.7527 390.089 37.5956 395.4L188.999 533.257L188.772 533.506L188.999 533.257C191.946 535.945 195.674 537.341 199.474 537.17C202.954 537.016 206.1 535.56 208.339 533.035L333.5 391.907C337.785 387.081 337.609 379.653 333.439 374.326Z" fill="url(#paint81_linear_158_2104)"/>
<path d="M32.6541 384.082C30.491 381.319 29.319 377.959 29.3544 374.481C29.3894 370.554 30.9305 366.957 33.7164 364.346L175.459 231.41C178.245 228.798 181.931 227.494 185.826 227.735C189.72 227.975 193.389 229.723 196.11 232.661L335.703 382.671C338.444 385.612 339.928 389.393 339.904 393.311C339.869 397.239 338.327 400.835 335.542 403.447L193.799 536.382C188.06 541.773 178.787 541.213 173.137 535.14L33.5437 385.129C33.2341 384.779 32.9332 384.439 32.6541 384.082ZM336.048 384.144C335.778 383.799 335.497 383.462 335.194 383.142L195.611 233.123C192.994 230.319 189.516 228.657 185.8 228.42C182.093 228.194 178.583 229.432 175.941 231.913L34.1983 364.849C31.5561 367.33 30.0847 370.746 30.0604 374.485C30.0361 378.224 31.4501 381.826 34.0665 384.63L173.649 534.65C179.033 540.428 187.859 540.978 193.311 535.848L335.051 402.932C337.693 400.451 339.165 397.035 339.189 393.296C339.216 389.986 338.116 386.786 336.048 384.144Z" fill="url(#paint82_linear_158_2104)"/>
<path d="M157.328 535.384L31.0105 373.993C25.8992 367.463 26.9339 358.081 33.3165 353.085L191.061 229.621C197.444 224.626 206.8 225.875 211.911 232.406L338.228 393.796C343.339 400.327 342.305 409.709 335.922 414.704L178.188 538.16C171.804 543.175 162.448 541.925 157.328 535.384ZM211.356 232.841C206.488 226.622 197.575 225.422 191.486 230.187L33.7526 353.642C27.675 358.399 26.6792 367.338 31.555 373.567L157.872 534.957C162.739 541.176 171.653 542.376 177.741 537.611L335.486 414.147C341.564 409.39 342.559 400.452 337.684 394.222L211.366 232.832L211.356 232.841Z" fill="url(#paint83_linear_158_2104)"/>
</g>
<defs>
<linearGradient id="paint0_linear_158_2104" x1="144.48" y1="338.473" x2="319.885" y2="329.242" gradientUnits="userSpaceOnUse">
<stop stop-color="#35E0CD"/>
<stop offset="0.9994" stop-color="#FEE823"/>
</linearGradient>
<linearGradient id="paint1_linear_158_2104" x1="135.61" y1="338.939" x2="328.755" y2="328.775" gradientUnits="userSpaceOnUse">
<stop stop-color="#35E0CD"/>
<stop offset="0.9994" stop-color="#FEE823"/>
</linearGradient>
<linearGradient id="paint2_linear_158_2104" x1="127.126" y1="339.386" x2="337.239" y2="328.329" gradientUnits="userSpaceOnUse">
<stop stop-color="#35E0CD"/>
<stop offset="0.9994" stop-color="#FEE823"/>
</linearGradient>
<linearGradient id="paint3_linear_158_2104" x1="119.123" y1="339.807" x2="345.243" y2="327.907" gradientUnits="userSpaceOnUse">
<stop stop-color="#35E0CD"/>
<stop offset="0.9994" stop-color="#FEE823"/>
</linearGradient>
<linearGradient id="paint4_linear_158_2104" x1="111.658" y1="340.2" x2="352.708" y2="327.515" gradientUnits="userSpaceOnUse">
<stop stop-color="#35E0CD"/>
<stop offset="0.9994" stop-color="#FEE823"/>
</linearGradient>
<linearGradient id="paint5_linear_158_2104" x1="104.816" y1="340.56" x2="359.549" y2="327.155" gradientUnits="userSpaceOnUse">
<stop stop-color="#35E0CD"/>
<stop offset="0.9994" stop-color="#FEE823"/>
</linearGradient>
<linearGradient id="paint6_linear_158_2104" x1="98.6713" y1="340.883" x2="365.694" y2="326.831" gradientUnits="userSpaceOnUse">
<stop stop-color="#35E0CD"/>
<stop offset="0.9994" stop-color="#FEE823"/>
</linearGradient>
<linearGradient id="paint7_linear_158_2104" x1="93.294" y1="341.166" x2="371.072" y2="326.548" gradientUnits="userSpaceOnUse">
<stop stop-color="#35E0CD"/>
<stop offset="0.9994" stop-color="#FEE823"/>
</linearGradient>
<linearGradient id="paint8_linear_158_2104" x1="88.7503" y1="341.405" x2="375.615" y2="326.309" gradientUnits="userSpaceOnUse">
<stop stop-color="#35E0CD"/>
<stop offset="0.9994" stop-color="#FEE823"/>
</linearGradient>
<linearGradient id="paint9_linear_158_2104" x1="85.1014" y1="341.598" x2="379.265" y2="326.117" gradientUnits="userSpaceOnUse">
<stop stop-color="#35E0CD"/>
<stop offset="0.9994" stop-color="#FEE823"/>
</linearGradient>
<linearGradient id="paint10_linear_158_2104" x1="82.4024" y1="341.74" x2="381.964" y2="325.975" gradientUnits="userSpaceOnUse">
<stop stop-color="#35E0CD"/>
<stop offset="0.9994" stop-color="#FEE823"/>
</linearGradient>
<linearGradient id="paint11_linear_158_2104" x1="80.7018" y1="341.829" x2="383.664" y2="325.885" gradientUnits="userSpaceOnUse">
<stop stop-color="#35E0CD"/>
<stop offset="0.9994" stop-color="#FEE823"/>
</linearGradient>
<linearGradient id="paint12_linear_158_2104" x1="80.0435" y1="341.863" x2="384.322" y2="325.851" gradientUnits="userSpaceOnUse">
<stop stop-color="#35E0CD"/>
<stop offset="0.9994" stop-color="#FEE823"/>
</linearGradient>
<linearGradient id="paint13_linear_158_2104" x1="80.4632" y1="341.842" x2="383.903" y2="325.873" gradientUnits="userSpaceOnUse">
<stop stop-color="#35E0CD"/>
<stop offset="0.9994" stop-color="#FEE823"/>
</linearGradient>
<linearGradient id="paint14_linear_158_2104" x1="81.9878" y1="341.761" x2="382.377" y2="325.953" gradientUnits="userSpaceOnUse">
<stop stop-color="#35E0CD"/>
<stop offset="0.9994" stop-color="#FEE823"/>
</linearGradient>
<linearGradient id="paint15_linear_158_2104" x1="84.6375" y1="341.622" x2="379.728" y2="326.092" gradientUnits="userSpaceOnUse">
<stop stop-color="#35E0CD"/>
<stop offset="0.9994" stop-color="#FEE823"/>
</linearGradient>
<linearGradient id="paint16_linear_158_2104" x1="88.4224" y1="341.423" x2="375.943" y2="326.292" gradientUnits="userSpaceOnUse">
<stop stop-color="#35E0CD"/>
<stop offset="0.9994" stop-color="#FEE823"/>
</linearGradient>
<linearGradient id="paint17_linear_158_2104" x1="93.3457" y1="341.164" x2="371.02" y2="326.551" gradientUnits="userSpaceOnUse">
<stop stop-color="#35E0CD"/>
<stop offset="0.9994" stop-color="#FEE823"/>
</linearGradient>
<linearGradient id="paint18_linear_158_2104" x1="99.3996" y1="340.845" x2="364.966" y2="326.87" gradientUnits="userSpaceOnUse">
<stop stop-color="#35E0CD"/>
<stop offset="0.9994" stop-color="#FEE823"/>
</linearGradient>
<linearGradient id="paint19_linear_158_2104" x1="106.568" y1="340.468" x2="357.798" y2="327.247" gradientUnits="userSpaceOnUse">
<stop stop-color="#35E0CD"/>
<stop offset="0.9994" stop-color="#FEE823"/>
</linearGradient>
<linearGradient id="paint20_linear_158_2104" x1="114.822" y1="340.034" x2="349.543" y2="327.681" gradientUnits="userSpaceOnUse">
<stop stop-color="#35E0CD"/>
<stop offset="0.9994" stop-color="#FEE823"/>
</linearGradient>
<linearGradient id="paint21_linear_158_2104" x1="197.637" y1="414.156" x2="267.338" y2="252.929" gradientUnits="userSpaceOnUse">
<stop stop-color="#35E0CD"/>
<stop offset="0.9994" stop-color="#FEE823"/>
</linearGradient>
<linearGradient id="paint22_linear_158_2104" x1="194.113" y1="422.309" x2="270.863" y2="244.776" gradientUnits="userSpaceOnUse">
<stop stop-color="#35E0CD"/>
<stop offset="0.9994" stop-color="#FEE823"/>
</linearGradient>
<linearGradient id="paint23_linear_158_2104" x1="190.741" y1="430.107" x2="274.233" y2="236.978" gradientUnits="userSpaceOnUse">
<stop stop-color="#35E0CD"/>
<stop offset="0.9994" stop-color="#FEE823"/>
</linearGradient>
<linearGradient id="paint24_linear_158_2104" x1="187.561" y1="437.464" x2="277.414" y2="229.622" gradientUnits="userSpaceOnUse">
<stop stop-color="#35E0CD"/>
<stop offset="0.9994" stop-color="#FEE823"/>
</linearGradient>
<linearGradient id="paint25_linear_158_2104" x1="184.595" y1="444.325" x2="280.38" y2="222.76" gradientUnits="userSpaceOnUse">
<stop stop-color="#35E0CD"/>
<stop offset="0.9994" stop-color="#FEE823"/>
</linearGradient>
<linearGradient id="paint26_linear_158_2104" x1="181.876" y1="450.613" x2="283.099" y2="216.471" gradientUnits="userSpaceOnUse">
<stop stop-color="#35E0CD"/>
<stop offset="0.9994" stop-color="#FEE823"/>
</linearGradient>
<linearGradient id="paint27_linear_158_2104" x1="179.435" y1="456.262" x2="285.541" y2="210.823" gradientUnits="userSpaceOnUse">
<stop stop-color="#35E0CD"/>
<stop offset="0.9994" stop-color="#FEE823"/>
</linearGradient>
<linearGradient id="paint28_linear_158_2104" x1="177.297" y1="461.204" x2="287.677" y2="205.88" gradientUnits="userSpaceOnUse">
<stop stop-color="#35E0CD"/>
<stop offset="0.9994" stop-color="#FEE823"/>
</linearGradient>
<linearGradient id="paint29_linear_158_2104" x1="175.492" y1="465.381" x2="289.483" y2="201.704" gradientUnits="userSpaceOnUse">
<stop stop-color="#35E0CD"/>
<stop offset="0.9994" stop-color="#FEE823"/>
</linearGradient>
<linearGradient id="paint30_linear_158_2104" x1="174.042" y1="468.735" x2="290.933" y2="198.35" gradientUnits="userSpaceOnUse">
<stop stop-color="#35E0CD"/>
<stop offset="0.9994" stop-color="#FEE823"/>
</linearGradient>
<linearGradient id="paint31_linear_158_2104" x1="172.97" y1="471.216" x2="292.006" y2="195.869" gradientUnits="userSpaceOnUse">
<stop stop-color="#35E0CD"/>
<stop offset="0.9994" stop-color="#FEE823"/>
</linearGradient>
<linearGradient id="paint32_linear_158_2104" x1="172.294" y1="472.779" x2="292.681" y2="194.306" gradientUnits="userSpaceOnUse">
<stop stop-color="#35E0CD"/>
<stop offset="0.9994" stop-color="#FEE823"/>
</linearGradient>
<linearGradient id="paint33_linear_158_2104" x1="172.032" y1="473.384" x2="292.943" y2="193.701" gradientUnits="userSpaceOnUse">
<stop stop-color="#35E0CD"/>
<stop offset="0.9994" stop-color="#FEE823"/>
</linearGradient>
<linearGradient id="paint34_linear_158_2104" x1="172.199" y1="472.998" x2="292.776" y2="194.086" gradientUnits="userSpaceOnUse">
<stop stop-color="#35E0CD"/>
<stop offset="0.9994" stop-color="#FEE823"/>
</linearGradient>
<linearGradient id="paint35_linear_158_2104" x1="172.805" y1="471.597" x2="292.17" y2="195.488" gradientUnits="userSpaceOnUse">
<stop stop-color="#35E0CD"/>
<stop offset="0.9994" stop-color="#FEE823"/>
</linearGradient>
<linearGradient id="paint36_linear_158_2104" x1="173.858" y1="469.161" x2="291.117" y2="197.923" gradientUnits="userSpaceOnUse">
<stop stop-color="#35E0CD"/>
<stop offset="0.9994" stop-color="#FEE823"/>
</linearGradient>
<linearGradient id="paint37_linear_158_2104" x1="175.362" y1="465.682" x2="289.613" y2="201.402" gradientUnits="userSpaceOnUse">
<stop stop-color="#35E0CD"/>
<stop offset="0.9994" stop-color="#FEE823"/>
</linearGradient>
<linearGradient id="paint38_linear_158_2104" x1="177.318" y1="461.157" x2="287.657" y2="205.928" gradientUnits="userSpaceOnUse">
<stop stop-color="#35E0CD"/>
<stop offset="0.9994" stop-color="#FEE823"/>
</linearGradient>
<linearGradient id="paint39_linear_158_2104" x1="179.724" y1="455.593" x2="285.251" y2="211.493" gradientUnits="userSpaceOnUse">
<stop stop-color="#35E0CD"/>
<stop offset="0.9994" stop-color="#FEE823"/>
</linearGradient>
<linearGradient id="paint40_linear_158_2104" x1="182.572" y1="449.004" x2="282.403" y2="218.081" gradientUnits="userSpaceOnUse">
<stop stop-color="#35E0CD"/>
<stop offset="0.9994" stop-color="#FEE823"/>
</linearGradient>
<linearGradient id="paint41_linear_158_2104" x1="185.852" y1="441.416" x2="279.123" y2="225.668" gradientUnits="userSpaceOnUse">
<stop stop-color="#35E0CD"/>
<stop offset="0.9994" stop-color="#FEE823"/>
</linearGradient>
<linearGradient id="paint42_linear_158_2104" x1="222.384" y1="304.25" x2="146.603" y2="462.71" gradientUnits="userSpaceOnUse">
<stop stop-color="#35E0CD"/>
<stop offset="0.9994" stop-color="#FEE823"/>
</linearGradient>
<linearGradient id="paint43_linear_158_2104" x1="226.216" y1="296.236" x2="142.771" y2="470.723" gradientUnits="userSpaceOnUse">
<stop stop-color="#35E0CD"/>
<stop offset="0.9994" stop-color="#FEE823"/>
</linearGradient>
<linearGradient id="paint44_linear_158_2104" x1="229.881" y1="288.573" x2="139.106" y2="478.387" gradientUnits="userSpaceOnUse">
<stop stop-color="#35E0CD"/>
<stop offset="0.9994" stop-color="#FEE823"/>
</linearGradient>
<linearGradient id="paint45_linear_158_2104" x1="233.339" y1="281.343" x2="135.648" y2="485.618" gradientUnits="userSpaceOnUse">
<stop stop-color="#35E0CD"/>
<stop offset="0.9994" stop-color="#FEE823"/>
</linearGradient>
<linearGradient id="paint46_linear_158_2104" x1="236.564" y1="274.599" x2="132.423" y2="492.361" gradientUnits="userSpaceOnUse">
<stop stop-color="#35E0CD"/>
<stop offset="0.9994" stop-color="#FEE823"/>
</linearGradient>
<linearGradient id="paint47_linear_158_2104" x1="239.519" y1="268.418" x2="129.467" y2="498.542" gradientUnits="userSpaceOnUse">
<stop stop-color="#35E0CD"/>
<stop offset="0.9994" stop-color="#FEE823"/>
</linearGradient>
<linearGradient id="paint48_linear_158_2104" x1="242.174" y1="262.867" x2="126.812" y2="504.093" gradientUnits="userSpaceOnUse">
<stop stop-color="#35E0CD"/>
<stop offset="0.9994" stop-color="#FEE823"/>
</linearGradient>
<linearGradient id="paint49_linear_158_2104" x1="244.498" y1="258.009" x2="124.49" y2="508.951" gradientUnits="userSpaceOnUse">
<stop stop-color="#35E0CD"/>
<stop offset="0.9994" stop-color="#FEE823"/>
</linearGradient>
<linearGradient id="paint50_linear_158_2104" x1="246.46" y1="253.904" x2="122.526" y2="513.056" gradientUnits="userSpaceOnUse">
<stop stop-color="#35E0CD"/>
<stop offset="0.9994" stop-color="#FEE823"/>
</linearGradient>
<linearGradient id="paint51_linear_158_2104" x1="248.037" y1="250.608" x2="120.95" y2="516.353" gradientUnits="userSpaceOnUse">
<stop stop-color="#35E0CD"/>
<stop offset="0.9994" stop-color="#FEE823"/>
</linearGradient>
<linearGradient id="paint52_linear_158_2104" x1="249.203" y1="248.17" x2="119.783" y2="518.791" gradientUnits="userSpaceOnUse">
<stop stop-color="#35E0CD"/>
<stop offset="0.9994" stop-color="#FEE823"/>
</linearGradient>
<linearGradient id="paint53_linear_158_2104" x1="249.937" y1="246.633" x2="119.049" y2="520.327" gradientUnits="userSpaceOnUse">
<stop stop-color="#35E0CD"/>
<stop offset="0.9994" stop-color="#FEE823"/>
</linearGradient>
<linearGradient id="paint54_linear_158_2104" x1="250.222" y1="246.038" x2="118.764" y2="520.922" gradientUnits="userSpaceOnUse">
<stop stop-color="#35E0CD"/>
<stop offset="0.9994" stop-color="#FEE823"/>
</linearGradient>
<linearGradient id="paint55_linear_158_2104" x1="250.04" y1="246.417" x2="118.946" y2="520.543" gradientUnits="userSpaceOnUse">
<stop stop-color="#35E0CD"/>
<stop offset="0.9994" stop-color="#FEE823"/>
</linearGradient>
<linearGradient id="paint56_linear_158_2104" x1="249.382" y1="247.795" x2="119.605" y2="519.165" gradientUnits="userSpaceOnUse">
<stop stop-color="#35E0CD"/>
<stop offset="0.9994" stop-color="#FEE823"/>
</linearGradient>
<linearGradient id="paint57_linear_158_2104" x1="248.238" y1="250.189" x2="120.75" y2="516.772" gradientUnits="userSpaceOnUse">
<stop stop-color="#35E0CD"/>
<stop offset="0.9994" stop-color="#FEE823"/>
</linearGradient>
<linearGradient id="paint58_linear_158_2104" x1="246.602" y1="253.608" x2="122.385" y2="513.352" gradientUnits="userSpaceOnUse">
<stop stop-color="#35E0CD"/>
<stop offset="0.9994" stop-color="#FEE823"/>
</linearGradient>
<linearGradient id="paint59_linear_158_2104" x1="244.475" y1="258.055" x2="124.512" y2="508.904" gradientUnits="userSpaceOnUse">
<stop stop-color="#35E0CD"/>
<stop offset="0.9994" stop-color="#FEE823"/>
</linearGradient>
<linearGradient id="paint60_linear_158_2104" x1="241.86" y1="263.525" x2="127.127" y2="503.436" gradientUnits="userSpaceOnUse">
<stop stop-color="#35E0CD"/>
<stop offset="0.9994" stop-color="#FEE823"/>
</linearGradient>
<linearGradient id="paint61_linear_158_2104" x1="238.763" y1="270" x2="130.224" y2="496.96" gradientUnits="userSpaceOnUse">
<stop stop-color="#35E0CD"/>
<stop offset="0.9994" stop-color="#FEE823"/>
</linearGradient>
<linearGradient id="paint62_linear_158_2104" x1="235.197" y1="277.457" x2="133.79" y2="489.503" gradientUnits="userSpaceOnUse">
<stop stop-color="#35E0CD"/>
<stop offset="0.9994" stop-color="#FEE823"/>
</linearGradient>
<linearGradient id="paint63_linear_158_2104" x1="130.495" y1="314.739" x2="238.754" y2="453.058" gradientUnits="userSpaceOnUse">
<stop stop-color="#35E0CD"/>
<stop offset="0.9994" stop-color="#FEE823"/>
</linearGradient>
<linearGradient id="paint64_linear_158_2104" x1="125.02" y1="307.745" x2="244.228" y2="460.053" gradientUnits="userSpaceOnUse">
<stop stop-color="#35E0CD"/>
<stop offset="0.9994" stop-color="#FEE823"/>
</linearGradient>
<linearGradient id="paint65_linear_158_2104" x1="119.784" y1="301.054" x2="249.465" y2="466.742" gradientUnits="userSpaceOnUse">
<stop stop-color="#35E0CD"/>
<stop offset="0.9994" stop-color="#FEE823"/>
</linearGradient>
<linearGradient id="paint66_linear_158_2104" x1="114.844" y1="294.743" x2="254.404" y2="473.054" gradientUnits="userSpaceOnUse">
<stop stop-color="#35E0CD"/>
<stop offset="0.9994" stop-color="#FEE823"/>
</linearGradient>
<linearGradient id="paint67_linear_158_2104" x1="110.236" y1="288.856" x2="259.011" y2="478.94" gradientUnits="userSpaceOnUse">
<stop stop-color="#35E0CD"/>
<stop offset="0.9994" stop-color="#FEE823"/>
</linearGradient>
<linearGradient id="paint68_linear_158_2104" x1="106.014" y1="283.462" x2="263.234" y2="484.336" gradientUnits="userSpaceOnUse">
<stop stop-color="#35E0CD"/>
<stop offset="0.9994" stop-color="#FEE823"/>
</linearGradient>
<linearGradient id="paint69_linear_158_2104" x1="102.221" y1="278.616" x2="267.027" y2="489.181" gradientUnits="userSpaceOnUse">
<stop stop-color="#35E0CD"/>
<stop offset="0.9994" stop-color="#FEE823"/>
</linearGradient>
<linearGradient id="paint70_linear_158_2104" x1="98.9027" y1="274.375" x2="270.346" y2="493.421" gradientUnits="userSpaceOnUse">
<stop stop-color="#35E0CD"/>
<stop offset="0.9994" stop-color="#FEE823"/>
</linearGradient>
<linearGradient id="paint71_linear_158_2104" x1="96.0984" y1="270.792" x2="273.15" y2="497.005" gradientUnits="userSpaceOnUse">
<stop stop-color="#35E0CD"/>
<stop offset="0.9994" stop-color="#FEE823"/>
</linearGradient>
<linearGradient id="paint72_linear_158_2104" x1="93.8461" y1="267.914" x2="275.403" y2="499.882" gradientUnits="userSpaceOnUse">
<stop stop-color="#35E0CD"/>
<stop offset="0.9994" stop-color="#FEE823"/>
</linearGradient>
<linearGradient id="paint73_linear_158_2104" x1="92.1801" y1="265.786" x2="277.068" y2="502.01" gradientUnits="userSpaceOnUse">
<stop stop-color="#35E0CD"/>
<stop offset="0.9994" stop-color="#FEE823"/>
</linearGradient>
<linearGradient id="paint74_linear_158_2104" x1="91.1307" y1="264.445" x2="278.118" y2="503.351" gradientUnits="userSpaceOnUse">
<stop stop-color="#35E0CD"/>
<stop offset="0.9994" stop-color="#FEE823"/>
</linearGradient>
<linearGradient id="paint75_linear_158_2104" x1="90.7244" y1="263.926" x2="278.524" y2="503.87" gradientUnits="userSpaceOnUse">
<stop stop-color="#35E0CD"/>
<stop offset="0.9994" stop-color="#FEE823"/>
</linearGradient>
<linearGradient id="paint76_linear_158_2104" x1="90.9834" y1="264.257" x2="278.265" y2="503.539" gradientUnits="userSpaceOnUse">
<stop stop-color="#35E0CD"/>
<stop offset="0.9994" stop-color="#FEE823"/>
</linearGradient>
<linearGradient id="paint77_linear_158_2104" x1="91.9245" y1="265.46" x2="277.324" y2="502.337" gradientUnits="userSpaceOnUse">
<stop stop-color="#35E0CD"/>
<stop offset="0.9994" stop-color="#FEE823"/>
</linearGradient>
<linearGradient id="paint78_linear_158_2104" x1="93.5597" y1="267.549" x2="275.689" y2="500.248" gradientUnits="userSpaceOnUse">
<stop stop-color="#35E0CD"/>
<stop offset="0.9994" stop-color="#FEE823"/>
</linearGradient>
<linearGradient id="paint79_linear_158_2104" x1="95.8959" y1="270.534" x2="273.353" y2="497.263" gradientUnits="userSpaceOnUse">
<stop stop-color="#35E0CD"/>
<stop offset="0.9994" stop-color="#FEE823"/>
</linearGradient>
<linearGradient id="paint80_linear_158_2104" x1="98.9346" y1="274.416" x2="270.314" y2="493.381" gradientUnits="userSpaceOnUse">
<stop stop-color="#35E0CD"/>
<stop offset="0.9994" stop-color="#FEE823"/>
</linearGradient>
<linearGradient id="paint81_linear_158_2104" x1="102.671" y1="279.19" x2="266.578" y2="488.607" gradientUnits="userSpaceOnUse">
<stop stop-color="#35E0CD"/>
<stop offset="0.9994" stop-color="#FEE823"/>
</linearGradient>
<linearGradient id="paint82_linear_158_2104" x1="107.095" y1="284.843" x2="262.153" y2="482.954" gradientUnits="userSpaceOnUse">
<stop stop-color="#35E0CD"/>
<stop offset="0.9994" stop-color="#FEE823"/>
</linearGradient>
<linearGradient id="paint83_linear_158_2104" x1="112.19" y1="291.352" x2="257.059" y2="476.445" gradientUnits="userSpaceOnUse">
<stop stop-color="#35E0CD"/>
<stop offset="0.9994" stop-color="#FEE823"/>
</linearGradient>
</defs>
</svg>
