<svg width="695" height="1235" viewBox="0 0 695 1235" fill="none" xmlns="http://www.w3.org/2000/svg">
<path d="M710.492 320.778C714.157 319.559 717.794 319.477 721.168 320.544C726.517 322.247 730.515 326.72 732.436 333.11L831.56 661.245C835.541 674.444 829.342 692.021 817.77 700.477L529.188 910.478C523.427 914.681 517.222 916.015 511.751 914.253C506.402 912.55 502.404 908.077 500.483 901.687L401.359 573.552C397.378 560.354 403.576 542.776 415.148 534.32L703.731 324.319C705.917 322.73 708.201 321.54 710.492 320.778ZM522.06 912.914C524.198 912.203 526.37 911.084 528.464 909.525L817.046 699.524C828.271 691.349 834.252 674.342 830.389 661.601L731.265 333.466C729.442 327.474 725.707 323.279 720.773 321.703C715.687 320.079 709.868 321.35 704.434 325.312L415.852 535.313C404.627 543.488 398.646 560.495 402.509 573.236L501.633 901.371L501.053 901.564L501.633 901.371C503.456 907.363 507.191 911.558 512.125 913.134C515.245 914.152 518.638 914.052 522.06 912.914Z" fill="url(#paint0_linear_58_19)"/>
<path d="M732.238 323.229C736.514 321.807 740.698 321.842 744.475 323.405C749.82 325.606 753.55 330.599 755.02 337.471L827.806 683.216C830.725 697.098 823.156 714.535 810.891 722.028L505.9 909.103C499.93 912.779 493.719 913.584 488.444 911.392C483.099 909.191 479.369 904.198 477.899 897.326L405.103 551.552C402.184 537.669 409.752 520.233 422.018 512.74L727.019 325.694C728.733 324.627 730.497 323.808 732.238 323.229ZM500.273 910.444C501.923 909.895 503.595 909.107 505.258 908.09L810.249 721.014C822.116 713.753 829.437 696.897 826.595 683.452L753.81 337.707C752.438 331.234 748.949 326.559 743.989 324.495C739.079 322.48 733.294 323.243 727.661 326.707L422.67 513.783C410.802 521.044 403.482 537.901 406.324 551.345L479.119 897.12C480.491 903.593 483.979 908.268 488.94 910.333C492.392 911.738 496.302 911.764 500.273 910.444Z" fill="url(#paint1_linear_58_19)"/>
<path d="M753.692 327.866C758.641 326.221 763.463 326.441 767.55 328.53C772.871 331.27 776.302 336.794 777.231 344.077L822.374 705.345C824.182 719.863 815.214 736.969 802.377 743.458L482.741 905.464C476.583 908.572 470.436 908.859 465.368 906.267C460.047 903.527 456.616 898.003 455.687 890.72L410.544 529.452C408.737 514.934 417.705 497.828 430.572 491.329L750.147 329.343C751.339 328.748 752.501 328.262 753.692 327.866ZM478.849 905.797C479.949 905.431 481.08 904.955 482.181 904.39L801.756 742.405C814.185 736.117 822.833 719.582 821.083 705.543L775.94 344.275C775.069 337.37 771.879 332.164 766.902 329.641C762.208 327.256 756.458 327.51 750.686 330.457L431.112 492.443C418.683 498.73 410.034 515.265 411.785 529.305L456.927 890.573L456.307 890.646L456.927 890.573C457.798 897.478 460.988 902.684 465.965 905.206C469.728 907.138 474.236 907.33 478.849 905.797Z" fill="url(#paint2_linear_58_19)"/>
<path d="M774.602 334.74C780.284 332.851 785.785 333.276 790.162 336.032C795.337 339.252 798.519 345.455 798.836 353.041L815.084 727.497C815.74 742.53 805.405 759.195 792.038 764.601L459.885 899.47C453.64 902.01 447.518 901.758 442.727 898.776C437.552 895.556 434.37 889.353 434.052 881.767L417.804 507.311C417.148 492.278 427.484 475.613 440.85 470.207L773.003 335.338C773.543 335.125 774.052 334.923 774.602 334.74ZM457.93 898.893C458.419 898.731 458.928 898.528 459.437 898.326L791.559 763.467C804.468 758.214 814.453 742.129 813.814 727.554L797.566 353.099C797.246 345.911 794.315 340.055 789.453 337.063C785.005 334.298 779.309 334.103 773.451 336.482L441.299 471.351C428.39 476.604 418.405 492.689 419.044 507.264L435.292 881.719C435.612 888.907 438.543 894.763 443.405 897.755C447.499 900.273 452.584 900.671 457.93 898.893Z" fill="url(#paint3_linear_58_19)"/>
<path d="M452.261 449.736C452.445 449.675 452.628 449.614 452.781 449.563L795.313 343.669C801.645 341.696 807.641 342.488 812.155 345.861C817.245 349.639 819.986 356.353 819.681 364.313L806.069 749.459C805.514 764.729 794.159 780.572 780.627 785.072C780.444 785.133 780.26 785.193 780.108 785.244L437.575 891.139C431.243 893.111 425.247 892.32 420.733 888.947C415.643 885.168 412.902 878.454 413.207 870.495L413.857 870.511L413.207 870.495L426.86 485.369C427.374 470.079 438.729 454.235 452.261 449.736ZM780.23 783.877C793.304 779.531 804.259 764.218 804.799 749.417L818.452 364.29C818.724 356.74 816.142 350.404 811.406 346.872C807.215 343.757 801.624 343.062 795.71 344.863L453.178 450.758C439.851 454.857 428.631 470.39 428.109 485.351L414.426 870.488C414.155 878.038 416.736 884.374 421.472 887.905C425.663 891.021 431.254 891.715 437.168 889.915L779.711 784.05C779.894 783.989 780.047 783.938 780.23 783.877Z" fill="url(#paint4_linear_58_19)"/>
<path d="M463.562 430.363C464.509 430.048 465.445 429.803 466.391 429.588L817.005 354.427C823.373 353.072 829.233 354.373 833.46 358.107C838.362 362.445 840.663 369.67 839.736 377.902L795.319 771.102C793.552 786.908 780.586 802.193 766.497 805.22L415.924 880.4C409.556 881.755 403.695 880.454 399.469 876.72C394.566 872.382 392.266 865.157 393.192 856.925L393.822 856.981L393.192 856.925L437.579 463.735C439.226 448.997 450.61 434.669 463.562 430.363ZM768.95 803.211C781.443 799.057 792.407 785.2 794.041 770.93L838.407 377.781C839.3 369.958 837.159 363.11 832.559 359.069C828.625 355.603 823.2 354.389 817.249 355.672L466.646 430.862C453.065 433.786 440.58 448.58 438.848 463.877L394.461 857.067C393.568 864.89 395.709 871.737 400.309 875.778C404.243 879.244 409.667 880.458 415.619 879.175L766.252 803.975C767.138 803.78 768.033 803.515 768.95 803.211Z" fill="url(#paint5_linear_58_19)"/>
<path d="M476.269 411.649C478.011 411.07 479.771 410.65 481.57 410.45L837.775 367.514C844.138 366.757 849.832 368.578 853.741 372.682C858.426 377.59 860.195 385.257 858.606 393.743L782.857 792.188C779.799 808.191 765.672 822.635 751.318 824.357L395.113 867.294C388.75 868.05 383.056 866.23 379.147 862.125C374.462 857.217 372.693 849.55 374.282 841.065L450 442.63C452.698 428.603 463.898 415.762 476.269 411.649ZM756.242 821.924C768.186 817.953 778.986 805.543 781.559 791.956L857.277 393.522C858.802 385.455 857.172 378.206 852.749 373.576C849.112 369.779 843.834 368.085 837.897 368.799L481.692 411.736C467.897 413.405 454.251 427.358 451.319 442.821L375.601 841.256L374.952 841.14L375.601 841.256C374.076 849.322 375.716 856.602 380.129 861.202C383.766 864.999 389.044 866.692 394.981 865.978L751.196 823.072C752.893 822.872 754.562 822.483 756.242 821.924Z" fill="url(#paint6_linear_58_19)"/>
<path d="M490.332 393.745C492.959 392.871 495.613 392.386 498.265 392.301L857.46 382.951C863.789 382.803 869.255 385.163 872.877 389.628C877.283 395.126 878.48 403.215 876.179 411.805L768.715 812.605C764.406 828.726 749.119 842.13 734.623 842.507L375.407 851.897C369.078 852.045 363.612 849.685 359.99 845.219C355.584 839.722 354.387 831.632 356.688 823.042L464.122 422.252C467.697 409.028 478.571 397.655 490.332 393.745ZM742.201 839.789C753.533 836.021 764.018 825.008 767.448 812.264L874.851 411.484C877.037 403.264 875.949 395.602 871.794 390.452C868.454 386.324 863.373 384.101 857.46 384.277L498.244 393.667C484.317 394.02 469.602 407.002 465.45 422.573L358.016 823.363L357.357 823.218L358.016 823.363C355.83 831.583 356.919 839.245 361.073 844.395C364.413 848.523 369.495 850.746 375.407 850.571L734.623 841.181C737.143 841.106 739.696 840.621 742.201 839.789Z" fill="url(#paint7_linear_58_19)"/>
<path d="M505.635 376.82C509.209 375.632 512.829 375.091 516.341 375.349L875.9 400.658C882.183 401.089 887.422 403.989 890.665 408.846C894.711 414.894 895.316 423.346 892.294 432.01L752.985 832.125C747.376 848.213 731.032 860.478 716.537 859.428L356.978 834.119C350.695 833.689 345.456 830.789 342.213 825.932C338.167 819.884 337.562 811.431 340.584 802.768L479.893 402.653C484.161 390.491 494.547 380.507 505.635 376.82ZM726.866 856.723C737.558 853.169 747.575 843.506 751.698 831.724L891.007 431.609C893.884 423.325 893.357 415.311 889.521 409.591C886.509 405.121 881.635 402.399 875.798 401.985L516.24 376.676C502.313 375.703 486.601 387.525 481.19 403.083L341.881 803.199L341.233 802.983L341.881 803.199C339.004 811.483 339.531 819.497 343.367 825.217C346.379 829.686 351.253 832.409 357.09 832.822L716.648 858.131C720.008 858.34 723.476 857.851 726.866 856.723Z" fill="url(#paint8_linear_58_19)"/>
<path d="M522.159 361.015C526.741 359.491 531.427 358.994 535.819 359.756L892.92 420.628C899.107 421.688 904.087 425.138 906.932 430.326C910.547 436.915 910.51 445.68 906.767 454.319L735.688 850.607C728.811 866.554 711.492 877.517 697.069 875.052L339.968 814.179C333.781 813.119 328.8 809.669 325.956 804.481C322.34 797.892 322.378 789.127 326.121 780.489L326.748 780.744L326.121 780.489L497.2 384.2C501.967 373.133 511.773 364.468 522.159 361.015ZM710.373 872.518C720.361 869.197 729.821 860.814 734.433 850.096L905.502 453.778C909.059 445.5 909.144 437.183 905.718 430.961C903.064 426.141 898.437 422.938 892.676 421.936L535.575 361.063C521.761 358.694 505.104 369.305 498.485 384.701L327.386 781.03C323.828 789.308 323.744 797.624 327.17 803.846C329.824 808.666 334.451 811.869 340.212 812.871L697.312 873.744C701.512 874.437 706.004 873.971 710.373 872.518Z" fill="url(#paint9_linear_58_19)"/>
<path d="M539.75 346.479C545.401 344.601 551.204 344.196 556.504 345.65L908.329 442.692C914.38 444.361 919.062 448.341 921.527 453.92C924.641 461.041 923.891 470.01 919.469 478.542L716.939 867.882C708.784 883.556 690.592 893.119 676.393 889.187L324.538 792.155C318.487 790.486 313.805 786.506 311.34 780.927C308.226 773.806 308.976 764.837 313.398 756.305L515.928 366.965C521.062 357.102 530.158 349.668 539.75 346.479ZM692.741 887.034C701.966 883.967 710.766 876.764 715.705 867.231L918.204 477.902C922.451 469.759 923.167 461.199 920.213 454.457C917.947 449.275 913.558 445.562 907.913 443.991L556.057 346.959C542.467 343.222 525.008 352.442 517.143 367.556L314.613 756.896L313.996 756.57L314.613 756.896C310.365 765.038 309.65 773.598 312.604 780.341C314.869 785.522 319.259 789.235 324.904 790.807L676.79 887.828C681.796 889.214 687.334 888.831 692.741 887.034Z" fill="url(#paint10_linear_58_19)"/>
<path d="M558.377 333.324C565.158 331.07 572.208 330.847 578.294 333.234L921.976 466.801C927.9 469.108 932.253 473.629 934.258 479.56C936.81 487.133 935.328 496.246 930.227 504.573L696.86 883.708C687.449 898.972 668.507 906.994 654.635 901.593L310.942 767.996C305.018 765.689 300.666 761.168 298.66 755.237C296.108 747.664 297.59 738.551 302.702 730.254L536.069 351.119C541.315 342.511 549.64 336.229 558.377 333.324ZM674.084 900.199C682.485 897.406 690.504 891.325 695.637 882.988L929.003 503.853C933.889 495.896 935.317 487.232 932.884 480.017C931.007 474.474 926.957 470.251 921.428 468.11L577.735 334.513C564.45 329.349 546.302 337.107 537.251 351.82L303.885 730.954L303.288 730.589L303.885 730.954C298.999 738.911 297.571 747.575 300.004 754.79C301.881 760.333 305.931 764.556 311.46 766.697L655.152 900.294C660.924 902.552 667.639 902.342 674.084 900.199Z" fill="url(#paint11_linear_58_19)"/>
<path d="M577.916 321.689C585.888 319.038 594.236 319.147 601.014 322.596L933.658 492.856C939.415 495.783 943.418 500.884 944.903 507.187C946.811 515.173 944.608 524.36 938.879 532.332L675.523 897.997C664.918 912.729 645.329 919.11 631.884 912.241L299.24 741.981C293.483 739.055 289.48 733.953 287.995 727.65C286.087 719.665 288.29 710.477 294.019 702.505L294.595 702.911L294.019 702.505L557.375 336.84C562.641 329.519 570.096 324.289 577.916 321.689ZM654.536 911.805C662.081 909.296 669.28 904.217 674.362 897.157L937.687 531.502C943.19 523.87 945.299 515.112 943.488 507.525C942.071 501.63 938.35 496.866 932.958 494.117L600.314 323.857C587.476 317.284 568.741 323.48 558.526 337.651L295.18 703.346C289.678 710.978 287.569 719.735 289.379 727.323C290.796 733.218 294.517 737.981 299.909 740.731L632.544 910.961C638.998 914.252 646.93 914.334 654.536 911.805Z" fill="url(#paint12_linear_58_19)"/>
<path d="M598.326 311.654C607.49 308.607 617.226 309.116 624.592 313.928L943.275 520.658C948.813 524.255 952.416 529.887 953.37 536.532C954.576 544.851 951.641 553.983 945.327 561.52L653.063 910.537C641.285 924.599 621.19 929.257 608.296 920.879L289.613 714.149C284.075 710.553 280.472 704.92 279.518 698.275C278.313 689.956 281.247 680.824 287.561 673.288L579.825 324.27C584.879 318.246 591.453 313.939 598.326 311.654ZM634.116 921.81C640.744 919.606 647.063 915.45 651.952 909.647L944.186 560.639C950.254 553.383 953.064 544.691 951.916 536.75C950.999 530.524 947.638 525.209 942.454 521.86L623.771 315.13C611.482 307.147 592.293 311.67 580.976 325.18L288.743 674.188L288.188 673.742L288.743 674.188C282.674 681.444 279.865 690.136 281.012 698.077C281.929 704.303 285.291 709.618 290.475 712.967L609.117 919.678C616.121 924.212 625.379 924.715 634.116 921.81Z" fill="url(#paint13_linear_58_19)"/>
<path d="M619.463 303.399C629.849 299.946 641.012 301.075 648.795 307.34L950.645 550.07C955.965 554.336 959.076 560.529 959.469 567.527C959.941 576.09 956.276 585.067 949.428 592.118L629.641 921.209C616.752 934.479 596.317 937.295 584.093 927.467L282.283 684.757C276.963 680.491 273.853 674.298 273.46 667.3C272.987 658.737 276.652 649.761 283.501 642.709L284.045 643.225L283.501 642.709L603.247 313.599C607.925 308.794 613.568 305.359 619.463 303.399ZM612.937 930.045C618.619 928.156 624.068 924.853 628.562 920.208L948.318 591.127C954.89 584.367 958.42 575.8 957.944 567.636C957.589 561.057 954.638 555.241 949.641 551.233L647.831 308.523C636.203 299.16 616.662 301.91 604.305 314.639L284.549 643.72C277.977 650.481 274.447 659.048 274.923 667.212C275.278 673.791 278.23 679.606 283.226 683.615L585.036 926.325C592.445 932.283 603.01 933.346 612.937 930.045Z" fill="url(#paint14_linear_58_19)"/>
<path d="M641.278 296.975C652.916 293.106 665.495 295.024 673.549 302.923L955.638 580.902C960.678 585.858 963.297 592.612 963.038 599.893C962.747 608.61 958.354 617.332 951.052 623.838L605.383 929.871C591.414 942.241 570.78 943.133 559.329 931.855L277.25 653.905C272.21 648.95 269.591 642.195 269.85 634.914C270.141 626.197 274.535 617.476 281.836 610.97L282.329 611.535L281.836 610.97L627.506 304.936C631.647 301.272 636.39 298.6 641.278 296.975ZM591.113 936.439C595.818 934.875 600.397 932.325 604.375 928.781L950.045 622.747C957.07 616.532 961.258 608.21 961.545 599.892C961.801 593.01 959.311 586.644 954.574 581.986L672.494 304.036C661.639 293.322 641.898 294.249 628.563 306.077L282.894 612.11C275.869 618.325 271.681 626.647 271.393 634.965C271.137 641.847 273.627 648.214 278.365 652.872L560.434 930.791C568.064 938.333 580.025 940.126 591.113 936.439Z" fill="url(#paint15_linear_58_19)"/>
<path d="M663.615 292.533C676.475 288.257 690.53 291.144 698.58 300.867L958.164 612.986C962.863 618.651 964.94 625.918 963.998 633.492C962.915 642.273 957.863 650.65 950.14 656.5L580.45 936.404C565.514 947.702 544.804 946.631 534.288 933.981L274.704 621.862C270.005 616.197 267.928 608.93 268.87 601.356C269.953 592.574 275.004 584.197 282.728 578.347L283.2 578.953L282.728 578.347L652.449 298.434C655.912 295.79 659.705 293.833 663.615 292.533ZM568.776 940.882C572.533 939.633 576.184 937.756 579.514 935.223L949.235 655.309C956.632 649.7 961.436 641.704 962.486 633.332C963.394 626.166 961.406 619.268 956.989 613.94L697.404 301.822C687.402 289.796 667.635 288.809 653.354 299.625L283.663 579.528C276.297 585.127 271.462 593.134 270.402 601.476C269.494 608.641 271.482 615.54 275.9 620.868L535.484 932.986C543.162 942.203 556.527 944.955 568.776 940.882Z" fill="url(#paint16_linear_58_19)"/>
<path d="M686.353 290.112C700.435 285.43 715.922 289.564 723.775 301.144L958.142 646.082C962.461 652.437 963.903 660.246 962.228 668.064C960.343 676.781 954.666 684.703 946.643 689.857L555.057 940.636C539.227 950.773 518.613 947.647 509.113 933.664L274.736 588.696C270.418 582.341 268.975 574.532 270.65 566.714C272.535 557.997 278.213 550.075 286.235 544.921L286.657 545.577L286.235 544.921L677.862 294.162C680.577 292.43 683.421 291.087 686.353 290.112ZM546.059 943.263C548.869 942.329 551.591 941.026 554.193 939.365L945.81 688.575C953.506 683.663 958.917 676.062 960.707 667.774C962.318 660.376 960.913 652.985 956.836 646.947L722.499 301.999C713.471 288.722 693.801 285.779 678.705 295.473L287.088 546.262C279.392 551.175 273.982 558.776 272.191 567.063C270.58 574.462 271.986 581.852 276.053 587.861L510.43 932.829C517.881 943.812 532.618 947.732 546.059 943.263Z" fill="url(#paint17_linear_58_19)"/>
<path d="M709.319 289.803C724.653 284.705 741.51 290.307 748.931 303.853L955.474 679.991C959.35 687.058 960.139 695.349 957.67 703.331C954.983 711.983 948.875 719.219 940.492 723.697L529.327 942.526C512.694 951.372 492.35 946.2 483.987 930.944L277.414 554.816C273.538 547.75 272.749 539.458 275.218 531.476C277.905 522.825 284.013 515.588 292.396 511.11L703.561 292.281C705.438 291.293 707.364 290.453 709.319 289.803ZM523.073 943.511C524.936 942.892 526.781 942.113 528.565 941.155L939.761 722.316C947.777 718.059 953.619 711.144 956.161 702.872C958.494 695.299 957.783 687.446 954.087 680.717L747.524 304.62C739.551 290.129 720.171 285.201 704.323 293.653L293.158 512.481L292.797 511.806L293.158 512.481C285.142 516.738 279.3 523.654 276.758 531.926C274.425 539.498 275.136 547.351 278.832 554.08L485.364 930.188C492.425 943.058 508.472 948.366 523.073 943.511Z" fill="url(#paint18_linear_58_19)"/>
<path d="M732.348 291.728C739.924 289.209 748.018 289.27 755.441 292.007C763.827 295.088 770.351 301.141 773.814 309.107L950.109 714.465C953.572 722.432 953.544 731.326 950.049 739.484C946.553 747.642 940.003 754.164 931.627 757.744L503.463 941.974C495.066 945.595 485.832 945.88 477.456 942.83C469.071 939.749 462.546 933.696 459.083 925.73L282.788 520.372C275.633 503.952 283.928 484.517 301.261 477.063L729.425 292.833C730.413 292.438 731.371 292.053 732.348 291.728ZM500.043 941.586C500.99 941.271 501.927 940.927 502.844 940.522L931.018 756.322C939.028 752.863 945.25 746.683 948.601 738.905C951.921 731.137 951.956 722.671 948.662 715.112L772.367 309.754C769.074 302.196 762.882 296.43 754.891 293.516C746.9 290.603 738.103 290.876 730.094 294.334L301.92 478.535C285.422 485.644 277.49 504.13 284.306 519.734L460.561 925.072C463.854 932.631 470.046 938.397 478.037 941.31C485.106 943.9 492.803 943.993 500.043 941.586Z" fill="url(#paint19_linear_58_19)"/>
<path d="M312.838 443.01L755.218 295.928C773.119 289.976 792.424 299.372 798.241 316.867L942.001 749.255C947.818 766.75 937.982 785.836 920.081 791.787L477.7 938.869C459.8 944.821 440.494 935.425 434.678 917.93L290.928 485.572C285.071 468.057 294.907 448.972 312.838 443.01ZM919.575 790.265C936.62 784.597 946.012 766.422 940.464 749.733L796.714 317.375C791.175 300.716 772.79 291.743 755.715 297.421L313.334 444.503C296.289 450.17 286.896 468.345 292.445 485.034L436.205 917.422C441.744 934.081 460.128 943.054 477.204 937.377L919.585 790.295L919.575 790.265Z" fill="url(#paint20_linear_58_19)"/>
<g opacity="0.3">
<path d="M392.06 402.185C392.598 398.359 394.141 395.066 396.596 392.517C400.499 388.482 406.283 386.89 412.861 388.01L750.858 445.075C764.451 447.376 777.441 460.742 779.871 474.867L839.708 826.719C840.912 833.747 839.349 839.899 835.339 844.016C831.436 848.051 825.652 849.644 819.074 848.524L481.077 791.458C467.484 789.158 454.494 775.792 452.063 761.667L392.227 409.815C391.775 407.151 391.724 404.576 392.06 402.185ZM838.722 834.187C839.035 831.955 838.998 829.512 838.533 826.943L778.696 475.091C776.363 461.403 763.786 448.485 750.657 446.282L412.66 389.217C406.482 388.186 401.064 389.667 397.459 393.386C393.743 397.22 392.296 402.998 393.429 409.626L453.266 761.478C455.599 775.167 468.175 788.085 481.305 790.288L819.302 847.353L819.217 847.959L819.302 847.353C825.479 848.384 830.898 846.903 834.503 843.183C836.802 840.841 838.22 837.757 838.722 834.187Z" fill="url(#paint21_linear_58_19)"/>
<path d="M403.922 383.795C404.55 379.332 406.44 375.599 409.519 372.911C413.867 369.101 419.997 367.98 426.806 369.717L768.87 458.204C782.603 461.76 794.858 476.29 796.118 490.608L828.125 846.968C828.764 853.949 826.724 859.872 822.416 863.622C818.068 867.432 811.937 868.553 805.128 866.816L463.034 778.325C449.3 774.769 437.046 760.239 435.786 745.921L403.81 389.565C403.616 387.555 403.667 385.612 403.922 383.795ZM826.824 852.604C827.066 850.883 827.103 849.035 826.932 847.093L794.925 490.733C793.695 476.875 781.85 462.824 768.544 459.394L426.48 370.907C420.072 369.258 414.333 370.305 410.279 373.831C406.292 377.334 404.404 382.855 405.003 389.441L437.01 745.8C438.239 759.659 450.085 773.709 463.391 777.14L805.486 865.631C811.894 867.279 817.633 866.233 821.687 862.707C824.48 860.239 826.242 856.748 826.824 852.604Z" fill="url(#paint22_linear_58_19)"/>
<path d="M417.613 366.637C418.339 361.473 420.679 357.251 424.368 354.519C429.187 350.97 435.66 350.352 442.598 352.758L786.279 472.906C800.087 477.74 811.424 493.377 811.53 507.76L814.571 866.095C814.618 872.993 812.142 878.627 807.567 882.015C802.748 885.563 796.275 886.181 789.337 883.776L445.656 763.627C431.848 758.793 420.511 743.156 420.409 728.741L417.36 370.47C417.357 369.137 417.438 367.88 417.613 366.637ZM813.138 869.73C813.3 868.582 813.376 867.358 813.36 866.12L810.311 507.849C810.203 493.921 799.236 478.824 785.881 474.151L442.2 354.002C435.628 351.713 429.547 352.256 425.075 355.593C420.852 358.738 418.523 364.002 418.597 370.481L421.647 728.752C421.754 742.681 432.721 757.778 446.076 762.451L789.757 882.599L789.547 883.188L789.757 882.599C796.329 884.889 802.41 884.345 806.883 881.008C810.286 878.496 812.462 874.543 813.138 869.73Z" fill="url(#paint23_linear_58_19)"/>
<path d="M433.065 350.963C433.898 345.033 436.724 340.294 441.138 337.599C446.323 334.394 453.293 334.301 460.23 337.389L802.881 489.283C816.639 495.378 826.973 512.044 825.873 526.42L799.041 883.905C798.541 890.628 795.594 896 790.792 898.966C785.608 902.171 778.637 902.264 771.7 899.176L429.05 747.282C415.292 741.187 404.958 724.521 406.057 710.145L432.889 352.661C432.939 352.083 432.984 351.536 433.065 350.963ZM797.656 885.4C797.727 884.89 797.772 884.344 797.817 883.798L824.645 526.345C825.677 512.447 815.708 496.352 802.368 490.446L459.717 338.553C453.136 335.645 446.588 335.667 441.747 338.692C437.293 341.447 434.587 346.463 434.113 352.768L407.281 710.252C406.249 724.15 416.219 740.245 429.558 746.151L772.209 898.045C778.79 900.953 785.338 900.93 790.179 897.905C794.254 895.357 796.871 890.979 797.656 885.4Z" fill="url(#paint24_linear_58_19)"/>
<path d="M392.792 690.824C392.819 690.632 392.845 690.441 392.868 690.282L450.269 336.379C451.316 329.83 454.691 324.81 459.719 322.266C465.366 319.387 472.599 319.916 479.593 323.727L818.546 507.121C831.978 514.405 841.123 531.619 839.138 545.741C839.111 545.932 839.084 546.124 839.062 546.283L781.661 900.186C780.614 906.735 777.239 911.755 772.211 914.299C766.564 917.178 759.331 916.649 752.337 912.838L752.641 912.263L752.337 912.838L413.419 729.416C399.952 722.16 390.807 704.946 392.792 690.824ZM837.892 545.566C839.81 531.922 830.962 515.303 817.944 508.239L479.026 324.818C472.384 321.218 465.56 320.714 460.292 323.387C455.638 325.756 452.531 330.456 451.515 336.554L394.114 690.457C391.862 704.216 400.79 721.172 413.959 728.289L752.873 911.743C759.515 915.342 766.339 915.846 771.607 913.173C776.261 910.804 779.368 906.105 780.384 900.006L837.816 546.108C837.843 545.917 837.865 545.757 837.892 545.566Z" fill="url(#paint25_linear_58_19)"/>
<path d="M380.461 672.089C380.6 671.101 380.797 670.154 381.025 669.21L469.548 321.73C471.165 315.424 474.935 310.752 480.159 308.626C486.224 306.162 493.719 307.314 500.681 311.803L833.156 526.371C846.529 534.98 854.457 553.388 850.906 567.355L762.418 914.808C760.801 921.114 757.031 925.786 751.807 927.912C745.742 930.375 738.247 929.224 731.285 924.735L731.615 924.196L731.285 924.735L398.806 710.198C386.336 702.172 378.561 685.605 380.461 672.089ZM850.196 564.265C852.029 551.227 844.49 535.246 832.434 527.44L499.981 312.94C493.37 308.662 486.285 307.536 480.621 309.861C475.767 311.844 472.268 316.164 470.772 322.065L382.28 669.549C378.862 683.015 386.564 700.774 399.497 709.125L731.976 923.662C738.587 927.939 745.672 929.065 751.337 926.741C756.19 924.757 759.689 920.438 761.185 914.537L849.682 567.02C849.901 566.141 850.062 565.221 850.196 564.265Z" fill="url(#paint26_linear_58_19)"/>
<path d="M369.346 652.388C369.602 650.571 370.008 648.807 370.629 647.107L490.503 308.942C492.654 302.905 496.816 298.614 502.23 296.937C508.709 294.922 516.363 296.746 523.258 301.941L846.504 546.907C859.48 556.76 866.139 575.835 861.301 589.458L741.427 927.623C739.276 933.66 735.114 937.951 729.7 939.628C723.221 941.643 715.567 939.819 708.672 934.624L385.421 689.69C374.056 681.039 367.532 665.298 369.346 652.388ZM861.311 583.966C863.063 571.502 856.747 556.311 845.72 547.967L522.469 303.033C515.922 298.081 508.703 296.319 502.59 298.223C497.571 299.793 493.708 303.769 491.709 309.404L371.835 647.569C367.198 660.668 373.631 679.093 386.179 688.594L709.43 933.528L709.037 934.058L709.43 933.528C715.977 938.479 723.227 940.246 729.309 938.338C734.328 936.768 738.191 932.792 740.19 927.157L860.096 588.996C860.671 587.387 861.065 585.719 861.311 583.966Z" fill="url(#paint27_linear_58_19)"/>
<path d="M359.559 631.833C359.945 629.091 360.69 626.498 361.792 624.085L513.082 298.17C515.762 292.435 520.306 288.588 525.916 287.329C532.799 285.826 540.578 288.349 547.25 294.228L858.508 568.651C871.033 579.676 876.245 599.328 870.139 612.481L718.876 938.432C716.195 944.166 711.651 948.014 706.041 949.273C699.158 950.776 691.38 948.253 684.708 942.374L373.445 667.982C363.189 658.902 357.834 644.106 359.559 631.833ZM871.072 604.485C872.734 592.658 867.531 578.371 857.639 569.634L546.372 295.275C539.98 289.663 532.633 287.233 526.173 288.665C520.991 289.822 516.741 293.386 514.27 298.76L363.007 624.711C357.133 637.343 362.221 656.295 374.323 666.936L685.586 941.327L685.162 941.852L685.586 941.327C691.977 946.939 699.324 949.369 705.784 947.937C710.967 946.78 715.217 943.216 717.688 937.842L868.951 611.891C870.004 609.601 870.705 607.099 871.072 604.485Z" fill="url(#paint28_linear_58_19)"/>
<path d="M351.201 610.601C351.726 606.871 352.85 603.389 354.643 600.357L537.141 289.524C540.319 284.087 545.246 280.683 551.038 279.937C558.254 279.001 566.094 282.216 572.512 288.774L869.001 591.418C880.919 603.594 884.64 623.686 877.257 636.204L694.759 947.037C691.58 952.474 686.654 955.878 680.862 956.624C673.646 957.56 665.805 954.345 659.388 947.787L362.899 645.143C353.902 635.914 349.575 622.173 351.201 610.601ZM879.426 625.749C880.994 614.592 876.791 601.323 868.07 592.393L571.58 289.749C565.439 283.489 558.026 280.399 551.197 281.292C545.854 282.004 541.249 285.16 538.284 290.205L355.786 601.038C348.724 613.081 352.33 632.41 363.861 644.173L660.35 946.817L659.869 947.302L660.35 946.817C666.492 953.076 673.905 956.166 680.734 955.273C686.077 954.561 690.682 951.405 693.647 946.361L876.145 635.528C877.826 632.611 878.928 629.287 879.426 625.749Z" fill="url(#paint29_linear_58_19)"/>
<path d="M344.388 588.773C345.061 583.992 346.698 579.573 349.332 575.978L562.595 283.154C566.294 278.083 571.598 275.155 577.51 274.913C585.02 274.604 592.855 278.533 598.929 285.726L877.868 615.127C889.096 628.376 891.218 648.764 882.598 660.588L669.336 953.411C665.637 958.482 660.332 961.41 654.421 961.652C646.911 961.962 639.076 958.032 633.002 950.84L633.51 950.391L633.002 950.84L354.062 621.438C346.268 612.248 342.865 599.612 344.388 588.773ZM886.243 647.544C887.708 637.12 884.403 624.92 876.853 616.025L597.882 286.619C592.048 279.752 584.635 275.98 577.54 276.283C572.042 276.518 567.116 279.239 563.658 283.954L350.395 576.777C342.132 588.099 344.233 607.736 355.083 620.509L634.049 949.946C639.883 956.813 647.295 960.585 654.391 960.282C659.889 960.047 664.814 957.327 668.273 952.611L881.535 659.788C884.022 656.334 885.602 652.103 886.243 647.544Z" fill="url(#paint30_linear_58_19)"/>
<path d="M339.187 566.555C340.016 560.658 342.233 555.28 345.892 551.179L589.208 279.158C593.392 274.48 599.039 272.056 605.133 272.327C612.895 272.703 620.596 277.361 626.274 285.116L885.008 639.601C895.424 653.873 895.904 674.421 886.07 685.391L642.748 957.443C638.564 962.121 632.918 964.546 626.824 964.274C619.061 963.899 611.36 959.24 605.683 951.486L346.949 597C340.396 588.017 337.78 576.565 339.187 566.555ZM891.408 669.79C892.761 660.163 890.22 649.078 883.876 640.418L625.138 285.964C619.732 278.54 612.382 274.094 605.029 273.743C599.38 273.469 594.103 275.75 590.187 280.108L346.866 552.161C337.477 562.674 337.975 582.411 348.018 596.175L606.752 950.661L606.186 951.069L606.752 950.661C612.158 958.085 619.508 962.531 626.861 962.882C632.509 963.156 637.786 960.874 641.703 956.516L885.029 684.432C888.495 680.563 890.615 675.432 891.408 669.79Z" fill="url(#paint31_linear_58_19)"/>
<path d="M335.683 544.022C336.677 536.945 339.612 530.531 344.455 526.141L616.871 277.65C621.571 273.37 627.555 271.48 633.759 272.32C641.677 273.4 649.182 278.778 654.373 287.05L890.26 664.623C899.749 679.837 898.515 700.371 887.511 710.397L615.064 958.883C610.364 963.164 604.38 965.053 598.175 964.213C590.257 963.133 582.753 957.755 577.593 949.488L341.706 571.915C336.328 563.39 334.401 553.139 335.683 544.022ZM894.908 692.355C896.14 683.588 894.258 673.701 889.071 665.398L653.184 287.825C648.228 279.912 641.102 274.782 633.558 273.754C627.758 272.972 622.175 274.722 617.8 278.723L345.353 527.21C334.821 536.814 333.704 556.519 342.86 571.167L578.746 948.74L578.154 949.111L578.746 948.74C583.702 956.653 590.828 961.783 598.373 962.811C604.172 963.594 609.756 961.843 614.131 957.842L886.577 709.355C891.166 705.189 893.963 699.081 894.908 692.355Z" fill="url(#paint32_linear_58_19)"/>
<path d="M333.945 521.348C335.115 513.028 338.923 505.599 345.025 501.06L645.403 278.767C650.583 274.912 656.932 273.594 663.238 275.065C671.24 276.905 678.49 282.963 683.085 291.638L893.575 690.087C902.058 706.135 899.066 726.519 886.936 735.509L586.559 957.802C581.378 961.657 575.03 962.976 568.723 961.504C560.721 959.664 553.471 953.606 548.877 944.931L549.496 944.596L548.877 944.931L338.387 546.483C334.17 538.511 332.798 529.508 333.945 521.348ZM896.614 715.025C897.721 707.151 896.372 698.444 892.306 690.754L681.811 292.337C677.421 284.016 670.513 278.234 662.912 276.482C657.002 275.132 651.08 276.347 646.221 279.955L345.843 502.248C334.249 510.826 331.471 530.362 339.625 545.812L550.146 944.265C554.536 952.586 561.444 958.368 569.045 960.119C574.955 961.47 580.877 960.254 585.736 956.646L886.083 734.349C891.9 730.031 895.499 722.962 896.614 715.025Z" fill="url(#paint33_linear_58_19)"/>
<path d="M334.028 498.604C335.372 489.041 340.157 480.546 347.741 476.086L674.582 282.511C680.265 279.149 686.912 278.426 693.289 280.525C701.276 283.143 708.152 289.83 712.097 298.837L894.824 715.781C902.185 732.581 897.425 752.652 884.189 760.479L557.348 954.054C551.665 957.416 545.018 958.14 538.642 956.041C530.654 953.422 523.778 946.735 519.834 937.728L337.106 520.784C333.957 513.58 333.02 505.777 334.028 498.604ZM896.5 737.764C897.472 730.846 896.558 723.339 893.533 716.379L710.801 299.467C706.998 290.806 700.461 284.426 692.838 281.924C686.853 279.978 680.598 280.626 675.293 283.782L348.452 477.356C335.839 484.816 331.361 504.016 338.433 520.158L521.165 937.07L520.519 937.37L521.165 937.07C524.968 945.732 531.505 952.112 539.128 954.614C545.113 956.56 551.368 955.911 556.673 952.756L883.478 759.209C890.653 754.951 895.218 746.881 896.5 737.764Z" fill="url(#paint34_linear_58_19)"/>
<path d="M336.03 476C337.553 465.162 343.527 455.664 352.598 451.478L704.205 288.983C710.39 286.114 717.321 286.08 723.764 288.839C731.644 292.222 738.056 299.495 741.329 308.764L893.973 741.505C900.131 758.949 893.569 778.506 879.332 785.087L527.761 947.555C521.576 950.424 514.645 950.457 508.202 947.699C500.322 944.316 493.91 937.043 490.637 927.773L491.341 927.515L490.637 927.773L337.958 495.061C335.733 488.734 335.165 482.153 336.03 476ZM894.463 760.395C895.296 754.466 894.759 748.117 892.597 742.026L739.948 309.318C736.814 300.425 730.708 293.456 723.184 290.253C717.133 287.647 710.611 287.705 704.8 290.399L353.229 452.867C339.673 459.121 333.451 477.848 339.36 494.575L492.009 927.283C495.143 936.176 501.249 943.146 508.773 946.349C514.824 948.955 521.346 948.896 527.157 946.202L878.728 783.734C887.358 779.746 893.007 770.756 894.463 760.395Z" fill="url(#paint35_linear_58_19)"/>
<path d="M339.972 453.604C341.68 441.459 348.989 431.044 359.645 427.34L734.043 298.216C740.722 295.904 747.937 296.56 754.344 300.029C762.023 304.164 767.883 311.977 770.465 321.409L890.949 767.086C895.82 785.097 887.448 803.977 872.255 809.221L497.888 938.35C491.209 940.662 483.994 940.005 477.587 936.537C469.908 932.402 464.048 924.589 461.466 915.156L462.192 914.966L461.466 915.156L340.982 469.48C339.54 464.141 339.256 458.705 339.972 453.604ZM890.49 782.787C891.18 777.878 890.931 772.642 889.524 767.503L769.04 321.827C766.595 312.771 761.002 305.321 753.679 301.366C747.628 298.077 740.818 297.478 734.54 299.651L360.173 428.78C345.751 433.742 337.806 451.837 342.473 469.039L462.958 914.716C465.402 923.771 470.995 931.222 478.318 935.177C484.369 938.465 491.179 939.065 497.458 936.892L871.793 807.758C881.941 804.276 888.863 794.359 890.49 782.787Z" fill="url(#paint36_linear_58_19)"/>
<path d="M345.922 431.62C347.808 418.2 356.641 406.893 368.93 404.005L763.905 310.215C771.069 308.524 778.501 309.893 784.867 314.104C792.252 318.978 797.51 327.226 799.318 336.745L885.718 792.324C889.2 810.725 879.034 828.8 863.028 832.597L468.053 926.387C460.889 928.078 453.456 926.708 447.09 922.498C439.706 917.624 434.447 909.375 432.64 899.857L433.392 899.702L432.64 899.857L346.244 444.246C345.416 439.969 345.348 435.701 345.922 431.62ZM884.54 804.771C885.091 800.85 885.033 796.746 884.244 792.637L797.848 337.026C796.112 327.907 791.085 320.049 784.051 315.387C778.037 311.388 770.974 310.103 764.237 311.692L369.262 405.482C354.044 409.096 344.373 426.364 347.713 443.965L434.114 899.544C435.855 908.63 440.877 916.521 447.879 921.178C453.894 925.177 460.957 926.462 467.694 924.873L862.669 831.084C874.338 828.303 882.743 817.554 884.54 804.771Z" fill="url(#paint37_linear_58_19)"/>
<path d="M353.861 410.176C355.926 395.48 366.514 383.445 380.377 381.558L793.542 324.946C801.154 323.903 808.791 326.081 815.05 331.057C822.02 336.62 826.592 345.227 827.643 354.705L878.221 816.951C880.265 835.638 868.302 852.713 851.554 855.007L438.358 911.616C430.745 912.659 423.109 910.48 416.85 905.504C409.88 899.941 405.307 891.334 404.257 881.857L405.031 881.77L404.257 881.857L353.714 419.583C353.37 416.381 353.43 413.236 353.861 410.176ZM876.575 826.179C876.987 823.247 877.03 820.229 876.699 817.16L826.125 354.881C825.145 345.804 820.741 337.578 814.114 332.291C808.202 327.559 800.957 325.533 793.736 326.501L380.576 383.082C364.669 385.267 353.29 401.579 355.263 419.41L405.837 881.689C406.817 890.766 411.221 898.992 417.848 904.279C423.76 909.011 431.005 911.037 438.195 910.065L851.391 853.457C864.542 851.664 874.603 840.206 876.575 826.179Z" fill="url(#paint38_linear_58_19)"/>
<path d="M363.792 389.467C366.042 373.464 378.553 360.854 393.986 360.228L822.731 342.409C830.783 342.078 838.562 345.057 844.615 350.816C851.17 357.069 854.937 365.757 855.222 375.257L868.477 840.84C869.007 859.671 855.332 875.595 837.948 876.305L409.199 894.156C401.147 894.487 393.368 891.509 387.315 885.749C380.76 879.497 376.993 870.808 376.708 861.308L363.453 395.726C363.401 393.605 363.506 391.507 363.792 389.467ZM866.58 846.879C866.853 844.935 866.975 842.937 866.91 840.912L853.66 375.298C853.41 366.225 849.812 357.918 843.532 351.964C837.786 346.508 830.435 343.654 822.765 343.974L394.047 361.83C377.523 362.53 364.493 377.7 365.02 395.653L378.275 861.236L377.509 861.258L378.275 861.236C378.525 870.308 382.123 878.615 388.403 884.569C394.149 890.025 401.5 892.879 409.17 892.559L837.883 874.736C852.551 874.132 864.438 862.117 866.58 846.879Z" fill="url(#paint39_linear_58_19)"/>
<path d="M375.754 369.693C376.865 361.787 380.517 354.564 386.269 349.131C392.756 342.989 401.078 339.835 409.753 340.274L851.227 362.538C859.903 362.977 867.858 366.956 873.612 373.714C879.366 380.471 882.296 389.238 881.78 398.332L856.486 863.762C855.997 872.893 852.148 881.292 845.692 887.439C839.206 893.581 830.883 896.735 822.208 896.295L380.734 874.032C362.844 873.143 349.122 857.073 350.15 838.233L375.444 372.803C375.529 371.742 375.61 370.713 375.754 369.693ZM854.619 866.653C854.758 865.665 854.865 864.672 854.911 863.671L880.235 398.245C880.697 389.533 877.927 381.212 872.449 374.753C866.967 368.326 859.398 364.532 851.164 364.122L409.69 341.858C401.455 341.448 393.538 344.431 387.376 350.294C381.214 356.157 377.548 364.159 377.086 372.871L351.761 838.297C350.797 856.236 363.83 871.558 380.838 872.388L822.276 894.68C830.511 895.089 838.428 892.106 844.59 886.243C850.052 881.062 853.557 874.208 854.619 866.653Z" fill="url(#paint40_linear_58_19)"/>
<path d="M324.792 812.726L389.682 351.074C392.307 332.393 409.306 319.277 427.563 321.843L878.787 385.266C897.045 387.833 909.768 405.127 907.143 423.807L842.254 885.46C839.628 904.14 822.629 917.257 804.372 914.691L353.179 851.272C334.886 848.733 322.162 831.439 324.792 812.726ZM905.554 423.584C908.054 405.796 895.948 389.304 878.532 386.856L427.339 323.437C409.954 320.993 393.744 333.473 391.239 351.293L326.35 812.945C323.85 830.733 335.956 847.226 353.372 849.674L804.596 913.097C821.981 915.541 838.191 903.061 840.696 885.241L905.585 423.588L905.554 423.584Z" fill="url(#paint41_linear_58_19)"/>
</g>
<defs>
<linearGradient id="paint0_linear_58_19" x1="806.017" y1="554.379" x2="426.877" y2="680.434" gradientUnits="userSpaceOnUse">
<stop stop-color="#35E0CD"/>
<stop offset="0.9994" stop-color="#FEE823"/>
</linearGradient>
<linearGradient id="paint1_linear_58_19" x1="825.191" y1="548.004" x2="407.704" y2="686.809" gradientUnits="userSpaceOnUse">
<stop stop-color="#35E0CD"/>
<stop offset="0.9994" stop-color="#FEE823"/>
</linearGradient>
<linearGradient id="paint2_linear_58_19" x1="843.528" y1="541.906" x2="389.367" y2="692.905" gradientUnits="userSpaceOnUse">
<stop stop-color="#35E0CD"/>
<stop offset="0.9994" stop-color="#FEE823"/>
</linearGradient>
<linearGradient id="paint3_linear_58_19" x1="860.828" y1="536.155" x2="372.067" y2="698.658" gradientUnits="userSpaceOnUse">
<stop stop-color="#35E0CD"/>
<stop offset="0.9994" stop-color="#FEE823"/>
</linearGradient>
<linearGradient id="paint4_linear_58_19" x1="876.963" y1="530.791" x2="355.932" y2="704.022" gradientUnits="userSpaceOnUse">
<stop stop-color="#35E0CD"/>
<stop offset="0.9994" stop-color="#FEE823"/>
</linearGradient>
<linearGradient id="paint5_linear_58_19" x1="891.751" y1="525.873" x2="341.143" y2="708.938" gradientUnits="userSpaceOnUse">
<stop stop-color="#35E0CD"/>
<stop offset="0.9994" stop-color="#FEE823"/>
</linearGradient>
<linearGradient id="paint6_linear_58_19" x1="905.034" y1="521.457" x2="327.861" y2="713.355" gradientUnits="userSpaceOnUse">
<stop stop-color="#35E0CD"/>
<stop offset="0.9994" stop-color="#FEE823"/>
</linearGradient>
<linearGradient id="paint7_linear_58_19" x1="916.657" y1="517.594" x2="316.238" y2="717.22" gradientUnits="userSpaceOnUse">
<stop stop-color="#35E0CD"/>
<stop offset="0.9994" stop-color="#FEE823"/>
</linearGradient>
<linearGradient id="paint8_linear_58_19" x1="926.478" y1="514.328" x2="306.416" y2="720.485" gradientUnits="userSpaceOnUse">
<stop stop-color="#35E0CD"/>
<stop offset="0.9994" stop-color="#FEE823"/>
</linearGradient>
<linearGradient id="paint9_linear_58_19" x1="934.366" y1="511.705" x2="298.529" y2="723.108" gradientUnits="userSpaceOnUse">
<stop stop-color="#35E0CD"/>
<stop offset="0.9994" stop-color="#FEE823"/>
</linearGradient>
<linearGradient id="paint10_linear_58_19" x1="940.2" y1="509.765" x2="292.695" y2="725.047" gradientUnits="userSpaceOnUse">
<stop stop-color="#35E0CD"/>
<stop offset="0.9994" stop-color="#FEE823"/>
</linearGradient>
<linearGradient id="paint11_linear_58_19" x1="943.875" y1="508.544" x2="289.02" y2="726.269" gradientUnits="userSpaceOnUse">
<stop stop-color="#35E0CD"/>
<stop offset="0.9994" stop-color="#FEE823"/>
</linearGradient>
<linearGradient id="paint12_linear_58_19" x1="945.298" y1="508.071" x2="287.597" y2="726.742" gradientUnits="userSpaceOnUse">
<stop stop-color="#35E0CD"/>
<stop offset="0.9994" stop-color="#FEE823"/>
</linearGradient>
<linearGradient id="paint13_linear_58_19" x1="944.391" y1="508.372" x2="288.504" y2="726.441" gradientUnits="userSpaceOnUse">
<stop stop-color="#35E0CD"/>
<stop offset="0.9994" stop-color="#FEE823"/>
</linearGradient>
<linearGradient id="paint14_linear_58_19" x1="941.095" y1="509.468" x2="291.8" y2="725.345" gradientUnits="userSpaceOnUse">
<stop stop-color="#35E0CD"/>
<stop offset="0.9994" stop-color="#FEE823"/>
</linearGradient>
<linearGradient id="paint15_linear_58_19" x1="935.368" y1="511.372" x2="297.527" y2="723.441" gradientUnits="userSpaceOnUse">
<stop stop-color="#35E0CD"/>
<stop offset="0.9994" stop-color="#FEE823"/>
</linearGradient>
<linearGradient id="paint16_linear_58_19" x1="927.187" y1="514.093" x2="305.708" y2="720.721" gradientUnits="userSpaceOnUse">
<stop stop-color="#35E0CD"/>
<stop offset="0.9994" stop-color="#FEE823"/>
</linearGradient>
<linearGradient id="paint17_linear_58_19" x1="916.545" y1="517.63" x2="316.35" y2="717.183" gradientUnits="userSpaceOnUse">
<stop stop-color="#35E0CD"/>
<stop offset="0.9994" stop-color="#FEE823"/>
</linearGradient>
<linearGradient id="paint18_linear_58_19" x1="903.46" y1="521.981" x2="329.435" y2="712.832" gradientUnits="userSpaceOnUse">
<stop stop-color="#35E0CD"/>
<stop offset="0.9994" stop-color="#FEE823"/>
</linearGradient>
<linearGradient id="paint19_linear_58_19" x1="887.966" y1="527.132" x2="344.929" y2="707.68" gradientUnits="userSpaceOnUse">
<stop stop-color="#35E0CD"/>
<stop offset="0.9994" stop-color="#FEE823"/>
</linearGradient>
<linearGradient id="paint20_linear_58_19" x1="870.124" y1="533.064" x2="362.771" y2="701.748" gradientUnits="userSpaceOnUse">
<stop stop-color="#35E0CD"/>
<stop offset="0.9994" stop-color="#FEE823"/>
</linearGradient>
<linearGradient id="paint21_linear_58_19" x1="643.776" y1="420.453" x2="588.163" y2="816.109" gradientUnits="userSpaceOnUse">
<stop stop-color="#35E0CD"/>
<stop offset="0.9994" stop-color="#FEE823"/>
</linearGradient>
<linearGradient id="paint22_linear_58_19" x1="646.588" y1="400.444" x2="585.35" y2="836.118" gradientUnits="userSpaceOnUse">
<stop stop-color="#35E0CD"/>
<stop offset="0.9994" stop-color="#FEE823"/>
</linearGradient>
<linearGradient id="paint23_linear_58_19" x1="649.277" y1="381.308" x2="582.66" y2="855.253" gradientUnits="userSpaceOnUse">
<stop stop-color="#35E0CD"/>
<stop offset="0.9994" stop-color="#FEE823"/>
</linearGradient>
<linearGradient id="paint24_linear_58_19" x1="651.815" y1="363.254" x2="580.123" y2="873.307" gradientUnits="userSpaceOnUse">
<stop stop-color="#35E0CD"/>
<stop offset="0.9994" stop-color="#FEE823"/>
</linearGradient>
<linearGradient id="paint25_linear_58_19" x1="654.182" y1="346.416" x2="577.756" y2="890.145" gradientUnits="userSpaceOnUse">
<stop stop-color="#35E0CD"/>
<stop offset="0.9994" stop-color="#FEE823"/>
</linearGradient>
<linearGradient id="paint26_linear_58_19" x1="656.35" y1="330.983" x2="575.586" y2="905.578" gradientUnits="userSpaceOnUse">
<stop stop-color="#35E0CD"/>
<stop offset="0.9994" stop-color="#FEE823"/>
</linearGradient>
<linearGradient id="paint27_linear_58_19" x1="658.299" y1="317.122" x2="573.638" y2="919.439" gradientUnits="userSpaceOnUse">
<stop stop-color="#35E0CD"/>
<stop offset="0.9994" stop-color="#FEE823"/>
</linearGradient>
<linearGradient id="paint28_linear_58_19" x1="660.005" y1="304.993" x2="571.935" y2="931.569" gradientUnits="userSpaceOnUse">
<stop stop-color="#35E0CD"/>
<stop offset="0.9994" stop-color="#FEE823"/>
</linearGradient>
<linearGradient id="paint29_linear_58_19" x1="661.445" y1="294.744" x2="570.494" y2="941.818" gradientUnits="userSpaceOnUse">
<stop stop-color="#35E0CD"/>
<stop offset="0.9994" stop-color="#FEE823"/>
</linearGradient>
<linearGradient id="paint30_linear_58_19" x1="662.602" y1="286.512" x2="569.337" y2="950.049" gradientUnits="userSpaceOnUse">
<stop stop-color="#35E0CD"/>
<stop offset="0.9994" stop-color="#FEE823"/>
</linearGradient>
<linearGradient id="paint31_linear_58_19" x1="663.457" y1="280.424" x2="568.48" y2="956.137" gradientUnits="userSpaceOnUse">
<stop stop-color="#35E0CD"/>
<stop offset="0.9994" stop-color="#FEE823"/>
</linearGradient>
<linearGradient id="paint32_linear_58_19" x1="663.997" y1="276.589" x2="567.942" y2="959.973" gradientUnits="userSpaceOnUse">
<stop stop-color="#35E0CD"/>
<stop offset="0.9994" stop-color="#FEE823"/>
</linearGradient>
<linearGradient id="paint33_linear_58_19" x1="664.205" y1="275.104" x2="567.733" y2="961.457" gradientUnits="userSpaceOnUse">
<stop stop-color="#35E0CD"/>
<stop offset="0.9994" stop-color="#FEE823"/>
</linearGradient>
<linearGradient id="paint34_linear_58_19" x1="664.073" y1="276.05" x2="567.866" y2="960.511" gradientUnits="userSpaceOnUse">
<stop stop-color="#35E0CD"/>
<stop offset="0.9994" stop-color="#FEE823"/>
</linearGradient>
<linearGradient id="paint35_linear_58_19" x1="663.589" y1="279.49" x2="568.349" y2="957.071" gradientUnits="userSpaceOnUse">
<stop stop-color="#35E0CD"/>
<stop offset="0.9994" stop-color="#FEE823"/>
</linearGradient>
<linearGradient id="paint36_linear_58_19" x1="662.749" y1="285.467" x2="569.19" y2="951.095" gradientUnits="userSpaceOnUse">
<stop stop-color="#35E0CD"/>
<stop offset="0.9994" stop-color="#FEE823"/>
</linearGradient>
<linearGradient id="paint37_linear_58_19" x1="661.549" y1="294.005" x2="570.39" y2="942.558" gradientUnits="userSpaceOnUse">
<stop stop-color="#35E0CD"/>
<stop offset="0.9994" stop-color="#FEE823"/>
</linearGradient>
<linearGradient id="paint38_linear_58_19" x1="659.988" y1="305.11" x2="571.95" y2="931.452" gradientUnits="userSpaceOnUse">
<stop stop-color="#35E0CD"/>
<stop offset="0.9994" stop-color="#FEE823"/>
</linearGradient>
<linearGradient id="paint39_linear_58_19" x1="658.068" y1="318.765" x2="573.869" y2="917.797" gradientUnits="userSpaceOnUse">
<stop stop-color="#35E0CD"/>
<stop offset="0.9994" stop-color="#FEE823"/>
</linearGradient>
<linearGradient id="paint40_linear_58_19" x1="655.795" y1="334.933" x2="576.142" y2="901.627" gradientUnits="userSpaceOnUse">
<stop stop-color="#35E0CD"/>
<stop offset="0.9994" stop-color="#FEE823"/>
</linearGradient>
<linearGradient id="paint41_linear_58_19" x1="653.179" y1="353.553" x2="578.76" y2="883.009" gradientUnits="userSpaceOnUse">
<stop stop-color="#35E0CD"/>
<stop offset="0.9994" stop-color="#FEE823"/>
</linearGradient>
</defs>
</svg>
