<svg width="1440" height="2882" viewBox="0 0 1440 2882" fill="none" xmlns="http://www.w3.org/2000/svg">
<path d="M1360.28 1498.35C1291.07 1371.93 1262.22 1217.44 1269.85 1069.4C1270.86 1050.01 1272.31 1030.68 1274.12 1011.43C1286.26 883.45 1314.9 757.491 1336.71 630.75C1348.77 560.791 1358.78 489.646 1352.61 418.725C1346.48 347.781 1322.84 276.29 1275.15 224.043C1195.79 137.083 1069.95 119.86 955.115 104.157C848.592 89.6071 740.087 71.0887 645.342 18.548C635.051 12.8411 624.936 6.65566 615.066 0.0224976L1441.07 0.0221807L1441.07 1448.73L1441.07 1585.93L1441.07 2818C1436.68 2763.23 1394 2705.2 1206 2818C1134 2861.2 945.352 2912.3 742 2858C592.082 2817.97 446.806 2783.8 342 2780C169.266 2773.75 99.9995 2818 -0.934158 2818L-0.933758 1828C107.866 1767.2 280.956 1691.78 508 1802C749 1919 902 1944 1129 1934C1556 1900 1441.07 1645.91 1360.28 1498.35Z" fill="url(#paint0_linear_139_116)"/>
<defs>
<linearGradient id="paint0_linear_139_116" x1="687.066" y1="-594.071" x2="747.066" y2="2981.93" gradientUnits="userSpaceOnUse">
<stop offset="0.156946" stop-color="#515153"/>
<stop offset="0.203306" stop-color="#606061" stop-opacity="0.89"/>
<stop offset="0.272126" stop-color="#767678" stop-opacity="0.12"/>
<stop offset="0.35871" stop-color="#7F7F80" stop-opacity="0.13"/>
<stop offset="0.491827" stop-color="#8E8E8E" stop-opacity="0.08"/>
<stop offset="0.619251" stop-color="#9D9D9D" stop-opacity="0.89"/>
<stop offset="0.688526" stop-color="#515153" stop-opacity="0.81"/>
<stop offset="0.845756" stop-color="#515153"/>
<stop offset="1" stop-color="#464646"/>
</linearGradient>
</defs>
</svg>
