<svg width="100%" height="116" viewBox="0 0 1440 116" fill="none" xmlns="http://www.w3.org/2000/svg">
<mask id="mask0_2275_573" style="mask-type:alpha" maskUnits="userSpaceOnUse" x="0" y="0" width="100%" height="116">
<rect width="100%" height="116" fill="#D9D9D9"/>
</mask>
<g mask="url(#mask0_2275_573)">
<path d="M0 111L48 95C96 79 192 47 288 57.7C384 68 480 122 576 111C672 100 768 26 864 9.7C960 -6 1056 36 1152 47C1248 58 1344 36 1392 25.7L1440 15V-113H1392C1344 -113 1248 -113 1152 -113C1056 -113 960 -113 864 -113C768 -113 672 -113 576 -113C480 -113 384 -113 288 -113C192 -113 96 -113 48 -113H0V111Z" fill="#4B4B4C"/>
</g>
</svg>