<svg width="40" height="40" viewBox="0 0 40 40" fill="none" xmlns="http://www.w3.org/2000/svg">
<g clip-path="url(#clip0_139_363)">
<path d="M19.9998 24.9932C22.7612 24.9932 24.9998 22.7546 24.9998 19.9932C24.9998 17.2317 22.7612 14.9932 19.9998 14.9932C17.2383 14.9932 14.9998 17.2317 14.9998 19.9932C14.9998 22.7546 17.2383 24.9932 19.9998 24.9932Z" fill="white"/>
<path d="M19.9998 39.9932C22.7612 39.9932 24.9998 37.7546 24.9998 34.9932C24.9998 32.2317 22.7612 29.9932 19.9998 29.9932C17.2383 29.9932 14.9998 32.2317 14.9998 34.9932C14.9998 37.7546 17.2383 39.9932 19.9998 39.9932Z" fill="white"/>
<path d="M19.9998 9.99316C22.7612 9.99316 24.9998 7.75459 24.9998 4.99316C24.9998 2.23174 22.7612 -0.00683594 19.9998 -0.00683594C17.2383 -0.00683594 14.9998 2.23174 14.9998 4.99316C14.9998 7.75459 17.2383 9.99316 19.9998 9.99316Z" fill="white"/>
</g>
<defs>
<clipPath id="clip0_139_363">
<rect width="40" height="40" fill="white" transform="translate(-0.000244141 -0.00683594)"/>
</clipPath>
</defs>
</svg>
