<?xml version="1.0" encoding="UTF-8"?>
<!-- Generator: visioncortex VTracer 0.6.3 -->
<svg version="1.1" xmlns="http://www.w3.org/2000/svg" width="1280" height="796">
<path d="M0 0 C1.98 -0 3.95 -0 5.93 -0.01 C11.26 -0.01 16.59 -0.01 21.91 -0 C27.52 -0 33.12 -0 38.72 -0.01 C48.13 -0.01 57.53 -0.01 66.94 -0 C77.78 0 88.62 0 99.46 -0 C108.8 -0.01 118.14 -0.01 127.48 -0.01 C133.04 -0 138.61 -0 144.17 -0.01 C149.41 -0.01 154.64 -0.01 159.88 -0 C161.79 -0 163.69 -0 165.6 -0 C200.59 -0.04 200.59 -0.04 208.03 4.13 C210.59 6.69 210.59 6.69 212.03 9.13 C212.03 9.79 212.03 10.45 212.03 11.13 C212.69 11.36 213.35 11.58 214.03 11.82 C224.77 16.51 224.77 16.51 227.47 23.07 C228.7 26.71 229.63 30.29 230.03 34.13 C232.34 34.13 234.65 34.13 237.03 34.13 C237.03 269.75 237.03 505.37 237.03 748.13 C234.72 748.13 232.41 748.13 230.03 748.13 C229.85 748.79 229.67 749.46 229.48 750.14 C225.99 762.41 225.99 762.41 220.03 766.13 C219.04 766.46 218.05 766.79 217.03 767.13 C216.43 768.06 215.83 768.99 215.22 769.94 C212.1 774.48 209.67 776.54 204.36 777.73 C193.47 779.4 182.71 779.41 171.71 779.39 C169.59 779.39 167.47 779.39 165.35 779.4 C159.63 779.41 153.91 779.4 148.18 779.4 C142.17 779.39 136.15 779.4 130.13 779.4 C120.03 779.4 109.93 779.4 99.82 779.39 C88.18 779.38 76.54 779.38 64.9 779.39 C54.87 779.4 44.84 779.4 34.8 779.4 C28.83 779.4 22.85 779.4 16.88 779.4 C11.25 779.41 5.63 779.4 0.01 779.39 C-2.04 779.39 -4.1 779.39 -6.15 779.39 C-15.75 779.41 -25.28 779.29 -34.83 778.3 C-35.54 778.23 -36.25 778.16 -36.98 778.09 C-43.06 777.37 -49.07 776.13 -53.41 771.57 C-54.97 769.13 -54.97 769.13 -55.97 767.13 C-57.36 766.48 -57.36 766.48 -58.78 765.82 C-63.46 763.34 -65.44 760.56 -67.28 755.61 C-67.66 754.32 -68.04 753.04 -68.41 751.75 C-69.7 747.54 -70.92 743.66 -73.66 740.13 C-79.24 732.88 -78.26 724.38 -78.24 715.63 C-78.24 714.14 -78.24 712.65 -78.25 711.16 C-78.26 707.07 -78.26 702.99 -78.26 698.9 C-78.26 694.49 -78.27 690.08 -78.28 685.67 C-78.29 678.03 -78.3 670.39 -78.31 662.75 C-78.31 651.69 -78.33 640.64 -78.35 629.59 C-78.39 611.64 -78.42 593.7 -78.44 575.75 C-78.44 574.68 -78.44 573.6 -78.44 572.5 C-78.45 563.78 -78.46 555.07 -78.47 546.36 C-78.48 538.74 -78.49 531.12 -78.5 523.51 C-78.5 522.44 -78.5 521.36 -78.51 520.26 C-78.53 502.38 -78.56 484.5 -78.59 466.62 C-78.62 455.6 -78.63 444.57 -78.64 433.54 C-78.64 425.99 -78.65 418.43 -78.67 410.88 C-78.68 406.52 -78.68 402.16 -78.68 397.8 C-78.68 393.81 -78.69 389.82 -78.7 385.83 C-78.7 384.39 -78.7 382.94 -78.7 381.5 C-78.62 371.62 -78.62 371.62 -80.97 362.13 C-82.85 362.18 -82.85 362.18 -84.97 363.13 C-86.31 365.12 -87.65 367.12 -88.97 369.13 C-91.22 370.69 -91.22 370.69 -93.97 372.13 C-95.33 372.9 -96.69 373.7 -98.03 374.5 C-98.68 374.88 -99.33 375.26 -100.01 375.65 C-102.12 377.1 -102.12 377.1 -103.76 379.52 C-106.54 382.8 -109.55 384.41 -113.28 386.44 C-118.73 389.53 -122.58 392.46 -126.42 397.49 C-128.67 399.87 -131.11 400.44 -134.19 401.36 C-137.22 402.67 -138.36 405.36 -139.97 408.13 C-142.53 410.59 -145.29 411.68 -148.53 413 C-152.54 414.71 -154.03 416.15 -155.97 420.13 C-161.73 425.89 -170.62 425.39 -178.19 425.4 C-179.41 425.4 -180.64 425.39 -181.91 425.38 C-183.74 425.39 -183.74 425.39 -185.62 425.4 C-195.48 425.38 -203.64 425.28 -210.97 418.13 C-211.63 417.43 -212.29 416.73 -212.97 416 C-214.96 413.94 -214.96 413.94 -217.97 412.75 C-222.15 410.49 -224.05 407.36 -225.85 403 C-226.97 400.83 -226.97 400.83 -229.91 399.19 C-233.15 397.01 -234.25 395.58 -235.97 392.13 C-236.53 391.08 -237.08 390.03 -237.66 388.94 C-238.97 386.13 -238.97 386.13 -238.97 384.13 C-240.08 383.79 -240.08 383.79 -241.22 383.44 C-246.03 381.15 -247.98 377.18 -250.41 372.63 C-252.48 368.8 -254.76 366.1 -257.97 363.13 C-261.04 359.85 -263.08 357.19 -264.41 352.94 C-265.51 349.64 -265.69 349.29 -268.91 347.44 C-269.92 347.01 -270.93 346.58 -271.97 346.13 C-274.66 343.37 -275.95 341.18 -277.35 337.57 C-278.68 333.96 -278.68 333.96 -281.85 332.25 C-285.05 330.07 -285.69 329.14 -287.35 325.82 C-289.12 322.3 -290.79 320.23 -293.91 317.82 C-300.16 312.76 -303.72 305 -304.97 297.13 C-305.69 297.09 -306.41 297.05 -307.16 297 C-311.04 295.8 -312.87 293.47 -314.97 290.13 C-315.67 288.6 -316.33 287.06 -316.97 285.5 C-318.63 281.47 -320.5 279.8 -323.97 277.13 C-330.65 264.48 -329.27 246.35 -326.02 232.76 C-324.47 228.87 -322.1 226.12 -318.97 223.38 C-316.91 221.06 -316.4 219.63 -315.41 216.75 C-313.21 211.37 -309.58 209.95 -304.51 207.53 C-301.19 205.7 -299.99 203.29 -297.97 200.13 C-294.2 197.55 -290.3 195.57 -285.97 194.13 C-285.66 193.35 -285.35 192.56 -285.04 191.76 C-283.78 188.67 -282.69 187.83 -279.91 186.07 C-279.11 185.56 -278.31 185.05 -277.49 184.53 C-275.09 183.19 -272.71 182.15 -270.16 181.13 C-266.87 179.77 -266.12 179.36 -264.1 176.25 C-261.73 172.78 -260.16 171.99 -256.47 170.13 C-251.58 167.66 -249.59 165.85 -246.97 161.13 C-245.12 159.41 -243.37 158.31 -241.08 157.27 C-240.04 156.8 -240.04 156.8 -238.97 156.32 C-238.31 156.04 -237.65 155.77 -236.97 155.48 C-234.72 154.16 -234.72 154.16 -233.21 151.27 C-230.37 147.29 -227.45 145.88 -223.16 143.75 C-217.42 140.75 -213.41 138.01 -209.48 132.76 C-207.69 130.83 -206.35 130.36 -203.85 129.63 C-201.31 128.89 -200.26 128.53 -198.7 126.36 C-198.16 125.32 -198.16 125.32 -197.6 124.25 C-195.12 119.64 -192.05 118.45 -187.38 116.4 C-184.25 114.75 -182.71 112.67 -180.61 109.89 C-177.97 107.05 -174.66 105.46 -171.24 103.68 C-168.54 101.84 -167.62 99.92 -165.97 97.13 C-161.61 93.7 -156.95 91.12 -151.47 90.13 C-149.74 89.63 -149.74 89.63 -147.97 89.13 C-146.71 86.26 -146.71 86.26 -145.97 83.13 C-143.09 80.08 -140.8 79 -136.78 78.25 C-135.52 77.88 -134.27 77.51 -132.97 77.13 C-131.71 74.26 -131.71 74.26 -130.97 71.13 C-127.72 67.88 -124.13 66.16 -119.94 64.45 C-117.71 63.15 -117.71 63.15 -116.21 60.27 C-113.37 56.3 -110.45 54.88 -106.16 52.75 C-100.45 49.77 -96.46 47.06 -92.55 41.83 C-90.14 39.23 -87.22 38.42 -83.95 37.18 C-81.23 35.74 -80.45 33.61 -79.2 30.88 C-76.64 27.23 -72.03 25.67 -67.97 24.13 C-67.31 24.13 -66.65 24.13 -65.97 24.13 C-65.91 23.55 -65.85 22.97 -65.78 22.38 C-64.27 18.19 -60.48 16.39 -56.67 14.42 C-55.49 13.87 -54.31 13.32 -53.1 12.75 C-47.63 10.14 -43.43 7.21 -38.97 3.13 C-28 -2.24 -12 -0.01 0 0 Z M-36.97 38.13 C-37.49 38.89 -38 39.66 -38.53 40.44 C-41.48 43.69 -44.64 45.41 -48.42 47.58 C-52.01 49.76 -54.93 52.22 -57.97 55.13 C-57.97 55.79 -57.97 56.45 -57.97 57.13 C-62.74 59.07 -62.74 59.07 -64.91 59.65 C-69.17 60.88 -69.17 60.88 -72.24 63.93 C-72.61 64.61 -72.97 65.3 -73.35 66 C-75.83 70.65 -78.99 71.86 -83.69 73.92 C-86.88 75.61 -88.04 78.14 -89.97 81.13 C-91.95 82.34 -91.95 82.34 -94.28 83.5 C-97.8 85.28 -99.87 86.95 -102.28 90.07 C-105.85 94.49 -109.99 96.49 -115.1 98.81 C-120.78 101.36 -120.78 101.36 -124.66 106 C-127.11 109.32 -128.32 109.95 -131.97 111.57 C-136.31 113.53 -137.67 114.94 -139.65 119.38 C-142.17 122.73 -146.43 123.91 -150.17 125.61 C-152.93 127.11 -153.82 127.83 -155.28 130.5 C-157.96 135.14 -162.77 136.8 -167.39 139.07 C-172.18 141.5 -175.11 144.07 -178.36 148.4 C-180.29 150.47 -181.96 151.15 -184.6 152.13 C-189.18 153.86 -190.36 156.04 -192.59 160.25 C-194.75 163.19 -197.58 163.9 -200.91 165.14 C-204.01 166.63 -205.12 169.3 -206.97 172.13 C-209.18 173.55 -211.45 174.72 -213.79 175.91 C-216.71 177.54 -218.74 179.65 -220.97 182.13 C-224 185.5 -226.96 187.35 -231.03 189.32 C-232.6 190.08 -232.6 190.08 -234.19 190.86 C-236.97 192.13 -236.97 192.13 -239.97 193.13 C-241.1 194.87 -241.1 194.87 -242.1 196.94 C-244.65 201.31 -247.17 202.3 -251.78 204.01 C-254.38 205.34 -255.32 206.65 -256.91 209.07 C-259.79 213.43 -262.98 214.78 -267.67 216.86 C-270.1 218.2 -270.91 219.09 -272.28 221.44 C-274.55 225.21 -277.74 227.04 -281.47 229.19 C-287.78 232.85 -292.01 236.29 -294.97 243.13 C-296.13 251.73 -296.68 264.58 -291.97 272.13 C-288.9 274.04 -288.9 274.04 -286.72 274.95 C-284.31 276.57 -283.69 278.36 -282.53 281 C-280.84 284.84 -279.48 286.83 -275.97 289.13 C-271.69 291.93 -270.2 295.06 -268.37 299.76 C-267.07 302.37 -267.07 302.37 -264.1 303.95 C-260.1 306.74 -258.71 309.66 -256.6 313.94 C-253.6 319.65 -250.9 323.64 -245.67 327.56 C-243.61 329.46 -242.95 331.14 -241.97 333.75 C-240.24 338.34 -238.06 339.52 -233.85 341.76 C-230.93 343.89 -230.25 346.64 -229.02 349.94 C-227.55 353.01 -225.42 354.44 -222.76 356.46 C-219.94 359.09 -218.37 362.35 -216.62 365.76 C-215.04 368.35 -215.04 368.35 -212.02 369.99 C-208.4 372.53 -206.92 375.27 -205.16 379.19 C-204.86 379.82 -204.56 380.44 -204.25 381.08 C-203 383.73 -201.9 386.35 -200.97 389.13 C-190.83 393.58 -180.55 394.69 -169.97 391.13 C-167.32 388.9 -167.32 388.9 -164.97 386.13 C-160.64 382.81 -156.32 380.18 -151.22 378.25 C-146.78 376.43 -145.53 374.13 -143.35 370.01 C-141.2 367.08 -138.4 366.41 -135.09 365.18 C-132.68 363.99 -131.96 363.03 -130.6 360.75 C-127.92 356.38 -124.08 354.91 -119.61 352.66 C-116.41 350.8 -114.71 348.69 -112.49 345.8 C-108.89 341.84 -103.76 339.6 -98.66 338.25 C-95.26 336.83 -94.91 335.11 -93.36 331.92 C-91.44 329.45 -89.42 328.83 -86.53 327.69 C-81.38 325.63 -79.8 323.85 -77.33 319.04 C-75.11 315.92 -71.91 314.99 -68.49 313.49 C-64.37 311.26 -61.75 307.83 -58.97 304.13 C-54.61 304.61 -52.78 305.78 -49.97 309.13 C-46.22 318.68 -46.54 329.09 -46.58 339.18 C-46.58 340.87 -46.58 342.57 -46.57 344.26 C-46.56 348.88 -46.56 353.51 -46.57 358.13 C-46.57 363.13 -46.56 368.12 -46.55 373.12 C-46.53 381.77 -46.53 390.42 -46.53 399.07 C-46.53 411.58 -46.52 424.09 -46.49 436.6 C-46.46 456.91 -46.44 477.22 -46.43 497.52 C-46.43 498.74 -46.42 499.95 -46.42 501.2 C-46.42 506.12 -46.42 511.04 -46.41 515.97 C-46.41 529.53 -46.4 543.09 -46.38 556.65 C-46.38 558.47 -46.38 558.47 -46.38 560.33 C-46.36 580.57 -46.34 600.82 -46.31 621.06 C-46.29 633.54 -46.28 646.03 -46.27 658.51 C-46.27 667.05 -46.27 675.6 -46.25 684.15 C-46.25 689.08 -46.24 694.01 -46.25 698.94 C-46.25 703.46 -46.24 707.97 -46.23 712.48 C-46.23 714.12 -46.23 715.75 -46.23 717.38 C-46.24 719.6 -46.23 721.82 -46.22 724.04 C-46.22 725.27 -46.22 726.51 -46.22 727.78 C-45.9 732.07 -45.29 735.77 -42.24 738.92 C-28.51 748.42 -15.61 748.43 0.56 748.39 C2.52 748.39 4.48 748.39 6.45 748.4 C11.76 748.41 17.06 748.4 22.37 748.4 C27.94 748.39 33.51 748.4 39.08 748.4 C48.43 748.4 57.78 748.4 67.13 748.39 C77.92 748.38 88.72 748.38 99.51 748.39 C108.79 748.4 118.08 748.4 127.37 748.4 C132.9 748.4 138.44 748.4 143.98 748.4 C149.19 748.41 154.39 748.4 159.6 748.39 C161.5 748.39 163.41 748.39 165.31 748.39 C182.72 749.26 182.72 749.26 198.03 742.69 C198.73 742.1 199.43 741.5 200.15 740.88 C200.77 740.3 201.39 739.73 202.03 739.13 C202.57 738.68 203.1 738.24 203.65 737.78 C208.09 732.45 207.31 725.29 207.28 718.77 C207.29 717.04 207.29 717.04 207.29 715.27 C207.3 712.06 207.29 708.85 207.29 705.63 C207.28 702.14 207.29 698.65 207.29 695.16 C207.3 689.03 207.3 682.91 207.3 676.79 C207.29 667.68 207.29 658.58 207.3 649.48 C207.31 633.22 207.31 616.96 207.3 600.7 C207.3 586.47 207.3 572.25 207.3 558.02 C207.3 557.08 207.3 556.13 207.3 555.16 C207.3 551.33 207.3 547.51 207.3 543.68 C207.31 507.76 207.3 471.84 207.29 435.92 C207.28 403.99 207.28 372.06 207.29 340.13 C207.3 304.28 207.31 268.42 207.3 232.57 C207.3 228.75 207.3 224.93 207.3 221.11 C207.3 220.17 207.3 219.22 207.3 218.26 C207.29 204.03 207.3 189.81 207.3 175.59 C207.31 159.43 207.31 143.26 207.3 127.1 C207.29 118.05 207.29 108.99 207.3 99.94 C207.3 93.9 207.3 87.86 207.29 81.82 C207.29 78.37 207.28 74.93 207.29 71.48 C207.3 67.78 207.29 64.07 207.28 60.36 C207.29 58.75 207.29 58.75 207.3 57.1 C207.29 56.11 207.29 55.13 207.28 54.11 C207.28 53.26 207.28 52.41 207.28 51.54 C206.99 48.74 206.28 46.64 205.03 44.13 C203.37 43.11 201.71 42.11 200.03 41.13 C199.03 39.46 198.03 37.8 197.03 36.13 C192.71 32.68 188.55 32.71 183.25 32.76 C181.92 32.75 181.92 32.75 180.57 32.74 C177.61 32.73 174.65 32.75 171.69 32.76 C169.56 32.75 167.44 32.75 165.31 32.75 C159.54 32.74 153.77 32.75 148 32.76 C141.96 32.77 135.92 32.77 129.88 32.76 C119.73 32.76 109.58 32.77 99.43 32.79 C87.71 32.81 75.99 32.82 64.26 32.81 C52.98 32.81 41.7 32.81 30.41 32.82 C25.61 32.83 20.81 32.83 16.02 32.83 C10.36 32.82 4.7 32.83 -0.95 32.85 C-3.03 32.85 -5.1 32.85 -7.17 32.85 C-10.01 32.85 -12.85 32.86 -15.68 32.87 C-16.91 32.86 -16.91 32.86 -18.15 32.86 C-28.59 32.84 -28.59 32.84 -36.97 38.13 Z " fill="#000000" transform="translate(1042.97021484375,8.87060546875)"/>
<path d="M0 0 C54.12 0 108.24 0 164 0 C164 2.31 164 4.62 164 7 C169.22 7.55 174.44 8.04 179.67 8.48 C182.44 8.71 185.21 8.95 187.99 9.19 C189.42 9.31 190.84 9.43 192.27 9.55 C210.79 11.04 210.79 11.04 218.32 17.8 C223.19 21.29 229.72 21.98 235.5 22.88 C241.18 23.84 246.18 25.82 251 29 C251.66 29.99 252.32 30.98 253 32 C255.12 32.9 255.12 32.9 257.61 33.46 C258.53 33.71 259.45 33.95 260.4 34.2 C262.33 34.69 264.26 35.18 266.19 35.66 C275.41 38.1 275.41 38.1 279 42 C279.81 44.25 279.81 44.25 280 46 C280.77 46.17 281.55 46.34 282.34 46.52 C295.29 49.53 295.29 49.53 300 53 C300.87 54.45 300.87 54.45 301.75 55.94 C304.37 59.5 305.86 59.9 309.94 61.38 C315.4 63.41 317.12 65.07 319.67 70.15 C321.88 73.22 325.03 73.84 328.5 75.01 C334.42 77.35 338.59 82.59 343 87 C344.33 88.17 345.66 89.34 347 90.5 C350.13 93.22 353.11 96.03 356 99 C356.76 99.72 357.53 100.44 358.31 101.19 C360 103 360 103 360 105 C360.6 105.26 361.19 105.51 361.81 105.78 C366.14 108.2 369.24 112.67 370.77 117.35 C371.07 118.51 371.07 118.51 371.38 119.69 C372.45 123.45 373.62 124.79 377 126.75 C378.06 127.32 378.06 127.32 379.13 127.9 C381.81 129.48 382.79 131.17 384 134 C384.29 135.22 384.58 136.43 384.88 137.69 C385.25 138.78 385.62 139.87 386 141 C387.65 141.7 389.32 142.36 391 143 C395.34 149.04 399 157.51 399 165 C399.74 165.21 400.49 165.41 401.25 165.62 C404.73 167.37 406.3 169.6 408 173 C408.98 176.04 409.63 179.12 410.25 182.25 C410.42 183.06 410.6 183.88 410.77 184.72 C412 190.6 412 190.6 412 193 C412.74 193.19 413.49 193.37 414.25 193.56 C418.05 195.55 419.5 198.11 421 202 C421.97 206.68 422.52 211.38 423.06 216.12 C423.36 218.63 423.66 221.13 423.97 223.63 C424.16 225.29 424.16 225.29 424.36 226.97 C425.26 231.24 427 234 430.06 237.06 C443.86 257.98 436.29 306.7 436.27 330.7 C436.26 337 436.27 343.3 436.27 349.6 C436.28 360.84 436.27 372.08 436.26 383.33 C436.25 393.45 436.25 403.57 436.26 413.69 C436.27 425.54 436.28 437.4 436.27 449.25 C436.27 455.49 436.27 461.73 436.27 467.96 C436.31 512.38 436.31 512.38 435.17 530.71 C435.1 531.87 435.03 533.02 434.96 534.21 C434.37 542.05 433.21 549.21 428.46 555.64 C424.69 561.35 424.41 568.11 423.56 574.75 C422.24 585.11 420.74 596.26 413 604 C412.33 605.92 412.33 605.92 411.85 608.14 C411.65 608.96 411.45 609.79 411.24 610.64 C410.83 612.36 410.43 614.09 410.03 615.82 C408.78 620.89 407.47 624.94 404 629 C402.67 629.51 402.67 629.51 401.32 630.03 C400.17 630.51 400.17 630.51 399 631 C398.1 633.52 398.1 633.52 397.94 636.5 C397 643.72 395.65 650.35 390.38 655.62 C388 657 388 657 386 657 C385.86 657.62 385.73 658.23 385.59 658.87 C383.67 666.43 380.19 672.08 374.48 677.43 C372.53 679.5 371.3 681.79 369.88 684.25 C366.85 689.11 363.77 692.04 359.13 695.31 C356.27 697.58 354.46 700.26 352.39 703.23 C351 705 351 705 348.06 706.94 C345.05 708.97 343.63 710.62 341.5 713.5 C338.71 717.27 336.06 719.57 332 722 C329.79 724.07 327.78 726.25 325.75 728.5 C321.32 732.53 316.4 734.56 310.75 736.38 C307.51 737.52 307.08 737.87 305.06 740.94 C301.73 745.89 296.59 747.17 291.06 748.94 C288.76 749.82 288.76 749.82 288.25 752.31 C286.18 756.75 282.44 758.26 278 760 C274.32 760.85 270.67 761.55 266.94 762.13 C263.92 762.68 263.92 762.68 262.78 764.9 C262.52 765.59 262.26 766.29 262 767 C256.11 774.48 239.09 774.61 230 776 C229.01 776 228.02 776 227 776 C226.66 776.87 226.66 776.87 226.31 777.75 C224.27 781.26 221.98 783.45 217.98 784.56 C210.96 785.92 203.92 786.83 196.81 787.62 C195.11 787.83 195.11 787.83 193.37 788.03 C187.88 788.66 182.53 789.18 177 789 C177 791.31 177 793.62 177 796 C112.65 796 48.3 796 -18 796 C-18 793.69 -18 791.38 -18 789 C-19.11 788.88 -20.23 788.76 -21.38 788.63 C-24.57 788.28 -27.77 787.93 -30.97 787.56 C-34.11 787.21 -37.26 786.87 -40.41 786.56 C-58.12 784.73 -58.12 784.73 -64.03 779.05 C-69.32 775.4 -75.79 774.75 -82.01 773.46 C-88.18 772.07 -92.5 770.44 -97.37 766.36 C-99.28 764.77 -101.2 763.76 -103.5 762.81 C-104.25 762.5 -105 762.18 -105.77 761.86 C-107.22 761.3 -108.69 760.77 -110.17 760.27 C-114.88 758.67 -117.74 756.95 -121 753 C-121.33 752.01 -121.66 751.02 -122 750 C-124.42 749.22 -126.71 748.6 -129.19 748.06 C-134.56 746.89 -138.58 745.5 -143 742 C-143.27 741.15 -143.54 740.31 -143.81 739.44 C-144.74 736.86 -144.74 736.86 -146.94 736.16 C-148.54 735.67 -150.14 735.2 -151.75 734.73 C-154.84 733.73 -156.74 732.33 -159 730 C-159.43 729.01 -159.87 728.02 -160.31 727 C-162.41 723.27 -164.28 722.67 -168.06 721 C-170.89 719.54 -172.34 717.66 -174 715 C-174.12 714.28 -174.25 713.56 -174.38 712.81 C-174.58 712.21 -174.79 711.62 -175 711 C-177 710.32 -179 709.66 -181 709 C-184.19 706.39 -185.77 704.8 -186.94 700.81 C-187.29 699.88 -187.64 698.96 -188 698 C-190.85 696.88 -190.85 696.88 -194 696 C-197.19 693.39 -198.77 691.8 -199.94 687.81 C-200.29 686.88 -200.64 685.96 -201 685 C-201.93 684.71 -202.86 684.42 -203.81 684.12 C-208.46 682.49 -209.87 679.28 -212 675 C-212.43 673.64 -212.43 673.64 -212.88 672.25 C-213.9 669.63 -213.9 669.63 -217.35 668.38 C-221.93 665.87 -222.94 662.47 -224.5 657.69 C-226.15 652.71 -227.59 649.12 -231.53 645.55 C-235.65 641.74 -236.69 637.9 -238 632.56 C-239.81 626.01 -241.38 621.87 -246.39 617.14 C-250.49 611.68 -251.09 603.44 -252.45 596.83 C-253.3 593.02 -253.98 590.37 -256.94 587.75 C-264.31 579.88 -263.8 566.28 -264.69 556 C-264.82 554.59 -264.95 553.19 -265.08 551.79 C-266 541.79 -266 541.79 -266 537 C-268.31 537 -270.62 537 -273 537 C-273 443.94 -273 350.88 -273 255 C-270.69 255 -268.38 255 -266 255 C-265.42 249.35 -264.88 243.69 -264.39 238.03 C-264.15 235.52 -263.92 233.01 -263.69 230.5 C-263.58 229.25 -263.48 227.99 -263.37 226.7 C-262.62 218.86 -261.8 210.46 -256.49 204.23 C-255 203 -255 203 -253 203 C-252.9 201.99 -252.79 200.98 -252.69 199.94 C-249.83 178 -249.83 178 -244 172 C-243.32 171.72 -242.64 171.44 -241.93 171.15 C-239.74 170.12 -239.74 170.12 -239.09 167.46 C-238.9 166.44 -238.7 165.42 -238.5 164.38 C-236.59 155.84 -233.71 150.59 -227.8 144.22 C-225.12 140.91 -223.32 137.23 -221.46 133.42 C-219.91 130.84 -218.56 129.54 -216 128 C-215.34 128 -214.68 128 -214 128 C-213.83 127.41 -213.66 126.82 -213.48 126.21 C-212.01 121.41 -210.68 117.58 -207 114 C-206.03 113.59 -205.06 113.17 -204.06 112.75 C-200.68 110.82 -200.26 109.94 -198.62 106.56 C-196.39 102.07 -194.44 100.98 -189.91 99.16 C-186.78 97.26 -185.78 94.27 -184.22 91.06 C-182.42 88.02 -180.29 87.07 -177 86 C-176.01 86 -175.02 86 -174 86 C-173.77 84.93 -173.55 83.86 -173.31 82.75 C-171.8 78.43 -170.88 77.31 -167 75 C-165.45 74.5 -163.88 74.02 -162.31 73.56 C-159.97 72.9 -159.97 72.9 -158 72 C-156.89 69.61 -156.89 69.61 -156 67 C-152.05 63.75 -147.34 61.67 -142.75 59.5 C-138.69 57.53 -136.76 55.58 -134 52 C-130.32 49.7 -126.37 48.14 -122.31 46.62 C-118.82 45.22 -118.82 45.22 -116.81 42.06 C-112.57 36.4 -104.14 35.42 -97.56 34.06 C-93.41 32.82 -91.87 31.18 -89 28 C-85.34 25.43 -82.33 24.49 -77.92 23.86 C-76.76 23.68 -75.6 23.49 -74.4 23.3 C-71.98 22.94 -69.57 22.58 -67.14 22.25 C-59.9 21.07 -55.76 19.45 -50.26 14.65 C-42.19 8.74 -29.77 9.16 -20.06 8.31 C-18.67 8.18 -17.27 8.05 -15.87 7.92 C-5 6.92 -5 6.92 0 7 C0 4.69 0 2.38 0 0 Z M47.35 29.32 C45.57 29.36 43.79 29.39 42 29.42 C33.19 29.58 24.42 29.9 15.65 30.79 C14.96 30.85 14.28 30.91 13.57 30.97 C8.77 31.52 5.84 33.16 2 36 C-8.93 40.37 -21.05 41.21 -32.65 42.52 C-33.91 42.67 -35.18 42.82 -36.48 42.97 C-37.61 43.1 -38.75 43.23 -39.92 43.36 C-44.56 44.33 -47.28 46.32 -50.69 49.55 C-54.6 52.89 -58.99 53.36 -63.94 54.12 C-71.65 55.4 -78.45 56.52 -84.38 62 C-88.21 65.47 -92.08 66.61 -97 67.94 C-103.14 69.77 -107.16 71.23 -111.23 76.35 C-113.72 78.67 -116.35 79.36 -119.56 80.44 C-125.17 82.38 -127.18 84.01 -130.21 88.95 C-133.49 92.71 -138.27 94.37 -142.76 96.36 C-145.89 97.95 -147.71 99.38 -150 102 C-152.88 105.28 -154.92 107.11 -159.06 108.31 C-161.64 109.15 -162.72 109.59 -164.26 111.86 C-164.91 113.27 -165.54 114.7 -166.14 116.13 C-167.29 118.63 -168.6 119.69 -171 121 C-172.22 121.36 -172.22 121.36 -173.47 121.73 C-176.82 123.41 -177.21 124.98 -178.5 128.44 C-180.24 133.09 -181.66 134.63 -186 137 C-186 137.66 -186 138.32 -186 139 C-186.66 139 -187.32 139 -188 139 C-188.62 140.39 -188.62 140.39 -189.25 141.82 C-194.44 153.07 -194.44 153.07 -199.19 156.5 C-204.05 160.16 -204.77 164.85 -206.02 170.6 C-207.46 175.6 -209.82 178.91 -213.62 182.42 C-216.57 185.61 -217.1 188.03 -218 192.25 C-219.51 198.71 -221.29 205.84 -226.55 210.32 C-228.72 212.84 -228.95 215.32 -229.56 218.56 C-229.69 219.22 -229.81 219.87 -229.94 220.54 C-230.88 225.72 -231.43 230.9 -231.94 236.12 C-232.87 245.56 -235.19 254.04 -239.12 262.69 C-240.92 267.09 -241.6 271.44 -242.09 276.14 C-242.22 277.33 -242.22 277.33 -242.35 278.53 C-243.23 287.36 -243.35 296.17 -243.41 305.03 C-243.43 306.82 -243.45 308.61 -243.47 310.39 C-243.52 315.12 -243.56 319.84 -243.6 324.57 C-243.63 328.53 -243.67 332.48 -243.71 336.44 C-243.82 347.84 -243.91 359.24 -243.98 370.64 C-244 372.78 -244.01 374.91 -244.03 377.05 C-244.14 392.37 -244.12 407.68 -244 423 C-243.99 424.56 -243.98 426.11 -243.97 427.67 C-243.89 438.65 -243.79 449.63 -243.68 460.62 C-243.64 464.32 -243.61 468.03 -243.58 471.74 C-243.46 495.44 -243.46 495.44 -242.14 519.09 C-242.08 519.93 -242.01 520.78 -241.94 521.65 C-241.34 527.53 -239.44 531.95 -236.45 537.07 C-232.53 544.99 -232.21 554.79 -231.33 563.47 C-231.21 564.59 -231.1 565.71 -230.97 566.87 C-230.74 569.09 -230.54 571.31 -230.35 573.53 C-229.79 579.69 -229.79 579.69 -226.65 584.86 C-225.77 585.57 -224.9 586.27 -224 587 C-219.9 592.04 -219 596.7 -218 602.94 C-216.77 610.58 -215.5 616.85 -209.5 622.25 C-206.89 625.12 -206.31 626.75 -205.19 630.38 C-203.46 635.65 -201.28 637.79 -196.96 641.12 C-192.72 645.19 -190.92 651.2 -189.11 656.7 C-187.79 659.44 -186.83 659.97 -184.12 661.25 C-180.58 663.25 -179.39 664.75 -178 668.56 C-176.74 671.97 -176.74 671.97 -174.09 674.33 C-172.68 674.97 -171.26 675.59 -169.83 676.18 C-167.34 677.3 -166.3 678.62 -165 681 C-164.77 681.83 -164.55 682.65 -164.31 683.5 C-162.53 686.9 -160.31 687.5 -156.9 689.04 C-154.44 690.28 -153.32 691.58 -152 694 C-151.75 694.82 -151.49 695.64 -151.23 696.48 C-149.67 699.67 -148.44 700.05 -145.19 701.31 C-141.3 703.06 -139.47 704.24 -137.56 708.06 C-135.56 711.86 -133.74 712.82 -129.69 714.19 C-128.73 714.48 -127.77 714.78 -126.79 715.08 C-121.6 716.79 -117.35 719.46 -113.75 723.56 C-110.14 726.76 -106.51 727.58 -101.95 728.97 C-97.09 730.67 -93.49 733.26 -90.12 737.19 C-86.12 740.6 -80.82 740.76 -75.73 741.42 C-64.58 742.9 -64.58 742.9 -60 747 C-59.42 748.01 -59.42 748.01 -58.83 749.03 C-56.14 751.92 -53.06 752.1 -49.31 752.62 C-48.56 752.75 -47.8 752.87 -47.03 752.99 C-43.31 753.57 -39.59 754.06 -35.85 754.45 C-14.38 756.73 -14.38 756.73 -7.09 762.51 C-1.12 766.76 8.02 766.37 15.11 766.62 C16.53 766.67 16.53 766.67 17.97 766.73 C29.07 767.13 40.17 767.14 51.27 767.13 C53.54 767.13 55.8 767.13 58.07 767.14 C62.78 767.14 67.49 767.14 72.2 767.13 C78.17 767.12 84.13 767.13 90.1 767.13 C94.77 767.14 99.43 767.14 104.1 767.13 C106.3 767.13 108.49 767.13 110.69 767.14 C144.2 769.4 144.2 769.4 174.95 760.3 C183.68 754.77 195.47 754.86 205.5 753.92 C207.62 753.72 209.74 753.49 211.86 753.26 C213.74 753.07 213.74 753.07 215.65 752.89 C219.71 751.81 221.29 750.13 224 747 C229.55 743.01 236 742.08 242.57 740.78 C246.94 739.79 251.29 738.57 255 736 C255.3 735.34 255.61 734.68 255.92 734 C258.3 729.59 264.96 729.08 269.5 727.69 C270.15 727.5 270.8 727.31 271.47 727.12 C276.16 725.65 278.78 723.66 282 720 C285.15 717.03 287.91 715.63 291.94 714.25 C296.85 712.42 298.71 710.18 301.51 705.88 C303.2 703.75 304.52 703.05 307 702 C311.23 700.2 312.9 697.68 315.43 693.95 C317.6 691.25 320.15 689.95 323.13 688.27 C325.71 686.51 327 684.35 328.66 681.75 C330.22 679.71 331.88 678.51 334 677.06 C337.73 674.45 339.58 671.8 341.79 667.87 C343 666 343 666 346.06 663.56 C349.02 660.99 349.53 660.06 350.81 656.56 C352.35 652.6 353.78 651.26 357.5 649.25 C361.86 646.7 362.92 644.45 364.31 639.62 C364.6 638.49 364.88 637.36 365.18 636.2 C366.56 630.83 368.33 626.48 372.5 622.78 C375.51 619.43 376.25 616.36 377.06 612.06 C378.14 606.55 379.36 602.48 383 598 C383.71 597.66 384.42 597.32 385.15 596.96 C387.25 596.13 387.25 596.13 387.94 593.63 C388.15 592.62 388.35 591.61 388.56 590.56 C388.92 588.82 388.92 588.82 389.29 587.05 C389.98 583.3 390.52 579.52 391.07 575.75 C393.46 559.42 393.46 559.42 398.55 553.06 C404.95 543.95 403.17 526.9 403.53 516.23 C403.57 515.02 403.61 513.8 403.66 512.55 C403.79 508.54 403.92 504.53 404.05 500.53 C404.07 499.83 404.1 499.14 404.12 498.42 C405.13 466.62 405.28 434.84 405.2 403.03 C405.19 397.96 405.18 392.89 405.19 387.83 C405.2 347.71 405.2 347.71 404.55 307.6 C404.53 306.81 404.51 306.02 404.49 305.21 C403.99 285.94 403.45 266.48 401.18 247.32 C401.05 246.23 400.92 245.13 400.79 243.99 C399.87 240.51 398.38 238.67 396 236 C391.75 228.23 391.03 219.35 390.04 210.71 C389.36 204.12 389.36 204.12 387 198 C386.22 197.59 385.43 197.18 384.62 196.75 C379.01 193.01 377.93 185.95 376.56 179.69 C375.65 175.75 375.25 174.27 372.44 171.25 C370.16 169.85 370.16 169.85 368 170 C367.59 168.96 367.59 168.96 367.16 167.9 C366.59 166.46 366.59 166.46 366 165 C365.39 163.47 365.39 163.47 364.77 161.91 C361.97 155.31 359.52 151.02 353.8 146.68 C351.69 144.71 351 143.07 350 140.38 C348.27 135.81 346.09 134.55 341.89 132.32 C339.07 130.35 338.24 127.87 336.92 124.79 C335.55 122.13 333.64 121.29 331 120 C327.87 117.84 326.25 116.59 324.75 113.06 C322.53 109.17 320.13 108.14 316.16 106.27 C313.05 104.44 311.49 102.25 310.18 98.91 C308.42 96.06 306.22 95.58 303.12 94.44 C299.25 92.98 296.27 91.53 293 89 C292.34 89 291.68 89 291 89 C290.62 88.09 290.62 88.09 290.23 87.16 C288.83 84.7 287.67 83.86 285.25 82.44 C284.54 82.01 283.82 81.59 283.09 81.15 C281.37 80.2 279.6 79.37 277.81 78.56 C275 77 275 77 272.88 74.06 C269.67 70.09 265.9 69.45 261.06 68.44 C253.63 66.83 249.13 64.95 244.27 58.81 C240.59 55.88 236.32 55.68 231.75 55 C224.7 53.93 219.28 52.41 213 49 C212.34 49 211.68 49 211 49 C210.82 48.37 210.65 47.75 210.47 47.1 C209.08 44.65 209.08 44.65 205.72 44.02 C204.32 43.79 202.91 43.57 201.5 43.38 C200.74 43.25 199.99 43.13 199.21 43.01 C195.32 42.4 191.43 41.92 187.5 41.58 C177.06 40.67 167.95 38.4 158.12 34.77 C155.87 33.95 153.61 33.15 151.35 32.37 C150.31 32.01 150.31 32.01 149.26 31.65 C144.25 30.21 139.32 29.84 134.13 29.68 C133.47 29.66 132.81 29.64 132.12 29.62 C129.94 29.55 127.75 29.49 125.56 29.44 C124.8 29.42 124.03 29.4 123.24 29.37 C97.95 28.7 72.65 28.8 47.35 29.32 Z " fill="#000000" transform="translate(273,0)"/>
<path d="M0 0 C1.91 -0.03 1.91 -0.03 3.87 -0.06 C12.5 -0.1 19.88 0.12 26.69 5.81 C28.62 8.25 28.62 8.25 28.62 10.25 C29.84 10.5 31.06 10.75 32.31 11 C37.05 12.19 40.26 14.11 42.94 18.31 C43.62 20.25 43.62 20.25 43.62 23.25 C44.18 23.29 44.74 23.33 45.31 23.38 C48.8 24.69 50.69 27.17 52.62 30.25 C53.78 33.36 54.49 36.52 55.19 39.75 C56.52 45.83 57.97 50.1 61.62 55.25 C64.1 60.97 64.31 66.9 64.74 73.04 C64.82 74.25 64.9 75.47 64.99 76.72 C66.04 93.73 65.9 110.75 65.86 127.78 C65.85 132.68 65.85 137.59 65.85 142.5 C65.85 150.72 65.84 158.95 65.83 167.17 C65.82 176.62 65.81 186.07 65.81 195.52 C65.81 205.68 65.8 215.83 65.8 225.99 C65.79 228.88 65.79 231.77 65.79 234.66 C65.79 239.22 65.78 243.78 65.77 248.35 C65.77 250 65.77 251.66 65.77 253.32 C65.77 262.17 65.63 271.01 65.26 279.85 C65.22 281.06 65.22 281.06 65.18 282.3 C64.7 292.48 61.15 301.63 57.36 310.99 C56.04 315.06 55.21 319.32 54.42 323.53 C53.19 329.14 51.2 331.14 46.62 334.25 C45.63 334.58 44.64 334.91 43.62 335.25 C42.57 337.25 42.57 337.25 41.75 339.62 C40.47 342.69 39.86 344.06 37.25 346.19 C34.63 347.25 34.63 347.25 31.56 348.12 C27.98 349.5 26.96 351.26 24.62 354.25 C14.18 360.9 -3.11 359.23 -14.97 357.82 C-20.72 356.51 -24.1 354.11 -28.27 350.01 C-30.74 347.94 -33.15 346.91 -36.12 345.69 C-40.84 343.69 -43.13 342.03 -45.38 337.25 C-45.68 336.18 -45.99 335.11 -46.31 334 C-46.66 333.09 -47.01 332.18 -47.38 331.25 C-48.16 330.96 -48.94 330.67 -49.75 330.38 C-53.07 328.95 -54.09 327.11 -55.54 323.87 C-59.47 311.52 -59.16 297.12 -60.05 284.26 C-60.23 281.78 -60.41 279.3 -60.59 276.82 C-60.64 276.07 -60.69 275.33 -60.74 274.57 C-61.01 271.02 -61.45 267.96 -62.4 264.51 C-63.9 258.92 -63.69 253.24 -63.72 247.49 C-63.73 246.27 -63.75 245.05 -63.76 243.79 C-63.81 239.9 -63.84 236.01 -63.88 232.12 C-63.92 227.02 -63.97 221.91 -64.03 216.8 C-64.04 215.66 -64.04 214.51 -64.05 213.32 C-64.13 206.21 -64.79 199.37 -65.92 192.35 C-66.56 187.97 -66.67 183.67 -66.62 179.25 C-66.63 178.48 -66.64 177.7 -66.65 176.91 C-66.63 172.15 -66.15 167.63 -65.38 162.93 C-64.32 155.69 -64.08 148.54 -64.07 141.24 C-64.07 139.01 -64.05 136.78 -64.03 134.55 C-63.97 128.22 -63.94 121.89 -63.92 115.56 C-63.9 111.66 -63.87 107.76 -63.83 103.86 C-63.82 102.39 -63.82 100.92 -63.82 99.45 C-63.82 91.74 -63.47 85.39 -60.38 78.25 C-59.74 74.45 -59.74 74.45 -59.5 70.57 C-59.44 69.87 -59.38 69.17 -59.32 68.45 C-59.14 66.24 -58.98 64.02 -58.81 61.81 C-56.73 34.47 -56.73 34.47 -48.88 26.81 C-46.6 24.48 -45.69 23.06 -44.38 20.19 C-42.63 16.49 -40.95 14.41 -37.38 12.25 C-36.16 11.94 -34.94 11.63 -33.69 11.31 C-32.59 10.96 -31.5 10.61 -30.38 10.25 C-29.68 8.6 -29.01 6.93 -28.38 5.25 C-19.8 -0.8 -10.15 0.04 0 0 Z M-17.49 37.5 C-26.38 48.13 -27.33 59.4 -28.59 72.79 C-28.66 73.53 -28.74 74.26 -28.81 75.02 C-28.87 75.66 -28.93 76.31 -29 76.98 C-29.38 79.25 -29.38 79.25 -30.38 82.46 C-31.36 86.2 -31.63 89.28 -31.65 93.12 C-31.65 94.1 -31.65 94.1 -31.66 95.09 C-31.67 96.49 -31.68 97.88 -31.68 99.28 C-31.68 101.51 -31.7 103.73 -31.72 105.96 C-31.78 112.29 -31.81 118.62 -31.83 124.95 C-31.85 128.83 -31.88 132.72 -31.92 136.6 C-31.93 138.07 -31.93 139.53 -31.93 140.99 C-31.93 150.13 -32.76 158.6 -34.7 167.55 C-36.33 176.48 -35.97 185.18 -33.88 194.01 C-31.35 206.19 -31.91 218.74 -31.88 231.12 C-31.82 249.73 -30.87 267.81 -28.38 286.25 C-28.17 287.84 -27.97 289.43 -27.78 291.02 C-27.35 294.44 -26.88 297.84 -26.38 301.25 C-26.25 302.21 -26.12 303.17 -25.98 304.16 C-25.05 310.02 -23.58 313.04 -19.38 317.25 C-18.32 318.33 -18.32 318.33 -17.25 319.44 C-16.63 320.04 -16.01 320.63 -15.38 321.25 C-14.88 321.79 -14.38 322.32 -13.88 322.88 C-9.21 327.15 -4.16 326.53 1.86 326.45 C11.49 326.32 11.49 326.32 19.62 322.25 C20.28 320.79 20.88 319.31 21.44 317.81 C26.91 303.72 26.91 303.72 30.15 299.05 C33.7 292.31 33.92 284.45 33.88 276.97 C33.88 276.09 33.89 275.21 33.89 274.31 C33.9 271.39 33.89 268.48 33.88 265.57 C33.89 263.47 33.89 261.37 33.89 259.27 C33.9 253.58 33.9 247.9 33.89 242.22 C33.89 236.26 33.89 230.29 33.9 224.33 C33.9 214.32 33.9 204.31 33.89 194.3 C33.87 182.74 33.88 171.19 33.89 159.63 C33.9 149.69 33.9 139.75 33.89 129.81 C33.89 123.89 33.89 117.96 33.9 112.03 C33.9 106.45 33.9 100.88 33.89 95.3 C33.89 93.26 33.89 91.22 33.89 89.18 C35.04 71.36 35.04 71.36 28.81 55.75 C28.29 55.23 27.76 54.7 27.21 54.16 C23.36 49.52 21.62 43.11 19.66 37.46 C18.78 34.96 18.78 34.96 15.88 34 C5.34 31.57 -9.34 28.84 -17.49 37.5 Z " fill="#000000" transform="translate(354.375,218.75)"/>
</svg>
