<svg width="123" height="65" viewBox="0 0 123 65" fill="none" xmlns="http://www.w3.org/2000/svg">
<mask id="path-1-outside-1_139_416" maskUnits="userSpaceOnUse" x="5.00012" y="0" width="113" height="63" fill="black">
<rect fill="white" x="5.00012" width="113" height="63"/>
<path d="M33.2651 60.8C25.5318 60.7467 19.5318 58.8533 15.2651 55.12C10.9985 51.3867 8.62512 46.4533 8.14512 40.32C7.98512 38.1333 7.90512 35.3333 7.90512 31.92C7.90512 28.4533 7.98512 25.6 8.14512 23.36C8.41179 19.4133 9.55846 15.9467 11.5851 12.96C13.6651 9.92 16.5451 7.54666 20.2251 5.84C23.9585 4.08 28.3051 3.2 33.2651 3.2C38.2251 3.2 42.5451 4.08 46.2251 5.84C49.9585 7.54666 52.8385 9.92 54.8651 12.96C56.9451 15.9467 58.1185 19.4133 58.3851 23.36C58.5451 25.6 58.6251 28.4533 58.6251 31.92C58.6251 35.3333 58.5451 38.1333 58.3851 40.32C57.9051 46.4533 55.5318 51.3867 51.2651 55.12C46.9985 58.8533 40.9985 60.7467 33.2651 60.8ZM33.2651 45.12C35.9318 45.12 37.3718 43.3867 37.5851 39.92C37.6918 38.3733 37.7451 35.68 37.7451 31.84C37.7451 27.9467 37.6918 25.28 37.5851 23.84C37.3718 20.4267 35.9318 18.6933 33.2651 18.64C30.5985 18.6933 29.1585 20.4267 28.9451 23.84C28.8385 26.72 28.7851 29.3867 28.7851 31.84C28.7851 34.1333 28.8385 36.8267 28.9451 39.92C29.1585 43.3867 30.5985 45.12 33.2651 45.12ZM67.007 60C66.4203 60 65.9137 59.7867 65.487 59.36C65.0603 58.9333 64.847 58.4267 64.847 57.84V49.52C64.847 47.6 65.5137 46.16 66.847 45.2L67.727 44.56L70.767 42.4C76.7403 38.08 81.1403 34.8267 83.967 32.64C86.847 30.4 89.087 28.4 90.687 26.64C92.287 24.8267 93.087 23.2267 93.087 21.84C93.087 20.8267 92.9003 20.0533 92.527 19.52C92.207 18.9333 91.4337 18.64 90.207 18.64C89.1937 18.64 88.3937 18.88 87.807 19.36C87.2203 19.7867 86.8203 20.2133 86.607 20.64C86.447 21.0667 86.1803 21.76 85.807 22.72C85.5403 23.4133 85.1403 23.8933 84.607 24.16C84.0737 24.4267 83.407 24.56 82.607 24.56H67.567C67.087 24.56 66.6603 24.4 66.287 24.08C65.967 23.7067 65.807 23.28 65.807 22.8C65.8603 18.8533 66.9537 15.3867 69.087 12.4C71.2203 9.36 74.1003 7.01333 77.727 5.36C81.407 3.70666 85.5403 2.88 90.127 2.88C97.487 2.88 103.3 4.48 107.567 7.68C111.887 10.8267 114.047 15.2 114.047 20.8C114.047 24.9067 112.607 28.6667 109.727 32.08C106.9 35.44 102.58 39.12 96.767 43.12L96.207 43.52H113.087C113.674 43.52 114.18 43.7333 114.607 44.16C115.034 44.5867 115.247 45.0933 115.247 45.68V57.84C115.247 58.4267 115.034 58.9333 114.607 59.36C114.18 59.7867 113.674 60 113.087 60H67.007Z"/>
</mask>
<path d="M33.2651 60.8C25.5318 60.7467 19.5318 58.8533 15.2651 55.12C10.9985 51.3867 8.62512 46.4533 8.14512 40.32C7.98512 38.1333 7.90512 35.3333 7.90512 31.92C7.90512 28.4533 7.98512 25.6 8.14512 23.36C8.41179 19.4133 9.55846 15.9467 11.5851 12.96C13.6651 9.92 16.5451 7.54666 20.2251 5.84C23.9585 4.08 28.3051 3.2 33.2651 3.2C38.2251 3.2 42.5451 4.08 46.2251 5.84C49.9585 7.54666 52.8385 9.92 54.8651 12.96C56.9451 15.9467 58.1185 19.4133 58.3851 23.36C58.5451 25.6 58.6251 28.4533 58.6251 31.92C58.6251 35.3333 58.5451 38.1333 58.3851 40.32C57.9051 46.4533 55.5318 51.3867 51.2651 55.12C46.9985 58.8533 40.9985 60.7467 33.2651 60.8ZM33.2651 45.12C35.9318 45.12 37.3718 43.3867 37.5851 39.92C37.6918 38.3733 37.7451 35.68 37.7451 31.84C37.7451 27.9467 37.6918 25.28 37.5851 23.84C37.3718 20.4267 35.9318 18.6933 33.2651 18.64C30.5985 18.6933 29.1585 20.4267 28.9451 23.84C28.8385 26.72 28.7851 29.3867 28.7851 31.84C28.7851 34.1333 28.8385 36.8267 28.9451 39.92C29.1585 43.3867 30.5985 45.12 33.2651 45.12ZM67.007 60C66.4203 60 65.9137 59.7867 65.487 59.36C65.0603 58.9333 64.847 58.4267 64.847 57.84V49.52C64.847 47.6 65.5137 46.16 66.847 45.2L67.727 44.56L70.767 42.4C76.7403 38.08 81.1403 34.8267 83.967 32.64C86.847 30.4 89.087 28.4 90.687 26.64C92.287 24.8267 93.087 23.2267 93.087 21.84C93.087 20.8267 92.9003 20.0533 92.527 19.52C92.207 18.9333 91.4337 18.64 90.207 18.64C89.1937 18.64 88.3937 18.88 87.807 19.36C87.2203 19.7867 86.8203 20.2133 86.607 20.64C86.447 21.0667 86.1803 21.76 85.807 22.72C85.5403 23.4133 85.1403 23.8933 84.607 24.16C84.0737 24.4267 83.407 24.56 82.607 24.56H67.567C67.087 24.56 66.6603 24.4 66.287 24.08C65.967 23.7067 65.807 23.28 65.807 22.8C65.8603 18.8533 66.9537 15.3867 69.087 12.4C71.2203 9.36 74.1003 7.01333 77.727 5.36C81.407 3.70666 85.5403 2.88 90.127 2.88C97.487 2.88 103.3 4.48 107.567 7.68C111.887 10.8267 114.047 15.2 114.047 20.8C114.047 24.9067 112.607 28.6667 109.727 32.08C106.9 35.44 102.58 39.12 96.767 43.12L96.207 43.52H113.087C113.674 43.52 114.18 43.7333 114.607 44.16C115.034 44.5867 115.247 45.0933 115.247 45.68V57.84C115.247 58.4267 115.034 58.9333 114.607 59.36C114.18 59.7867 113.674 60 113.087 60H67.007Z" fill="white"/>
<path d="M33.2651 60.8L33.2513 62.8L33.2651 62.8L33.2789 62.8L33.2651 60.8ZM15.2651 55.12L13.9481 56.6252H13.9481L15.2651 55.12ZM8.14512 40.32L6.15043 40.466L6.15122 40.476L8.14512 40.32ZM8.14512 23.36L10.1401 23.5025L10.1406 23.4948L8.14512 23.36ZM11.5851 12.96L9.93449 11.8306L9.93017 11.837L11.5851 12.96ZM20.2251 5.84L21.0666 7.65441L21.078 7.64905L20.2251 5.84ZM46.2251 5.84L45.3622 7.64426L45.3778 7.65174L45.3936 7.65895L46.2251 5.84ZM54.8651 12.96L53.201 14.0694L53.2123 14.0863L53.2239 14.103L54.8651 12.96ZM58.3851 23.36L56.3897 23.4948L56.3902 23.5025L58.3851 23.36ZM58.3851 40.32L60.3791 40.476L60.3798 40.466L58.3851 40.32ZM51.2651 55.12L49.9481 53.6148L51.2651 55.12ZM37.5851 39.92L35.5899 39.7824L35.5894 39.7898L35.5889 39.7972L37.5851 39.92ZM37.5851 23.84L35.589 23.9648L35.5897 23.9763L35.5906 23.9877L37.5851 23.84ZM33.2651 18.64L33.3051 16.6404L33.2651 16.6396L33.2251 16.6404L33.2651 18.64ZM28.9451 23.84L26.949 23.7152L26.9474 23.7406L26.9465 23.766L28.9451 23.84ZM28.9451 39.92L26.9463 39.9889L26.9472 40.0159L26.9489 40.0428L28.9451 39.92ZM33.2789 58.8C25.8501 58.7488 20.3748 56.9334 16.5821 53.6148L13.9481 56.6252C18.6888 60.7732 25.2135 62.7445 33.2513 62.8L33.2789 58.8ZM16.5821 53.6148C12.744 50.2564 10.5821 45.8252 10.139 40.164L6.15122 40.476C6.66817 47.0815 9.25295 52.5169 13.9481 56.6252L16.5821 53.6148ZM10.1398 40.174C9.98472 38.0548 9.90512 35.3082 9.90512 31.92H5.90512C5.90512 35.3585 5.98552 38.2118 6.15045 40.466L10.1398 40.174ZM9.90512 31.92C9.90512 28.4784 9.98472 25.6769 10.14 23.5025L6.15021 23.2175C5.98552 25.5231 5.90512 28.4283 5.90512 31.92H9.90512ZM10.1406 23.4948C10.3857 19.867 11.4313 16.7486 13.2401 14.083L9.93017 11.837C7.68564 15.1447 6.43788 18.9597 6.14967 23.2252L10.1406 23.4948ZM13.2357 14.0894C15.0924 11.3758 17.679 9.22543 21.0666 7.65437L19.3837 4.02562C15.4113 5.86789 12.2379 8.46416 9.93451 11.8306L13.2357 14.0894ZM21.078 7.64905C24.4962 6.0376 28.5414 5.2 33.2651 5.2V1.2C28.0689 1.2 23.4207 2.1224 19.3723 4.03094L21.078 7.64905ZM33.2651 5.2C37.9898 5.2 42.0035 6.03792 45.3622 7.64426L47.088 4.03573C43.0868 2.12208 38.4604 1.2 33.2651 1.2V5.2ZM45.3936 7.65895C48.8318 9.23068 51.4052 11.3757 53.201 14.0694L56.5292 11.8506C54.2717 8.46427 51.0851 5.86265 47.0566 4.02105L45.3936 7.65895ZM53.2239 14.103C55.0787 16.7663 56.1453 19.8776 56.3897 23.4948L60.3806 23.2252C60.0916 18.9491 58.8115 15.127 56.5063 11.817L53.2239 14.103ZM56.3902 23.5025C56.5455 25.6769 56.6251 28.4784 56.6251 31.92H60.6251C60.6251 28.4283 60.5447 25.5231 60.38 23.2175L56.3902 23.5025ZM56.6251 31.92C56.6251 35.3082 56.5455 38.0548 56.3905 40.174L60.3798 40.466C60.5447 38.2118 60.6251 35.3585 60.6251 31.92H56.6251ZM56.3912 40.164C55.9482 45.8252 53.7863 50.2564 49.9481 53.6148L52.5821 56.6252C57.2773 52.5169 59.8621 47.0815 60.379 40.476L56.3912 40.164ZM49.9481 53.6148C46.1554 56.9334 40.6801 58.7488 33.2513 58.8L33.2789 62.8C41.3168 62.7445 47.8415 60.7732 52.5821 56.6252L49.9481 53.6148ZM33.2651 47.12C35.0722 47.12 36.7125 46.5076 37.8835 45.098C38.9862 43.7708 39.4618 41.9849 39.5813 40.0428L35.5889 39.7972C35.4951 41.3217 35.1441 42.1359 34.8067 42.542C34.5377 42.8658 34.1247 43.12 33.2651 43.12V47.12ZM39.5804 40.0576C39.6923 38.4345 39.7451 35.6786 39.7451 31.84H35.7451C35.7451 35.6814 35.6913 38.3122 35.5899 39.7824L39.5804 40.0576ZM39.7451 31.84C39.7451 27.953 39.6925 25.2162 39.5797 23.6923L35.5906 23.9877C35.691 25.3438 35.7451 27.9403 35.7451 31.84H39.7451ZM39.5812 23.7152C39.461 21.792 38.9822 20.0244 37.8835 18.702C36.7235 17.3057 35.1016 16.6763 33.3051 16.6404L33.2251 20.6396C34.0953 20.657 34.5267 20.921 34.8067 21.258C35.1481 21.6689 35.4959 22.4747 35.589 23.9648L39.5812 23.7152ZM33.2251 16.6404C31.4286 16.6763 29.8067 17.3057 28.6467 18.702C27.5481 20.0244 27.0692 21.792 26.949 23.7152L30.9412 23.9648C31.0344 22.4747 31.3822 21.6689 31.7235 21.258C32.0035 20.921 32.435 20.657 33.3051 20.6396L33.2251 16.6404ZM26.9465 23.766C26.8391 26.6665 26.7851 29.3582 26.7851 31.84H30.7851C30.7851 29.4152 30.8378 26.7735 30.9438 23.914L26.9465 23.766ZM26.7851 31.84C26.7851 34.1626 26.8391 36.88 26.9463 39.9889L30.9439 39.8511C30.8378 36.7734 30.7851 34.104 30.7851 31.84H26.7851ZM26.9489 40.0428C27.0684 41.9849 27.5441 43.7708 28.6467 45.098C29.8177 46.5076 31.4581 47.12 33.2651 47.12V43.12C32.4055 43.12 31.9925 42.8658 31.7235 42.542C31.3862 42.1359 31.0352 41.3217 30.9413 39.7972L26.9489 40.0428ZM66.847 45.2L68.0156 46.8231L68.0233 46.8175L66.847 45.2ZM67.727 44.56L66.5686 42.9296L66.5596 42.936L66.5507 42.9425L67.727 44.56ZM70.767 42.4L71.9254 44.0304L71.9322 44.0255L71.939 44.0206L70.767 42.4ZM83.967 32.64L85.1908 34.2219L85.1949 34.2187L83.967 32.64ZM90.687 26.64L92.1669 27.9853L92.1769 27.9744L92.1867 27.9632L90.687 26.64ZM92.527 19.52L90.7712 20.4777L90.8246 20.5756L90.8885 20.6669L92.527 19.52ZM87.807 19.36L88.9833 20.9775L89.0294 20.944L89.0735 20.9079L87.807 19.36ZM86.607 20.64L84.8181 19.7456L84.7712 19.8395L84.7343 19.9378L86.607 20.64ZM85.807 22.72L83.943 21.9951L83.9403 22.002L85.807 22.72ZM84.607 24.16L83.7126 22.3711V22.3711L84.607 24.16ZM66.287 24.08L64.7685 25.3816L64.8686 25.4984L64.9854 25.5985L66.287 24.08ZM65.807 22.8L63.8072 22.773L63.807 22.7865V22.8H65.807ZM69.087 12.4L70.7145 13.5625L70.7193 13.5557L70.7241 13.5488L69.087 12.4ZM77.727 5.36L76.9074 3.53563L76.8974 3.54018L77.727 5.36ZM107.567 7.68L106.367 9.28L106.378 9.28838L106.389 9.29661L107.567 7.68ZM109.727 32.08L108.198 30.7903L108.197 30.7925L109.727 32.08ZM96.767 43.12L95.6333 41.4724L95.6188 41.4823L95.6045 41.4925L96.767 43.12ZM96.207 43.52L95.0445 41.8925L89.9661 45.52H96.207V43.52ZM114.607 44.16L113.193 45.5742L113.193 45.5742L114.607 44.16ZM114.607 59.36L113.193 57.9458L113.193 57.9458L114.607 59.36ZM67.007 58C66.9821 58 66.969 57.9978 66.965 57.997C66.9614 57.9963 66.9615 57.9961 66.9631 57.9967C66.9646 57.9974 66.9615 57.9963 66.9531 57.9905C66.9443 57.9845 66.9266 57.9712 66.9012 57.9458L64.0728 60.7742C64.8626 61.564 65.8732 62 67.007 62V58ZM66.9012 57.9458C66.8758 57.9204 66.8625 57.9027 66.8565 57.8939C66.8506 57.8855 66.8496 57.8824 66.8503 57.8839C66.8509 57.8855 66.8507 57.8856 66.85 57.882C66.8492 57.878 66.847 57.8649 66.847 57.84H62.847C62.847 58.9738 63.283 59.9844 64.0728 60.7742L66.9012 57.9458ZM66.847 57.84V49.52H62.847V57.84H66.847ZM66.847 49.52C66.847 48.1194 67.2973 47.3403 68.0156 46.8231L65.6784 43.5769C63.73 44.9797 62.847 47.0806 62.847 49.52H66.847ZM68.0233 46.8175L68.9033 46.1775L66.5507 42.9425L65.6707 43.5825L68.0233 46.8175ZM68.8854 46.1904L71.9254 44.0304L69.6086 40.7696L66.5686 42.9296L68.8854 46.1904ZM71.939 44.0206C77.9156 39.6983 82.3373 36.4293 85.1907 34.2219L82.7433 31.0581C79.9434 33.224 75.5651 36.4617 69.595 40.7794L71.939 44.0206ZM85.1949 34.2187C88.123 31.9413 90.4605 29.8624 92.1669 27.9853L89.2071 25.2947C87.7135 26.9376 85.571 28.8587 82.7391 31.0613L85.1949 34.2187ZM92.1867 27.9632C93.8907 26.032 95.087 23.9654 95.087 21.84H91.087C91.087 22.4879 90.6833 23.6213 89.1873 25.3168L92.1867 27.9632ZM95.087 21.84C95.087 20.6285 94.8719 19.3823 94.1655 18.3731L90.8885 20.6669C90.9287 20.7243 91.087 21.0248 91.087 21.84H95.087ZM94.2828 18.5623C93.3939 16.9326 91.553 16.64 90.207 16.64V20.64C90.684 20.64 90.9192 20.7002 90.9977 20.73C91.0284 20.7416 91.0016 20.7362 90.948 20.693C90.8899 20.6463 90.8236 20.5737 90.7712 20.4777L94.2828 18.5623ZM90.207 16.64C88.888 16.64 87.589 16.9542 86.5405 17.8121L89.0735 20.9079C89.1983 20.8058 89.4994 20.64 90.207 20.64V16.64ZM86.6307 17.7425C85.908 18.2681 85.2302 18.9215 84.8181 19.7456L88.3959 21.5344C88.4105 21.5051 88.5326 21.3053 88.9833 20.9775L86.6307 17.7425ZM84.7343 19.9378C84.5789 20.3521 84.3161 21.0357 83.943 21.9951L87.671 23.4449C88.0446 22.4843 88.315 21.7812 88.4797 21.3422L84.7343 19.9378ZM83.9403 22.002C83.8711 22.182 83.8068 22.2761 83.7706 22.3196C83.7386 22.358 83.7207 22.3671 83.7126 22.3711L85.5014 25.9489C86.5837 25.4077 87.2738 24.4776 87.6737 23.438L83.9403 22.002ZM83.7126 22.3711C83.5352 22.4599 83.1977 22.56 82.607 22.56V26.56C83.6163 26.56 84.6122 26.3935 85.5014 25.9489L83.7126 22.3711ZM82.607 22.56H67.567V26.56H82.607V22.56ZM67.567 22.56C67.5586 22.56 67.5584 22.5593 67.5646 22.5604C67.5709 22.5616 67.5797 22.5638 67.5892 22.5673C67.5987 22.5709 67.6045 22.5741 67.606 22.575C67.6072 22.5758 67.6013 22.5724 67.5886 22.5615L64.9854 25.5985C65.7116 26.2209 66.597 26.56 67.567 26.56V22.56ZM67.8055 22.7784C67.7946 22.7657 67.7912 22.7598 67.792 22.761C67.7929 22.7625 67.7961 22.7683 67.7997 22.7778C67.8032 22.7873 67.8054 22.7961 67.8066 22.8024C67.8077 22.8086 67.807 22.8084 67.807 22.8H63.807C63.807 23.77 64.1461 24.6554 64.7685 25.3816L67.8055 22.7784ZM67.8068 22.827C67.8551 19.2556 68.8362 16.1921 70.7145 13.5625L67.4595 11.2375C65.0711 14.5813 63.8656 18.4511 63.8072 22.773L67.8068 22.827ZM70.7241 13.5488C72.6379 10.8218 75.2295 8.6966 78.5566 7.17981L76.8974 3.54018C72.9712 5.33007 69.8028 7.89823 67.4499 11.2511L70.7241 13.5488ZM78.5466 7.18433C81.9358 5.66165 85.7842 4.88 90.127 4.88V0.879996C85.2964 0.879996 80.8782 1.75168 76.9074 3.53566L78.5466 7.18433ZM90.127 4.88C97.2156 4.88 102.557 6.42212 106.367 9.28L108.767 6.08C104.044 2.53787 97.7584 0.879996 90.127 0.879996V4.88ZM106.389 9.29661C110.164 12.0462 112.047 15.8034 112.047 20.8H116.047C116.047 14.5966 113.61 9.60716 108.745 6.06339L106.389 9.29661ZM112.047 20.8C112.047 24.392 110.803 27.7038 108.198 30.7903L111.256 33.3697C114.411 29.6295 116.047 25.4213 116.047 20.8H112.047ZM108.197 30.7925C105.534 33.9579 101.377 37.5205 95.6333 41.4724L97.9007 44.7676C103.784 40.7195 108.267 36.9221 111.257 33.3675L108.197 30.7925ZM95.6045 41.4925L95.0445 41.8925L97.3695 45.1475L97.9295 44.7475L95.6045 41.4925ZM96.207 45.52H113.087V41.52H96.207V45.52ZM113.087 45.52C113.112 45.52 113.125 45.5222 113.129 45.523C113.133 45.5237 113.132 45.5239 113.131 45.5233C113.129 45.5226 113.132 45.5236 113.141 45.5295C113.15 45.5355 113.167 45.5488 113.193 45.5742L116.021 42.7458C115.231 41.956 114.221 41.52 113.087 41.52V45.52ZM113.193 45.5742C113.218 45.5996 113.232 45.6173 113.238 45.6261C113.243 45.6345 113.244 45.6376 113.244 45.6361C113.243 45.6345 113.243 45.6344 113.244 45.638C113.245 45.642 113.247 45.6551 113.247 45.68H117.247C117.247 44.5462 116.811 43.5356 116.021 42.7458L113.193 45.5742ZM113.247 45.68V57.84H117.247V45.68H113.247ZM113.247 57.84C113.247 57.8649 113.245 57.878 113.244 57.882C113.243 57.8856 113.243 57.8855 113.244 57.8839C113.244 57.8824 113.243 57.8855 113.238 57.8939C113.232 57.9027 113.218 57.9204 113.193 57.9458L116.021 60.7742C116.811 59.9844 117.247 58.9738 117.247 57.84H113.247ZM113.193 57.9458C113.167 57.9712 113.15 57.9845 113.141 57.9905C113.132 57.9963 113.129 57.9974 113.131 57.9967C113.132 57.9961 113.133 57.9963 113.129 57.997C113.125 57.9978 113.112 58 113.087 58V62C114.221 62 115.231 61.564 116.021 60.7742L113.193 57.9458ZM113.087 58H67.007V62H113.087V58Z" fill="#515153" mask="url(#path-1-outside-1_139_416)"/>
<mask id="path-3-outside-2_139_416" maskUnits="userSpaceOnUse" x="5.00012" y="0" width="113" height="63" fill="black">
<rect fill="white" x="5.00012" width="113" height="63"/>
<path d="M33.2651 60.8C25.5318 60.7467 19.5318 58.8533 15.2651 55.12C10.9985 51.3867 8.62512 46.4533 8.14512 40.32C7.98512 38.1333 7.90512 35.3333 7.90512 31.92C7.90512 28.4533 7.98512 25.6 8.14512 23.36C8.41179 19.4133 9.55846 15.9467 11.5851 12.96C13.6651 9.92 16.5451 7.54666 20.2251 5.84C23.9585 4.08 28.3051 3.2 33.2651 3.2C38.2251 3.2 42.5451 4.08 46.2251 5.84C49.9585 7.54666 52.8385 9.92 54.8651 12.96C56.9451 15.9467 58.1185 19.4133 58.3851 23.36C58.5451 25.6 58.6251 28.4533 58.6251 31.92C58.6251 35.3333 58.5451 38.1333 58.3851 40.32C57.9051 46.4533 55.5318 51.3867 51.2651 55.12C46.9985 58.8533 40.9985 60.7467 33.2651 60.8ZM33.2651 45.12C35.9318 45.12 37.3718 43.3867 37.5851 39.92C37.6918 38.3733 37.7451 35.68 37.7451 31.84C37.7451 27.9467 37.6918 25.28 37.5851 23.84C37.3718 20.4267 35.9318 18.6933 33.2651 18.64C30.5985 18.6933 29.1585 20.4267 28.9451 23.84C28.8385 26.72 28.7851 29.3867 28.7851 31.84C28.7851 34.1333 28.8385 36.8267 28.9451 39.92C29.1585 43.3867 30.5985 45.12 33.2651 45.12ZM67.007 60C66.4203 60 65.9137 59.7867 65.487 59.36C65.0603 58.9333 64.847 58.4267 64.847 57.84V49.52C64.847 47.6 65.5137 46.16 66.847 45.2L67.727 44.56L70.767 42.4C76.7403 38.08 81.1403 34.8267 83.967 32.64C86.847 30.4 89.087 28.4 90.687 26.64C92.287 24.8267 93.087 23.2267 93.087 21.84C93.087 20.8267 92.9003 20.0533 92.527 19.52C92.207 18.9333 91.4337 18.64 90.207 18.64C89.1937 18.64 88.3937 18.88 87.807 19.36C87.2203 19.7867 86.8203 20.2133 86.607 20.64C86.447 21.0667 86.1803 21.76 85.807 22.72C85.5403 23.4133 85.1403 23.8933 84.607 24.16C84.0737 24.4267 83.407 24.56 82.607 24.56H67.567C67.087 24.56 66.6603 24.4 66.287 24.08C65.967 23.7067 65.807 23.28 65.807 22.8C65.8603 18.8533 66.9537 15.3867 69.087 12.4C71.2203 9.36 74.1003 7.01333 77.727 5.36C81.407 3.70666 85.5403 2.88 90.127 2.88C97.487 2.88 103.3 4.48 107.567 7.68C111.887 10.8267 114.047 15.2 114.047 20.8C114.047 24.9067 112.607 28.6667 109.727 32.08C106.9 35.44 102.58 39.12 96.767 43.12L96.207 43.52H113.087C113.674 43.52 114.18 43.7333 114.607 44.16C115.034 44.5867 115.247 45.0933 115.247 45.68V57.84C115.247 58.4267 115.034 58.9333 114.607 59.36C114.18 59.7867 113.674 60 113.087 60H67.007Z"/>
</mask>
<path d="M33.2651 60.8L33.2513 62.8L33.2651 62.8L33.2789 62.8L33.2651 60.8ZM15.2651 55.12L13.9481 56.6252H13.9481L15.2651 55.12ZM8.14512 40.32L6.15043 40.466L6.15122 40.476L8.14512 40.32ZM8.14512 23.36L10.1401 23.5025L10.1406 23.4948L8.14512 23.36ZM11.5851 12.96L9.93449 11.8306L9.93017 11.837L11.5851 12.96ZM20.2251 5.84L21.0666 7.65441L21.078 7.64905L20.2251 5.84ZM46.2251 5.84L45.3622 7.64426L45.3778 7.65174L45.3936 7.65895L46.2251 5.84ZM54.8651 12.96L53.201 14.0694L53.2123 14.0863L53.2239 14.103L54.8651 12.96ZM58.3851 23.36L56.3897 23.4948L56.3902 23.5025L58.3851 23.36ZM58.3851 40.32L60.3791 40.476L60.3798 40.466L58.3851 40.32ZM51.2651 55.12L49.9481 53.6148L51.2651 55.12ZM37.5851 39.92L35.5899 39.7824L35.5894 39.7898L35.5889 39.7972L37.5851 39.92ZM37.5851 23.84L35.589 23.9648L35.5897 23.9763L35.5906 23.9877L37.5851 23.84ZM33.2651 18.64L33.3051 16.6404L33.2651 16.6396L33.2251 16.6404L33.2651 18.64ZM28.9451 23.84L26.949 23.7152L26.9474 23.7406L26.9465 23.766L28.9451 23.84ZM28.9451 39.92L26.9463 39.9889L26.9472 40.0159L26.9489 40.0428L28.9451 39.92ZM33.2789 58.8C25.8501 58.7488 20.3748 56.9334 16.5821 53.6148L13.9481 56.6252C18.6888 60.7732 25.2135 62.7445 33.2513 62.8L33.2789 58.8ZM16.5821 53.6148C12.744 50.2564 10.5821 45.8252 10.139 40.164L6.15122 40.476C6.66817 47.0815 9.25295 52.5169 13.9481 56.6252L16.5821 53.6148ZM10.1398 40.174C9.98472 38.0548 9.90512 35.3082 9.90512 31.92H5.90512C5.90512 35.3585 5.98552 38.2118 6.15045 40.466L10.1398 40.174ZM9.90512 31.92C9.90512 28.4784 9.98472 25.6769 10.14 23.5025L6.15021 23.2175C5.98552 25.5231 5.90512 28.4283 5.90512 31.92H9.90512ZM10.1406 23.4948C10.3857 19.867 11.4313 16.7486 13.2401 14.083L9.93017 11.837C7.68564 15.1447 6.43788 18.9597 6.14967 23.2252L10.1406 23.4948ZM13.2357 14.0894C15.0924 11.3758 17.679 9.22543 21.0666 7.65437L19.3837 4.02562C15.4113 5.86789 12.2379 8.46416 9.93451 11.8306L13.2357 14.0894ZM21.078 7.64905C24.4962 6.0376 28.5414 5.2 33.2651 5.2V1.2C28.0689 1.2 23.4207 2.1224 19.3723 4.03094L21.078 7.64905ZM33.2651 5.2C37.9898 5.2 42.0035 6.03792 45.3622 7.64426L47.088 4.03573C43.0868 2.12208 38.4604 1.2 33.2651 1.2V5.2ZM45.3936 7.65895C48.8318 9.23068 51.4052 11.3757 53.201 14.0694L56.5292 11.8506C54.2717 8.46427 51.0851 5.86265 47.0566 4.02105L45.3936 7.65895ZM53.2239 14.103C55.0787 16.7663 56.1453 19.8776 56.3897 23.4948L60.3806 23.2252C60.0916 18.9491 58.8115 15.127 56.5063 11.817L53.2239 14.103ZM56.3902 23.5025C56.5455 25.6769 56.6251 28.4784 56.6251 31.92H60.6251C60.6251 28.4283 60.5447 25.5231 60.38 23.2175L56.3902 23.5025ZM56.6251 31.92C56.6251 35.3082 56.5455 38.0548 56.3905 40.174L60.3798 40.466C60.5447 38.2118 60.6251 35.3585 60.6251 31.92H56.6251ZM56.3912 40.164C55.9482 45.8252 53.7863 50.2564 49.9481 53.6148L52.5821 56.6252C57.2773 52.5169 59.8621 47.0815 60.379 40.476L56.3912 40.164ZM49.9481 53.6148C46.1554 56.9334 40.6801 58.7488 33.2513 58.8L33.2789 62.8C41.3168 62.7445 47.8415 60.7732 52.5821 56.6252L49.9481 53.6148ZM33.2651 47.12C35.0722 47.12 36.7125 46.5076 37.8835 45.098C38.9862 43.7708 39.4618 41.9849 39.5813 40.0428L35.5889 39.7972C35.4951 41.3217 35.1441 42.1359 34.8067 42.542C34.5377 42.8658 34.1247 43.12 33.2651 43.12V47.12ZM39.5804 40.0576C39.6923 38.4345 39.7451 35.6786 39.7451 31.84H35.7451C35.7451 35.6814 35.6913 38.3122 35.5899 39.7824L39.5804 40.0576ZM39.7451 31.84C39.7451 27.953 39.6925 25.2162 39.5797 23.6923L35.5906 23.9877C35.691 25.3438 35.7451 27.9403 35.7451 31.84H39.7451ZM39.5812 23.7152C39.461 21.792 38.9822 20.0244 37.8835 18.702C36.7235 17.3057 35.1016 16.6763 33.3051 16.6404L33.2251 20.6396C34.0953 20.657 34.5267 20.921 34.8067 21.258C35.1481 21.6689 35.4959 22.4747 35.589 23.9648L39.5812 23.7152ZM33.2251 16.6404C31.4286 16.6763 29.8067 17.3057 28.6467 18.702C27.5481 20.0244 27.0692 21.792 26.949 23.7152L30.9412 23.9648C31.0344 22.4747 31.3822 21.6689 31.7235 21.258C32.0035 20.921 32.435 20.657 33.3051 20.6396L33.2251 16.6404ZM26.9465 23.766C26.8391 26.6665 26.7851 29.3582 26.7851 31.84H30.7851C30.7851 29.4152 30.8378 26.7735 30.9438 23.914L26.9465 23.766ZM26.7851 31.84C26.7851 34.1626 26.8391 36.88 26.9463 39.9889L30.9439 39.8511C30.8378 36.7734 30.7851 34.104 30.7851 31.84H26.7851ZM26.9489 40.0428C27.0684 41.9849 27.5441 43.7708 28.6467 45.098C29.8177 46.5076 31.4581 47.12 33.2651 47.12V43.12C32.4055 43.12 31.9925 42.8658 31.7235 42.542C31.3862 42.1359 31.0352 41.3217 30.9413 39.7972L26.9489 40.0428ZM66.847 45.2L68.0156 46.8231L68.0233 46.8175L66.847 45.2ZM67.727 44.56L66.5686 42.9296L66.5596 42.936L66.5507 42.9425L67.727 44.56ZM70.767 42.4L71.9254 44.0304L71.9322 44.0255L71.939 44.0206L70.767 42.4ZM83.967 32.64L85.1908 34.2219L85.1949 34.2187L83.967 32.64ZM90.687 26.64L92.1669 27.9853L92.1769 27.9744L92.1867 27.9632L90.687 26.64ZM92.527 19.52L90.7712 20.4777L90.8246 20.5756L90.8885 20.6669L92.527 19.52ZM87.807 19.36L88.9833 20.9775L89.0294 20.944L89.0735 20.9079L87.807 19.36ZM86.607 20.64L84.8181 19.7456L84.7712 19.8395L84.7343 19.9378L86.607 20.64ZM85.807 22.72L83.943 21.9951L83.9403 22.002L85.807 22.72ZM84.607 24.16L83.7126 22.3711V22.3711L84.607 24.16ZM66.287 24.08L64.7685 25.3816L64.8686 25.4984L64.9854 25.5985L66.287 24.08ZM65.807 22.8L63.8072 22.773L63.807 22.7865V22.8H65.807ZM69.087 12.4L70.7145 13.5625L70.7193 13.5557L70.7241 13.5488L69.087 12.4ZM77.727 5.36L76.9074 3.53563L76.8974 3.54018L77.727 5.36ZM107.567 7.68L106.367 9.28L106.378 9.28838L106.389 9.29661L107.567 7.68ZM109.727 32.08L108.198 30.7903L108.197 30.7925L109.727 32.08ZM96.767 43.12L95.6333 41.4724L95.6188 41.4823L95.6045 41.4925L96.767 43.12ZM96.207 43.52L95.0445 41.8925L89.9661 45.52H96.207V43.52ZM114.607 44.16L113.193 45.5742L113.193 45.5742L114.607 44.16ZM114.607 59.36L113.193 57.9458L113.193 57.9458L114.607 59.36ZM67.007 58C66.9821 58 66.969 57.9978 66.965 57.997C66.9614 57.9963 66.9615 57.9961 66.9631 57.9967C66.9646 57.9974 66.9615 57.9963 66.9531 57.9905C66.9443 57.9845 66.9266 57.9712 66.9012 57.9458L64.0728 60.7742C64.8626 61.564 65.8732 62 67.007 62V58ZM66.9012 57.9458C66.8758 57.9204 66.8625 57.9027 66.8565 57.8939C66.8506 57.8855 66.8496 57.8824 66.8503 57.8839C66.8509 57.8855 66.8507 57.8856 66.85 57.882C66.8492 57.878 66.847 57.8649 66.847 57.84H62.847C62.847 58.9738 63.283 59.9844 64.0728 60.7742L66.9012 57.9458ZM66.847 57.84V49.52H62.847V57.84H66.847ZM66.847 49.52C66.847 48.1194 67.2973 47.3403 68.0156 46.8231L65.6784 43.5769C63.73 44.9797 62.847 47.0806 62.847 49.52H66.847ZM68.0233 46.8175L68.9033 46.1775L66.5507 42.9425L65.6707 43.5825L68.0233 46.8175ZM68.8854 46.1904L71.9254 44.0304L69.6086 40.7696L66.5686 42.9296L68.8854 46.1904ZM71.939 44.0206C77.9156 39.6983 82.3373 36.4293 85.1907 34.2219L82.7433 31.0581C79.9434 33.224 75.5651 36.4617 69.595 40.7794L71.939 44.0206ZM85.1949 34.2187C88.123 31.9413 90.4605 29.8624 92.1669 27.9853L89.2071 25.2947C87.7135 26.9376 85.571 28.8587 82.7391 31.0613L85.1949 34.2187ZM92.1867 27.9632C93.8907 26.032 95.087 23.9654 95.087 21.84H91.087C91.087 22.4879 90.6833 23.6213 89.1873 25.3168L92.1867 27.9632ZM95.087 21.84C95.087 20.6285 94.8719 19.3823 94.1655 18.3731L90.8885 20.6669C90.9287 20.7243 91.087 21.0248 91.087 21.84H95.087ZM94.2828 18.5623C93.3939 16.9326 91.553 16.64 90.207 16.64V20.64C90.684 20.64 90.9192 20.7002 90.9977 20.73C91.0284 20.7416 91.0016 20.7362 90.948 20.693C90.8899 20.6463 90.8236 20.5737 90.7712 20.4777L94.2828 18.5623ZM90.207 16.64C88.888 16.64 87.589 16.9542 86.5405 17.8121L89.0735 20.9079C89.1983 20.8058 89.4994 20.64 90.207 20.64V16.64ZM86.6307 17.7425C85.908 18.2681 85.2302 18.9215 84.8181 19.7456L88.3959 21.5344C88.4105 21.5051 88.5326 21.3053 88.9833 20.9775L86.6307 17.7425ZM84.7343 19.9378C84.5789 20.3521 84.3161 21.0357 83.943 21.9951L87.671 23.4449C88.0446 22.4843 88.315 21.7812 88.4797 21.3422L84.7343 19.9378ZM83.9403 22.002C83.8711 22.182 83.8068 22.2761 83.7706 22.3196C83.7386 22.358 83.7207 22.3671 83.7126 22.3711L85.5014 25.9489C86.5837 25.4077 87.2738 24.4776 87.6737 23.438L83.9403 22.002ZM83.7126 22.3711C83.5352 22.4599 83.1977 22.56 82.607 22.56V26.56C83.6163 26.56 84.6122 26.3935 85.5014 25.9489L83.7126 22.3711ZM82.607 22.56H67.567V26.56H82.607V22.56ZM67.567 22.56C67.5586 22.56 67.5584 22.5593 67.5646 22.5604C67.5709 22.5616 67.5797 22.5638 67.5892 22.5673C67.5987 22.5709 67.6045 22.5741 67.606 22.575C67.6072 22.5758 67.6013 22.5724 67.5886 22.5615L64.9854 25.5985C65.7116 26.2209 66.597 26.56 67.567 26.56V22.56ZM67.8055 22.7784C67.7946 22.7657 67.7912 22.7598 67.792 22.761C67.7929 22.7625 67.7961 22.7683 67.7997 22.7778C67.8032 22.7873 67.8054 22.7961 67.8066 22.8024C67.8077 22.8086 67.807 22.8084 67.807 22.8H63.807C63.807 23.77 64.1461 24.6554 64.7685 25.3816L67.8055 22.7784ZM67.8068 22.827C67.8551 19.2556 68.8362 16.1921 70.7145 13.5625L67.4595 11.2375C65.0711 14.5813 63.8656 18.4511 63.8072 22.773L67.8068 22.827ZM70.7241 13.5488C72.6379 10.8218 75.2295 8.6966 78.5566 7.17981L76.8974 3.54018C72.9712 5.33007 69.8028 7.89823 67.4499 11.2511L70.7241 13.5488ZM78.5466 7.18433C81.9358 5.66165 85.7842 4.88 90.127 4.88V0.879996C85.2964 0.879996 80.8782 1.75168 76.9074 3.53566L78.5466 7.18433ZM90.127 4.88C97.2156 4.88 102.557 6.42212 106.367 9.28L108.767 6.08C104.044 2.53787 97.7584 0.879996 90.127 0.879996V4.88ZM106.389 9.29661C110.164 12.0462 112.047 15.8034 112.047 20.8H116.047C116.047 14.5966 113.61 9.60716 108.745 6.06339L106.389 9.29661ZM112.047 20.8C112.047 24.392 110.803 27.7038 108.198 30.7903L111.256 33.3697C114.411 29.6295 116.047 25.4213 116.047 20.8H112.047ZM108.197 30.7925C105.534 33.9579 101.377 37.5205 95.6333 41.4724L97.9007 44.7676C103.784 40.7195 108.267 36.9221 111.257 33.3675L108.197 30.7925ZM95.6045 41.4925L95.0445 41.8925L97.3695 45.1475L97.9295 44.7475L95.6045 41.4925ZM96.207 45.52H113.087V41.52H96.207V45.52ZM113.087 45.52C113.112 45.52 113.125 45.5222 113.129 45.523C113.133 45.5237 113.132 45.5239 113.131 45.5233C113.129 45.5226 113.132 45.5236 113.141 45.5295C113.15 45.5355 113.167 45.5488 113.193 45.5742L116.021 42.7458C115.231 41.956 114.221 41.52 113.087 41.52V45.52ZM113.193 45.5742C113.218 45.5996 113.232 45.6173 113.238 45.6261C113.243 45.6345 113.244 45.6376 113.244 45.6361C113.243 45.6345 113.243 45.6344 113.244 45.638C113.245 45.642 113.247 45.6551 113.247 45.68H117.247C117.247 44.5462 116.811 43.5356 116.021 42.7458L113.193 45.5742ZM113.247 45.68V57.84H117.247V45.68H113.247ZM113.247 57.84C113.247 57.8649 113.245 57.878 113.244 57.882C113.243 57.8856 113.243 57.8855 113.244 57.8839C113.244 57.8824 113.243 57.8855 113.238 57.8939C113.232 57.9027 113.218 57.9204 113.193 57.9458L116.021 60.7742C116.811 59.9844 117.247 58.9738 117.247 57.84H113.247ZM113.193 57.9458C113.167 57.9712 113.15 57.9845 113.141 57.9905C113.132 57.9963 113.129 57.9974 113.131 57.9967C113.132 57.9961 113.133 57.9963 113.129 57.997C113.125 57.9978 113.112 58 113.087 58V62C114.221 62 115.231 61.564 116.021 60.7742L113.193 57.9458ZM113.087 58H67.007V62H113.087V58Z" fill="#515153" mask="url(#path-3-outside-2_139_416)"/>
</svg>
