<svg width="123" height="65" viewBox="0 0 123 65" fill="none" xmlns="http://www.w3.org/2000/svg">
<mask id="path-1-outside-1_139_419" maskUnits="userSpaceOnUse" x="5" y="1" width="113" height="62" fill="black">
<rect fill="white" x="5" y="1" width="113" height="62"/>
<path d="M33.0697 60.8C25.3364 60.7467 19.3364 58.8533 15.0697 55.12C10.803 51.3867 8.42969 46.4533 7.94969 40.32C7.78969 38.1333 7.70969 35.3333 7.70969 31.92C7.70969 28.4533 7.78969 25.6 7.94969 23.36C8.21635 19.4133 9.36302 15.9467 11.3897 12.96C13.4697 9.92 16.3497 7.54666 20.0297 5.84C23.763 4.08 28.1097 3.2 33.0697 3.2C38.0297 3.2 42.3497 4.08 46.0297 5.84C49.763 7.54666 52.643 9.92 54.6697 12.96C56.7497 15.9467 57.923 19.4133 58.1897 23.36C58.3497 25.6 58.4297 28.4533 58.4297 31.92C58.4297 35.3333 58.3497 38.1333 58.1897 40.32C57.7097 46.4533 55.3364 51.3867 51.0697 55.12C46.803 58.8533 40.803 60.7467 33.0697 60.8ZM33.0697 45.12C35.7364 45.12 37.1764 43.3867 37.3897 39.92C37.4964 38.3733 37.5497 35.68 37.5497 31.84C37.5497 27.9467 37.4964 25.28 37.3897 23.84C37.1764 20.4267 35.7364 18.6933 33.0697 18.64C30.403 18.6933 28.963 20.4267 28.7497 23.84C28.643 26.72 28.5897 29.3867 28.5897 31.84C28.5897 34.1333 28.643 36.8267 28.7497 39.92C28.963 43.3867 30.403 45.12 33.0697 45.12ZM89.6916 60.8C83.7182 60.8 78.7849 59.92 74.8916 58.16C71.0516 56.3467 68.2516 54.16 66.4916 51.6C64.7316 49.04 63.7982 46.56 63.6916 44.16C63.6916 43.68 63.8516 43.28 64.1716 42.96C64.5449 42.5867 64.9716 42.4 65.4516 42.4H81.5316C82.1716 42.4 82.6782 42.5067 83.0516 42.72C83.4249 42.9333 83.8249 43.2533 84.2516 43.68C84.7849 44.2133 85.4516 44.6133 86.2516 44.88C87.0516 45.1467 88.2249 45.28 89.7716 45.28C91.5316 45.28 92.8382 44.88 93.6916 44.08C94.5982 43.28 95.0516 42.2667 95.0516 41.04C95.0516 38.6933 93.2916 37.52 89.7716 37.52H79.7716C79.1849 37.52 78.6782 37.3067 78.2516 36.88C77.8249 36.4533 77.6116 35.9467 77.6116 35.36V28.88C77.6116 28.1333 77.7716 27.4933 78.0916 26.96C78.4116 26.3733 78.7849 25.9467 79.2116 25.68L90.3316 19.6H69.2916C68.7049 19.6 68.1982 19.3867 67.7716 18.96C67.3449 18.5333 67.1316 18.0267 67.1316 17.44V6.16C67.1316 5.57333 67.3449 5.06667 67.7716 4.64C68.1982 4.21333 68.7049 4 69.2916 4H110.252C110.838 4 111.345 4.21333 111.772 4.64C112.198 5.06667 112.412 5.57333 112.412 6.16V16.32C112.412 17.0133 112.252 17.6533 111.932 18.24C111.612 18.7733 111.238 19.2 110.812 19.52L101.452 25.76V26C111.052 28.2933 115.852 33.7867 115.852 42.48C115.852 46.1067 114.732 49.3067 112.492 52.08C110.252 54.8533 107.132 57.0133 103.132 58.56C99.1849 60.0533 94.7049 60.8 89.6916 60.8Z"/>
</mask>
<path d="M33.0697 60.8C25.3364 60.7467 19.3364 58.8533 15.0697 55.12C10.803 51.3867 8.42969 46.4533 7.94969 40.32C7.78969 38.1333 7.70969 35.3333 7.70969 31.92C7.70969 28.4533 7.78969 25.6 7.94969 23.36C8.21635 19.4133 9.36302 15.9467 11.3897 12.96C13.4697 9.92 16.3497 7.54666 20.0297 5.84C23.763 4.08 28.1097 3.2 33.0697 3.2C38.0297 3.2 42.3497 4.08 46.0297 5.84C49.763 7.54666 52.643 9.92 54.6697 12.96C56.7497 15.9467 57.923 19.4133 58.1897 23.36C58.3497 25.6 58.4297 28.4533 58.4297 31.92C58.4297 35.3333 58.3497 38.1333 58.1897 40.32C57.7097 46.4533 55.3364 51.3867 51.0697 55.12C46.803 58.8533 40.803 60.7467 33.0697 60.8ZM33.0697 45.12C35.7364 45.12 37.1764 43.3867 37.3897 39.92C37.4964 38.3733 37.5497 35.68 37.5497 31.84C37.5497 27.9467 37.4964 25.28 37.3897 23.84C37.1764 20.4267 35.7364 18.6933 33.0697 18.64C30.403 18.6933 28.963 20.4267 28.7497 23.84C28.643 26.72 28.5897 29.3867 28.5897 31.84C28.5897 34.1333 28.643 36.8267 28.7497 39.92C28.963 43.3867 30.403 45.12 33.0697 45.12ZM89.6916 60.8C83.7182 60.8 78.7849 59.92 74.8916 58.16C71.0516 56.3467 68.2516 54.16 66.4916 51.6C64.7316 49.04 63.7982 46.56 63.6916 44.16C63.6916 43.68 63.8516 43.28 64.1716 42.96C64.5449 42.5867 64.9716 42.4 65.4516 42.4H81.5316C82.1716 42.4 82.6782 42.5067 83.0516 42.72C83.4249 42.9333 83.8249 43.2533 84.2516 43.68C84.7849 44.2133 85.4516 44.6133 86.2516 44.88C87.0516 45.1467 88.2249 45.28 89.7716 45.28C91.5316 45.28 92.8382 44.88 93.6916 44.08C94.5982 43.28 95.0516 42.2667 95.0516 41.04C95.0516 38.6933 93.2916 37.52 89.7716 37.52H79.7716C79.1849 37.52 78.6782 37.3067 78.2516 36.88C77.8249 36.4533 77.6116 35.9467 77.6116 35.36V28.88C77.6116 28.1333 77.7716 27.4933 78.0916 26.96C78.4116 26.3733 78.7849 25.9467 79.2116 25.68L90.3316 19.6H69.2916C68.7049 19.6 68.1982 19.3867 67.7716 18.96C67.3449 18.5333 67.1316 18.0267 67.1316 17.44V6.16C67.1316 5.57333 67.3449 5.06667 67.7716 4.64C68.1982 4.21333 68.7049 4 69.2916 4H110.252C110.838 4 111.345 4.21333 111.772 4.64C112.198 5.06667 112.412 5.57333 112.412 6.16V16.32C112.412 17.0133 112.252 17.6533 111.932 18.24C111.612 18.7733 111.238 19.2 110.812 19.52L101.452 25.76V26C111.052 28.2933 115.852 33.7867 115.852 42.48C115.852 46.1067 114.732 49.3067 112.492 52.08C110.252 54.8533 107.132 57.0133 103.132 58.56C99.1849 60.0533 94.7049 60.8 89.6916 60.8Z" fill="white"/>
<path d="M33.0697 60.8L33.0559 62.8L33.0697 62.8L33.0835 62.8L33.0697 60.8ZM15.0697 55.12L13.7527 56.6252H13.7527L15.0697 55.12ZM7.94969 40.32L5.95499 40.466L5.95578 40.476L7.94969 40.32ZM7.94969 23.36L9.94462 23.5025L9.94514 23.4948L7.94969 23.36ZM11.3897 12.96L9.73906 11.8306L9.73474 11.837L11.3897 12.96ZM20.0297 5.84L20.8712 7.65441L20.8825 7.64905L20.0297 5.84ZM46.0297 5.84L45.1668 7.64426L45.1824 7.65174L45.1982 7.65895L46.0297 5.84ZM54.6697 12.96L53.0056 14.0694L53.0169 14.0863L53.0285 14.103L54.6697 12.96ZM58.1897 23.36L56.1942 23.4948L56.1948 23.5025L58.1897 23.36ZM58.1897 40.32L60.1836 40.476L60.1844 40.466L58.1897 40.32ZM51.0697 55.12L49.7527 53.6148L51.0697 55.12ZM37.3897 39.92L35.3944 39.7824L35.3939 39.7898L35.3935 39.7972L37.3897 39.92ZM37.3897 23.84L35.3936 23.9648L35.3943 23.9763L35.3952 23.9877L37.3897 23.84ZM33.0697 18.64L33.1097 16.6404L33.0697 16.6396L33.0297 16.6404L33.0697 18.64ZM28.7497 23.84L26.7536 23.7152L26.752 23.7406L26.7511 23.766L28.7497 23.84ZM28.7497 39.92L26.7509 39.9889L26.7518 40.0159L26.7535 40.0428L28.7497 39.92ZM33.0835 58.8C25.6547 58.7488 20.1794 56.9334 16.3867 53.6148L13.7527 56.6252C18.4933 60.7732 25.018 62.7445 33.0559 62.8L33.0835 58.8ZM16.3867 53.6148C12.5485 50.2564 10.3866 45.8252 9.94359 40.164L5.95578 40.476C6.47273 47.0815 9.05752 52.5169 13.7527 56.6252L16.3867 53.6148ZM9.94436 40.174C9.78929 38.0548 9.70969 35.3082 9.70969 31.92H5.70969C5.70969 35.3585 5.79009 38.2118 5.95502 40.466L9.94436 40.174ZM9.70969 31.92C9.70969 28.4784 9.78929 25.6769 9.9446 23.5025L5.95477 23.2175C5.79009 25.5231 5.70969 28.4283 5.70969 31.92H9.70969ZM9.94514 23.4948C10.1903 19.867 11.2358 16.7486 13.0446 14.083L9.73474 11.837C7.4902 15.1447 6.24245 18.9597 5.95424 23.2252L9.94514 23.4948ZM13.0403 14.0894C14.8969 11.3758 17.4835 9.22543 20.8711 7.65437L19.1882 4.02562C15.2158 5.86789 12.0424 8.46416 9.73907 11.8306L13.0403 14.0894ZM20.8825 7.64905C24.3008 6.0376 28.346 5.2 33.0697 5.2V1.2C27.8734 1.2 23.2253 2.1224 19.1768 4.03094L20.8825 7.64905ZM33.0697 5.2C37.7944 5.2 41.808 6.03792 45.1668 7.64426L46.8926 4.03573C42.8913 2.12208 38.265 1.2 33.0697 1.2V5.2ZM45.1982 7.65895C48.6363 9.23068 51.2098 11.3757 53.0056 14.0694L56.3338 11.8506C54.0762 8.46427 50.8897 5.86265 46.8612 4.02105L45.1982 7.65895ZM53.0285 14.103C54.8833 16.7663 55.9498 19.8776 56.1942 23.4948L60.1851 23.2252C59.8962 18.9491 58.6161 15.127 56.3109 11.817L53.0285 14.103ZM56.1948 23.5025C56.3501 25.6769 56.4297 28.4784 56.4297 31.92H60.4297C60.4297 28.4283 60.3493 25.5231 60.1846 23.2175L56.1948 23.5025ZM56.4297 31.92C56.4297 35.3082 56.3501 38.0548 56.195 40.174L60.1844 40.466C60.3493 38.2118 60.4297 35.3585 60.4297 31.92H56.4297ZM56.1958 40.164C55.7527 45.8252 53.5909 50.2564 49.7527 53.6148L52.3867 56.6252C57.0819 52.5169 59.6666 47.0815 60.1836 40.476L56.1958 40.164ZM49.7527 53.6148C45.96 56.9334 40.4847 58.7488 33.0559 58.8L33.0835 62.8C41.1214 62.7445 47.646 60.7732 52.3867 56.6252L49.7527 53.6148ZM33.0697 47.12C34.8768 47.12 36.5171 46.5076 37.6881 45.098C38.7907 43.7708 39.2664 41.9849 39.3859 40.0428L35.3935 39.7972C35.2996 41.3217 34.9487 42.1359 34.6113 42.542C34.3423 42.8658 33.9293 43.12 33.0697 43.12V47.12ZM39.3849 40.0576C39.4969 38.4345 39.5497 35.6786 39.5497 31.84H35.5497C35.5497 35.6814 35.4958 38.3122 35.3944 39.7824L39.3849 40.0576ZM39.5497 31.84C39.5497 27.953 39.4971 25.2162 39.3842 23.6923L35.3952 23.9877C35.4956 25.3438 35.5497 27.9403 35.5497 31.84H39.5497ZM39.3858 23.7152C39.2656 21.792 38.7867 20.0244 37.6881 18.702C36.5281 17.3057 34.9062 16.6763 33.1097 16.6404L33.0297 20.6396C33.8998 20.657 34.3313 20.921 34.6113 21.258C34.9527 21.6689 35.3005 22.4747 35.3936 23.9648L39.3858 23.7152ZM33.0297 16.6404C31.2332 16.6763 29.6113 17.3057 28.4513 18.702C27.3527 20.0244 26.8738 21.792 26.7536 23.7152L30.7458 23.9648C30.8389 22.4747 31.1867 21.6689 31.5281 21.258C31.8081 20.921 32.2395 20.657 33.1097 20.6396L33.0297 16.6404ZM26.7511 23.766C26.6436 26.6665 26.5897 29.3582 26.5897 31.84H30.5897C30.5897 29.4152 30.6424 26.7735 30.7483 23.914L26.7511 23.766ZM26.5897 31.84C26.5897 34.1626 26.6437 36.88 26.7509 39.9889L30.7485 39.8511C30.6424 36.7734 30.5897 34.104 30.5897 31.84H26.5897ZM26.7535 40.0428C26.873 41.9849 27.3487 43.7708 28.4513 45.098C29.6223 46.5076 31.2626 47.12 33.0697 47.12V43.12C32.2101 43.12 31.7971 42.8658 31.5281 42.542C31.1907 42.1359 30.8397 41.3217 30.7459 39.7972L26.7535 40.0428ZM74.8916 58.16L74.0376 59.9685L74.0526 59.9756L74.0677 59.9824L74.8916 58.16ZM66.4916 51.6L64.8435 52.7331L66.4916 51.6ZM63.6916 44.16H61.6916V44.2044L61.6935 44.2488L63.6916 44.16ZM64.1716 42.96L65.5858 44.3742L64.1716 42.96ZM83.0516 42.72L82.0593 44.4565L83.0516 42.72ZM84.2516 43.68L82.8373 45.0942V45.0942L84.2516 43.68ZM86.2516 44.88L85.6191 46.7774L86.2516 44.88ZM93.6916 44.08L92.3683 42.5803L92.3457 42.6003L92.3237 42.6209L93.6916 44.08ZM78.2516 36.88L76.8373 38.2942V38.2942L78.2516 36.88ZM78.0916 26.96L79.8065 27.989L79.8277 27.9538L79.8474 27.9177L78.0916 26.96ZM79.2116 25.68L78.2521 23.9252L78.201 23.9531L78.1516 23.984L79.2116 25.68ZM90.3316 19.6L91.291 21.3548L90.3316 17.6V19.6ZM111.772 4.64L110.357 6.05421L110.357 6.05421L111.772 4.64ZM111.932 18.24L113.647 19.269L113.668 19.2338L113.687 19.1977L111.932 18.24ZM110.812 19.52L111.921 21.1841L111.967 21.1533L112.012 21.12L110.812 19.52ZM101.452 25.76L100.342 24.0959L99.4516 24.6896V25.76H101.452ZM101.452 26H99.4516V27.5785L100.987 27.9453L101.452 26ZM112.492 52.08L110.936 50.8233L112.492 52.08ZM103.132 58.56L103.839 60.4306L103.846 60.428L103.853 60.4254L103.132 58.56ZM89.6916 58.8C83.8967 58.8 79.2684 57.9437 75.7154 56.3376L74.0677 59.9824C78.3014 61.8963 83.5397 62.8 89.6916 62.8V58.8ZM75.7456 56.3515C72.1128 54.636 69.639 52.6478 68.1396 50.4669L64.8435 52.7331C66.8642 55.6722 69.9903 58.0573 74.0376 59.9685L75.7456 56.3515ZM68.1396 50.4669C66.5305 48.1264 65.7754 46.0023 65.6896 44.0712L61.6935 44.2488C61.821 47.1177 62.9326 49.9536 64.8435 52.7331L68.1396 50.4669ZM65.6916 44.16C65.6916 44.1454 65.6932 44.181 65.6685 44.2428C65.6429 44.3069 65.6075 44.3525 65.5858 44.3742L62.7574 41.5458C62.0378 42.2654 61.6916 43.1853 61.6916 44.16H65.6916ZM65.5858 44.3742C65.6195 44.3405 65.6168 44.3532 65.5732 44.3723C65.5527 44.3813 65.5292 44.3889 65.5049 44.3939C65.4807 44.3989 65.462 44.4 65.4516 44.4V40.4C64.3856 40.4 63.4646 40.8386 62.7574 41.5458L65.5858 44.3742ZM65.4516 44.4H81.5316V40.4H65.4516V44.4ZM81.5316 44.4C81.7441 44.4 81.889 44.418 81.9795 44.4371C82.0694 44.456 82.0859 44.4717 82.0593 44.4565L84.0438 40.9835C83.2558 40.5332 82.3619 40.4 81.5316 40.4V44.4ZM82.0593 44.4565C82.2302 44.5541 82.4901 44.7469 82.8373 45.0942L85.6658 42.2658C85.1597 41.7598 84.6196 41.3125 84.0438 40.9835L82.0593 44.4565ZM82.8373 45.0942C83.615 45.8719 84.5597 46.4242 85.6191 46.7774L86.884 42.9826C86.3434 42.8024 85.9548 42.5548 85.6658 42.2658L82.8373 45.0942ZM85.6191 46.7774C86.7273 47.1468 88.1578 47.28 89.7716 47.28V43.28C88.292 43.28 87.3758 43.1466 86.884 42.9826L85.6191 46.7774ZM89.7716 47.28C91.789 47.28 93.686 46.8267 95.0594 45.5391L92.3237 42.6209C91.9905 42.9333 91.2741 43.28 89.7716 43.28V47.28ZM95.0148 45.5797C96.3588 44.3938 97.0516 42.831 97.0516 41.04H93.0516C93.0516 41.7024 92.8376 42.1662 92.3683 42.5803L95.0148 45.5797ZM97.0516 41.04C97.0516 39.2841 96.3454 37.7388 94.841 36.7359C93.4797 35.8284 91.6906 35.52 89.7716 35.52V39.52C91.3725 39.52 92.2235 39.7983 92.6222 40.0641C92.8778 40.2345 93.0516 40.4493 93.0516 41.04H97.0516ZM89.7716 35.52H79.7716V39.52H89.7716V35.52ZM79.7716 35.52C79.7467 35.52 79.7336 35.5178 79.7296 35.517C79.7259 35.5163 79.7261 35.5161 79.7277 35.5167C79.7292 35.5174 79.7261 35.5163 79.7176 35.5105C79.7088 35.5045 79.6912 35.4912 79.6658 35.4658L76.8373 38.2942C77.6271 39.084 78.6378 39.52 79.7716 39.52V35.52ZM79.6658 35.4658C79.6404 35.4404 79.6271 35.4227 79.621 35.4139C79.6152 35.4055 79.6142 35.4024 79.6148 35.4039C79.6155 35.4055 79.6153 35.4056 79.6145 35.402C79.6138 35.398 79.6116 35.3849 79.6116 35.36H75.6116C75.6116 36.4938 76.0476 37.5044 76.8373 38.2942L79.6658 35.4658ZM79.6116 35.36V28.88H75.6116V35.36H79.6116ZM79.6116 28.88C79.6116 28.4228 79.7073 28.1544 79.8065 27.989L76.3766 25.931C75.8358 26.8323 75.6116 27.8438 75.6116 28.88H79.6116ZM79.8474 27.9177C80.0549 27.5372 80.2167 27.4103 80.2716 27.376L78.1516 23.984C77.3531 24.483 76.7682 25.2095 76.3358 26.0023L79.8474 27.9177ZM80.171 27.4348L91.291 21.3548L89.3721 17.8452L78.2521 23.9252L80.171 27.4348ZM90.3316 17.6H69.2916V21.6H90.3316V17.6ZM69.2916 17.6C69.2667 17.6 69.2535 17.5978 69.2496 17.597C69.2459 17.5963 69.2461 17.5961 69.2477 17.5967C69.2492 17.5974 69.2461 17.5963 69.2376 17.5905C69.2288 17.5845 69.2112 17.5712 69.1858 17.5458L66.3573 20.3742C67.1471 21.164 68.1578 21.6 69.2916 21.6V17.6ZM69.1858 17.5458C69.1604 17.5204 69.1471 17.5027 69.141 17.4939C69.1352 17.4855 69.1342 17.4824 69.1348 17.4839C69.1355 17.4855 69.1353 17.4856 69.1345 17.482C69.1338 17.478 69.1316 17.4649 69.1316 17.44H65.1316C65.1316 18.5738 65.5676 19.5844 66.3573 20.3742L69.1858 17.5458ZM69.1316 17.44V6.16H65.1316V17.44H69.1316ZM69.1316 6.16C69.1316 6.13509 69.1338 6.12199 69.1345 6.11802C69.1353 6.11437 69.1355 6.11454 69.1348 6.11611C69.1342 6.1176 69.1352 6.11452 69.141 6.10605C69.1471 6.09726 69.1604 6.07964 69.1858 6.05421L66.3573 3.22579C65.5676 4.01556 65.1316 5.02621 65.1316 6.16H69.1316ZM69.1858 6.05421C69.2112 6.02878 69.2288 6.01549 69.2376 6.00945C69.2461 6.00365 69.2492 6.00264 69.2477 6.00327C69.2461 6.00393 69.2459 6.00369 69.2496 6.00298C69.2535 6.0022 69.2667 6 69.2916 6V2C68.1578 2 67.1471 2.43601 66.3573 3.22579L69.1858 6.05421ZM69.2916 6H110.252V2H69.2916V6ZM110.252 6C110.276 6 110.29 6.0022 110.294 6.00298C110.297 6.00369 110.297 6.00393 110.295 6.00327C110.294 6.00264 110.297 6.00365 110.306 6.00945C110.314 6.01548 110.332 6.02878 110.357 6.05421L113.186 3.22579C112.396 2.43601 111.385 2 110.252 2V6ZM110.357 6.05421C110.383 6.07964 110.396 6.09726 110.402 6.10606C110.408 6.11453 110.409 6.1176 110.408 6.11611C110.408 6.11455 110.408 6.11437 110.409 6.11802C110.409 6.12199 110.412 6.13509 110.412 6.16H114.412C114.412 5.02621 113.976 4.01555 113.186 3.22578L110.357 6.05421ZM110.412 6.16V16.32H114.412V6.16H110.412ZM110.412 16.32C110.412 16.6917 110.329 17.0006 110.176 17.2823L113.687 19.1977C114.174 18.306 114.412 17.3349 114.412 16.32H110.412ZM110.217 17.211C110.008 17.5588 109.8 17.7788 109.612 17.92L112.012 21.12C112.677 20.6212 113.215 19.9878 113.647 19.269L110.217 17.211ZM109.702 17.8559L100.342 24.0959L102.561 27.4241L111.921 21.1841L109.702 17.8559ZM99.4516 25.76V26H103.452V25.76H99.4516ZM100.987 27.9453C105.523 29.0289 108.7 30.8154 110.746 33.156C112.768 35.4709 113.852 38.5198 113.852 42.48H117.852C117.852 37.7469 116.535 33.7024 113.758 30.524C111.003 27.3712 106.98 25.2645 101.916 24.0547L100.987 27.9453ZM113.852 42.48C113.852 45.6579 112.883 48.4124 110.936 50.8233L114.047 53.3367C116.58 50.2009 117.852 46.5554 117.852 42.48H113.852ZM110.936 50.8233C108.957 53.2737 106.15 55.2486 102.41 56.6946L103.853 60.4254C108.113 58.7781 111.547 56.4329 114.047 53.3367L110.936 50.8233ZM102.424 56.6894C98.7414 58.0828 94.5075 58.8 89.6916 58.8V62.8C94.9023 62.8 99.6284 62.0239 103.839 60.4306L102.424 56.6894Z" fill="#515153" mask="url(#path-1-outside-1_139_419)"/>
</svg>
