<svg width="123" height="65" viewBox="0 0 123 65" fill="none" xmlns="http://www.w3.org/2000/svg">
<mask id="path-1-outside-1_195_2" maskUnits="userSpaceOnUse" x="4" y="1" width="116" height="62" fill="black">
<rect fill="white" x="4" y="1" width="116" height="62"/>
<path d="M32.015 60.8C24.2817 60.7467 18.2817 58.8533 14.015 55.12C9.74833 51.3867 7.375 46.4533 6.895 40.32C6.735 38.1333 6.655 35.3333 6.655 31.92C6.655 28.4533 6.735 25.6 6.895 23.36C7.16167 19.4133 8.30833 15.9467 10.335 12.96C12.415 9.92 15.295 7.54666 18.975 5.84C22.7083 4.08 27.055 3.2 32.015 3.2C36.975 3.2 41.295 4.08 44.975 5.84C48.7083 7.54666 51.5883 9.92 53.615 12.96C55.695 15.9467 56.8683 19.4133 57.135 23.36C57.295 25.6 57.375 28.4533 57.375 31.92C57.375 35.3333 57.295 38.1333 57.135 40.32C56.655 46.4533 54.2817 51.3867 50.015 55.12C45.7483 58.8533 39.7483 60.7467 32.015 60.8ZM32.015 45.12C34.6817 45.12 36.1217 43.3867 36.335 39.92C36.4417 38.3733 36.495 35.68 36.495 31.84C36.495 27.9467 36.4417 25.28 36.335 23.84C36.1217 20.4267 34.6817 18.6933 32.015 18.64C29.3483 18.6933 27.9083 20.4267 27.695 23.84C27.5883 26.72 27.535 29.3867 27.535 31.84C27.535 34.1333 27.5883 36.8267 27.695 39.92C27.9083 43.3867 29.3483 45.12 32.015 45.12ZM91.1169 60C90.5302 60 90.0235 59.7867 89.5969 59.36C89.1702 58.9333 88.9569 58.4267 88.9569 57.84V51.04H65.0369C64.4502 51.04 63.9435 50.8267 63.5169 50.4C63.0902 49.9733 62.8769 49.4667 62.8769 48.88V37.44C62.8769 36.5333 63.1702 35.7067 63.7569 34.96L86.3969 5.36C87.1435 4.45333 88.1302 4 89.3569 4H105.997C106.584 4 107.09 4.21333 107.517 4.64C107.944 5.06667 108.157 5.57333 108.157 6.16V34.8H115.117C115.757 34.8 116.29 35.0133 116.717 35.44C117.144 35.8667 117.357 36.3733 117.357 36.96V48.88C117.357 49.4667 117.144 49.9733 116.717 50.4C116.29 50.8267 115.784 51.04 115.197 51.04H108.157V57.84C108.157 58.4267 107.944 58.9333 107.517 59.36C107.09 59.7867 106.584 60 105.997 60H91.1169ZM89.5169 35.68V24.16L81.1169 35.68H89.5169Z"/>
</mask>
<path d="M32.015 60.8L32.0012 62.8L32.015 62.8L32.0288 62.8L32.015 60.8ZM14.015 55.12L12.698 56.6252H12.698L14.015 55.12ZM6.895 40.32L4.90031 40.466L4.9011 40.476L6.895 40.32ZM6.895 23.36L8.88993 23.5025L8.89045 23.4948L6.895 23.36ZM10.335 12.96L8.68437 11.8306L8.68005 11.837L10.335 12.96ZM18.975 5.84L19.8165 7.65441L19.8278 7.64905L18.975 5.84ZM44.975 5.84L44.1121 7.64426L44.1277 7.65174L44.1435 7.65895L44.975 5.84ZM53.615 12.96L51.9509 14.0694L51.9622 14.0863L51.9738 14.103L53.615 12.96ZM57.135 23.36L55.1395 23.4948L55.1401 23.5025L57.135 23.36ZM57.135 40.32L59.1289 40.476L59.1297 40.466L57.135 40.32ZM50.015 55.12L48.698 53.6148L50.015 55.12ZM36.335 39.92L34.3397 39.7824L34.3392 39.7898L34.3388 39.7972L36.335 39.92ZM36.335 23.84L34.3389 23.9648L34.3396 23.9763L34.3405 23.9877L36.335 23.84ZM32.015 18.64L32.055 16.6404L32.015 16.6396L31.975 16.6404L32.015 18.64ZM27.695 23.84L25.6989 23.7152L25.6973 23.7406L25.6964 23.766L27.695 23.84ZM27.695 39.92L25.6962 39.9889L25.6971 40.0159L25.6988 40.0428L27.695 39.92ZM32.0288 58.8C24.6 58.7488 19.1247 56.9334 15.332 53.6148L12.698 56.6252C17.4386 60.7732 23.9633 62.7445 32.0012 62.8L32.0288 58.8ZM15.332 53.6148C11.4938 50.2564 9.33195 45.8252 8.8889 40.164L4.9011 40.476C5.41805 47.0815 8.00283 52.5169 12.698 56.6252L15.332 53.6148ZM8.88967 40.174C8.7346 38.0548 8.655 35.3082 8.655 31.92H4.655C4.655 35.3585 4.7354 38.2118 4.90033 40.466L8.88967 40.174ZM8.655 31.92C8.655 28.4784 8.7346 25.6769 8.88992 23.5025L4.90008 23.2175C4.7354 25.5231 4.655 28.4283 4.655 31.92H8.655ZM8.89045 23.4948C9.13558 19.867 10.1812 16.7486 11.99 14.083L8.68005 11.837C6.43552 15.1447 5.18776 18.9597 4.89955 23.2252L8.89045 23.4948ZM11.9856 14.0894C13.8422 11.3758 16.4288 9.22543 19.8165 7.65437L18.1336 4.02562C14.1612 5.86789 10.9878 8.46416 8.68439 11.8306L11.9856 14.0894ZM19.8278 7.64905C23.2461 6.0376 27.2913 5.2 32.015 5.2V1.2C26.8187 1.2 22.1706 2.1224 18.1222 4.03094L19.8278 7.64905ZM32.015 5.2C36.7397 5.2 40.7534 6.03792 44.1121 7.64426L45.8379 4.03573C41.8366 2.12208 37.2103 1.2 32.015 1.2V5.2ZM44.1435 7.65895C47.5816 9.23068 50.1551 11.3757 51.9509 14.0694L55.2791 11.8506C53.0216 8.46427 49.835 5.86265 45.8065 4.02105L44.1435 7.65895ZM51.9738 14.103C53.8286 16.7663 54.8951 19.8776 55.1396 23.4948L59.1305 23.2252C58.8415 18.9491 57.5614 15.127 55.2562 11.817L51.9738 14.103ZM55.1401 23.5025C55.2954 25.6769 55.375 28.4784 55.375 31.92H59.375C59.375 28.4283 59.2946 25.5231 59.1299 23.2175L55.1401 23.5025ZM55.375 31.92C55.375 35.3082 55.2954 38.0548 55.1403 40.174L59.1297 40.466C59.2946 38.2118 59.375 35.3585 59.375 31.92H55.375ZM55.1411 40.164C54.698 45.8252 52.5362 50.2564 48.698 53.6148L51.332 56.6252C56.0272 52.5169 58.612 47.0815 59.1289 40.476L55.1411 40.164ZM48.698 53.6148C44.9053 56.9334 39.43 58.7488 32.0012 58.8L32.0288 62.8C40.0667 62.7445 46.5914 60.7732 51.332 56.6252L48.698 53.6148ZM32.015 47.12C33.8221 47.12 35.4624 46.5076 36.6334 45.098C37.736 43.7708 38.2117 41.9849 38.3312 40.0428L34.3388 39.7972C34.245 41.3217 33.894 42.1359 33.5566 42.542C33.2876 42.8658 32.8746 43.12 32.015 43.12V47.12ZM38.3303 40.0576C38.4422 38.4345 38.495 35.6786 38.495 31.84H34.495C34.495 35.6814 34.4411 38.3122 34.3397 39.7824L38.3303 40.0576ZM38.495 31.84C38.495 27.953 38.4424 25.2162 38.3295 23.6923L34.3405 23.9877C34.4409 25.3438 34.495 27.9403 34.495 31.84H38.495ZM38.3311 23.7152C38.2109 21.792 37.732 20.0244 36.6334 18.702C35.4734 17.3057 33.8515 16.6763 32.055 16.6404L31.975 20.6396C32.8452 20.657 33.2766 20.921 33.5566 21.258C33.898 21.6689 34.2458 22.4747 34.3389 23.9648L38.3311 23.7152ZM31.975 16.6404C30.1785 16.6763 28.5566 17.3057 27.3966 18.702C26.298 20.0244 25.8191 21.792 25.6989 23.7152L29.6911 23.9648C29.7842 22.4747 30.132 21.6689 30.4734 21.258C30.7534 20.921 31.1848 20.657 32.055 20.6396L31.975 16.6404ZM25.6964 23.766C25.5889 26.6665 25.535 29.3582 25.535 31.84H29.535C29.535 29.4152 29.5877 26.7735 29.6936 23.914L25.6964 23.766ZM25.535 31.84C25.535 34.1626 25.589 36.88 25.6962 39.9889L29.6938 39.8511C29.5877 36.7734 29.535 34.104 29.535 31.84H25.535ZM25.6988 40.0428C25.8183 41.9849 26.294 43.7708 27.3966 45.098C28.5676 46.5076 30.2079 47.12 32.015 47.12V43.12C31.1554 43.12 30.7424 42.8658 30.4734 42.542C30.136 42.1359 29.785 41.3217 29.6912 39.7972L25.6988 40.0428ZM89.5969 59.36L88.1827 60.7742V60.7742L89.5969 59.36ZM88.9569 51.04H90.9569V49.04H88.9569V51.04ZM63.7569 34.96L65.3295 36.1956L65.3376 36.1854L65.3455 36.1751L63.7569 34.96ZM86.3969 5.36L84.853 4.08858L84.8301 4.11636L84.8083 4.14494L86.3969 5.36ZM107.517 4.64L108.931 3.22579L108.931 3.22578L107.517 4.64ZM108.157 34.8H106.157V36.8H108.157V34.8ZM116.717 35.44L118.131 34.0258L116.717 35.44ZM116.717 50.4L118.131 51.8142V51.8142L116.717 50.4ZM108.157 51.04V49.04H106.157V51.04H108.157ZM107.517 59.36L108.931 60.7742L108.931 60.7742L107.517 59.36ZM89.5169 35.68V37.68H91.5169V35.68H89.5169ZM89.5169 24.16H91.5169V18.0225L87.9009 22.9817L89.5169 24.16ZM81.1169 35.68L79.5009 34.5017L77.1833 37.68H81.1169V35.68ZM91.1169 58C91.092 58 91.0789 57.9978 91.0749 57.997C91.0712 57.9963 91.0714 57.9961 91.073 57.9967C91.0745 57.9974 91.0714 57.9963 91.0629 57.9905C91.0541 57.9845 91.0365 57.9712 91.0111 57.9458L88.1827 60.7742C88.9724 61.564 89.9831 62 91.1169 62V58ZM91.0111 57.9458C90.9857 57.9204 90.9724 57.9027 90.9663 57.8939C90.9605 57.8855 90.9595 57.8824 90.9602 57.8839C90.9608 57.8855 90.9606 57.8856 90.9599 57.882C90.9591 57.878 90.9569 57.8649 90.9569 57.84H86.9569C86.9569 58.9738 87.3929 59.9844 88.1827 60.7742L91.0111 57.9458ZM90.9569 57.84V51.04H86.9569V57.84H90.9569ZM88.9569 49.04H65.0369V53.04H88.9569V49.04ZM65.0369 49.04C65.012 49.04 64.9989 49.0378 64.9949 49.037C64.9912 49.0363 64.9914 49.0361 64.993 49.0367C64.9945 49.0374 64.9914 49.0364 64.9829 49.0305C64.9741 49.0245 64.9565 49.0112 64.9311 48.9858L62.1027 51.8142C62.8924 52.604 63.9031 53.04 65.0369 53.04V49.04ZM64.9311 48.9858C64.9057 48.9604 64.8924 48.9427 64.8863 48.9339C64.8805 48.9255 64.8795 48.9224 64.8801 48.9239C64.8808 48.9255 64.8806 48.9256 64.8799 48.922C64.8791 48.918 64.8769 48.9049 64.8769 48.88H60.8769C60.8769 50.0138 61.3129 51.0244 62.1027 51.8142L64.9311 48.9858ZM64.8769 48.88V37.44H60.8769V48.88H64.8769ZM64.8769 37.44C64.8769 37.0038 65.0056 36.6079 65.3295 36.1956L62.1842 33.7244C61.3348 34.8055 60.8769 36.0629 60.8769 37.44H64.8769ZM65.3455 36.1751L87.9855 6.57506L84.8083 4.14494L62.1683 33.7449L65.3455 36.1751ZM87.9407 6.63141C88.2885 6.20913 88.6973 6 89.3569 6V2C87.5631 2 85.9986 2.69753 84.853 4.08858L87.9407 6.63141ZM89.3569 6H105.997V2H89.3569V6ZM105.997 6C106.022 6 106.035 6.0022 106.039 6.00298C106.043 6.00369 106.042 6.00393 106.041 6.00327C106.039 6.00264 106.042 6.00365 106.051 6.00945C106.06 6.01549 106.077 6.02879 106.103 6.05421L108.931 3.22578C108.141 2.43601 107.131 2 105.997 2V6ZM106.103 6.05421C106.128 6.07963 106.141 6.09725 106.147 6.10605C106.153 6.11452 106.154 6.1176 106.154 6.11611C106.153 6.11454 106.153 6.11436 106.154 6.11802C106.155 6.12198 106.157 6.13509 106.157 6.16H110.157C110.157 5.02621 109.721 4.01556 108.931 3.22579L106.103 6.05421ZM106.157 6.16V34.8H110.157V6.16H106.157ZM108.157 36.8H115.117V32.8H108.157V36.8ZM115.117 36.8C115.211 36.8 115.249 36.815 115.254 36.817C115.258 36.8186 115.262 36.8206 115.267 36.8241C115.273 36.8278 115.285 36.8364 115.303 36.8542L118.131 34.0258C117.305 33.1995 116.252 32.8 115.117 32.8V36.8ZM115.303 36.8542C115.328 36.8796 115.341 36.8973 115.347 36.9061C115.353 36.9145 115.354 36.9176 115.354 36.9161C115.353 36.9145 115.353 36.9144 115.354 36.918C115.355 36.922 115.357 36.9351 115.357 36.96H119.357C119.357 35.8262 118.921 34.8156 118.131 34.0258L115.303 36.8542ZM115.357 36.96V48.88H119.357V36.96H115.357ZM115.357 48.88C115.357 48.9049 115.355 48.918 115.354 48.922C115.353 48.9256 115.353 48.9255 115.354 48.9239C115.354 48.9224 115.353 48.9255 115.347 48.9339C115.341 48.9427 115.328 48.9604 115.303 48.9858L118.131 51.8142C118.921 51.0244 119.357 50.0138 119.357 48.88H115.357ZM115.303 48.9858C115.277 49.0112 115.26 49.0245 115.251 49.0305C115.242 49.0364 115.239 49.0374 115.241 49.0367C115.242 49.0361 115.243 49.0363 115.239 49.037C115.235 49.0378 115.222 49.04 115.197 49.04V53.04C116.331 53.04 117.341 52.604 118.131 51.8142L115.303 48.9858ZM115.197 49.04H108.157V53.04H115.197V49.04ZM106.157 51.04V57.84H110.157V51.04H106.157ZM106.157 57.84C106.157 57.8649 106.155 57.878 106.154 57.882C106.153 57.8856 106.153 57.8855 106.154 57.8839C106.154 57.8824 106.153 57.8855 106.147 57.8939C106.141 57.9027 106.128 57.9204 106.103 57.9458L108.931 60.7742C109.721 59.9844 110.157 58.9738 110.157 57.84H106.157ZM106.103 57.9458C106.077 57.9712 106.06 57.9845 106.051 57.9905C106.042 57.9963 106.039 57.9974 106.041 57.9967C106.042 57.9961 106.043 57.9963 106.039 57.997C106.035 57.9978 106.022 58 105.997 58V62C107.131 62 108.141 61.564 108.931 60.7742L106.103 57.9458ZM105.997 58H91.1169V62H105.997V58ZM91.5169 35.68V24.16H87.5169V35.68H91.5169ZM87.9009 22.9817L79.5009 34.5017L82.7329 36.8583L91.1329 25.3383L87.9009 22.9817ZM81.1169 37.68H89.5169V33.68H81.1169V37.68Z" fill="#515153" mask="url(#path-1-outside-1_195_2)"/>
</svg>
