<svg width="16" height="16" viewBox="0 0 16 16" fill="none" xmlns="http://www.w3.org/2000/svg">
<path d="M15.4596 2.18545C15.8501 1.79493 15.8501 1.16176 15.4596 0.771237L15.2288 0.54045C14.8383 0.149926 14.2051 0.149926 13.8146 0.54045L8.70715 5.6479C8.31662 6.03843 7.68346 6.03843 7.29293 5.6479L2.18548 0.540451C1.79496 0.149926 1.16179 0.149926 0.771267 0.54045L0.540481 0.771236C0.149957 1.16176 0.149957 1.79493 0.540481 2.18545L5.64793 7.2929C6.03846 7.68343 6.03846 8.31659 5.64793 8.70712L0.540481 13.8146C0.149957 14.2051 0.149956 14.8383 0.540481 15.2288L0.771267 15.4596C1.16179 15.8501 1.79496 15.8501 2.18548 15.4596L7.29293 10.3521C7.68346 9.96159 8.31662 9.96159 8.70715 10.3521L13.8146 15.4596C14.2051 15.8501 14.8383 15.8501 15.2288 15.4596L15.4596 15.2288C15.8501 14.8383 15.8501 14.2051 15.4596 13.8146L10.3521 8.70712C9.96162 8.31659 9.96162 7.68343 10.3521 7.2929L15.4596 2.18545Z" fill="black"/>
</svg>
