<svg width="10" height="40" viewBox="0 0 10 40" fill="none" xmlns="http://www.w3.org/2000/svg">
<path d="M5 14.9937C2.23858 14.9937 -6.78525e-07 17.2322 -4.37114e-07 19.9937C-1.95703e-07 22.7551 2.23858 24.9937 5 24.9937C7.76142 24.9937 10 22.7551 10 19.9937C10 17.2322 7.76142 14.9937 5 14.9937Z" fill="#35E0CD"/>
<path d="M5 -0.00634722C2.23858 -0.00634698 -6.78525e-07 2.23223 -4.37114e-07 4.99365C-1.95703e-07 7.75508 2.23858 9.99365 5 9.99365C7.76142 9.99365 10 7.75508 10 4.99365C10 2.23223 7.76142 -0.00634746 5 -0.00634722Z" fill="#35E0CD"/>
<path d="M5 29.9937C2.23858 29.9937 -6.78525e-07 32.2322 -4.37114e-07 34.9937C-1.95703e-07 37.7551 2.23858 39.9937 5 39.9937C7.76142 39.9937 10 37.7551 10 34.9937C10 32.2322 7.76142 29.9937 5 29.9937Z" fill="#35E0CD"/>
</svg>
