<svg width="10" height="40" viewBox="0 0 10 40" fill="none" xmlns="http://www.w3.org/2000/svg">
<path d="M4.99976 24.9932C7.76118 24.9932 9.99976 22.7546 9.99976 19.9932C9.99976 17.2317 7.76118 14.9932 4.99976 14.9932C2.23833 14.9932 -0.000244141 17.2317 -0.000244141 19.9932C-0.000244141 22.7546 2.23833 24.9932 4.99976 24.9932Z" fill="white"/>
<path d="M4.99976 39.9932C7.76118 39.9932 9.99976 37.7546 9.99976 34.9932C9.99976 32.2317 7.76118 29.9932 4.99976 29.9932C2.23833 29.9932 -0.000244141 32.2317 -0.000244141 34.9932C-0.000244141 37.7546 2.23833 39.9932 4.99976 39.9932Z" fill="white"/>
<path d="M4.99976 9.99316C7.76118 9.99316 9.99976 7.75459 9.99976 4.99316C9.99976 2.23174 7.76118 -0.00683594 4.99976 -0.00683594C2.23833 -0.00683594 -0.000244141 2.23174 -0.000244141 4.99316C-0.000244141 7.75459 2.23833 9.99316 4.99976 9.99316Z" fill="white"/>
</svg>
