<svg width="29" height="29" viewBox="0 0 29 29" fill="none" xmlns="http://www.w3.org/2000/svg">
<path d="M27.6506 21.0349L23.7689 17.1532C22.3826 15.7669 20.0259 16.3215 19.4713 18.1236C19.0555 19.3713 17.6691 20.0645 16.4215 19.7872C13.6488 19.094 9.90581 15.4896 9.21265 12.5784C8.79676 11.3306 9.62855 9.94433 10.8762 9.5285C12.6784 8.97397 13.233 6.61725 11.8466 5.23094L7.96498 1.34927C6.85593 0.378856 5.19236 0.378856 4.22194 1.34927L1.58795 3.98326C-1.04603 6.75588 1.86522 14.1033 8.38087 20.619C14.8965 27.1346 22.244 30.1846 25.0166 27.4119L27.6506 24.7779C28.621 23.6688 28.621 22.0053 27.6506 21.0349Z" fill="white"/>
</svg>
