<svg width="477" height="817" viewBox="0 0 477 817" fill="none" xmlns="http://www.w3.org/2000/svg">
<g opacity="0.3">
<path d="M405.302 547.783L405.403 547.825L405.436 547.721L489.446 281.846L489.474 281.759L489.389 281.724L487.017 280.734L486.932 280.699L486.89 280.78L357.087 527.556L357.036 527.653L357.137 527.695L405.302 547.783ZM360.92 526.253L482.113 295.831L403.664 544.08L360.92 526.253Z" fill="url(#paint0_linear_139_953)" stroke="#35E0CD" stroke-width="0.2"/>
<path d="M406.176 552.785L406.277 552.827L406.31 552.722L491.082 277.925L491.109 277.838L491.025 277.803L488.652 276.813L488.568 276.778L488.525 276.859L352.919 530.454L352.867 530.551L352.968 530.594L406.176 552.785ZM356.74 529.181L484.173 290.893L404.525 549.111L356.74 529.181Z" fill="url(#paint1_linear_139_953)" stroke="#35E0CD" stroke-width="0.2"/>
<path d="M407.296 558.028L407.399 558.071L407.431 557.964L496.351 261.952L496.167 261.876L348.405 533.346L348.352 533.444L348.454 533.486L407.296 558.028ZM352.257 532.087L486.297 285.883L405.645 554.354L352.257 532.087Z" fill="url(#paint2_linear_139_953)" stroke="#35E0CD" stroke-width="0.2"/>
<path d="M408.694 563.525L408.798 563.568L408.829 563.461L497.765 258.561L497.581 258.485L343.515 536.22L343.461 536.318L343.564 536.361L408.694 563.525ZM347.397 534.974L488.413 280.808L407.012 559.838L347.397 534.974Z" fill="url(#paint3_linear_139_953)" stroke="#35E0CD" stroke-width="0.2"/>
<path d="M410.387 569.319L410.491 569.362L410.521 569.253L499.241 255.023L499.057 254.947L338.238 539.106L338.183 539.204L338.287 539.248L410.387 569.319ZM342.121 537.861L490.523 275.666L408.644 565.606L342.121 537.861Z" fill="url(#paint4_linear_139_953)" stroke="#35E0CD" stroke-width="0.2"/>
<path d="M412.373 575.408L412.478 575.452L412.508 575.342L500.79 251.308L500.607 251.232L332.485 541.966L332.428 542.064L332.533 542.108L412.373 575.408ZM336.397 540.735L492.656 270.47L410.6 571.683L336.397 540.735Z" fill="url(#paint5_linear_139_953)" stroke="#35E0CD" stroke-width="0.2"/>
<path d="M414.756 581.8L414.862 581.844L414.891 581.733L502.438 247.356L502.255 247.28L326.267 544.77L326.208 544.869L326.314 544.913L414.756 581.8ZM330.21 543.552L494.907 265.154L412.952 578.062L330.21 543.552Z" fill="url(#paint6_linear_139_953)" stroke="#35E0CD" stroke-width="0.2"/>
<path d="M417.551 588.538L417.659 588.582L417.687 588.47L504.159 243.228L503.977 243.152L319.513 547.524L319.452 547.623L319.56 547.668L417.551 588.538ZM323.486 546.32L497.14 259.801L415.746 584.8L323.486 546.32Z" fill="url(#paint7_linear_139_953)" stroke="#35E0CD" stroke-width="0.2"/>
<path d="M420.819 595.646L420.928 595.691L420.955 595.577L505.942 238.953L505.76 238.877L312.163 550.203L312.101 550.302L312.21 550.348L420.819 595.646ZM316.167 549.013L499.433 254.304L418.954 591.883L316.167 549.013Z" fill="url(#paint8_linear_139_953)" stroke="#35E0CD" stroke-width="0.2"/>
<path d="M424.619 603.148L424.728 603.194L424.755 603.078L507.824 234.441L507.642 234.365L304.159 552.781L304.095 552.881L304.205 552.927L424.619 603.148ZM308.223 551.617L501.761 248.721L422.722 599.372L308.223 551.617Z" fill="url(#paint9_linear_139_953)" stroke="#35E0CD" stroke-width="0.2"/>
<path d="M429.01 611.07L429.121 611.116L429.146 610.998L509.792 229.723L509.61 229.647L295.472 555.246L295.405 555.347L295.517 555.394L429.01 611.07ZM299.536 554.085L504.138 243.023L427.082 607.281L299.536 554.085Z" fill="url(#paint10_linear_139_953)" stroke="#35E0CD" stroke-width="0.2"/>
<path d="M434.038 619.466L434.151 619.513L434.175 619.393L511.82 224.857L511.64 224.782L285.939 557.568L285.87 557.669L285.983 557.716L434.038 619.466ZM290.063 556.432L506.562 237.211L432.079 615.664L290.063 556.432Z" fill="url(#paint11_linear_139_953)" stroke="#35E0CD" stroke-width="0.2"/>
<path d="M439.835 628.356L439.95 628.404L439.972 628.282L513.948 219.756L513.767 219.681L275.573 559.715L275.502 559.817L275.616 559.865L439.835 628.356ZM279.728 558.594L509.046 231.254L437.815 624.528L279.728 558.594Z" fill="url(#paint12_linear_139_953)" stroke="#35E0CD" stroke-width="0.2"/>
<path d="M446.407 637.81L446.524 637.859L446.544 637.734L516.149 214.478L515.969 214.403L264.202 561.684L264.128 561.787L264.245 561.835L446.407 637.81ZM268.43 560.561L511.579 225.18L444.368 633.94L268.43 560.561Z" fill="url(#paint13_linear_139_953)" stroke="#35E0CD" stroke-width="0.2"/>
<path d="M453.955 647.845L454.074 647.895L454.093 647.768L518.448 208.963L518.269 208.888L251.761 563.381L251.684 563.483L251.803 563.533L453.955 647.845ZM256.037 562.314L514.173 218.962L451.842 643.979L256.037 562.314Z" fill="url(#paint14_linear_139_953)" stroke="#35E0CD" stroke-width="0.2"/>
<path d="M462.527 658.516L462.648 658.566L462.665 658.436L520.821 203.272L520.868 202.911L520.643 203.198L238.15 564.797L238.069 564.9L238.19 564.951L462.527 658.516ZM242.486 563.757L516.839 212.57L460.352 654.623L242.486 563.757Z" fill="url(#paint15_linear_139_953)" stroke="#35E0CD" stroke-width="0.2"/>
<path d="M472.229 669.898L472.352 669.95L472.367 669.817L523.293 197.345L523.329 197.009L523.116 197.271L223.236 565.911L223.152 566.015L223.275 566.066L472.229 669.898ZM227.633 564.899L519.554 206.061L469.992 665.98L227.633 564.899Z" fill="url(#paint16_linear_139_953)" stroke="#35E0CD" stroke-width="0.2"/>
<path d="M483.251 682.039L483.377 682.092L483.389 681.956L525.851 191.21L525.878 190.898L525.675 191.137L206.855 566.621L206.767 566.725L206.893 566.778L483.251 682.039ZM211.342 565.648L522.354 199.347L480.952 678.095L211.342 565.648Z" fill="url(#paint17_linear_139_953)" stroke="#35E0CD" stroke-width="0.2"/>
<path d="M495.699 695.018L495.828 695.072L495.837 694.932L528.494 184.87L528.513 184.58L528.32 184.797L188.875 566.906L188.782 567.011L188.912 567.065L495.699 695.018ZM193.453 565.974L525.227 192.458L493.309 691.036L193.453 565.974Z" fill="url(#paint18_linear_139_953)" stroke="#35E0CD" stroke-width="0.2"/>
<path d="M509.752 708.908L509.884 708.964L509.89 708.82L531.236 178.294L531.247 178.024L531.063 178.222L169.119 566.693L169.021 566.798L169.154 566.854L509.752 708.908ZM173.787 565.801L528.173 185.395L507.269 704.887L173.787 565.801Z" fill="url(#paint19_linear_139_953)" stroke="#35E0CD" stroke-width="0.2"/>
<path d="M525.587 723.784L525.723 723.841L525.726 723.693L534.077 171.481L534.08 171.231L533.905 171.41L148.737 564.557L148.737 564.558L147.409 565.907L147.305 566.012L147.442 566.069L525.587 723.784ZM152.138 565.043L531.192 178.155L522.982 719.712L152.138 565.043Z" fill="url(#paint20_linear_139_953)" stroke="#35E0CD" stroke-width="0.2"/>
<path d="M543.4 739.762L543.54 739.82L543.539 739.668L537.003 164.463L537 164.231L536.833 164.392L123.524 564.491L123.414 564.597L123.555 564.655L543.4 739.762ZM128.344 563.667L534.31 170.682L540.702 735.651L128.344 563.667Z" fill="url(#paint21_linear_139_953)" stroke="#35E0CD" stroke-width="0.2"/>
<path d="M563.47 756.923L563.614 756.983L563.608 756.826L540.039 157.179L540.031 156.963L539.872 157.109L97.2095 562.304L97.0939 562.409L97.2385 562.47L563.47 756.923ZM102.181 561.546L537.5 163.033L560.678 752.773L102.181 561.546Z" fill="url(#paint22_linear_139_953)" stroke="#35E0CD" stroke-width="0.2"/>
<path d="M585.992 775.383L586.142 775.445L586.131 775.284L543.187 149.629L543.174 149.429L543.022 149.56L68.2472 559.288L68.1247 559.394L68.274 559.456L585.992 775.383ZM73.3099 558.571L540.746 155.165L583.048 771.17L73.3099 558.571Z" fill="url(#paint23_linear_139_953)" stroke="#35E0CD" stroke-width="0.2"/>
<path d="M611.293 795.28L611.447 795.344L611.431 795.178L546.42 141.873L546.402 141.688L546.258 141.805L36.3091 555.309L36.179 555.415L36.3336 555.479L611.293 795.28ZM41.523 554.658L544.162 147.059L608.225 791.015L41.523 554.658Z" fill="url(#paint24_linear_139_953)" stroke="#35E0CD" stroke-width="0.2"/>
<path d="M639.656 816.765L639.817 816.831L639.794 816.659L549.777 133.821L549.754 133.651L549.617 133.755L1.08744 550.271L0.949084 550.376L1.10943 550.443L639.656 816.765ZM6.46519 549.657L547.634 138.735L636.447 812.406L6.46519 549.657Z" fill="url(#paint25_linear_139_953)" stroke="#35E0CD" stroke-width="0.2"/>
</g>
<defs>
<linearGradient id="paint0_linear_139_953" x1="410.64" y1="399.443" x2="458.786" y2="419.523" gradientUnits="userSpaceOnUse">
<stop stop-color="#35E0CD"/>
<stop offset="0.9543" stop-color="#FEE823"/>
</linearGradient>
<linearGradient id="paint1_linear_139_953" x1="408.099" y1="398.388" x2="461.324" y2="420.587" gradientUnits="userSpaceOnUse">
<stop stop-color="#35E0CD"/>
<stop offset="0.9543" stop-color="#FEE823"/>
</linearGradient>
<linearGradient id="paint2_linear_139_953" x1="407.655" y1="391.511" x2="466.522" y2="416.062" gradientUnits="userSpaceOnUse">
<stop stop-color="#35E0CD"/>
<stop offset="0.9543" stop-color="#FEE823"/>
</linearGradient>
<linearGradient id="paint3_linear_139_953" x1="404.346" y1="390.625" x2="469.481" y2="417.79" gradientUnits="userSpaceOnUse">
<stop stop-color="#35E0CD"/>
<stop offset="0.9543" stop-color="#FEE823"/>
</linearGradient>
<linearGradient id="paint4_linear_139_953" x1="400.701" y1="389.563" x2="472.8" y2="419.634" gradientUnits="userSpaceOnUse">
<stop stop-color="#35E0CD"/>
<stop offset="0.9543" stop-color="#FEE823"/>
</linearGradient>
<linearGradient id="paint5_linear_139_953" x1="396.68" y1="388.313" x2="476.517" y2="421.611" gradientUnits="userSpaceOnUse">
<stop stop-color="#35E0CD"/>
<stop offset="0.9543" stop-color="#FEE823"/>
</linearGradient>
<linearGradient id="paint6_linear_139_953" x1="392.241" y1="386.857" x2="480.676" y2="423.741" gradientUnits="userSpaceOnUse">
<stop stop-color="#35E0CD"/>
<stop offset="0.9543" stop-color="#FEE823"/>
</linearGradient>
<linearGradient id="paint7_linear_139_953" x1="387.334" y1="385.179" x2="485.32" y2="426.047" gradientUnits="userSpaceOnUse">
<stop stop-color="#35E0CD"/>
<stop offset="0.9543" stop-color="#FEE823"/>
</linearGradient>
<linearGradient id="paint8_linear_139_953" x1="381.906" y1="383.258" x2="490.505" y2="428.552" gradientUnits="userSpaceOnUse">
<stop stop-color="#35E0CD"/>
<stop offset="0.9543" stop-color="#FEE823"/>
</linearGradient>
<linearGradient id="paint9_linear_139_953" x1="375.897" y1="381.071" x2="496.288" y2="431.283" gradientUnits="userSpaceOnUse">
<stop stop-color="#35E0CD"/>
<stop offset="0.9543" stop-color="#FEE823"/>
</linearGradient>
<linearGradient id="paint10_linear_139_953" x1="369.242" y1="378.591" x2="502.733" y2="434.266" gradientUnits="userSpaceOnUse">
<stop stop-color="#35E0CD"/>
<stop offset="0.9543" stop-color="#FEE823"/>
</linearGradient>
<linearGradient id="paint11_linear_139_953" x1="361.866" y1="375.79" x2="509.913" y2="437.537" gradientUnits="userSpaceOnUse">
<stop stop-color="#35E0CD"/>
<stop offset="0.9543" stop-color="#FEE823"/>
</linearGradient>
<linearGradient id="paint12_linear_139_953" x1="353.689" y1="372.637" x2="517.907" y2="441.128" gradientUnits="userSpaceOnUse">
<stop stop-color="#35E0CD"/>
<stop offset="0.9543" stop-color="#FEE823"/>
</linearGradient>
<linearGradient id="paint13_linear_139_953" x1="344.621" y1="369.093" x2="526.806" y2="445.077" gradientUnits="userSpaceOnUse">
<stop stop-color="#35E0CD"/>
<stop offset="0.9543" stop-color="#FEE823"/>
</linearGradient>
<linearGradient id="paint14_linear_139_953" x1="334.56" y1="365.118" x2="536.709" y2="449.429" gradientUnits="userSpaceOnUse">
<stop stop-color="#35E0CD"/>
<stop offset="0.9543" stop-color="#FEE823"/>
</linearGradient>
<linearGradient id="paint15_linear_139_953" x1="323.397" y1="360.67" x2="547.725" y2="454.231" gradientUnits="userSpaceOnUse">
<stop stop-color="#35E0CD"/>
<stop offset="0.9543" stop-color="#FEE823"/>
</linearGradient>
<linearGradient id="paint16_linear_139_953" x1="311.008" y1="355.694" x2="559.979" y2="459.534" gradientUnits="userSpaceOnUse">
<stop stop-color="#35E0CD"/>
<stop offset="0.9543" stop-color="#FEE823"/>
</linearGradient>
<linearGradient id="paint17_linear_139_953" x1="297.254" y1="350.137" x2="573.605" y2="465.396" gradientUnits="userSpaceOnUse">
<stop stop-color="#35E0CD"/>
<stop offset="0.9543" stop-color="#FEE823"/>
</linearGradient>
<linearGradient id="paint18_linear_139_953" x1="281.984" y1="343.935" x2="588.757" y2="471.882" gradientUnits="userSpaceOnUse">
<stop stop-color="#35E0CD"/>
<stop offset="0.9543" stop-color="#FEE823"/>
</linearGradient>
<linearGradient id="paint19_linear_139_953" x1="265.027" y1="337.019" x2="605.602" y2="479.063" gradientUnits="userSpaceOnUse">
<stop stop-color="#35E0CD"/>
<stop offset="0.9543" stop-color="#FEE823"/>
</linearGradient>
<linearGradient id="paint20_linear_139_953" x1="246.199" y1="329.311" x2="624.327" y2="487.018" gradientUnits="userSpaceOnUse">
<stop stop-color="#35E0CD"/>
<stop offset="0.9543" stop-color="#FEE823"/>
</linearGradient>
<linearGradient id="paint21_linear_139_953" x1="225.287" y1="320.725" x2="645.143" y2="495.835" gradientUnits="userSpaceOnUse">
<stop stop-color="#35E0CD"/>
<stop offset="0.9543" stop-color="#FEE823"/>
</linearGradient>
<linearGradient id="paint22_linear_139_953" x1="202.062" y1="311.164" x2="668.278" y2="505.611" gradientUnits="userSpaceOnUse">
<stop stop-color="#35E0CD"/>
<stop offset="0.9543" stop-color="#FEE823"/>
</linearGradient>
<linearGradient id="paint23_linear_139_953" x1="176.265" y1="300.522" x2="693.992" y2="516.452" gradientUnits="userSpaceOnUse">
<stop stop-color="#35E0CD"/>
<stop offset="0.9543" stop-color="#FEE823"/>
</linearGradient>
<linearGradient id="paint24_linear_139_953" x1="147.61" y1="288.681" x2="722.569" y2="528.481" gradientUnits="userSpaceOnUse">
<stop stop-color="#35E0CD"/>
<stop offset="0.9543" stop-color="#FEE823"/>
</linearGradient>
<linearGradient id="paint25_linear_139_953" x1="115.778" y1="275.507" x2="754.328" y2="541.829" gradientUnits="userSpaceOnUse">
<stop stop-color="#35E0CD"/>
<stop offset="0.9543" stop-color="#FEE823"/>
</linearGradient>
</defs>
</svg>
