<svg width="414" height="441" viewBox="0 0 414 441" fill="none" xmlns="http://www.w3.org/2000/svg">
<g opacity="0.3">
<path d="M211.509 295.29L211.61 295.332L211.643 295.228L256.86 152.124L256.888 152.037L256.803 152.002L255.526 151.469L255.442 151.434L255.399 151.515L185.535 284.339L185.484 284.435L185.585 284.477L211.509 295.29ZM187.704 283.636L252.669 160.117L210.616 293.192L187.704 283.636Z" fill="url(#paint0_linear_158_1854)" stroke="#35E0CD" stroke-width="0.2"/>
<path d="M211.979 297.982L212.081 298.024L212.113 297.919L257.74 150.014L257.767 149.927L257.683 149.892L256.406 149.359L256.323 149.324L256.28 149.404L183.291 285.898L183.239 285.995L183.341 286.038L211.979 297.982ZM185.454 285.212L253.792 157.425L211.079 295.9L185.454 285.212Z" fill="url(#paint1_linear_158_1854)" stroke="#35E0CD" stroke-width="0.2"/>
<path d="M212.582 300.804L212.685 300.847L212.717 300.74L260.577 141.416L260.393 141.34L180.862 287.455L180.809 287.552L180.911 287.595L212.582 300.804ZM183.041 286.776L254.949 154.697L211.682 298.721L183.041 286.776Z" fill="url(#paint2_linear_158_1854)" stroke="#35E0CD" stroke-width="0.2"/>
<path d="M213.335 303.763L213.438 303.806L213.469 303.698L261.338 139.591L261.154 139.514L178.231 289.001L178.176 289.099L178.28 289.142L213.335 303.763ZM180.426 288.33L256.1 151.935L212.417 301.673L180.426 288.33Z" fill="url(#paint3_linear_158_1854)" stroke="#35E0CD" stroke-width="0.2"/>
<path d="M214.246 306.881L214.35 306.924L214.38 306.816L262.132 137.686L261.949 137.61L175.391 290.554L175.335 290.652L175.439 290.696L214.246 306.881ZM177.586 289.884L257.247 149.141L213.295 304.778L177.586 289.884Z" fill="url(#paint4_linear_158_1854)" stroke="#35E0CD" stroke-width="0.2"/>
<path d="M215.315 310.158L215.42 310.202L215.45 310.092L262.966 135.686L262.783 135.61L172.294 292.093L172.237 292.192L172.342 292.235L215.315 310.158ZM174.506 291.431L258.406 146.318L214.348 308.048L174.506 291.431Z" fill="url(#paint5_linear_158_1854)" stroke="#35E0CD" stroke-width="0.2"/>
<path d="M216.597 313.599L216.704 313.643L216.733 313.532L263.853 133.559L263.671 133.482L168.948 293.602L168.889 293.701L168.995 293.745L216.597 313.599ZM171.176 292.948L259.627 143.434L215.613 311.481L171.176 292.948Z" fill="url(#paint6_linear_158_1854)" stroke="#35E0CD" stroke-width="0.2"/>
<path d="M218.102 317.225L218.209 317.27L218.237 317.157L264.78 131.337L264.597 131.26L165.312 295.084L165.252 295.183L165.359 295.228L218.102 317.225ZM167.558 294.438L260.838 140.531L217.117 315.108L167.558 294.438Z" fill="url(#paint7_linear_158_1854)" stroke="#35E0CD" stroke-width="0.2"/>
<path d="M219.861 321.051L219.969 321.096L219.997 320.982L265.74 129.035L265.558 128.959L161.357 296.525L161.295 296.625L161.404 296.67L219.861 321.051ZM163.619 295.887L262.081 137.552L218.842 318.919L163.619 295.887Z" fill="url(#paint8_linear_158_1854)" stroke="#35E0CD" stroke-width="0.2"/>
<path d="M221.906 325.089L222.016 325.135L222.042 325.019L266.753 126.606L266.571 126.53L157.049 297.912L156.985 298.013L157.095 298.058L221.906 325.089ZM159.344 297.289L263.341 134.528L220.87 322.95L159.344 297.289Z" fill="url(#paint9_linear_158_1854)" stroke="#35E0CD" stroke-width="0.2"/>
<path d="M224.269 329.353L224.381 329.399L224.406 329.281L267.812 124.066L267.631 123.99L152.374 299.239L152.307 299.339L152.419 299.386L224.269 329.353ZM154.669 298.618L264.628 131.444L223.216 327.207L154.669 298.618Z" fill="url(#paint10_linear_158_1854)" stroke="#35E0CD" stroke-width="0.2"/>
<path d="M226.976 333.872L227.089 333.919L227.112 333.799L268.904 121.446L268.723 121.371L147.243 300.487L147.174 300.589L147.287 300.636L226.976 333.872ZM149.571 299.882L265.939 128.3L225.905 331.718L149.571 299.882Z" fill="url(#paint11_linear_158_1854)" stroke="#35E0CD" stroke-width="0.2"/>
<path d="M230.096 338.657L230.211 338.705L230.233 338.582L270.049 118.7L269.869 118.625L141.664 301.643L141.593 301.745L141.708 301.792L230.096 338.657ZM144.009 301.045L267.283 125.079L228.991 336.489L144.009 301.045Z" fill="url(#paint12_linear_158_1854)" stroke="#35E0CD" stroke-width="0.2"/>
<path d="M233.633 343.746L233.75 343.794L233.77 343.669L271.234 115.858L271.054 115.783L135.545 302.702L135.47 302.804L135.587 302.853L233.633 343.746ZM137.929 302.104L268.652 121.796L232.517 341.555L137.929 302.104Z" fill="url(#paint13_linear_158_1854)" stroke="#35E0CD" stroke-width="0.2"/>
<path d="M237.696 349.147L237.814 349.196L237.833 349.069L272.472 112.889L272.293 112.815L128.849 303.615L128.772 303.717L128.89 303.767L237.696 349.147ZM131.26 303.048L270.053 118.437L236.539 346.958L131.26 303.048Z" fill="url(#paint14_linear_158_1854)" stroke="#35E0CD" stroke-width="0.2"/>
<path d="M242.309 354.89L242.43 354.94L242.447 354.81L273.749 109.825L273.795 109.464L273.571 109.751L121.523 304.376L121.442 304.479L121.564 304.53L242.309 354.89ZM123.967 303.825L271.493 114.985L241.119 352.686L123.967 303.825Z" fill="url(#paint15_linear_158_1854)" stroke="#35E0CD" stroke-width="0.2"/>
<path d="M247.531 361.016L247.655 361.068L247.669 360.935L275.08 106.634L275.116 106.298L274.903 106.56L113.497 304.975L113.412 305.079L113.536 305.131L247.531 361.016ZM115.974 304.44L272.958 111.47L246.306 358.799L115.974 304.44Z" fill="url(#paint16_linear_158_1854)" stroke="#35E0CD" stroke-width="0.2"/>
<path d="M253.464 367.551L253.59 367.604L253.602 367.468L276.456 103.331L276.483 103.019L276.281 103.258L104.681 305.356L104.592 305.461L104.718 305.513L253.464 367.551ZM107.207 304.844L274.47 107.847L252.204 365.319L107.207 304.844Z" fill="url(#paint17_linear_158_1854)" stroke="#35E0CD" stroke-width="0.2"/>
<path d="M260.164 374.537L260.293 374.591L260.302 374.451L277.879 99.9176L277.898 99.6274L277.705 99.8448L95.0039 305.509L94.9108 305.614L95.0402 305.668L260.164 374.537ZM97.5797 305.02L276.02 104.13L258.853 372.283L97.5797 305.02Z" fill="url(#paint18_linear_158_1854)" stroke="#35E0CD" stroke-width="0.2"/>
<path d="M267.727 382.013L267.86 382.068L267.866 381.925L279.355 96.3772L279.366 96.1076L279.182 96.305L84.3712 305.394L84.2732 305.499L84.4058 305.554L267.727 382.013ZM86.9966 304.928L277.609 100.32L266.365 379.738L86.9966 304.928Z" fill="url(#paint19_linear_158_1854)" stroke="#35E0CD" stroke-width="0.2"/>
<path d="M276.251 390.019L276.387 390.076L276.389 389.929L280.884 92.7092L280.888 92.4589L280.713 92.6377L73.402 304.243L73.4018 304.243L72.6868 304.969L72.583 305.075L72.7196 305.132L276.251 390.019ZM75.3459 304.52L279.238 96.4155L274.821 387.716L75.3459 304.52Z" fill="url(#paint20_linear_158_1854)" stroke="#35E0CD" stroke-width="0.2"/>
<path d="M285.838 398.619L285.978 398.678L285.977 398.526L282.459 88.9305L282.456 88.6982L282.289 88.8598L59.8317 304.207L59.7226 304.312L59.8628 304.371L285.838 398.619ZM62.541 303.781L280.918 92.386L284.357 396.295L62.541 303.781Z" fill="url(#paint21_linear_158_1854)" stroke="#35E0CD" stroke-width="0.2"/>
<path d="M296.64 407.856L296.785 407.916L296.779 407.76L284.093 85.0084L284.085 84.793L283.926 84.9385L45.6695 303.028L45.554 303.134L45.6986 303.195L296.64 407.856ZM48.4609 302.64L282.638 88.2622L295.107 405.509L48.4609 302.64Z" fill="url(#paint22_linear_158_1854)" stroke="#35E0CD" stroke-width="0.2"/>
<path d="M308.763 417.792L308.912 417.854L308.901 417.693L285.787 80.9434L285.774 80.7439L285.622 80.8745L30.0819 301.405L29.9594 301.51L30.1087 301.573L308.763 417.792ZM32.9237 301.04L284.388 84.0219L307.145 415.41L32.9237 301.04Z" fill="url(#paint23_linear_158_1854)" stroke="#35E0CD" stroke-width="0.2"/>
<path d="M322.38 428.501L322.535 428.565L322.518 428.399L287.528 76.7675L287.509 76.5829L287.365 76.6997L12.893 299.262L12.7629 299.367L12.9174 299.432L322.38 428.501ZM15.8175 298.935L286.229 79.6535L320.693 426.09L15.8175 298.935Z" fill="url(#paint24_linear_158_1854)" stroke="#35E0CD" stroke-width="0.2"/>
<path d="M337.647 440.065L337.807 440.132L337.784 439.96L289.334 72.4326L289.311 72.2619L289.174 72.366L-6.0634 296.55L-6.20177 296.655L-6.04143 296.722L337.647 440.065ZM-3.04916 296.244L288.099 75.1681L335.881 437.603L-3.04916 296.244Z" fill="url(#paint25_linear_158_1854)" stroke="#35E0CD" stroke-width="0.2"/>
</g>
<defs>
<linearGradient id="paint0_linear_158_1854" x1="214.4" y1="215.405" x2="240.314" y2="226.213" gradientUnits="userSpaceOnUse">
<stop stop-color="#35E0CD"/>
<stop offset="0.9543" stop-color="#FEE823"/>
</linearGradient>
<linearGradient id="paint1_linear_158_1854" x1="213.032" y1="214.838" x2="241.68" y2="226.786" gradientUnits="userSpaceOnUse">
<stop stop-color="#35E0CD"/>
<stop offset="0.9543" stop-color="#FEE823"/>
</linearGradient>
<linearGradient id="paint2_linear_158_1854" x1="212.793" y1="211.136" x2="244.477" y2="224.35" gradientUnits="userSpaceOnUse">
<stop stop-color="#35E0CD"/>
<stop offset="0.9543" stop-color="#FEE823"/>
</linearGradient>
<linearGradient id="paint3_linear_158_1854" x1="211.012" y1="210.659" x2="246.07" y2="225.281" gradientUnits="userSpaceOnUse">
<stop stop-color="#35E0CD"/>
<stop offset="0.9543" stop-color="#FEE823"/>
</linearGradient>
<linearGradient id="paint4_linear_158_1854" x1="209.05" y1="210.088" x2="247.857" y2="226.273" gradientUnits="userSpaceOnUse">
<stop stop-color="#35E0CD"/>
<stop offset="0.9543" stop-color="#FEE823"/>
</linearGradient>
<linearGradient id="paint5_linear_158_1854" x1="206.886" y1="209.415" x2="249.857" y2="227.337" gradientUnits="userSpaceOnUse">
<stop stop-color="#35E0CD"/>
<stop offset="0.9543" stop-color="#FEE823"/>
</linearGradient>
<linearGradient id="paint6_linear_158_1854" x1="204.497" y1="208.631" x2="252.096" y2="228.483" gradientUnits="userSpaceOnUse">
<stop stop-color="#35E0CD"/>
<stop offset="0.9543" stop-color="#FEE823"/>
</linearGradient>
<linearGradient id="paint7_linear_158_1854" x1="201.856" y1="207.728" x2="254.595" y2="229.725" gradientUnits="userSpaceOnUse">
<stop stop-color="#35E0CD"/>
<stop offset="0.9543" stop-color="#FEE823"/>
</linearGradient>
<linearGradient id="paint8_linear_158_1854" x1="198.934" y1="206.694" x2="257.386" y2="231.073" gradientUnits="userSpaceOnUse">
<stop stop-color="#35E0CD"/>
<stop offset="0.9543" stop-color="#FEE823"/>
</linearGradient>
<linearGradient id="paint9_linear_158_1854" x1="195.7" y1="205.517" x2="260.498" y2="232.543" gradientUnits="userSpaceOnUse">
<stop stop-color="#35E0CD"/>
<stop offset="0.9543" stop-color="#FEE823"/>
</linearGradient>
<linearGradient id="paint10_linear_158_1854" x1="192.118" y1="204.182" x2="263.967" y2="234.148" gradientUnits="userSpaceOnUse">
<stop stop-color="#35E0CD"/>
<stop offset="0.9543" stop-color="#FEE823"/>
</linearGradient>
<linearGradient id="paint11_linear_158_1854" x1="188.148" y1="202.674" x2="267.832" y2="235.909" gradientUnits="userSpaceOnUse">
<stop stop-color="#35E0CD"/>
<stop offset="0.9543" stop-color="#FEE823"/>
</linearGradient>
<linearGradient id="paint12_linear_158_1854" x1="183.747" y1="200.977" x2="272.135" y2="237.841" gradientUnits="userSpaceOnUse">
<stop stop-color="#35E0CD"/>
<stop offset="0.9543" stop-color="#FEE823"/>
</linearGradient>
<linearGradient id="paint13_linear_158_1854" x1="178.866" y1="199.07" x2="276.924" y2="239.967" gradientUnits="userSpaceOnUse">
<stop stop-color="#35E0CD"/>
<stop offset="0.9543" stop-color="#FEE823"/>
</linearGradient>
<linearGradient id="paint14_linear_158_1854" x1="173.451" y1="196.931" x2="282.254" y2="242.31" gradientUnits="userSpaceOnUse">
<stop stop-color="#35E0CD"/>
<stop offset="0.9543" stop-color="#FEE823"/>
</linearGradient>
<linearGradient id="paint15_linear_158_1854" x1="167.443" y1="194.536" x2="288.184" y2="244.894" gradientUnits="userSpaceOnUse">
<stop stop-color="#35E0CD"/>
<stop offset="0.9543" stop-color="#FEE823"/>
</linearGradient>
<linearGradient id="paint16_linear_158_1854" x1="160.774" y1="191.858" x2="294.779" y2="247.748" gradientUnits="userSpaceOnUse">
<stop stop-color="#35E0CD"/>
<stop offset="0.9543" stop-color="#FEE823"/>
</linearGradient>
<linearGradient id="paint17_linear_158_1854" x1="153.371" y1="188.867" x2="302.113" y2="250.903" gradientUnits="userSpaceOnUse">
<stop stop-color="#35E0CD"/>
<stop offset="0.9543" stop-color="#FEE823"/>
</linearGradient>
<linearGradient id="paint18_linear_158_1854" x1="145.153" y1="185.529" x2="310.268" y2="254.395" gradientUnits="userSpaceOnUse">
<stop stop-color="#35E0CD"/>
<stop offset="0.9543" stop-color="#FEE823"/>
</linearGradient>
<linearGradient id="paint19_linear_158_1854" x1="136.026" y1="181.807" x2="319.335" y2="258.26" gradientUnits="userSpaceOnUse">
<stop stop-color="#35E0CD"/>
<stop offset="0.9543" stop-color="#FEE823"/>
</linearGradient>
<linearGradient id="paint20_linear_158_1854" x1="125.892" y1="177.658" x2="329.414" y2="262.541" gradientUnits="userSpaceOnUse">
<stop stop-color="#35E0CD"/>
<stop offset="0.9543" stop-color="#FEE823"/>
</linearGradient>
<linearGradient id="paint21_linear_158_1854" x1="114.637" y1="173.036" x2="340.617" y2="267.287" gradientUnits="userSpaceOnUse">
<stop stop-color="#35E0CD"/>
<stop offset="0.9543" stop-color="#FEE823"/>
</linearGradient>
<linearGradient id="paint22_linear_158_1854" x1="102.136" y1="167.89" x2="353.07" y2="272.548" gradientUnits="userSpaceOnUse">
<stop stop-color="#35E0CD"/>
<stop offset="0.9543" stop-color="#FEE823"/>
</linearGradient>
<linearGradient id="paint23_linear_158_1854" x1="88.2511" y1="162.163" x2="366.91" y2="278.384" gradientUnits="userSpaceOnUse">
<stop stop-color="#35E0CD"/>
<stop offset="0.9543" stop-color="#FEE823"/>
</linearGradient>
<linearGradient id="paint24_linear_158_1854" x1="72.8281" y1="155.789" x2="382.291" y2="284.858" gradientUnits="userSpaceOnUse">
<stop stop-color="#35E0CD"/>
<stop offset="0.9543" stop-color="#FEE823"/>
</linearGradient>
<linearGradient id="paint25_linear_158_1854" x1="55.6951" y1="148.699" x2="399.385" y2="292.043" gradientUnits="userSpaceOnUse">
<stop stop-color="#35E0CD"/>
<stop offset="0.9543" stop-color="#FEE823"/>
</linearGradient>
</defs>
</svg>
