<svg width="384" height="460" viewBox="0 0 384 460" fill="none" xmlns="http://www.w3.org/2000/svg">
<path d="M203.863 295.626L203.951 295.691L204.008 295.598L278.447 172.602L278.494 172.524L278.421 172.47L277.352 171.685L277.278 171.631L277.218 171.7L182.158 279.555L182.086 279.637L182.174 279.701L203.863 295.626ZM184.345 279.393L272.707 179.131L203.507 293.462L184.345 279.393Z" fill="url(#paint0_linear_158_1775)" stroke="#35E0CD" stroke-width="0.2"/>
<path d="M203.692 298.239L203.781 298.304L203.837 298.209L279.744 170.836L279.79 170.758L279.717 170.704L278.649 169.92L278.575 169.866L278.515 169.934L179.717 280.499L179.644 280.582L179.732 280.647L203.692 298.239ZM181.895 280.352L274.363 176.876L203.326 296.087L181.895 280.352Z" fill="url(#paint1_linear_158_1775)" stroke="#35E0CD" stroke-width="0.2"/>
<path d="M203.616 301.002L203.705 301.068L203.761 300.972L284.327 163.474L284.167 163.356L177.104 281.399L177.029 281.481L177.119 281.547L203.616 301.002ZM179.295 281.262L276.058 174.595L203.249 298.85L179.295 281.262Z" fill="url(#paint2_linear_158_1775)" stroke="#35E0CD" stroke-width="0.2"/>
<path d="M203.647 303.926L203.738 303.993L203.793 303.896L285.448 161.946L285.288 161.829L174.305 282.244L174.229 282.326L174.319 282.392L203.647 303.926ZM176.509 282.118L277.756 172.283L203.267 301.764L176.509 282.118Z" fill="url(#paint3_linear_158_1775)" stroke="#35E0CD" stroke-width="0.2"/>
<path d="M203.79 307.035L203.881 307.102L203.937 307.004L286.618 160.353L286.458 160.235L171.31 283.048L171.233 283.13L171.324 283.197L203.79 307.035ZM173.515 282.923L279.457 169.938L203.382 304.853L173.515 282.923Z" fill="url(#paint4_linear_158_1775)" stroke="#35E0CD" stroke-width="0.2"/>
<path d="M204.045 310.328L204.137 310.395L204.192 310.296L287.847 158.68L287.687 158.562L168.079 283.78L168.001 283.863L168.092 283.93L204.045 310.328ZM170.298 283.667L281.175 167.571L203.623 308.135L170.298 283.667Z" fill="url(#paint5_linear_158_1775)" stroke="#35E0CD" stroke-width="0.2"/>
<path d="M204.461 313.821L204.554 313.889L204.608 313.787L289.154 156.9L288.994 156.783L164.623 284.428L164.543 284.511L164.635 284.579L204.461 313.821ZM166.855 284.326L282.966 165.16L204.025 311.617L166.855 284.326Z" fill="url(#paint6_linear_158_1775)" stroke="#35E0CD" stroke-width="0.2"/>
<path d="M205.042 317.537L205.136 317.605L205.19 317.502L290.519 155.04L290.359 154.923L160.904 284.986L160.822 285.068L160.916 285.137L205.042 317.537ZM163.15 284.895L284.751 162.729L204.605 315.333L163.15 284.895Z" fill="url(#paint7_linear_158_1775)" stroke="#35E0CD" stroke-width="0.2"/>
<path d="M205.815 321.496L205.91 321.565L205.963 321.461L291.932 153.115L291.773 152.998L156.896 285.434L156.813 285.516L156.907 285.586L205.815 321.496ZM159.156 285.354L286.582 160.236L205.349 319.271L159.156 285.354Z" fill="url(#paint8_linear_158_1775)" stroke="#35E0CD" stroke-width="0.2"/>
<path d="M206.806 325.717L206.902 325.787L206.955 325.681L293.424 151.082L293.265 150.966L152.573 285.751L152.487 285.834L152.583 285.904L206.806 325.717ZM154.859 285.693L288.44 157.704L206.326 323.482L154.859 285.693Z" fill="url(#paint9_linear_158_1775)" stroke="#35E0CD" stroke-width="0.2"/>
<path d="M208.042 330.22L208.139 330.292L208.191 330.183L294.985 148.957L294.826 148.841L147.92 285.93L147.832 286.012L147.929 286.083L208.042 330.22ZM150.207 285.873L290.336 155.123L207.547 327.975L150.207 285.873Z" fill="url(#paint10_linear_158_1775)" stroke="#35E0CD" stroke-width="0.2"/>
<path d="M209.54 335.039L209.639 335.111L209.69 335L296.593 146.765L296.435 146.649L142.862 285.932L142.771 286.014L142.87 286.087L209.54 335.039ZM145.176 285.897L292.268 152.491L209.031 332.782L145.176 285.897Z" fill="url(#paint11_linear_158_1775)" stroke="#35E0CD" stroke-width="0.2"/>
<path d="M211.363 340.199L211.463 340.272L211.514 340.159L298.28 144.468L298.122 144.352L137.407 285.747L137.314 285.829L137.414 285.903L211.363 340.199ZM139.735 285.724L294.247 149.795L210.826 337.921L139.735 285.724Z" fill="url(#paint12_linear_158_1775)" stroke="#35E0CD" stroke-width="0.2"/>
<path d="M213.506 345.735L213.608 345.81L213.657 345.694L300.025 142.09L299.869 141.975L131.471 285.35L131.375 285.432L131.477 285.506L213.506 345.735ZM133.836 285.335L296.265 147.048L212.963 343.434L133.836 285.335Z" fill="url(#paint13_linear_158_1775)" stroke="#35E0CD" stroke-width="0.2"/>
<path d="M216.067 351.682L216.171 351.758L216.219 351.638L301.849 139.606L301.692 139.491L125.032 284.685L124.933 284.767L125.036 284.843L216.067 351.682ZM127.414 284.706L298.329 144.236L215.486 349.372L127.414 284.706Z" fill="url(#paint14_linear_158_1775)" stroke="#35E0CD" stroke-width="0.2"/>
<path d="M219.064 358.071L219.169 358.148L219.216 358.026L303.731 137.042L303.861 136.702L303.575 136.928L118.04 283.738L117.938 283.82L118.043 283.897L219.064 358.071ZM120.449 283.782L300.451 141.347L218.454 355.74L120.449 283.782Z" fill="url(#paint15_linear_158_1775)" stroke="#35E0CD" stroke-width="0.2"/>
<path d="M222.54 364.954L222.648 365.033L222.693 364.907L305.69 134.372L305.805 134.054L305.536 134.259L110.433 282.482L110.327 282.563L110.435 282.642L222.54 364.954ZM112.87 282.547L302.61 138.406L221.901 362.602L112.87 282.547Z" fill="url(#paint16_linear_158_1775)" stroke="#35E0CD" stroke-width="0.2"/>
<path d="M226.585 372.378L226.696 372.459L226.739 372.33L307.719 131.609L307.819 131.312L307.565 131.496L102.14 280.844L102.029 280.924L102.14 281.005L226.585 372.378ZM104.617 280.942L304.836 135.373L225.917 370.005L104.617 280.942Z" fill="url(#paint17_linear_158_1775)" stroke="#35E0CD" stroke-width="0.2"/>
<path d="M231.244 380.396L231.357 380.479L231.398 380.345L309.815 128.753L309.901 128.475L309.662 128.641L93.0975 278.799L92.9823 278.879L93.0953 278.962L231.244 380.396ZM95.6155 278.93L307.12 132.263L230.533 377.991L95.6155 278.93Z" fill="url(#paint18_linear_158_1775)" stroke="#35E0CD" stroke-width="0.2"/>
<path d="M236.595 389.065L236.711 389.15L236.75 389.012L311.989 125.79L312.063 125.531L311.838 125.679L83.2255 276.288L83.1055 276.367L83.2213 276.452L236.595 389.065ZM85.7845 276.451L309.461 129.074L235.841 386.629L85.7845 276.451Z" fill="url(#paint19_linear_158_1775)" stroke="#35E0CD" stroke-width="0.2"/>
<path d="M242.719 398.445L242.838 398.532L242.875 398.389L314.241 122.721L314.304 122.479L314.092 122.611L73.2743 272.738L73.2741 272.738L72.4444 273.252L72.3186 273.33L72.4379 273.417L242.719 398.445ZM75.031 273.439L311.86 125.807L241.909 395.968L75.031 273.439Z" fill="url(#paint20_linear_158_1775)" stroke="#35E0CD" stroke-width="0.2"/>
<path d="M249.7 408.618L249.823 408.708L249.857 408.56L316.562 119.559L316.614 119.333L316.413 119.451L60.65 269.636L60.5189 269.713L60.6414 269.803L249.7 408.618ZM63.278 269.856L314.336 122.435L248.847 406.108L63.278 269.856Z" fill="url(#paint21_linear_158_1775)" stroke="#35E0CD" stroke-width="0.2"/>
<path d="M257.669 419.658L257.795 419.751L257.826 419.597L318.97 116.278L319.012 116.066L318.823 116.17L47.7328 265.338L47.5955 265.414L47.7218 265.506L257.669 419.658ZM50.429 265.611L316.869 118.985L256.771 417.116L50.429 265.611Z" fill="url(#paint22_linear_158_1775)" stroke="#35E0CD" stroke-width="0.2"/>
<path d="M266.708 431.647L266.838 431.743L266.865 431.584L321.466 112.876L321.499 112.679L321.321 112.77L33.5894 260.303L33.4454 260.377L33.5758 260.473L266.708 431.647ZM36.3272 260.61L319.457 115.433L265.739 429.054L36.3272 260.61Z" fill="url(#paint23_linear_158_1775)" stroke="#35E0CD" stroke-width="0.2"/>
<path d="M276.964 444.695L277.099 444.794L277.122 444.628L324.029 109.382L324.055 109.198L323.887 109.278L18.0722 254.423L17.9209 254.495L18.0559 254.594L276.964 444.695ZM20.8787 254.784L322.158 111.782L275.937 442.058L20.8787 254.784Z" fill="url(#paint24_linear_158_1775)" stroke="#35E0CD" stroke-width="0.2"/>
<path d="M288.561 458.91L288.701 459.013L288.72 458.84L326.691 105.755L326.709 105.584L326.551 105.652L1.03878 247.613L0.879534 247.683L1.01957 247.785L288.561 458.91ZM3.92391 248.015L324.914 108.029L287.473 456.208L3.92391 248.015Z" fill="url(#paint25_linear_158_1775)" stroke="#35E0CD" stroke-width="0.2"/>
<defs>
<linearGradient id="paint0_linear_158_1775" x1="224.613" y1="221.911" x2="246.293" y2="237.83" gradientUnits="userSpaceOnUse">
<stop stop-color="#35E0CD"/>
<stop offset="0.9543" stop-color="#FEE823"/>
</linearGradient>
<linearGradient id="paint1_linear_158_1775" x1="223.468" y1="221.074" x2="247.436" y2="238.672" gradientUnits="userSpaceOnUse">
<stop stop-color="#35E0CD"/>
<stop offset="0.9543" stop-color="#FEE823"/>
</linearGradient>
<linearGradient id="paint2_linear_158_1775" x1="224.083" y1="217.574" x2="250.591" y2="237.037" gradientUnits="userSpaceOnUse">
<stop stop-color="#35E0CD"/>
<stop offset="0.9543" stop-color="#FEE823"/>
</linearGradient>
<linearGradient id="paint3_linear_158_1775" x1="222.532" y1="216.727" x2="251.863" y2="238.263" gradientUnits="userSpaceOnUse">
<stop stop-color="#35E0CD"/>
<stop offset="0.9543" stop-color="#FEE823"/>
</linearGradient>
<linearGradient id="paint4_linear_158_1775" x1="220.835" y1="215.752" x2="253.302" y2="239.59" gradientUnits="userSpaceOnUse">
<stop stop-color="#35E0CD"/>
<stop offset="0.9543" stop-color="#FEE823"/>
</linearGradient>
<linearGradient id="paint5_linear_158_1775" x1="218.972" y1="214.636" x2="254.924" y2="241.033" gradientUnits="userSpaceOnUse">
<stop stop-color="#35E0CD"/>
<stop offset="0.9543" stop-color="#FEE823"/>
</linearGradient>
<linearGradient id="paint6_linear_158_1775" x1="216.925" y1="213.367" x2="256.748" y2="242.607" gradientUnits="userSpaceOnUse">
<stop stop-color="#35E0CD"/>
<stop offset="0.9543" stop-color="#FEE823"/>
</linearGradient>
<linearGradient id="paint7_linear_158_1775" x1="214.671" y1="211.929" x2="258.795" y2="244.327" gradientUnits="userSpaceOnUse">
<stop stop-color="#35E0CD"/>
<stop offset="0.9543" stop-color="#FEE823"/>
</linearGradient>
<linearGradient id="paint8_linear_158_1775" x1="212.185" y1="210.306" x2="261.088" y2="246.213" gradientUnits="userSpaceOnUse">
<stop stop-color="#35E0CD"/>
<stop offset="0.9543" stop-color="#FEE823"/>
</linearGradient>
<linearGradient id="paint9_linear_158_1775" x1="209.44" y1="208.479" x2="263.653" y2="248.284" gradientUnits="userSpaceOnUse">
<stop stop-color="#35E0CD"/>
<stop offset="0.9543" stop-color="#FEE823"/>
</linearGradient>
<linearGradient id="paint10_linear_158_1775" x1="206.408" y1="206.427" x2="266.519" y2="250.564" gradientUnits="userSpaceOnUse">
<stop stop-color="#35E0CD"/>
<stop offset="0.9543" stop-color="#FEE823"/>
</linearGradient>
<linearGradient id="paint11_linear_158_1775" x1="203.053" y1="204.126" x2="269.719" y2="253.075" gradientUnits="userSpaceOnUse">
<stop stop-color="#35E0CD"/>
<stop offset="0.9543" stop-color="#FEE823"/>
</linearGradient>
<linearGradient id="paint12_linear_158_1775" x1="199.339" y1="201.552" x2="273.288" y2="255.848" gradientUnits="userSpaceOnUse">
<stop stop-color="#35E0CD"/>
<stop offset="0.9543" stop-color="#FEE823"/>
</linearGradient>
<linearGradient id="paint13_linear_158_1775" x1="195.227" y1="198.673" x2="277.266" y2="258.909" gradientUnits="userSpaceOnUse">
<stop stop-color="#35E0CD"/>
<stop offset="0.9543" stop-color="#FEE823"/>
</linearGradient>
<linearGradient id="paint14_linear_158_1775" x1="190.669" y1="195.457" x2="281.698" y2="262.294" gradientUnits="userSpaceOnUse">
<stop stop-color="#35E0CD"/>
<stop offset="0.9543" stop-color="#FEE823"/>
</linearGradient>
<linearGradient id="paint15_linear_158_1775" x1="185.617" y1="191.87" x2="286.634" y2="266.041" gradientUnits="userSpaceOnUse">
<stop stop-color="#35E0CD"/>
<stop offset="0.9543" stop-color="#FEE823"/>
</linearGradient>
<linearGradient id="paint16_linear_158_1775" x1="180.015" y1="187.87" x2="292.128" y2="270.188" gradientUnits="userSpaceOnUse">
<stop stop-color="#35E0CD"/>
<stop offset="0.9543" stop-color="#FEE823"/>
</linearGradient>
<linearGradient id="paint17_linear_158_1775" x1="173.8" y1="183.412" x2="298.243" y2="274.783" gradientUnits="userSpaceOnUse">
<stop stop-color="#35E0CD"/>
<stop offset="0.9543" stop-color="#FEE823"/>
</linearGradient>
<linearGradient id="paint18_linear_158_1775" x1="166.903" y1="178.447" x2="305.045" y2="279.876" gradientUnits="userSpaceOnUse">
<stop stop-color="#35E0CD"/>
<stop offset="0.9543" stop-color="#FEE823"/>
</linearGradient>
<linearGradient id="paint19_linear_158_1775" x1="159.249" y1="172.919" x2="312.612" y2="285.524" gradientUnits="userSpaceOnUse">
<stop stop-color="#35E0CD"/>
<stop offset="0.9543" stop-color="#FEE823"/>
</linearGradient>
<linearGradient id="paint20_linear_158_1775" x1="150.753" y1="166.766" x2="321.026" y2="291.788" gradientUnits="userSpaceOnUse">
<stop stop-color="#35E0CD"/>
<stop offset="0.9543" stop-color="#FEE823"/>
</linearGradient>
<linearGradient id="paint21_linear_158_1775" x1="141.319" y1="159.92" x2="330.383" y2="298.738" gradientUnits="userSpaceOnUse">
<stop stop-color="#35E0CD"/>
<stop offset="0.9543" stop-color="#FEE823"/>
</linearGradient>
<linearGradient id="paint22_linear_158_1775" x1="130.846" y1="152.304" x2="340.786" y2="306.45" gradientUnits="userSpaceOnUse">
<stop stop-color="#35E0CD"/>
<stop offset="0.9543" stop-color="#FEE823"/>
</linearGradient>
<linearGradient id="paint23_linear_158_1775" x1="119.215" y1="143.833" x2="352.351" y2="315.011" gradientUnits="userSpaceOnUse">
<stop stop-color="#35E0CD"/>
<stop offset="0.9543" stop-color="#FEE823"/>
</linearGradient>
<linearGradient id="paint24_linear_158_1775" x1="106.298" y1="134.414" x2="365.206" y2="324.515" gradientUnits="userSpaceOnUse">
<stop stop-color="#35E0CD"/>
<stop offset="0.9543" stop-color="#FEE823"/>
</linearGradient>
<linearGradient id="paint25_linear_158_1775" x1="91.9514" y1="123.941" x2="379.494" y2="335.066" gradientUnits="userSpaceOnUse">
<stop stop-color="#35E0CD"/>
<stop offset="0.9543" stop-color="#FEE823"/>
</linearGradient>
</defs>
</svg>
