<svg width="407" height="854" viewBox="0 0 407 854" fill="none" xmlns="http://www.w3.org/2000/svg">
<path d="M377.512 549.413L377.6 549.478L377.657 549.384L515.959 320.868L516.007 320.79L515.933 320.736L513.948 319.278L513.874 319.224L513.814 319.293L337.199 519.679L337.127 519.761L337.215 519.825L377.512 549.413ZM341.072 519.334L505.94 332.265L376.825 545.586L341.072 519.334Z" fill="url(#paint0_linear_139_874)" stroke="#35E0CD" stroke-width="0.2"/>
<path d="M377.194 554.267L377.283 554.332L377.34 554.237L518.368 317.587L518.415 317.509L518.342 317.456L516.357 315.998L516.283 315.944L516.223 316.012L332.664 521.435L332.591 521.517L332.679 521.582L377.194 554.267ZM336.519 521.116L508.976 328.131L376.489 550.464L336.519 521.116Z" fill="url(#paint1_linear_139_874)" stroke="#35E0CD" stroke-width="0.2"/>
<path d="M377.053 559.401L377.142 559.466L377.198 559.371L526.883 303.909L526.723 303.791L327.808 523.106L327.734 523.189L327.823 523.254L377.053 559.401ZM331.688 522.807L512.087 323.945L376.347 555.597L331.688 522.807Z" fill="url(#paint2_linear_139_874)" stroke="#35E0CD" stroke-width="0.2"/>
<path d="M377.112 564.834L377.202 564.9L377.257 564.803L528.966 301.072L528.806 300.954L322.607 524.677L322.531 524.759L322.621 524.825L377.112 564.834ZM326.512 524.397L515.207 319.696L376.38 561.012L326.512 524.397Z" fill="url(#paint3_linear_139_874)" stroke="#35E0CD" stroke-width="0.2"/>
<path d="M377.378 570.61L377.468 570.676L377.524 570.578L531.14 298.112L530.98 297.994L317.043 526.17L316.965 526.252L317.056 526.319L377.378 570.61ZM320.948 525.891L518.335 315.385L376.596 566.751L320.948 525.891Z" fill="url(#paint4_linear_139_874)" stroke="#35E0CD" stroke-width="0.2"/>
<path d="M377.851 576.727L377.942 576.795L377.997 576.695L533.422 295.004L533.262 294.886L311.04 527.532L310.961 527.614L311.053 527.682L377.851 576.727ZM314.97 527.273L521.496 311.027L377.043 572.849L314.97 527.273Z" fill="url(#paint5_linear_139_874)" stroke="#35E0CD" stroke-width="0.2"/>
<path d="M378.624 583.216L378.716 583.284L378.771 583.183L535.849 291.698L535.69 291.58L304.618 528.737L304.537 528.819L304.63 528.887L378.624 583.216ZM308.573 528.497L524.795 306.586L377.79 579.319L308.573 528.497Z" fill="url(#paint6_linear_139_874)" stroke="#35E0CD" stroke-width="0.2"/>
<path d="M379.703 590.12L379.797 590.189L379.851 590.086L538.385 288.244L538.226 288.127L297.708 529.774L297.626 529.856L297.72 529.925L379.703 590.12ZM301.688 529.554L528.085 302.105L378.869 586.223L301.688 529.554Z" fill="url(#paint7_linear_139_874)" stroke="#35E0CD" stroke-width="0.2"/>
<path d="M381.138 597.476L381.233 597.546L381.286 597.441L541.011 284.667L540.852 284.55L290.261 530.606L290.177 530.689L290.272 530.758L381.138 597.476ZM294.266 530.406L531.462 297.505L380.253 593.541L294.266 530.406Z" fill="url(#paint8_linear_139_874)" stroke="#35E0CD" stroke-width="0.2"/>
<path d="M382.979 605.319L383.075 605.389L383.128 605.283L543.782 280.892L543.624 280.775L282.227 531.197L282.141 531.279L282.237 531.35L382.979 605.319ZM286.282 531.035L534.893 292.833L382.068 601.365L286.282 531.035Z" fill="url(#paint9_linear_139_874)" stroke="#35E0CD" stroke-width="0.2"/>
<path d="M385.276 613.686L385.374 613.757L385.426 613.649L546.681 276.944L546.522 276.828L273.582 531.529L273.494 531.611L273.591 531.682L385.276 613.686ZM277.638 531.368L538.394 288.064L384.339 609.713L277.638 531.368Z" fill="url(#paint10_linear_139_874)" stroke="#35E0CD" stroke-width="0.2"/>
<path d="M388.06 622.638L388.158 622.711L388.21 622.6L549.669 272.874L549.511 272.758L264.183 531.535L264.093 531.617L264.191 531.689L388.06 622.638ZM268.289 531.413L541.966 283.2L387.096 618.646L268.289 531.413Z" fill="url(#paint11_linear_139_874)" stroke="#35E0CD" stroke-width="0.2"/>
<path d="M391.447 632.225L391.547 632.298L391.597 632.185L552.802 268.606L552.645 268.49L254.049 531.191L253.955 531.273L254.055 531.346L391.447 632.225ZM258.179 531.089L545.626 278.215L390.432 628.195L258.179 531.089Z" fill="url(#paint12_linear_139_874)" stroke="#35E0CD" stroke-width="0.2"/>
<path d="M395.428 642.511L395.529 642.586L395.579 642.47L556.045 264.189L555.888 264.074L243.018 530.454L242.922 530.536L243.024 530.61L395.428 642.511ZM247.217 530.366L549.357 273.133L394.405 638.437L247.217 530.366Z" fill="url(#paint13_linear_139_874)" stroke="#35E0CD" stroke-width="0.2"/>
<path d="M400.186 653.559L400.29 653.635L400.338 653.516L559.432 259.576L559.276 259.461L231.054 529.221L230.954 529.303L231.058 529.379L400.186 653.559ZM235.285 529.197L553.178 267.93L399.094 649.472L235.285 529.197Z" fill="url(#paint14_linear_139_874)" stroke="#35E0CD" stroke-width="0.2"/>
<path d="M405.754 665.43L405.859 665.507L405.906 665.385L562.928 254.814L563.058 254.474L562.772 254.7L218.063 527.462L217.96 527.544L218.066 527.621L405.754 665.43ZM222.344 527.478L557.106 262.581L404.61 661.305L222.344 527.478Z" fill="url(#paint15_linear_139_874)" stroke="#35E0CD" stroke-width="0.2"/>
<path d="M412.212 678.219L412.32 678.298L412.365 678.172L566.568 249.855L566.683 249.537L566.414 249.741L203.928 525.129L203.821 525.21L203.929 525.289L412.212 678.219ZM208.259 525.183L561.105 257.134L411.016 674.056L208.259 525.183Z" fill="url(#paint16_linear_139_874)" stroke="#35E0CD" stroke-width="0.2"/>
<path d="M419.729 692.012L419.839 692.093L419.883 691.964L570.336 244.722L570.436 244.425L570.182 244.609L188.518 522.087L188.407 522.167L188.518 522.248L419.729 692.012ZM192.925 522.199L565.23 251.516L418.481 687.811L192.925 522.199Z" fill="url(#paint17_linear_139_874)" stroke="#35E0CD" stroke-width="0.2"/>
<path d="M428.383 706.908L428.496 706.991L428.538 706.857L574.23 239.418L574.316 239.14L574.078 239.306L171.716 518.288L171.601 518.368L171.714 518.451L428.383 706.908ZM176.198 518.459L569.461 245.752L427.058 702.65L176.198 518.459Z" fill="url(#paint18_linear_139_874)" stroke="#35E0CD" stroke-width="0.2"/>
<path d="M438.325 723.015L438.441 723.1L438.481 722.962L578.269 233.915L578.343 233.656L578.118 233.804L153.373 513.624L153.253 513.703L153.369 513.788L438.325 723.015ZM157.93 513.853L573.801 239.842L436.923 718.7L157.93 513.853Z" fill="url(#paint19_linear_139_874)" stroke="#35E0CD" stroke-width="0.2"/>
<path d="M449.704 740.442L449.823 740.53L449.86 740.387L582.453 228.216L582.516 227.973L582.303 228.106L134.882 507.029L134.882 507.029L133.34 507.985L133.215 508.063L133.334 508.15L449.704 740.442ZM137.948 508.253L578.249 233.785L448.199 736.053L137.948 508.253Z" fill="url(#paint20_linear_139_874)" stroke="#35E0CD" stroke-width="0.2"/>
<path d="M462.675 759.342L462.797 759.432L462.831 759.284L586.763 222.343L586.815 222.117L586.615 222.234L111.426 501.268L111.295 501.345L111.417 501.435L462.675 759.342ZM116.109 501.595L582.84 227.531L461.092 754.895L116.109 501.595Z" fill="url(#paint21_linear_139_874)" stroke="#35E0CD" stroke-width="0.2"/>
<path d="M477.479 779.854L477.605 779.947L477.636 779.793L591.237 216.248L591.279 216.037L591.09 216.141L87.4242 493.284L87.287 493.359L87.4132 493.452L477.479 779.854ZM92.233 493.706L587.539 221.131L475.818 775.35L92.233 493.706Z" fill="url(#paint22_linear_139_874)" stroke="#35E0CD" stroke-width="0.2"/>
<path d="M494.273 802.13L494.403 802.225L494.43 802.066L595.874 209.931L595.907 209.734L595.729 209.826L61.1446 483.93L61.0006 484.004L61.131 484.099L494.273 802.13ZM66.0294 484.411L592.34 214.541L492.484 797.531L66.0294 484.411Z" fill="url(#paint23_linear_139_874)" stroke="#35E0CD" stroke-width="0.2"/>
<path d="M513.328 826.371L513.463 826.47L513.486 826.304L600.636 203.442L600.662 203.258L600.494 203.338L32.3127 473.007L32.1614 473.079L32.2964 473.178L513.328 826.371ZM37.3235 473.584L597.352 207.766L511.435 821.696L37.3235 473.584Z" fill="url(#paint24_linear_139_874)" stroke="#35E0CD" stroke-width="0.2"/>
<path d="M534.875 852.782L535.015 852.885L535.034 852.712L605.581 196.706L605.599 196.534L605.441 196.603L0.663316 460.356L0.504083 460.425L0.644118 460.528L534.875 852.782ZM5.81842 461.004L602.466 200.802L532.872 847.988L5.81842 461.004Z" fill="url(#paint25_linear_139_874)" stroke="#35E0CD" stroke-width="0.2"/>
<defs>
<linearGradient id="paint0_linear_139_874" x1="416.014" y1="412.525" x2="456.294" y2="442.1" gradientUnits="userSpaceOnUse">
<stop stop-color="#35E0CD"/>
<stop offset="0.9543" stop-color="#FEE823"/>
</linearGradient>
<linearGradient id="paint1_linear_139_874" x1="413.886" y1="410.969" x2="458.416" y2="443.664" gradientUnits="userSpaceOnUse">
<stop stop-color="#35E0CD"/>
<stop offset="0.9543" stop-color="#FEE823"/>
</linearGradient>
<linearGradient id="paint2_linear_139_874" x1="415.028" y1="404.466" x2="464.278" y2="440.627" gradientUnits="userSpaceOnUse">
<stop stop-color="#35E0CD"/>
<stop offset="0.9543" stop-color="#FEE823"/>
</linearGradient>
<linearGradient id="paint3_linear_139_874" x1="412.148" y1="402.893" x2="466.642" y2="442.905" gradientUnits="userSpaceOnUse">
<stop stop-color="#35E0CD"/>
<stop offset="0.9543" stop-color="#FEE823"/>
</linearGradient>
<linearGradient id="paint4_linear_139_874" x1="408.994" y1="401.081" x2="469.315" y2="445.371" gradientUnits="userSpaceOnUse">
<stop stop-color="#35E0CD"/>
<stop offset="0.9543" stop-color="#FEE823"/>
</linearGradient>
<linearGradient id="paint5_linear_139_874" x1="405.534" y1="399.008" x2="472.329" y2="448.052" gradientUnits="userSpaceOnUse">
<stop stop-color="#35E0CD"/>
<stop offset="0.9543" stop-color="#FEE823"/>
</linearGradient>
<linearGradient id="paint6_linear_139_874" x1="401.73" y1="396.65" x2="475.718" y2="450.975" gradientUnits="userSpaceOnUse">
<stop stop-color="#35E0CD"/>
<stop offset="0.9543" stop-color="#FEE823"/>
</linearGradient>
<linearGradient id="paint7_linear_139_874" x1="397.542" y1="393.979" x2="479.521" y2="454.171" gradientUnits="userSpaceOnUse">
<stop stop-color="#35E0CD"/>
<stop offset="0.9543" stop-color="#FEE823"/>
</linearGradient>
<linearGradient id="paint8_linear_139_874" x1="392.923" y1="390.964" x2="483.781" y2="457.675" gradientUnits="userSpaceOnUse">
<stop stop-color="#35E0CD"/>
<stop offset="0.9543" stop-color="#FEE823"/>
</linearGradient>
<linearGradient id="paint9_linear_139_874" x1="387.823" y1="387.569" x2="488.547" y2="461.524" gradientUnits="userSpaceOnUse">
<stop stop-color="#35E0CD"/>
<stop offset="0.9543" stop-color="#FEE823"/>
</linearGradient>
<linearGradient id="paint10_linear_139_874" x1="382.189" y1="383.756" x2="493.872" y2="465.758" gradientUnits="userSpaceOnUse">
<stop stop-color="#35E0CD"/>
<stop offset="0.9543" stop-color="#FEE823"/>
</linearGradient>
<linearGradient id="paint11_linear_139_874" x1="375.956" y1="379.482" x2="499.817" y2="470.426" gradientUnits="userSpaceOnUse">
<stop stop-color="#35E0CD"/>
<stop offset="0.9543" stop-color="#FEE823"/>
</linearGradient>
<linearGradient id="paint12_linear_139_874" x1="369.056" y1="374.698" x2="506.447" y2="475.576" gradientUnits="userSpaceOnUse">
<stop stop-color="#35E0CD"/>
<stop offset="0.9543" stop-color="#FEE823"/>
</linearGradient>
<linearGradient id="paint13_linear_139_874" x1="361.416" y1="369.349" x2="513.838" y2="481.264" gradientUnits="userSpaceOnUse">
<stop stop-color="#35E0CD"/>
<stop offset="0.9543" stop-color="#FEE823"/>
</linearGradient>
<linearGradient id="paint14_linear_139_874" x1="352.948" y1="363.375" x2="522.073" y2="487.554" gradientUnits="userSpaceOnUse">
<stop stop-color="#35E0CD"/>
<stop offset="0.9543" stop-color="#FEE823"/>
</linearGradient>
<linearGradient id="paint15_linear_139_874" x1="343.562" y1="356.711" x2="531.243" y2="494.514" gradientUnits="userSpaceOnUse">
<stop stop-color="#35E0CD"/>
<stop offset="0.9543" stop-color="#FEE823"/>
</linearGradient>
<linearGradient id="paint16_linear_139_874" x1="333.154" y1="349.279" x2="541.452" y2="502.22" gradientUnits="userSpaceOnUse">
<stop stop-color="#35E0CD"/>
<stop offset="0.9543" stop-color="#FEE823"/>
</linearGradient>
<linearGradient id="paint17_linear_139_874" x1="321.606" y1="340.996" x2="552.812" y2="510.757" gradientUnits="userSpaceOnUse">
<stop stop-color="#35E0CD"/>
<stop offset="0.9543" stop-color="#FEE823"/>
</linearGradient>
<linearGradient id="paint18_linear_139_874" x1="308.793" y1="331.772" x2="565.45" y2="520.22" gradientUnits="userSpaceOnUse">
<stop stop-color="#35E0CD"/>
<stop offset="0.9543" stop-color="#FEE823"/>
</linearGradient>
<linearGradient id="paint19_linear_139_874" x1="294.571" y1="321.5" x2="579.508" y2="530.712" gradientUnits="userSpaceOnUse">
<stop stop-color="#35E0CD"/>
<stop offset="0.9543" stop-color="#FEE823"/>
</linearGradient>
<linearGradient id="paint20_linear_139_874" x1="278.786" y1="310.07" x2="595.141" y2="542.35" gradientUnits="userSpaceOnUse">
<stop stop-color="#35E0CD"/>
<stop offset="0.9543" stop-color="#FEE823"/>
</linearGradient>
<linearGradient id="paint21_linear_139_874" x1="261.26" y1="297.349" x2="612.526" y2="555.263" gradientUnits="userSpaceOnUse">
<stop stop-color="#35E0CD"/>
<stop offset="0.9543" stop-color="#FEE823"/>
</linearGradient>
<linearGradient id="paint22_linear_139_874" x1="241.8" y1="283.199" x2="631.854" y2="569.592" gradientUnits="userSpaceOnUse">
<stop stop-color="#35E0CD"/>
<stop offset="0.9543" stop-color="#FEE823"/>
</linearGradient>
<linearGradient id="paint23_linear_139_874" x1="220.191" y1="267.462" x2="653.34" y2="585.497" gradientUnits="userSpaceOnUse">
<stop stop-color="#35E0CD"/>
<stop offset="0.9543" stop-color="#FEE823"/>
</linearGradient>
<linearGradient id="paint24_linear_139_874" x1="196.193" y1="249.961" x2="677.224" y2="603.154" gradientUnits="userSpaceOnUse">
<stop stop-color="#35E0CD"/>
<stop offset="0.9543" stop-color="#FEE823"/>
</linearGradient>
<linearGradient id="paint25_linear_139_874" x1="169.538" y1="230.503" x2="703.771" y2="622.759" gradientUnits="userSpaceOnUse">
<stop stop-color="#35E0CD"/>
<stop offset="0.9543" stop-color="#FEE823"/>
</linearGradient>
</defs>
</svg>
