<svg width="361" height="358" viewBox="0 0 361 358" fill="none" xmlns="http://www.w3.org/2000/svg">
<path d="M206.257 296.197L8.98837 113.306L9.65913 113.096L266.41 34.2997L266.261 34.9772L206.257 296.197ZM10.5581 113.659L205.786 294.665L265.311 35.4787L10.5581 113.659Z" fill="url(#paint0_linear_158_1939)"/>
<path d="M279.211 43.0783L196.407 298.748L15.8859 99.3947L279.211 43.0783ZM196.071 297.184L278.02 44.1545L17.4137 99.8834L196.071 297.184Z" fill="url(#paint1_linear_158_1939)"/>
<path d="M291.197 52.9547L290.927 53.5901L186.372 300.45L23.9551 86.1603L291.197 52.9547ZM186.17 298.852L289.914 53.9133L25.4257 86.7701L186.17 298.852Z" fill="url(#paint2_linear_158_1939)"/>
<path d="M302.276 63.8109L176.227 301.256L175.853 300.666L33.1374 73.6489L33.8273 73.6179L302.276 63.8109ZM176.174 299.655L300.929 64.6661L34.5815 74.4091L176.174 299.655Z" fill="url(#paint3_linear_158_1939)"/>
<path d="M312.37 75.6029L166.061 301.193L43.406 62.0101L312.37 75.6029ZM166.143 299.588L310.945 76.3401L44.7625 62.8772L166.143 299.588Z" fill="url(#paint4_linear_158_1939)"/>
<path d="M321.387 88.2299L320.965 88.779L155.934 300.231L54.6421 51.2935L321.387 88.2299ZM156.152 298.653L319.9 88.8338L55.9114 52.2824L156.152 298.653Z" fill="url(#paint5_linear_158_1939)"/>
<path d="M329.281 101.587L145.922 298.397L66.7728 41.604L67.4519 41.7529L329.281 101.587ZM146.291 296.846L327.745 102.057L67.9541 42.6849L146.291 296.846Z" fill="url(#paint6_linear_158_1939)"/>
<path d="M335.958 115.586L136.115 295.705L79.6945 33.0049L335.958 115.586ZM136.62 294.181L334.389 115.922L80.7732 34.193L136.62 294.181Z" fill="url(#paint7_linear_158_1939)"/>
<path d="M341.401 130.108L126.588 292.167L93.3339 25.5567L93.9707 25.8264L341.401 130.108ZM127.215 290.7L339.814 130.31L94.3096 26.8371L127.215 290.7Z" fill="url(#paint8_linear_158_1939)"/>
<path d="M345.548 145.051L344.956 145.424L117.389 287.829L107.557 19.3389L345.548 145.051ZM118.151 286.403L343.943 145.103L108.414 20.682L118.151 286.403Z" fill="url(#paint9_linear_158_1939)"/>
<path d="M348.381 160.293L108.621 282.685L122.275 14.3523L348.381 160.293ZM109.49 281.332L346.772 160.21L123.014 15.773L109.49 281.332Z" fill="url(#paint10_linear_158_1939)"/>
<path d="M349.866 175.716L100.331 276.797L137.384 10.6747L349.866 175.716ZM101.322 275.531L348.269 175.499L137.974 12.1588L101.322 275.531Z" fill="url(#paint11_linear_158_1939)"/>
<path d="M350.002 191.231L349.332 191.441L92.5809 270.237L152.733 8.32484L153.24 8.79235L350.002 191.231ZM93.6791 269.043L348.432 190.863L153.204 9.85666L93.6791 269.043Z" fill="url(#paint12_linear_158_1939)"/>
<path d="M348.771 206.688L85.4308 263.005L168.235 7.33446L348.771 206.688ZM86.6369 261.928L347.243 206.184L168.586 8.88406L86.6369 261.928Z" fill="url(#paint13_linear_158_1939)"/>
<path d="M346.199 221.966L78.9572 255.172L183.782 7.67608L346.199 221.966ZM80.2411 254.213L344.729 221.341L183.984 9.25911L80.2411 254.213Z" fill="url(#paint14_linear_158_1939)"/>
<path d="M342.316 236.976L341.626 237.007L73.1927 246.828L199.227 9.38341L342.316 236.976ZM74.539 245.973L340.887 236.23L199.279 10.9699L74.539 245.973Z" fill="url(#paint15_linear_158_1939)"/>
<path d="M337.116 251.596L68.1524 238.003L214.461 12.4133L337.116 251.596ZM69.5915 237.266L335.775 250.729L214.394 14.0177L69.5915 237.266Z" fill="url(#paint16_linear_158_1939)"/>
<path d="M330.674 265.707L63.9285 228.77L229.382 16.7688L330.674 265.707ZM65.4158 228.166L329.404 264.718L229.163 18.3467L65.4158 228.166Z" fill="url(#paint17_linear_158_1939)"/>
<path d="M323.015 279.186L322.336 279.037L60.5076 219.203L243.866 22.3927L323.015 279.186ZM62.0431 218.733L321.849 278.105L243.498 23.959L62.0431 218.733Z" fill="url(#paint18_linear_158_1939)"/>
<path d="M314.215 291.974L57.9516 209.392L257.794 29.2582L314.215 291.974ZM59.5203 209.056L313.136 290.785L257.304 30.7824L59.5203 209.056Z" fill="url(#paint19_linear_158_1939)"/>
<path d="M304.329 303.932L303.692 303.662L56.2617 199.381L271.074 37.3065L304.329 303.932ZM57.8485 199.179L303.353 302.652L270.448 38.789L57.8485 199.179Z" fill="url(#paint20_linear_158_1939)"/>
<path d="M293.431 314.986L55.4404 189.259L56.0322 188.886L283.6 46.4961L283.631 47.1844L293.431 314.986ZM57.0457 189.207L292.574 313.628L282.837 47.9069L57.0457 189.207Z" fill="url(#paint21_linear_158_1939)"/>
<path d="M281.61 325.058L55.5194 179.117L295.264 56.7244L281.61 325.058ZM57.1128 179.199L280.886 323.621L294.394 58.0628L57.1128 179.199Z" fill="url(#paint22_linear_158_1939)"/>
<path d="M268.952 334.055L268.402 333.633L56.4699 169.014L306.005 67.9326L268.952 334.055ZM58.0665 169.231L268.362 332.571L305.014 69.199L58.0665 169.231Z" fill="url(#paint23_linear_158_1939)"/>
<path d="M255.563 341.917L58.3091 159.025L58.9798 158.815L315.716 80.0339L315.567 80.7115L255.563 341.917ZM59.8788 159.378L255.092 340.385L314.632 81.1976L59.8788 159.378Z" fill="url(#paint24_linear_158_1939)"/>
<path d="M324.349 92.924L241.545 348.594L61.0238 149.24L324.349 92.924ZM241.208 347.029L323.158 94.0003L62.5516 149.729L241.208 347.029Z" fill="url(#paint25_linear_158_1939)"/>
<g opacity="0.3">
<path d="M298.573 155.866L110.135 347.843L109.944 347.167L38.4952 88.2752L39.1682 88.4438L298.573 155.866ZM110.532 346.284L297.028 156.293L39.6424 89.4069L110.532 346.284Z" fill="url(#paint26_linear_158_1939)"/>
<path d="M47.6351 75.7289L300.842 165.784L96.4259 340.552L47.6351 75.7289ZM299.268 166.076L48.677 76.9502L96.9579 339.039L299.268 166.076Z" fill="url(#paint27_linear_158_1939)"/>
<path d="M57.849 64.0292L58.4764 64.3176L302.257 175.863L83.4267 332.109L57.849 64.0292ZM300.654 176.02L58.7706 65.3398L84.0782 330.656L300.654 176.02Z" fill="url(#paint28_linear_158_1939)"/>
<path d="M69.016 53.2648L302.773 186.028L302.173 186.385L71.1816 322.574L71.1702 321.884L69.016 53.2648ZM301.171 186.035L69.8325 54.635L71.9826 321.152L301.171 186.035Z" fill="url(#paint29_linear_158_1939)"/>
<path d="M81.0915 43.5109L302.421 196.188L59.8407 311.978L81.0915 43.5109ZM300.82 196.06L81.7878 44.9555L60.7461 310.647L300.82 196.06Z" fill="url(#paint30_linear_158_1939)"/>
<path d="M93.97 34.8567L94.5068 35.2948L301.171 206.283L49.4482 300.441L93.97 34.8567ZM299.6 206.02L94.5312 36.3607L50.4729 299.201L299.6 206.02Z" fill="url(#paint31_linear_158_1939)"/>
<path d="M107.546 27.3472L299.053 216.239L40.1084 288.039L40.2766 287.365L107.546 27.3472ZM297.512 215.826L107.972 28.8955L41.2225 286.889L297.512 215.826Z" fill="url(#paint32_linear_158_1939)"/>
<path d="M121.73 21.0716L296.082 225.966L31.8807 274.878L121.73 21.0716ZM294.573 225.417L122.022 22.6492L33.0991 273.833L294.573 225.417Z" fill="url(#paint33_linear_158_1939)"/>
<path d="M136.402 16.0443L292.274 235.387L24.8245 261.032L25.1123 260.403L136.402 16.0443ZM290.825 234.719L136.558 17.6362L26.1322 260.093L290.825 234.719Z" fill="url(#paint34_linear_158_1939)"/>
<path d="M151.456 12.3248L151.812 12.927L287.675 244.459L19.0139 246.637L151.456 12.3248ZM286.271 243.657L151.462 13.9309L20.3809 245.818L286.271 243.657Z" fill="url(#paint35_linear_158_1939)"/>
<path d="M166.773 9.92734L282.284 253.077L14.4491 231.783L166.773 9.92734ZM280.956 252.169L166.645 11.5328L15.8903 231.085L280.956 252.169Z" fill="url(#paint36_linear_158_1939)"/>
<path d="M182.232 8.88217L276.162 261.196L11.2035 216.576L182.232 8.88217ZM274.925 260.169L181.969 10.4719L12.7038 216.028L274.925 260.169Z" fill="url(#paint37_linear_158_1939)"/>
<path d="M197.745 9.18766L197.936 9.86411L269.384 268.756L9.29202 201.165L9.77377 200.672L197.745 9.18766ZM268.222 267.624L197.332 10.7466L10.8366 200.738L268.222 267.624Z" fill="url(#paint38_linear_158_1939)"/>
<path d="M213.16 10.8587L261.95 275.697L8.74336 185.642L213.16 10.8587ZM260.909 274.461L212.613 12.3718L10.3023 185.335L260.909 274.461Z" fill="url(#paint39_linear_158_1939)"/>
<path d="M228.359 13.8646L253.936 281.944L9.52784 170.11L228.359 13.8646ZM253.015 280.634L227.692 15.3171L11.116 169.953L253.015 280.634Z" fill="url(#paint40_linear_158_1939)"/>
<path d="M243.251 18.175L243.263 18.8655L245.432 287.469L11.6744 154.721L243.251 18.175ZM244.615 286.099L242.465 19.5819L13.2618 154.714L244.615 286.099Z" fill="url(#paint41_linear_158_1939)"/>
<path d="M257.718 23.7888L236.467 292.256L15.1375 139.579L257.718 23.7888ZM235.771 290.796L256.813 25.105L16.7393 139.692L235.771 290.796Z" fill="url(#paint42_linear_158_1939)"/>
<path d="M271.639 30.6309L227.117 296.215L19.9162 124.789L271.639 30.6309ZM226.556 294.711L270.614 31.8714L21.4872 125.052L226.556 294.711Z" fill="url(#paint43_linear_158_1939)"/>
<path d="M284.895 38.6699L284.727 39.3445L217.457 299.362L25.9505 110.47L284.895 38.6699ZM217.031 297.814L283.781 39.8049L27.5057 110.883L217.031 297.814Z" fill="url(#paint44_linear_158_1939)"/>
<path d="M297.426 47.8313L207.577 301.637L33.2096 96.7435L297.426 47.8313ZM207.285 300.06L296.208 48.8757L34.7194 97.2767L207.285 300.06Z" fill="url(#paint45_linear_158_1939)"/>
<path d="M309.099 58.0537L308.811 58.6826L197.521 303.041L41.6337 83.6982L309.099 58.0537ZM197.365 301.449L307.791 58.9926L43.0978 84.3663L197.365 301.449Z" fill="url(#paint46_linear_158_1939)"/>
<path d="M319.837 69.2622L187.381 303.574L187.024 302.972L51.1766 71.4396L51.8655 71.4281L319.837 69.2622ZM187.374 301.968L318.455 70.0806L52.5651 72.2423L187.374 301.968Z" fill="url(#paint47_linear_158_1939)"/>
<path d="M329.568 81.3659L177.245 303.206L61.7329 60.0716L329.568 81.3659ZM177.373 301.616L328.112 82.0488L63.046 60.979L177.373 301.616Z" fill="url(#paint48_linear_158_1939)"/>
<path d="M338.201 94.2745L337.764 94.8126L167.173 301.968L73.2426 49.6542L338.201 94.2745ZM167.436 300.378L336.701 94.8221L74.4802 50.6814L167.436 300.378Z" fill="url(#paint49_linear_158_1939)"/>
<path d="M345.678 107.883L157.241 299.845L157.049 299.169L85.6157 40.2921L86.2887 40.4607L345.678 107.883ZM157.638 298.286L344.133 108.31L86.7479 41.4087L157.638 298.286Z" fill="url(#paint50_linear_158_1939)"/>
<path d="M98.7465 32.0295L351.954 122.085L147.537 296.853L98.7465 32.0295ZM350.38 122.377L99.7884 33.2507L148.069 295.339L350.38 122.377Z" fill="url(#paint51_linear_158_1939)"/>
</g>
<defs>
<linearGradient id="paint0_linear_158_1939" x1="269.442" y1="164.479" x2="10.3276" y2="170.518" gradientUnits="userSpaceOnUse">
<stop stop-color="#35E0CD"/>
<stop offset="0.9994" stop-color="#FEE823"/>
</linearGradient>
<linearGradient id="paint1_linear_158_1939" x1="282.168" y1="169.887" x2="17.6659" y2="176.052" gradientUnits="userSpaceOnUse">
<stop stop-color="#35E0CD"/>
<stop offset="0.9994" stop-color="#FEE823"/>
</linearGradient>
<linearGradient id="paint2_linear_158_1939" x1="294.056" y1="175.41" x2="26.1788" y2="181.654" gradientUnits="userSpaceOnUse">
<stop stop-color="#35E0CD"/>
<stop offset="0.9994" stop-color="#FEE823"/>
</linearGradient>
<linearGradient id="paint3_linear_158_1939" x1="305.014" y1="181.007" x2="35.8008" y2="187.282" gradientUnits="userSpaceOnUse">
<stop stop-color="#35E0CD"/>
<stop offset="0.9994" stop-color="#FEE823"/>
</linearGradient>
<linearGradient id="paint4_linear_158_1939" x1="314.728" y1="176.706" x2="46.2284" y2="182.964" gradientUnits="userSpaceOnUse">
<stop stop-color="#35E0CD"/>
<stop offset="0.9994" stop-color="#FEE823"/>
</linearGradient>
<linearGradient id="paint5_linear_158_1939" x1="323.315" y1="170.685" x2="57.5711" y2="176.879" gradientUnits="userSpaceOnUse">
<stop stop-color="#35E0CD"/>
<stop offset="0.9994" stop-color="#FEE823"/>
</linearGradient>
<linearGradient id="paint6_linear_158_1939" x1="330.75" y1="164.773" x2="69.7848" y2="170.856" gradientUnits="userSpaceOnUse">
<stop stop-color="#35E0CD"/>
<stop offset="0.9994" stop-color="#FEE823"/>
</linearGradient>
<linearGradient id="paint7_linear_158_1939" x1="336.976" y1="159.015" x2="82.7758" y2="164.94" gradientUnits="userSpaceOnUse">
<stop stop-color="#35E0CD"/>
<stop offset="0.9994" stop-color="#FEE823"/>
</linearGradient>
<linearGradient id="paint8_linear_158_1939" x1="341.947" y1="153.454" x2="96.446" y2="159.177" gradientUnits="userSpaceOnUse">
<stop stop-color="#35E0CD"/>
<stop offset="0.9994" stop-color="#FEE823"/>
</linearGradient>
<linearGradient id="paint9_linear_158_1939" x1="345.624" y1="148.135" x2="110.691" y2="153.611" gradientUnits="userSpaceOnUse">
<stop stop-color="#35E0CD"/>
<stop offset="0.9994" stop-color="#FEE823"/>
</linearGradient>
<linearGradient id="paint10_linear_158_1939" x1="347.979" y1="143.095" x2="105.501" y2="148.747" gradientUnits="userSpaceOnUse">
<stop stop-color="#35E0CD"/>
<stop offset="0.9994" stop-color="#FEE823"/>
</linearGradient>
<linearGradient id="paint11_linear_158_1939" x1="348.996" y1="138.374" x2="97.241" y2="144.242" gradientUnits="userSpaceOnUse">
<stop stop-color="#35E0CD"/>
<stop offset="0.9994" stop-color="#FEE823"/>
</linearGradient>
<linearGradient id="paint12_linear_158_1939" x1="348.664" y1="134.008" x2="89.55" y2="140.048" gradientUnits="userSpaceOnUse">
<stop stop-color="#35E0CD"/>
<stop offset="0.9994" stop-color="#FEE823"/>
</linearGradient>
<linearGradient id="paint13_linear_158_1939" x1="346.988" y1="130.03" x2="82.4864" y2="136.196" gradientUnits="userSpaceOnUse">
<stop stop-color="#35E0CD"/>
<stop offset="0.9994" stop-color="#FEE823"/>
</linearGradient>
<linearGradient id="paint14_linear_158_1939" x1="343.98" y1="126.471" x2="76.1037" y2="132.715" gradientUnits="userSpaceOnUse">
<stop stop-color="#35E0CD"/>
<stop offset="0.9994" stop-color="#FEE823"/>
</linearGradient>
<linearGradient id="paint15_linear_158_1939" x1="339.664" y1="123.357" x2="70.451" y2="129.632" gradientUnits="userSpaceOnUse">
<stop stop-color="#35E0CD"/>
<stop offset="0.9994" stop-color="#FEE823"/>
</linearGradient>
<linearGradient id="paint16_linear_158_1939" x1="334.302" y1="130.639" x2="65.8021" y2="136.898" gradientUnits="userSpaceOnUse">
<stop stop-color="#35E0CD"/>
<stop offset="0.9994" stop-color="#FEE823"/>
</linearGradient>
<linearGradient id="paint17_linear_158_1939" x1="327.746" y1="140.119" x2="62.0028" y2="146.313" gradientUnits="userSpaceOnUse">
<stop stop-color="#35E0CD"/>
<stop offset="0.9994" stop-color="#FEE823"/>
</linearGradient>
<linearGradient id="paint18_linear_158_1939" x1="320.006" y1="149.94" x2="59.0405" y2="156.023" gradientUnits="userSpaceOnUse">
<stop stop-color="#35E0CD"/>
<stop offset="0.9994" stop-color="#FEE823"/>
</linearGradient>
<linearGradient id="paint19_linear_158_1939" x1="311.138" y1="160.028" x2="56.9377" y2="165.953" gradientUnits="userSpaceOnUse">
<stop stop-color="#35E0CD"/>
<stop offset="0.9994" stop-color="#FEE823"/>
</linearGradient>
<linearGradient id="paint20_linear_158_1939" x1="301.211" y1="170.307" x2="55.7101" y2="176.029" gradientUnits="userSpaceOnUse">
<stop stop-color="#35E0CD"/>
<stop offset="0.9994" stop-color="#FEE823"/>
</linearGradient>
<linearGradient id="paint21_linear_158_1939" x1="290.301" y1="180.696" x2="55.3678" y2="186.172" gradientUnits="userSpaceOnUse">
<stop stop-color="#35E0CD"/>
<stop offset="0.9994" stop-color="#FEE823"/>
</linearGradient>
<linearGradient id="paint22_linear_158_1939" x1="298.392" y1="190.655" x2="55.9132" y2="196.307" gradientUnits="userSpaceOnUse">
<stop stop-color="#35E0CD"/>
<stop offset="0.9994" stop-color="#FEE823"/>
</linearGradient>
<linearGradient id="paint23_linear_158_1939" x1="309.096" y1="200.488" x2="57.3412" y2="206.355" gradientUnits="userSpaceOnUse">
<stop stop-color="#35E0CD"/>
<stop offset="0.9994" stop-color="#FEE823"/>
</linearGradient>
<linearGradient id="paint24_linear_158_1939" x1="318.757" y1="210.203" x2="59.6421" y2="216.242" gradientUnits="userSpaceOnUse">
<stop stop-color="#35E0CD"/>
<stop offset="0.9994" stop-color="#FEE823"/>
</linearGradient>
<linearGradient id="paint25_linear_158_1939" x1="327.3" y1="219.725" x2="62.7979" y2="225.89" gradientUnits="userSpaceOnUse">
<stop stop-color="#35E0CD"/>
<stop offset="0.9994" stop-color="#FEE823"/>
</linearGradient>
<linearGradient id="paint26_linear_158_1939" x1="168.708" y1="88.9534" x2="167.362" y2="348.135" gradientUnits="userSpaceOnUse">
<stop stop-color="#35E0CD"/>
<stop offset="0.9994" stop-color="#FEE823"/>
</linearGradient>
<linearGradient id="paint27_linear_158_1939" x1="174.477" y1="76.3867" x2="173.103" y2="340.957" gradientUnits="userSpaceOnUse">
<stop stop-color="#35E0CD"/>
<stop offset="0.9994" stop-color="#FEE823"/>
</linearGradient>
<linearGradient id="paint28_linear_158_1939" x1="180.336" y1="64.6613" x2="178.945" y2="332.607" gradientUnits="userSpaceOnUse">
<stop stop-color="#35E0CD"/>
<stop offset="0.9994" stop-color="#FEE823"/>
</linearGradient>
<linearGradient id="paint29_linear_158_1939" x1="186.242" y1="53.8668" x2="184.844" y2="323.149" gradientUnits="userSpaceOnUse">
<stop stop-color="#35E0CD"/>
<stop offset="0.9994" stop-color="#FEE823"/>
</linearGradient>
<linearGradient id="paint30_linear_158_1939" x1="182.221" y1="44.0338" x2="180.826" y2="312.603" gradientUnits="userSpaceOnUse">
<stop stop-color="#35E0CD"/>
<stop offset="0.9994" stop-color="#FEE823"/>
</linearGradient>
<linearGradient id="paint31_linear_158_1939" x1="176.447" y1="35.2789" x2="175.067" y2="301.092" gradientUnits="userSpaceOnUse">
<stop stop-color="#35E0CD"/>
<stop offset="0.9994" stop-color="#FEE823"/>
</linearGradient>
<linearGradient id="paint32_linear_158_1939" x1="170.749" y1="27.6788" x2="169.393" y2="288.711" gradientUnits="userSpaceOnUse">
<stop stop-color="#35E0CD"/>
<stop offset="0.9994" stop-color="#FEE823"/>
</linearGradient>
<linearGradient id="paint33_linear_158_1939" x1="165.171" y1="21.2911" x2="163.85" y2="275.557" gradientUnits="userSpaceOnUse">
<stop stop-color="#35E0CD"/>
<stop offset="0.9994" stop-color="#FEE823"/>
</linearGradient>
<linearGradient id="paint34_linear_158_1939" x1="159.754" y1="16.1639" x2="158.479" y2="261.728" gradientUnits="userSpaceOnUse">
<stop stop-color="#35E0CD"/>
<stop offset="0.9994" stop-color="#FEE823"/>
</linearGradient>
<linearGradient id="paint35_linear_158_1939" x1="154.541" y1="12.3366" x2="153.32" y2="247.33" gradientUnits="userSpaceOnUse">
<stop stop-color="#35E0CD"/>
<stop offset="0.9994" stop-color="#FEE823"/>
</linearGradient>
<linearGradient id="paint36_linear_158_1939" x1="149.571" y1="9.83832" x2="148.311" y2="252.379" gradientUnits="userSpaceOnUse">
<stop stop-color="#35E0CD"/>
<stop offset="0.9994" stop-color="#FEE823"/>
</linearGradient>
<linearGradient id="paint37_linear_158_1939" x1="144.88" y1="8.68822" x2="143.573" y2="260.508" gradientUnits="userSpaceOnUse">
<stop stop-color="#35E0CD"/>
<stop offset="0.9994" stop-color="#FEE823"/>
</linearGradient>
<linearGradient id="paint38_linear_158_1939" x1="140.507" y1="8.8948" x2="139.161" y2="268.076" gradientUnits="userSpaceOnUse">
<stop stop-color="#35E0CD"/>
<stop offset="0.9994" stop-color="#FEE823"/>
</linearGradient>
<linearGradient id="paint39_linear_158_1939" x1="136.483" y1="10.4566" x2="135.109" y2="275.027" gradientUnits="userSpaceOnUse">
<stop stop-color="#35E0CD"/>
<stop offset="0.9994" stop-color="#FEE823"/>
</linearGradient>
<linearGradient id="paint40_linear_158_1939" x1="132.839" y1="13.362" x2="131.448" y2="281.308" gradientUnits="userSpaceOnUse">
<stop stop-color="#35E0CD"/>
<stop offset="0.9994" stop-color="#FEE823"/>
</linearGradient>
<linearGradient id="paint41_linear_158_1939" x1="129.603" y1="17.5883" x2="128.205" y2="286.871" gradientUnits="userSpaceOnUse">
<stop stop-color="#35E0CD"/>
<stop offset="0.9994" stop-color="#FEE823"/>
</linearGradient>
<linearGradient id="paint42_linear_158_1939" x1="136.73" y1="23.1555" x2="135.335" y2="291.724" gradientUnits="userSpaceOnUse">
<stop stop-color="#35E0CD"/>
<stop offset="0.9994" stop-color="#FEE823"/>
</linearGradient>
<linearGradient id="paint43_linear_158_1939" x1="146.019" y1="29.9786" x2="144.639" y2="295.791" gradientUnits="userSpaceOnUse">
<stop stop-color="#35E0CD"/>
<stop offset="0.9994" stop-color="#FEE823"/>
</linearGradient>
<linearGradient id="paint44_linear_158_1939" x1="155.616" y1="37.9959" x2="154.26" y2="299.028" gradientUnits="userSpaceOnUse">
<stop stop-color="#35E0CD"/>
<stop offset="0.9994" stop-color="#FEE823"/>
</linearGradient>
<linearGradient id="paint45_linear_158_1939" x1="165.447" y1="47.1472" x2="164.126" y2="301.413" gradientUnits="userSpaceOnUse">
<stop stop-color="#35E0CD"/>
<stop offset="0.9994" stop-color="#FEE823"/>
</linearGradient>
<linearGradient id="paint46_linear_158_1939" x1="175.439" y1="57.363" x2="174.163" y2="302.927" gradientUnits="userSpaceOnUse">
<stop stop-color="#35E0CD"/>
<stop offset="0.9994" stop-color="#FEE823"/>
</linearGradient>
<linearGradient id="paint47_linear_158_1939" x1="185.513" y1="68.5647" x2="184.293" y2="303.559" gradientUnits="userSpaceOnUse">
<stop stop-color="#35E0CD"/>
<stop offset="0.9994" stop-color="#FEE823"/>
</linearGradient>
<linearGradient id="paint48_linear_158_1939" x1="195.699" y1="60.7612" x2="194.439" y2="303.302" gradientUnits="userSpaceOnUse">
<stop stop-color="#35E0CD"/>
<stop offset="0.9994" stop-color="#FEE823"/>
</linearGradient>
<linearGradient id="paint49_linear_158_1939" x1="205.832" y1="50.3417" x2="204.524" y2="302.161" gradientUnits="userSpaceOnUse">
<stop stop-color="#35E0CD"/>
<stop offset="0.9994" stop-color="#FEE823"/>
</linearGradient>
<linearGradient id="paint50_linear_158_1939" x1="215.818" y1="40.9616" x2="214.472" y2="300.143" gradientUnits="userSpaceOnUse">
<stop stop-color="#35E0CD"/>
<stop offset="0.9994" stop-color="#FEE823"/>
</linearGradient>
<linearGradient id="paint51_linear_158_1939" x1="225.58" y1="32.6927" x2="224.206" y2="297.263" gradientUnits="userSpaceOnUse">
<stop stop-color="#35E0CD"/>
<stop offset="0.9994" stop-color="#FEE823"/>
</linearGradient>
</defs>
</svg>
