<svg width="463" height="962" viewBox="0 0 463 962" fill="none" xmlns="http://www.w3.org/2000/svg">
<path d="M-135.968 682.899L-176.475 161.85L-175.24 162.433L295.079 388.374L293.973 389.144L-135.968 682.899ZM-174.699 164.422L-134.622 680.092L291.957 388.609L-174.699 164.422Z" fill="url(#paint0_linear_139_711)"/>
<path d="M301.78 417.777L-153.39 673.559L-148.294 151.085L301.78 417.777ZM-151.808 670.881L298.661 417.743L-146.758 153.796L-151.808 670.881Z" fill="url(#paint1_linear_139_711)"/>
<path d="M305.87 447.672L304.647 448.222L-169.956 662.761L-119.333 142.831L305.87 447.672ZM-168.138 660.214L302.774 447.348L-118.038 145.64L-168.138 660.214Z" fill="url(#paint2_linear_139_711)"/>
<path d="M307.374 477.768L-185.499 650.539L-185.255 649.203L-89.7366 137.076L-88.711 137.941L307.374 477.768ZM-183.463 648.184L304.325 477.214L-88.6775 140.064L-183.463 648.184Z" fill="url(#paint3_linear_139_711)"/>
<path d="M306.238 507.903L-199.926 637.05L-59.7403 133.998L306.238 507.903ZM-197.693 634.868L303.234 507.079L-58.9471 137.024L-197.693 634.868Z" fill="url(#paint4_linear_139_711)"/>
<path d="M302.466 537.812L301.139 538.038L-213.112 622.329L-29.5781 133.512L302.466 537.812ZM-210.721 620.365L299.547 536.713L-29.07 136.596L-210.721 620.365Z" fill="url(#paint5_linear_139_711)"/>
<path d="M296.128 567.28L-224.986 606.516L0.507349 135.671L1.28032 136.779L296.128 567.28ZM-222.414 604.788L293.317 565.927L0.768719 138.771L-222.414 604.788Z" fill="url(#paint6_linear_139_711)"/>
<path d="M287.207 596.062L-235.435 589.747L30.2852 140.428L287.207 596.062ZM-232.704 588.236L284.525 594.474L30.2587 143.546L-232.704 588.236Z" fill="url(#paint7_linear_139_711)"/>
<path d="M275.835 623.964L-244.369 572.141L59.5695 147.775L60.123 148.999L275.835 623.964ZM-241.54 570.872L273.305 622.16L59.2746 150.888L-241.54 570.872Z" fill="url(#paint8_linear_139_711)"/>
<path d="M262.06 650.756L260.723 650.509L-251.781 553.823L88.0665 157.647L262.06 650.756ZM-248.813 552.793L259.7 648.715L87.5196 160.693L-248.813 552.793Z" fill="url(#paint9_linear_139_711)"/>
<path d="M246.013 676.246L-257.516 534.926L115.646 169.928L246.013 676.246ZM-254.492 534.14L243.826 674.008L114.827 172.93L-254.492 534.14Z" fill="url(#paint10_linear_139_711)"/>
<path d="M227.804 700.218L-261.588 515.595L142.057 184.593L227.804 700.218ZM-258.504 515.094L225.812 697.803L140.943 187.489L-258.504 515.094Z" fill="url(#paint11_linear_139_711)"/>
<path d="M207.55 722.542L206.315 721.958L-264.004 496.018L167.063 201.47L167.169 202.805L207.55 722.542ZM-260.863 495.761L205.794 719.948L165.716 204.278L-260.863 495.761Z" fill="url(#paint12_linear_139_711)"/>
<path d="M185.42 742.98L-264.676 476.27L190.494 220.488L185.42 742.98ZM-261.535 476.322L183.903 740.247L188.953 223.163L-261.535 476.322Z" fill="url(#paint13_linear_139_711)"/>
<path d="M161.612 761.398L-263.591 456.557L212.235 241.468L161.612 761.398ZM-260.496 456.881L160.336 758.567L210.437 243.993L-260.496 456.881Z" fill="url(#paint14_linear_139_711)"/>
<path d="M136.285 777.702L135.26 776.837L-260.822 437.051L232.028 264.26L136.285 777.702ZM-257.774 437.604L135.229 774.754L230.011 266.594L-257.774 437.604Z" fill="url(#paint15_linear_139_711)"/>
<path d="M109.594 791.717L-256.385 417.812L249.779 288.666L109.594 791.717ZM-253.359 418.656L108.822 788.711L247.568 290.866L-253.359 418.656Z" fill="url(#paint16_linear_139_711)"/>
<path d="M81.8005 803.365L-250.244 399.066L265.335 314.548L81.8005 803.365ZM-247.325 400.164L81.2925 800.281L262.943 316.512L-247.325 400.164Z" fill="url(#paint17_linear_139_711)"/>
<path d="M53.1033 812.511L52.3303 811.403L-242.517 380.902L278.596 341.666L53.1033 812.511ZM-239.706 382.255L52.8638 809.43L276.005 343.415L-239.706 382.255Z" fill="url(#paint18_linear_139_711)"/>
<path d="M23.6877 819.163L-233.234 363.529L289.427 369.822L23.6877 819.163ZM-230.552 365.117L23.7141 816.046L286.718 371.352L-230.552 365.117Z" fill="url(#paint19_linear_139_711)"/>
<path d="M-6.18457 823.202L-6.73805 821.978L-222.45 347.013L297.773 398.814L-6.18457 823.202ZM-219.92 348.817L-5.88962 820.089L294.925 400.104L-219.92 348.817Z" fill="url(#paint20_linear_139_711)"/>
<path d="M-36.3081 824.615L-210.282 331.484L-208.945 331.731L303.539 428.439L302.676 429.463L-36.3081 824.615ZM-207.922 333.525L-35.7419 821.547L300.591 429.448L-207.922 333.525Z" fill="url(#paint21_linear_139_711)"/>
<path d="M-66.4558 823.409L-196.801 317.111L306.706 458.412L-66.4558 823.409ZM-194.636 319.33L-65.5965 820.405L303.701 459.176L-194.636 319.33Z" fill="url(#paint22_linear_139_711)"/>
<path d="M-96.3811 819.569L-96.6109 818.242L-182.129 303.944L307.264 488.567L-96.3811 819.569ZM-180.136 306.359L-95.2672 816.673L304.18 489.068L-180.136 306.359Z" fill="url(#paint23_linear_139_711)"/>
<path d="M-125.854 813.142L-166.338 292.112L-165.104 292.695L305.174 518.639L304.068 519.409L-125.854 813.142ZM-164.563 294.684L-124.507 810.335L302.093 518.871L-164.563 294.684Z" fill="url(#paint24_linear_139_711)"/>
<path d="M300.507 548.416L-154.663 804.197L-149.567 281.724L300.507 548.416ZM-153.081 801.52L297.388 548.382L-148.03 284.435L-153.081 801.52Z" fill="url(#paint25_linear_139_711)"/>
<g opacity="0.3">
<path d="M180.756 604.278L-341.236 629.922L-340.617 628.704L-101.368 165.014L-100.63 166.142L180.756 604.278ZM-338.614 628.221L177.988 602.852L-101.222 168.141L-338.614 628.221Z" fill="url(#paint26_linear_139_711)"/>
<path d="M-71.7861 159.153L170.923 621.426L-351.193 601.446L-71.7861 159.153ZM168.291 619.768L-71.9086 162.27L-348.439 599.987L168.291 619.768Z" fill="url(#paint27_linear_139_711)"/>
<path d="M-41.7874 155.916L-41.272 157.155L159.657 637.678L-358.619 572.262L-41.7874 155.916ZM157.163 635.789L-42.1994 159.002L-355.775 571.047L157.163 635.789Z" fill="url(#paint28_linear_139_711)"/>
<path d="M-11.6603 155.271L146.997 652.866L145.669 652.584L-363.529 542.513L-362.635 541.512L-11.6603 155.271ZM144.701 650.763L-12.3009 158.302L-360.511 541.539L144.701 650.763Z" fill="url(#paint29_linear_139_711)"/>
<path d="M18.4311 157.265L133.103 666.903L-365.75 512.441L18.4311 157.265ZM130.986 664.609L17.5209 160.245L-362.703 511.735L130.986 664.609Z" fill="url(#paint30_linear_139_711)"/>
<path d="M48.2193 161.887L48.4081 163.22L118.012 679.664L-365.377 482.277L48.2193 161.887ZM116.117 677.218L47.0381 164.773L-362.279 481.857L116.117 677.218Z" fill="url(#paint31_linear_139_711)"/>
<path d="M77.4947 169.062L101.867 691.082L-362.362 452.265L-361.233 451.524L77.4947 169.062ZM100.213 688.462L76.0624 171.834L-359.256 452.092L100.213 688.462Z" fill="url(#paint32_linear_139_711)"/>
<path d="M106.011 178.8L84.8074 701.05L-356.758 422.635L106.011 178.8ZM83.3753 698.277L104.348 181.436L-353.642 422.75L83.3753 698.277Z" fill="url(#paint33_linear_139_711)"/>
<path d="M133.578 190.962L66.9545 709.478L-348.58 393.572L-347.34 393.054L133.578 190.962ZM65.7666 706.615L131.703 193.441L-345.476 393.956L65.7666 706.615Z" fill="url(#paint34_linear_139_711)"/>
<path d="M159.967 205.495L159.682 206.825L48.432 716.365L-337.9 365.368L159.967 205.495ZM47.487 713.369L157.86 207.797L-334.87 366.002L47.487 713.369Z" fill="url(#paint35_linear_139_711)"/>
<path d="M184.989 222.262L29.3795 721.56L-324.838 338.15L184.989 222.262ZM28.68 718.514L182.69 224.384L-321.861 339.053L28.68 718.514Z" fill="url(#paint36_linear_139_711)"/>
<path d="M208.432 241.146L9.94034 725.079L-309.427 312.167L208.432 241.146ZM9.52772 721.982L205.962 243.069L-306.563 313.363L9.52772 721.982Z" fill="url(#paint37_linear_139_711)"/>
<path d="M230.17 262.028L229.552 263.246L-9.69797 726.936L-291.843 287.652L-290.506 287.584L230.17 262.028ZM-9.86498 723.789L227.527 263.71L-289.076 289.078L-9.86498 723.789Z" fill="url(#paint38_linear_139_711)"/>
<path d="M249.97 284.731L-29.4571 727.045L-272.166 264.772L249.97 284.731ZM-29.3147 723.907L247.195 286.17L-269.536 266.389L-29.3147 723.907Z" fill="url(#paint39_linear_139_711)"/>
<path d="M267.702 309.054L-49.1302 725.4L-250.575 243.638L267.702 309.054ZM-48.7182 722.314L264.836 310.249L-248.102 245.507L-48.7182 722.314Z" fill="url(#paint40_linear_139_711)"/>
<path d="M283.277 334.835L282.383 335.836L-68.5505 722.076L-227.228 224.502L283.277 334.835ZM-67.91 719.044L280.301 335.807L-224.953 226.584L-67.91 719.044Z" fill="url(#paint41_linear_139_711)"/>
<path d="M296.526 361.916L-87.6549 717.092L-202.327 207.453L296.526 361.916ZM-86.7248 714.091L293.499 362.601L-200.19 209.726L-86.7248 714.091Z" fill="url(#paint42_linear_139_711)"/>
<path d="M307.378 390.03L-106.219 710.42L-176.012 192.642L307.378 390.03ZM-105.037 707.533L304.28 390.45L-174.117 195.089L-105.037 707.533Z" fill="url(#paint43_linear_139_711)"/>
<path d="M315.702 418.976L314.573 419.717L-124.155 702.179L-148.527 180.159L315.702 418.976ZM-122.722 699.407L312.616 419.127L-146.852 182.799L-122.722 699.407Z" fill="url(#paint44_linear_139_711)"/>
<path d="M321.513 448.568L-141.256 692.403L-120.073 170.134L321.513 448.568ZM-139.592 689.768L318.398 448.453L-118.621 172.885L-139.592 689.768Z" fill="url(#paint45_linear_139_711)"/>
<path d="M324.7 478.544L323.46 479.062L-157.458 681.154L-90.8557 162.618L324.7 478.544ZM-155.583 678.676L321.596 478.16L-89.6465 165.501L-155.583 678.676Z" fill="url(#paint46_linear_139_711)"/>
<path d="M325.254 508.696L-172.634 668.549L-172.349 667.219L-61.0778 157.699L-60.0795 158.59L325.254 508.696ZM-170.527 666.247L322.203 508.042L-60.154 160.674L-170.527 666.247Z" fill="url(#paint47_linear_139_711)"/>
<path d="M323.19 538.797L-186.617 654.664L-31.0274 155.387L323.19 538.797ZM-184.338 652.562L320.211 537.852L-30.3493 158.413L-184.338 652.562Z" fill="url(#paint48_linear_139_711)"/>
<path d="M318.498 568.601L317.165 568.792L-199.36 639.622L-0.868568 155.688L318.498 568.601ZM-196.89 637.699L315.635 567.405L-0.455903 158.786L-196.89 637.699Z" fill="url(#paint49_linear_139_711)"/>
<path d="M311.234 597.878L-210.738 623.5L-210.12 622.283L29.1311 158.634L29.8695 159.761L311.234 597.878ZM-208.116 621.799L308.466 596.452L29.2755 161.72L-208.116 621.799Z" fill="url(#paint50_linear_139_711)"/>
<path d="M58.7634 164.148L301.472 626.42L-220.644 606.44L58.7634 164.148ZM298.841 624.763L58.6409 167.264L-217.89 604.981L298.841 624.763Z" fill="url(#paint51_linear_139_711)"/>
</g>
<defs>
<linearGradient id="paint0_linear_139_711" x1="127.826" y1="578.176" x2="-249.971" y2="245.274" gradientUnits="userSpaceOnUse">
<stop stop-color="#35E0CD"/>
<stop offset="0.9994" stop-color="#FEE823"/>
</linearGradient>
<linearGradient id="paint1_linear_139_711" x1="138.861" y1="602.669" x2="-246.791" y2="262.845" gradientUnits="userSpaceOnUse">
<stop stop-color="#35E0CD"/>
<stop offset="0.9994" stop-color="#FEE823"/>
</linearGradient>
<linearGradient id="paint2_linear_139_711" x1="148.549" y1="626.221" x2="-242.024" y2="282.061" gradientUnits="userSpaceOnUse">
<stop stop-color="#35E0CD"/>
<stop offset="0.9994" stop-color="#FEE823"/>
</linearGradient>
<linearGradient id="paint3_linear_139_711" x1="156.814" y1="648.652" x2="-235.707" y2="302.775" gradientUnits="userSpaceOnUse">
<stop stop-color="#35E0CD"/>
<stop offset="0.9994" stop-color="#FEE823"/>
</linearGradient>
<linearGradient id="paint4_linear_139_711" x1="176.347" y1="655.318" x2="-215.134" y2="310.357" gradientUnits="userSpaceOnUse">
<stop stop-color="#35E0CD"/>
<stop offset="0.9994" stop-color="#FEE823"/>
</linearGradient>
<linearGradient id="paint5_linear_139_711" x1="196.539" y1="658.042" x2="-190.924" y2="316.623" gradientUnits="userSpaceOnUse">
<stop stop-color="#35E0CD"/>
<stop offset="0.9994" stop-color="#FEE823"/>
</linearGradient>
<linearGradient id="paint6_linear_139_711" x1="214.943" y1="659.403" x2="-165.552" y2="324.123" gradientUnits="userSpaceOnUse">
<stop stop-color="#35E0CD"/>
<stop offset="0.9994" stop-color="#FEE823"/>
</linearGradient>
<linearGradient id="paint7_linear_139_711" x1="231.419" y1="659.39" x2="-139.213" y2="332.802" gradientUnits="userSpaceOnUse">
<stop stop-color="#35E0CD"/>
<stop offset="0.9994" stop-color="#FEE823"/>
</linearGradient>
<linearGradient id="paint8_linear_139_711" x1="245.843" y1="658.005" x2="-112.104" y2="342.594" gradientUnits="userSpaceOnUse">
<stop stop-color="#35E0CD"/>
<stop offset="0.9994" stop-color="#FEE823"/>
</linearGradient>
<linearGradient id="paint9_linear_139_711" x1="258.103" y1="655.259" x2="-84.4366" y2="353.424" gradientUnits="userSpaceOnUse">
<stop stop-color="#35E0CD"/>
<stop offset="0.9994" stop-color="#FEE823"/>
</linearGradient>
<linearGradient id="paint10_linear_139_711" x1="268.108" y1="651.171" x2="-85.4336" y2="339.642" gradientUnits="userSpaceOnUse">
<stop stop-color="#35E0CD"/>
<stop offset="0.9994" stop-color="#FEE823"/>
</linearGradient>
<linearGradient id="paint11_linear_139_711" x1="275.78" y1="645.772" x2="-91.2857" y2="322.325" gradientUnits="userSpaceOnUse">
<stop stop-color="#35E0CD"/>
<stop offset="0.9994" stop-color="#FEE823"/>
</linearGradient>
<linearGradient id="paint12_linear_139_711" x1="281.062" y1="639.104" x2="-96.7349" y2="306.202" gradientUnits="userSpaceOnUse">
<stop stop-color="#35E0CD"/>
<stop offset="0.9994" stop-color="#FEE823"/>
</linearGradient>
<linearGradient id="paint13_linear_139_711" x1="283.913" y1="631.217" x2="-101.739" y2="291.393" gradientUnits="userSpaceOnUse">
<stop stop-color="#35E0CD"/>
<stop offset="0.9994" stop-color="#FEE823"/>
</linearGradient>
<linearGradient id="paint14_linear_139_711" x1="284.311" y1="622.172" x2="-106.261" y2="278.012" gradientUnits="userSpaceOnUse">
<stop stop-color="#35E0CD"/>
<stop offset="0.9994" stop-color="#FEE823"/>
</linearGradient>
<linearGradient id="paint15_linear_139_711" x1="282.254" y1="612.038" x2="-110.266" y2="266.161" gradientUnits="userSpaceOnUse">
<stop stop-color="#35E0CD"/>
<stop offset="0.9994" stop-color="#FEE823"/>
</linearGradient>
<linearGradient id="paint16_linear_139_711" x1="265.002" y1="615.365" x2="-126.478" y2="270.405" gradientUnits="userSpaceOnUse">
<stop stop-color="#35E0CD"/>
<stop offset="0.9994" stop-color="#FEE823"/>
</linearGradient>
<linearGradient id="paint17_linear_139_711" x1="243.152" y1="620.255" x2="-144.311" y2="278.835" gradientUnits="userSpaceOnUse">
<stop stop-color="#35E0CD"/>
<stop offset="0.9994" stop-color="#FEE823"/>
</linearGradient>
<linearGradient id="paint18_linear_139_711" x1="219.158" y1="624.07" x2="-161.337" y2="288.79" gradientUnits="userSpaceOnUse">
<stop stop-color="#35E0CD"/>
<stop offset="0.9994" stop-color="#FEE823"/>
</linearGradient>
<linearGradient id="paint19_linear_139_711" x1="193.205" y1="626.781" x2="-177.427" y2="300.192" gradientUnits="userSpaceOnUse">
<stop stop-color="#35E0CD"/>
<stop offset="0.9994" stop-color="#FEE823"/>
</linearGradient>
<linearGradient id="paint20_linear_139_711" x1="165.489" y1="628.368" x2="-192.459" y2="312.956" gradientUnits="userSpaceOnUse">
<stop stop-color="#35E0CD"/>
<stop offset="0.9994" stop-color="#FEE823"/>
</linearGradient>
<linearGradient id="paint21_linear_139_711" x1="136.223" y1="628.817" x2="-206.317" y2="326.982" gradientUnits="userSpaceOnUse">
<stop stop-color="#35E0CD"/>
<stop offset="0.9994" stop-color="#FEE823"/>
</linearGradient>
<linearGradient id="paint22_linear_139_711" x1="134.644" y1="653.695" x2="-218.897" y2="342.166" gradientUnits="userSpaceOnUse">
<stop stop-color="#35E0CD"/>
<stop offset="0.9994" stop-color="#FEE823"/>
</linearGradient>
<linearGradient id="paint23_linear_139_711" x1="136.963" y1="681.837" x2="-230.103" y2="358.391" gradientUnits="userSpaceOnUse">
<stop stop-color="#35E0CD"/>
<stop offset="0.9994" stop-color="#FEE823"/>
</linearGradient>
<linearGradient id="paint24_linear_139_711" x1="137.947" y1="708.437" x2="-239.85" y2="375.535" gradientUnits="userSpaceOnUse">
<stop stop-color="#35E0CD"/>
<stop offset="0.9994" stop-color="#FEE823"/>
</linearGradient>
<linearGradient id="paint25_linear_139_711" x1="137.59" y1="733.289" x2="-248.062" y2="393.465" gradientUnits="userSpaceOnUse">
<stop stop-color="#35E0CD"/>
<stop offset="0.9994" stop-color="#FEE823"/>
</linearGradient>
<linearGradient id="paint26_linear_139_711" x1="83.5915" y1="337.607" x2="-259.94" y2="705.765" gradientUnits="userSpaceOnUse">
<stop stop-color="#35E0CD"/>
<stop offset="0.9994" stop-color="#FEE823"/>
</linearGradient>
<linearGradient id="paint27_linear_139_711" x1="108.389" y1="327.274" x2="-242.285" y2="703.087" gradientUnits="userSpaceOnUse">
<stop stop-color="#35E0CD"/>
<stop offset="0.9994" stop-color="#FEE823"/>
</linearGradient>
<linearGradient id="paint28_linear_139_711" x1="132.207" y1="318.262" x2="-222.942" y2="698.869" gradientUnits="userSpaceOnUse">
<stop stop-color="#35E0CD"/>
<stop offset="0.9994" stop-color="#FEE823"/>
</linearGradient>
<linearGradient id="paint29_linear_139_711" x1="154.865" y1="310.639" x2="-202.056" y2="693.145" gradientUnits="userSpaceOnUse">
<stop stop-color="#35E0CD"/>
<stop offset="0.9994" stop-color="#FEE823"/>
</linearGradient>
<linearGradient id="paint30_linear_139_711" x1="162.085" y1="291.303" x2="-193.89" y2="672.797" gradientUnits="userSpaceOnUse">
<stop stop-color="#35E0CD"/>
<stop offset="0.9994" stop-color="#FEE823"/>
</linearGradient>
<linearGradient id="paint31_linear_139_711" x1="165.383" y1="271.197" x2="-186.938" y2="648.775" gradientUnits="userSpaceOnUse">
<stop stop-color="#35E0CD"/>
<stop offset="0.9994" stop-color="#FEE823"/>
</linearGradient>
<linearGradient id="paint32_linear_139_711" x1="167.267" y1="252.839" x2="-178.718" y2="623.627" gradientUnits="userSpaceOnUse">
<stop stop-color="#35E0CD"/>
<stop offset="0.9994" stop-color="#FEE823"/>
</linearGradient>
<linearGradient id="paint33_linear_139_711" x1="167.725" y1="236.37" x2="-169.292" y2="597.545" gradientUnits="userSpaceOnUse">
<stop stop-color="#35E0CD"/>
<stop offset="0.9994" stop-color="#FEE823"/>
</linearGradient>
<linearGradient id="paint34_linear_139_711" x1="166.751" y1="221.912" x2="-158.731" y2="570.727" gradientUnits="userSpaceOnUse">
<stop stop-color="#35E0CD"/>
<stop offset="0.9994" stop-color="#FEE823"/>
</linearGradient>
<linearGradient id="paint35_linear_139_711" x1="164.355" y1="209.578" x2="-147.118" y2="543.379" gradientUnits="userSpaceOnUse">
<stop stop-color="#35E0CD"/>
<stop offset="0.9994" stop-color="#FEE823"/>
</linearGradient>
<linearGradient id="paint36_linear_139_711" x1="160.553" y1="199.462" x2="-160.922" y2="543.983" gradientUnits="userSpaceOnUse">
<stop stop-color="#35E0CD"/>
<stop offset="0.9994" stop-color="#FEE823"/>
</linearGradient>
<linearGradient id="paint37_linear_139_711" x1="155.375" y1="191.638" x2="-178.399" y2="549.339" gradientUnits="userSpaceOnUse">
<stop stop-color="#35E0CD"/>
<stop offset="0.9994" stop-color="#FEE823"/>
</linearGradient>
<linearGradient id="paint38_linear_139_711" x1="148.861" y1="186.169" x2="-194.671" y2="554.327" gradientUnits="userSpaceOnUse">
<stop stop-color="#35E0CD"/>
<stop offset="0.9994" stop-color="#FEE823"/>
</linearGradient>
<linearGradient id="paint39_linear_139_711" x1="141.058" y1="183.094" x2="-209.616" y2="558.907" gradientUnits="userSpaceOnUse">
<stop stop-color="#35E0CD"/>
<stop offset="0.9994" stop-color="#FEE823"/>
</linearGradient>
<linearGradient id="paint40_linear_139_711" x1="132.028" y1="182.438" x2="-223.12" y2="563.046" gradientUnits="userSpaceOnUse">
<stop stop-color="#35E0CD"/>
<stop offset="0.9994" stop-color="#FEE823"/>
</linearGradient>
<linearGradient id="paint41_linear_139_711" x1="121.839" y1="184.205" x2="-235.081" y2="566.712" gradientUnits="userSpaceOnUse">
<stop stop-color="#35E0CD"/>
<stop offset="0.9994" stop-color="#FEE823"/>
</linearGradient>
<linearGradient id="paint42_linear_139_711" x1="124.674" y1="201.545" x2="-231.301" y2="583.038" gradientUnits="userSpaceOnUse">
<stop stop-color="#35E0CD"/>
<stop offset="0.9994" stop-color="#FEE823"/>
</linearGradient>
<linearGradient id="paint43_linear_139_711" x1="128.939" y1="223.527" x2="-223.382" y2="601.104" gradientUnits="userSpaceOnUse">
<stop stop-color="#35E0CD"/>
<stop offset="0.9994" stop-color="#FEE823"/>
</linearGradient>
<linearGradient id="paint44_linear_139_711" x1="132.069" y1="247.619" x2="-213.916" y2="618.407" gradientUnits="userSpaceOnUse">
<stop stop-color="#35E0CD"/>
<stop offset="0.9994" stop-color="#FEE823"/>
</linearGradient>
<linearGradient id="paint45_linear_139_711" x1="134.04" y1="273.638" x2="-202.977" y2="634.815" gradientUnits="userSpaceOnUse">
<stop stop-color="#35E0CD"/>
<stop offset="0.9994" stop-color="#FEE823"/>
</linearGradient>
<linearGradient id="paint46_linear_139_711" x1="134.836" y1="301.389" x2="-190.647" y2="650.205" gradientUnits="userSpaceOnUse">
<stop stop-color="#35E0CD"/>
<stop offset="0.9994" stop-color="#FEE823"/>
</linearGradient>
<linearGradient id="paint47_linear_139_711" x1="134.451" y1="330.656" x2="-177.021" y2="664.457" gradientUnits="userSpaceOnUse">
<stop stop-color="#35E0CD"/>
<stop offset="0.9994" stop-color="#FEE823"/>
</linearGradient>
<linearGradient id="paint48_linear_139_711" x1="159.274" y1="332.943" x2="-162.202" y2="677.464" gradientUnits="userSpaceOnUse">
<stop stop-color="#35E0CD"/>
<stop offset="0.9994" stop-color="#FEE823"/>
</linearGradient>
<linearGradient id="paint49_linear_139_711" x1="187.471" y1="331.427" x2="-146.303" y2="689.128" gradientUnits="userSpaceOnUse">
<stop stop-color="#35E0CD"/>
<stop offset="0.9994" stop-color="#FEE823"/>
</linearGradient>
<linearGradient id="paint50_linear_139_711" x1="214.088" y1="331.201" x2="-129.444" y2="699.359" gradientUnits="userSpaceOnUse">
<stop stop-color="#35E0CD"/>
<stop offset="0.9994" stop-color="#FEE823"/>
</linearGradient>
<linearGradient id="paint51_linear_139_711" x1="238.92" y1="332.266" x2="-111.754" y2="708.079" gradientUnits="userSpaceOnUse">
<stop stop-color="#35E0CD"/>
<stop offset="0.9994" stop-color="#FEE823"/>
</linearGradient>
</defs>
</svg>
